<svg xmlns="http://www.w3.org/2000/svg" xmlns:xlink="http://www.w3.org/1999/xlink" viewBox="0 0 300 250"><defs><style>.cls-1{mask:url(#mask);filter:url(#luminosity-noclip-2);}.cls-15,.cls-19,.cls-2{mix-blend-mode:multiply;}.cls-2{fill:url(#linear-gradient);}.cls-3{isolation:isolate;}.cls-4{fill:url(#linear-gradient-2);}.cls-5{fill:url(#radial-gradient);}.cls-6{fill:#71ccc7;}.cls-7{fill:#41847d;}.cls-8{fill:#4c3039;}.cls-9{fill:#3a222b;}.cls-10{fill:#6cadab;}.cls-11{fill:#5bb5af;}.cls-12{fill:#fabe82;}.cls-13{fill:#563a44;}.cls-14{fill:#fff27b;}.cls-15{fill:#66493d;opacity:0.5;}.cls-16{fill:#3a232b;}.cls-17{fill:#efa26f;}.cls-18{mask:url(#mask-2);}.cls-19{opacity:0.3;fill:url(#linear-gradient-3);}.cls-20{fill:#684a56;}.cls-21{fill:#efa16c;}.cls-22{fill:#3f2b1a;}.cls-23{fill:#ffecde;}.cls-24{fill:#efa460;}.cls-25{fill:#87abc1;}.cls-26{fill:#bfdfef;}.cls-27{filter:url(#luminosity-noclip);}</style><filter id="luminosity-noclip" x="79.55" y="-8369.81" width="134.28" height="32766" filterUnits="userSpaceOnUse" color-interpolation-filters="sRGB"><feFlood flood-color="#fff" result="bg"/><feBlend in="SourceGraphic" in2="bg"/></filter><mask id="mask" x="79.55" y="-8369.81" width="134.28" height="32766" maskUnits="userSpaceOnUse"><g class="cls-27"/></mask><linearGradient id="linear-gradient" x1="147.09" y1="133.35" x2="147.55" y2="172.29" gradientUnits="userSpaceOnUse"><stop offset="0"/><stop offset="1" stop-color="#fff"/></linearGradient><linearGradient id="linear-gradient-2" x1="-30.62" y1="178.19" x2="326.31" y2="178.19" gradientUnits="userSpaceOnUse"><stop offset="0" stop-color="#43c6ac"/><stop offset="1" stop-color="#1a1956"/></linearGradient><radialGradient id="radial-gradient" cx="300.46" cy="-36.88" r="444.61" gradientUnits="userSpaceOnUse"><stop offset="0" stop-color="#f4f9f8"/><stop offset="1" stop-color="#fcf990"/></radialGradient><filter id="luminosity-noclip-2" x="79.55" y="29.58" width="134.28" height="140.91" filterUnits="userSpaceOnUse" color-interpolation-filters="sRGB"><feFlood flood-color="#fff" result="bg"/><feBlend in="SourceGraphic" in2="bg"/></filter><mask id="mask-2" x="79.55" y="29.58" width="134.28" height="140.91" maskUnits="userSpaceOnUse"><g class="cls-1"><path class="cls-2" d="M79.72,102.63c2.4,35.92,23.62,68.65,66.45,67.85,51.64-1,66.84-39.92,67.64-67.45.72-24.94-15.33-74.09-67.64-73.44C113.75,30,76.71,57.62,79.72,102.63Z"/></g></mask><linearGradient id="linear-gradient-3" x1="147.09" y1="133.35" x2="147.55" y2="172.29" gradientUnits="userSpaceOnUse"><stop offset="0" stop-color="#c04b00"/><stop offset="1" stop-color="#b73400"/></linearGradient></defs><g class="cls-3"><g id="_1" data-name="1"><rect class="cls-4" x="-30.62" y="-37.81" width="356.92" height="432"/><rect class="cls-5" width="300" height="250"/><path class="cls-6" d="M98.76,283.87s10.58-91,19.41-103.25,50.94-4.89,53-2.62c17.15,19.24,33,105.29,33,105.29C163.47,308.37,129.44,260,98.76,283.87Z"/><path class="cls-7" d="M100.49,283.87s15.05-90,23.58-102.23,41.35-3.64,43.3-1.37C184,199.51,202.19,285,202.19,285,162.85,310,130.17,260,100.49,283.87Z"/><path class="cls-8" d="M169.59,180.63s34.65,20,62.34-1.41l4.35,4.7s-21.08,27.37-66.52,12.74Z"/><path class="cls-9" d="M232,179.3c-1.81,2.21-21.7,25-62.29,13.77l0,3.59c45.44,14.63,66.52-12.74,66.52-12.74Z"/><polygon class="cls-10" points="215.5 178.33 227.56 205.9 247.63 174.35 244.44 170.57 215.5 178.33"/><path class="cls-6" d="M221.22,191.42A36.45,36.45,0,0,0,238,180a39.24,39.24,0,0,0,5.83-9.24l-28.36,7.6Z"/><path class="cls-8" d="M242.82,172.1c-1.74-3.39-.61-11.54,3.51-12.45s7.19,2.9,7.64,5.88S246.94,180.11,242.82,172.1Z"/><path class="cls-8" d="M123.73,249.92c4.21,7.68,45.8,4.31,51.39-.88s11.62-62.86-12.71-70.81c-7.7-2.51-37.23-3.57-39.32,2.24S116.82,237.3,123.73,249.92Z"/><path class="cls-8" d="M99.29,320.1c-4.72-21.5-1.05-41.43,2.62-49.29s21-25.17,20.45-36.71l51.39-1.57c0,8.91,21.5,19.4,32.51,37.23s9.44,47.72,9.44,47.72h-4.2s-11-41.43-19.4-46.67S171,262,152.25,264.51c-19.4,2.63-49.82,2.63-48.77,55.06Z"/><path class="cls-9" d="M206.26,269.76c-7.71-12.48-20.56-21.37-27.58-28.63-3-3.12-4.25-3.67-1.35-.95,7.26,6.84,18.34,15.15,25.26,26.37,11,17.83,9.44,47.72,9.44,47.72h-1.42c.57,2,.89,3.21.89,3.21h4.2S217.27,287.59,206.26,269.76Z"/><polygon class="cls-6" points="117.18 245.84 145.72 266.87 159.58 265.72 184.92 245.28 180.12 236.74 118.79 239.07 117.18 245.84"/><path class="cls-11" d="M157.17,252.34c-10,3-19.68,3.79-27.39,2.78l15.94,11.75,13.86-1.15,25.34-20.44-3.12-5.56C175.87,244.79,167.27,249.37,157.17,252.34Z"/><path class="cls-8" d="M128.75,178.81s-36.19,19.76-64.14-1.89L60,181.61s21,27.6,68.15,13.28Z"/><polygon class="cls-10" points="77.6 175.61 61.2 201.98 44.04 168.56 47.92 165.09 77.6 175.61"/><path class="cls-6" d="M47.92,165.09,44,168.56l.8,1.55a58.49,58.49,0,0,0,18.25,8.77,64.42,64.42,0,0,0,11.09,2.22l3.42-5.49Z"/><path class="cls-6" d="M174.79,178.59c0-3.77-11.88-6.59-26.54-6.31s-26.54,3.57-26.54,7.34,11.88,6.58,26.54,6.3S174.79,182.35,174.79,178.59Z"/><path class="cls-12" d="M153.8,159l-14.84.79.94,17.63c3.12,3,12.44,3.11,14.84-.79Z"/><path class="cls-13" d="M135.65,28l4.09-12.49a4.28,4.28,0,0,1,8-.37l5.92,13.66Z"/><path class="cls-13" d="M160,29.72l6.42-11.47a4.28,4.28,0,0,1,7.92,1.17L177.54,34Z"/><path class="cls-13" d="M114.51,37.58l-1.75-13a4.28,4.28,0,0,1,7-3.81l11.27,9.72Z"/><rect class="cls-14" x="122.82" y="238.65" width="3.04" height="5.94" transform="translate(-118.17 364.22) rotate(-89.59)"/><rect class="cls-14" x="131.22" y="239.89" width="5.94" height="3.04" transform="translate(-11.78 6.93) rotate(-2.84)"/><rect class="cls-14" x="141.51" y="239.38" width="5.94" height="3.04" transform="translate(-11.74 7.44) rotate(-2.84)"/><rect class="cls-14" x="151.93" y="238.88" width="5.94" height="3.04" transform="translate(-11.62 7.9) rotate(-2.82)"/><rect class="cls-14" x="162.36" y="238.67" width="5.94" height="3.04" transform="translate(-11.61 8.42) rotate(-2.82)"/><rect class="cls-14" x="173.22" y="237.88" width="5.94" height="3.04" transform="translate(-11.69 9.06) rotate(-2.85)"/><polygon class="cls-14" points="156.14 192.23 143.31 202.76 151.34 206.15 140.8 214.86 148.13 218.3 137.1 228.93 155.48 218.23 146.46 214.43 164.39 204.78 151.01 201.3 156.14 192.23"/><path class="cls-15" d="M180.32,185.26c-2.1-.72-4-1.45-5.51-2.12-.49-.82-1-1.59-1.49-2.31a3,3,0,0,0,1.47-2.24c0-3.21-8.65-5.73-20.28-6.23l-.26-4.93c-2.83-.14-5.76-.22-8.76-.22q-3.12,0-6.13.11l.29,5.5a59,59,0,0,0-12.22,2.46c-4.09,1.08-7.42,2.77-9.26,5.34a16.16,16.16,0,0,0-1.63,3.08c-1.81.56-3.78,1.09-5.87,1.56C131.63,202,169.43,199.51,180.32,185.26Z"/><path class="cls-8" d="M92.13,167.68c-8.57-18.41-36.8-96.47,14.21-124.48h88.53s54.67,61.24.82,124.48Z"/><path class="cls-16" d="M96.88,167.68C89,149.27,63.21,71.21,109.88,43.2h81s50,61.24.74,124.48Z"/><path class="cls-12" d="M79.72,102.63c2.4,35.92,23.62,68.65,66.45,67.85,51.64-1,66.84-39.92,67.64-67.45.72-24.94-15.33-74.09-67.64-73.44C113.75,30,76.71,57.62,79.72,102.63Z"/><polygon class="cls-17" points="211.13 125.21 83.29 125.21 88.79 136.81 205.4 136.81 211.13 125.21"/><g class="cls-18"><path class="cls-19" d="M79.72,102.63c2.4,35.92,23.62,68.65,66.45,67.85,51.64-1,66.84-39.92,67.64-67.45.72-24.94-15.33-74.09-67.64-73.44C113.75,30,76.71,57.62,79.72,102.63Z"/></g><path class="cls-8" d="M82.12,133.94H211.81c3.66-9.72,7.5-19.75,7.75-28.68.79-27.15-16.65-80.66-73.44-80-35.2.44-75.4,30.53-72.13,79.52C74.66,115,78.65,124.85,82.12,133.94Z"/><path class="cls-13" d="M76.29,117.31c17.85-33.23,53.77-55.94,95.21-55.94a110.28,110.28,0,0,1,40.68,7.73c-9.71-22.71-29.9-44.25-66.06-43.8-35.2.44-75.4,30.53-72.13,79.52A61.44,61.44,0,0,0,76.29,117.31Z"/><path class="cls-20" d="M79.27,107.45C78.52,59.61,114.71,30.74,148.2,28h-.14C115,26.79,76,53.19,76.85,99.26a57,57,0,0,0,1.6,11.81c.3-.5.62-1,.92-1.48C79.33,108.87,79.28,108.16,79.27,107.45Z"/><path class="cls-12" d="M77.32,112c-6-4.4-13.21,7.21-9.2,12s13.6,8.41,13.6,8.41Z"/><path class="cls-12" d="M216.42,112c5.67-4.4,12.49,7.21,8.7,12s-12.87,8.41-12.87,8.41Z"/><path class="cls-21" d="M217.13,114.49c4.24-3.29,9.34,5.39,6.51,9s-9.63,6.29-9.63,6.29Z"/><path class="cls-12" d="M215.7,118c2.5-1.94,5.49,3.16,3.83,5.27s-5.66,3.7-5.66,3.7Z"/><path class="cls-21" d="M76.09,115.3c-4.08-2.78-9.28,4-6.59,7s9.27,5.33,9.27,5.33Z"/><path class="cls-12" d="M77.4,118.11c-2.4-1.63-5.45,2.38-3.87,4.13S79,125.37,79,125.37Z"/><path class="cls-22" d="M130.26,145.21H161S148.28,172.63,130.26,145.21Z"/><polygon class="cls-23" points="133.62 146.05 138.2 153.08 153.17 153.08 158.36 146.05 133.62 146.05"/><ellipse class="cls-24" cx="146.98" cy="135.59" rx="7.1" ry="4.35"/><ellipse class="cls-12" cx="147.34" cy="134.43" rx="5.63" ry="3.45"/><path class="cls-23" d="M106.74,127.65a55.7,55.7,0,0,1,27.8-1.83s-3.37-21.08-16.19-19.55S105.52,122.76,106.74,127.65Z"/><path class="cls-23" d="M184.46,127.65a48.93,48.93,0,0,0-26-1.83s3.15-21.08,15.14-19.55S185.6,122.76,184.46,127.65Z"/><path class="cls-20" d="M171.25,96.31c-3.14,2.94,15.5,8.12,17.26,7.07S178.27,89.77,171.25,96.31Z"/><path class="cls-20" d="M125,95.37c1.12-4.15-17.46,1.26-18.4,3.07S122.47,104.63,125,95.37Z"/><ellipse class="cls-25" cx="169.89" cy="118.49" rx="4.35" ry="5.5"/><path class="cls-26" d="M172,117.11A1.52,1.52,0,1,0,170.5,119,1.72,1.72,0,0,0,172,117.11Z"/><ellipse class="cls-25" cx="121.78" cy="118.49" rx="4.35" ry="5.5"/><path class="cls-26" d="M124.41,117.11a1.52,1.52,0,1,0-1.48,1.87A1.71,1.71,0,0,0,124.41,117.11Z"/><path class="cls-12" d="M245.36,163.41c-1.09-1.88-2.77-3-3.76-2.5s-.9,2.43.19,4.32,2.77,3,3.76,2.5S246.46,165.29,245.36,163.41Z"/><path class="cls-12" d="M243.81,167.34c-.19-2-1.11-6.54-2.21-6.43-1.83.18-2.9,7.82,1.53,10.19C244.1,171.63,244,169.35,243.81,167.34Z"/><path class="cls-12" d="M247.67,158.26c-1.71-.13-3.09.52-3.09,1.45s1.39,1.79,3.1,1.92,3.09-.51,3.09-1.45S249.37,158.39,247.67,158.26Z"/><path class="cls-12" d="M247.82,160.32c-.33-1.23-1.32-2-2.23-1.79s-1.37,1.42-1.05,2.64,1.31,2,2.22,1.81A2.08,2.08,0,0,0,247.82,160.32Z"/><path class="cls-12" d="M250.64,165.82c-.32-1.23-1.31-2-2.22-1.8a2.05,2.05,0,0,0-1,2.65c.31,1.23,1.31,2,2.21,1.81A2.07,2.07,0,0,0,250.64,165.82Z"/><path class="cls-12" d="M249.65,162.39c-.32-1.23-1.31-2-2.22-1.8s-1.38,1.42-1.06,2.65,1.31,2,2.22,1.8A2.07,2.07,0,0,0,249.65,162.39Z"/><path class="cls-12" d="M250.17,160.94c-1.64-.05-3,.67-3,1.6s1.33,1.72,3,1.77,3-.67,2.95-1.61S251.8,161,250.17,160.94Z"/><path class="cls-12" d="M250.82,163.8c-1.8,0-3.27.78-3.26,1.71s1.47,1.68,3.27,1.67,3.27-.78,3.27-1.72S252.63,163.78,250.82,163.8Z"/><path class="cls-8" d="M50.33,165.62c1.31-3.68-1.38-11.47-6.06-11.55s-7.34,4.27-7.31,7.3S47.25,174.33,50.33,165.62Z"/><path class="cls-12" d="M46,157.58c.86-2.07,2.51-3.51,3.68-3.21s1.42,2.22.56,4.29-2.5,3.5-3.68,3.2S45.14,159.65,46,157.58Z"/><path class="cls-12" d="M48.4,161.14c-.14-2,.05-6.66,1.28-6.77,2-.18,4.56,7.13.14,10.34C48.84,165.41,48.55,163.15,48.4,161.14Z"/><path class="cls-12" d="M42.57,153c1.85-.46,3.47-.1,3.63.82s-1.2,2-3.05,2.5-3.46.11-3.63-.81S40.72,153.43,42.57,153Z"/><path class="cls-12" d="M42.77,155a2.26,2.26,0,0,1,2.11-2.21,2,2,0,0,1,1.63,2.39,2.27,2.27,0,0,1-2.11,2.22A2,2,0,0,1,42.77,155Z"/><path class="cls-12" d="M40.66,161a2.25,2.25,0,0,1,2.11-2.21,2,2,0,0,1,1.62,2.39,2.27,2.27,0,0,1-2.1,2.22A2,2,0,0,1,40.66,161Z"/><path class="cls-12" d="M41.13,157.42a2.27,2.27,0,0,1,2.11-2.21,2,2,0,0,1,1.63,2.4,2.27,2.27,0,0,1-2.1,2.21A2,2,0,0,1,41.13,157.42Z"/><path class="cls-12" d="M40.31,156.09c1.78-.37,3.35.08,3.52,1s-1.15,1.95-2.93,2.32-3.36-.07-3.52-1S38.53,156.46,40.31,156.09Z"/><path class="cls-12" d="M40.1,159c2-.35,3.72.12,3.88,1s-1.31,1.94-3.29,2.29-3.72-.13-3.88-1S38.12,159.38,40.1,159Z"/><polygon class="cls-6" points="147.33 52.87 142 63.08 147.33 73.3 152.65 63.08 147.33 52.87"/></g></g></svg>