<svg xmlns="http://www.w3.org/2000/svg" xmlns:xlink="http://www.w3.org/1999/xlink" viewBox="0 0 300 250"><defs><style>.cls-1{mask:url(#mask);filter:url(#luminosity-noclip-2);}.cls-2,.cls-25{mix-blend-mode:multiply;}.cls-2{fill:url(#linear-gradient);}.cls-3{isolation:isolate;}.cls-4{fill:url(#linear-gradient-2);}.cls-5{fill:url(#radial-gradient);}.cls-6{fill:#efa26f;}.cls-7{fill:#fabe82;}.cls-8{fill:#fff8cc;}.cls-9{fill:#eae0ad;}.cls-10{fill:#8097aa;}.cls-11{fill:#607889;}.cls-12{fill:#b5a871;}.cls-13{fill:#f4d589;}.cls-14,.cls-15{fill:#e5c47a;}.cls-15{opacity:0.5;}.cls-16{fill:#c1a868;}.cls-17{fill:#685730;}.cls-18{fill:#3f3131;}.cls-19{fill:#3d4944;}.cls-20{fill:#839e95;}.cls-21{fill:#ffb95c;}.cls-22{fill:#ea9f44;}.cls-23{fill:#ce7d25;}.cls-24{mask:url(#mask-2);}.cls-25{opacity:0.3;fill:url(#linear-gradient-3);}.cls-26{fill:#f49c60;}.cls-27{fill:#6c877d;}.cls-28{fill:#b4ccc3;}.cls-29{fill:#5e4949;}.cls-30{fill:#77644d;}.cls-31{fill:#3f2b1a;}.cls-32{fill:#ffecde;}.cls-33{fill:#87abc1;}.cls-34{fill:#c4e3f2;}.cls-35{fill:#efa460;}.cls-36{fill:#efa16c;}.cls-37{fill:#dff4eb;}.cls-38{fill:#5b4a38;}.cls-39{filter:url(#luminosity-noclip);}</style><filter id="luminosity-noclip" x="83.47" y="-8369.81" width="120.24" height="32766" filterUnits="userSpaceOnUse" color-interpolation-filters="sRGB"><feFlood flood-color="#fff" result="bg"/><feBlend in="SourceGraphic" in2="bg"/></filter><mask id="mask" x="83.47" y="-8369.81" width="120.24" height="32766" maskUnits="userSpaceOnUse"><g class="cls-39"/></mask><linearGradient id="linear-gradient" x1="151.15" y1="188.3" x2="157.17" y2="212.38" gradientTransform="translate(7.44 -59.72) rotate(2.52)" gradientUnits="userSpaceOnUse"><stop offset="0"/><stop offset="1" stop-color="#fff"/></linearGradient><linearGradient id="linear-gradient-2" x1="-30.62" y1="178.19" x2="326.31" y2="178.19" gradientUnits="userSpaceOnUse"><stop offset="0" stop-color="#43c6ac"/><stop offset="1" stop-color="#1a1956"/></linearGradient><radialGradient id="radial-gradient" cx="300.46" cy="-36.88" r="444.61" gradientUnits="userSpaceOnUse"><stop offset="0" stop-color="#f4f9f8"/><stop offset="1" stop-color="#fcf990"/></radialGradient><filter id="luminosity-noclip-2" x="83.47" y="33.8" width="120.24" height="125.13" filterUnits="userSpaceOnUse" color-interpolation-filters="sRGB"><feFlood flood-color="#fff" result="bg"/><feBlend in="SourceGraphic" in2="bg"/></filter><mask id="mask-2" x="83.47" y="33.8" width="120.24" height="125.13" maskUnits="userSpaceOnUse"><g class="cls-1"><path class="cls-2" d="M188.12,135.52c29.73-38.41,9.3-84.82.95-89.86C176.55,38.1,146,21.55,121,49.12,19.69,160.76,151.58,182.74,188.12,135.52Z"/></g></mask><linearGradient id="linear-gradient-3" x1="151.15" y1="188.3" x2="157.17" y2="212.38" gradientTransform="translate(7.44 -59.72) rotate(2.52)" gradientUnits="userSpaceOnUse"><stop offset="0" stop-color="#c04b00"/><stop offset="1" stop-color="#b73400"/></linearGradient></defs><g class="cls-3"><g id="_1" data-name="1"><rect class="cls-4" x="-30.62" y="-37.81" width="356.92" height="432"/><rect class="cls-5" width="300" height="250"/><rect class="cls-6" x="132.66" y="150.25" width="12.04" height="16.62" transform="translate(-20.29 20.35) rotate(-7.82)"/><path class="cls-7" d="M115.89,242.42c0,7.65.85,50.2,3.64,77.24l2.65-.51s-.19-48.86,3.67-72.27Z"/><path class="cls-6" d="M122.49,294.62c.4-15.66,1.31-35.3,3.36-47.74l-10-4.46c0,5.63.45,30.18,1.81,53.52A23.33,23.33,0,0,1,122.49,294.62Z"/><path class="cls-7" d="M160.31,245.55c1.86,7.63,16.94,56.6,21.85,73.43l2.82.32s-8.36-47.95-14.1-74.85Z"/><path class="cls-6" d="M180.22,292.71c-2.83-15.49-6.42-34.59-9.34-48.26l-10.57,1.1c1.23,5.06,8.27,28.26,14.31,48.24A28.91,28.91,0,0,1,180.22,292.71Z"/><path class="cls-7" d="M103.15,173.74c-6.36,3.95-40.7,18.77-15.59,46.42l2.75-3.95s-21.63-18.27,14.08-35.06Z"/><path class="cls-6" d="M94,187.13a63.15,63.15,0,0,1,10.36-6l-1.24-7.41c-2,1.23-6.62,3.49-11.36,6.86A36.17,36.17,0,0,1,94,187.13Z"/><path class="cls-8" d="M100.22,236.19s8.56-12.64,7.94-14.44-21-17.66-21-17.66l1.12,5.49-2.89,1.14c1.4,1.89-1.94,2.53-1.94,2.53,1.71,2.78-2.57,7.68-4.75,7C81.7,224.29,94.18,238.44,100.22,236.19Z"/><path class="cls-9" d="M100.89,223.77a8.56,8.56,0,0,0,7.16-1.11,1.79,1.79,0,0,0,.11-.91c-.63-1.8-21-17.66-21-17.66l1.12,5.49-2.47,1C90.59,215.31,98.51,222.88,100.89,223.77Z"/><path class="cls-9" d="M104,213.47c-1.44.44-2.12,1.29-1.12,4.42s3,5.31,4.41,4.86,1.79-3.34.79-6.47S105.47,213,104,213.47Z"/><polygon class="cls-10" points="84.5 227.01 91.9 216.51 95.79 210.7 93.31 208.68 89.97 214.56 82.22 224.55 84.5 227.01"/><polygon class="cls-11" points="91.9 216.51 95.79 210.7 93.31 208.68 89.97 214.56 91.9 216.51"/><polygon class="cls-10" points="98.07 230.81 99.69 227.97 92.45 221.91 89.88 225.18 90.95 229.66 92.57 227.83 98.07 230.81"/><path class="cls-12" d="M102.56,218.68s.46-.52,0-2.31l2.54,2.48Z"/><path class="cls-13" d="M104.87,280.34c-5.46-27.76-9.86-76.13-3.44-117.77,21.46,3.74,40.55,4.34,63.18,0,0,0,12.17,5.89,17.78,5.47-2.45,80,3.16,92.5,6.9,108.94l-14.19-8.42-4.79,9.68-12.4-9.68-5.63,9.26L143.7,269l-4.77,9.26-9.11-6.73-6.9,8.83-9-8.41Z"/><path class="cls-14" d="M164.38,249.43c-8.84-4.14-37.85-7.18-36.19-18.51s31.77-24,31.77-24Z"/><path class="cls-14" d="M145.59,166.82c-5.82,7.84-7.19,54.17-18,50.29s-23.54-52.21-23.54-52.21Z"/><path class="cls-15" d="M100.65,232.34c10.13,8,31.1,9.44,28.92,20.68s-24.45,20.63-24.45,20.63C101.19,255.7,100,245.81,100.65,232.34Z"/><path class="cls-16" d="M164.61,162.57s12.18,5.91,17.79,5.48c-.71,26.86-1.45,78.07,7.2,109.3l-14.2-8.43-4.77,9.7C161.83,235.4,159.66,207.33,164.61,162.57Z"/><path class="cls-17" d="M180.66,185.13c0-5.77-1.3-10.46-2.92-10.46s-2.92,4.69-2.92,10.46,1.31,10.46,2.92,10.46S180.66,190.91,180.66,185.13Z"/><path class="cls-7" d="M177.79,174.6c7.09,4.82,48.9,25.47,20.19,45.42l-2.68-3.48s25-12.49-18.65-36.35C175.77,176.94,176,175.65,177.79,174.6Z"/><path class="cls-6" d="M201.26,210.68a15.17,15.17,0,0,1-6,5.86L198,220c4.3-3,7-6,8.5-9A34,34,0,0,1,201.26,210.68Z"/><path class="cls-6" d="M192.63,184.14c-6.2-4.54-12.21-8.25-14.58-9.86-1.73.43-3.12,3.33-2.69,5.37A132.19,132.19,0,0,1,190.44,189,29.14,29.14,0,0,1,192.63,184.14Z"/><path class="cls-8" d="M176.86,230.33s12.17,9.22,14,8.69,18.75-20.08,18.75-20.08l-5.54.83-1-3c-2,1.3-2.41-2.07-2.41-2.07-2.88,1.56-7.55-3-6.79-5.12C189.73,212.47,174.93,224.18,176.86,230.33Z"/><polygon class="cls-18" points="124.48 236.22 124.34 201.06 137.46 201.14 133.15 237.42 124.48 236.22"/><path class="cls-18" d="M137.82,189.62a6.67,6.67,0,1,0-7.84,5.91A6.94,6.94,0,0,0,137.82,189.62Z"/><path class="cls-18" d="M135.76,203.32c.12-.65,0-.71-.28-.76a10.61,10.61,0,0,0-2.72.21l-8.66-1.58c-.35,8-.37,38.82.39,43.33,1.86-1.92.11-3.85,3-3.33,1.42.25-.12-1.65,1.55-1.35,2.84.53,5,3.47,6,4.54,0,0,0,0,0,0-1,5.22,1.27,9.34,2.21,9.52.36.06.64-.63.7-1C137.87,252.92,132.6,220.58,135.76,203.32Z"/><path class="cls-18" d="M141.81,187.13c.22-1.23-1.44-2.69-2.45-2.88-1.77-.32-3.42,1.68-5.1,1.37-.45-.08-.91-.25-1.38-.33a2.2,2.2,0,0,0-1.54.18l-3.24,8.15-.21,0c1.87.86.85,2.74,3.55.87a1,1,0,0,1,.79-.13c3,.56,2.81,2.69,3.21.52.23-1.3,1.41-.84,2.63-.61.3.05.55.07.67-.56.16-.87-.68-2-.49-3,.07-.4.34-.46.63-.4s.56.19.75.22.2,0,.22-.09v-.09c-.5-1.71-3.32-.67-1.39-2C139.87,187.78,141.54,188.6,141.81,187.13Z"/><path class="cls-18" d="M123.42,192.57a1.28,1.28,0,0,0,.4-.61A4.28,4.28,0,0,1,123.42,192.57Z"/><path class="cls-18" d="M123,192.91c-2,.7-5.21.38-5.79,3.52-.35,1.92,2.25,1.94,5-2.58a4.93,4.93,0,0,0,1.26-1.28C123.27,192.71,123.1,192.82,123,192.91Z"/><path class="cls-9" d="M189.22,231.66a8.57,8.57,0,0,0,.74,7.21,1.87,1.87,0,0,0,.9.15c1.82-.53,18.75-20.08,18.75-20.08l-5.54.83-.85-2.51C198.22,221.82,190.24,229.32,189.22,231.66Z"/><path class="cls-19" d="M175.72,83.7c.85-5.06-21.24-13.82-47.58-19.19-24.56-5-43.84-5.2-44.51-.72S101,76.13,125.41,81.7C151.56,87.67,174.87,88.75,175.72,83.7Z"/><polygon class="cls-20" points="198.9 93.3 195.92 95.81 239.25 134.87 240.61 132.39 198.9 93.3"/><polygon class="cls-20" points="205.59 88.45 202.62 90.97 245.95 130.02 247.31 127.54 205.59 88.45"/><path class="cls-21" d="M111.35,112.9c5.65,1-4.76-13.25,1.7-12.31S110,80.14,118,83.15s3.91-13,15.4-11.7,24.74,20.48,14,30.14,5,23.9-5.25,22.67,15.55,19.92.19,16.79,8.75,21.65-10.36,12.08-20.63,5.75-32.06-7.86S71.16,150.1,76.66,132s-10.27-17.57.58-23.18,12.37-1,18.29,8.3S97.4,110.33,111.35,112.9Z"/><path class="cls-22" d="M142.1,124.26c10.23,1.23-5.5-13,5.25-22.67,10.57-9.49-2-28.13-13.38-30,.39,1.08.75,2.18,1.05,3.31,6,22.84-11.34,47.12-38.63,54.23A60,60,0,0,1,77,130.89c-.1.35-.18.69-.3,1.06-5.5,18.15,11.78-.29,23.21,13.32s12.95-1.7,32.06,7.86-5-15.21,10.36-12.08S131.87,123,142.1,124.26Z"/><path class="cls-22" d="M184.48,117.18c3-4.92-14.08-.23-10.92-5.93s-20.2-4.4-14.58-10.77-10.81-8.26-5.5-18.54S181.38,66,186.61,79.5,210.74,83.29,206,92.42s24.13-7.51,15.77,5.76,23.34-.53,7.65,14-1.91,21.33-18.69,27.22-5.62,28.56-20.66,17-20.06,3.4-21.47-8.73,3.43-11.92,14.22-14.17S177.14,129.32,184.48,117.18Z"/><path class="cls-21" d="M112.71,61.39c2.77,8,2.71,14.54-.61,15.08S115,90,107.67,91c-11.34,1.46-3.9,20-12.39,13.85s-4,15.23-11.29,3.81S72,85.38,75.14,77.38s1.35-19.82,5.09-9.4,10.62-7,14.26.72,5.85-16.32,8.56-8.09S110.13,53.93,112.71,61.39Z"/><path class="cls-23" d="M111.42,84.21c-.16-3.65-1.08-7.46.68-7.74,3.32-.54,3.38-7,.61-15.08-2.58-7.46-7,7.45-9.66-.78-1.8-5.46-3.37,3.25-5.29,7.5A36,36,0,0,1,111.42,84.21Z"/><path class="cls-7" d="M188.12,135.52c29.73-38.41,9.3-84.82.95-89.86-12.52-7.56-41.73-25.4-66.75,2.17C21,159.47,151.58,182.74,188.12,135.52Z"/><g class="cls-24"><path class="cls-25" d="M188.12,135.52c29.73-38.41,9.3-84.82.95-89.86C176.55,38.1,146,21.55,121,49.12,19.69,160.76,151.58,182.74,188.12,135.52Z"/></g><path class="cls-26" d="M203.2,98.63c3.05-26.51-8.39-49.5-14.13-53-12.52-7.56-41.73-25.4-66.75,2.17-11.49,12.66-20,24.17-26,34.58Z"/><path class="cls-21" d="M139.16,53.74c.48,8.52,3.34,14.41,7.11,13.43s2.73,13.62,11,11.22c12.7-3.71,12.7,16.38,19.12,7.08S187.13,97.53,190,83.92s2.77-26.44-4-32.32-10.86-10.84-10.38.29-13.38-8.18-14,.41-13.23-12.23-12.58-3.55S138.7,45.82,139.16,53.74Z"/><path class="cls-20" d="M83.86,63.36s57.93-5.8,130,37.92c0,0-5.66-52.11-11.13-58S163.37,4.7,119.88,23C115.05,25,83.86,63.36,83.86,63.36Z"/><path class="cls-27" d="M179.89,83.6a288.69,288.69,0,0,1,34,17.68s-5.66-52.11-11.13-58a89.67,89.67,0,0,0-20.46-15.75C181.65,41.59,180.65,65.26,179.89,83.6Z"/><path class="cls-27" d="M128.14,20.08A75.69,75.69,0,0,0,119.88,23c-4.83,2-36,40.37-36,40.37s3-.29,8.43-.24C102.49,50.78,118.76,31.14,128.14,20.08Z"/><path class="cls-20" d="M199.34,90.91s-5.93-52.89.21-49.28S211,96.9,211,96.9Z"/><path class="cls-28" d="M217.51,98.45c-49.4-28.5-86.66-37.62-135.91-37l-.13,3c45.05-.21,81.49,9.16,135.91,37Z"/><path class="cls-21" d="M174.62,82c-2,8.28-1,14.75,2.85,14.92s-1.39,13.82,7.18,13.94c13.23.2,7.32,19.4,16.19,12.4s5.4,9.56,12.16-2.6,11.78-19.33,7.05-26.93-7.19-13.55-10-2.77-10.38-11.75-13.46-3.71-9.06-15.59-11-7.1S176.52,74.32,174.62,82Z"/><path class="cls-22" d="M220.05,93.75c-1.68-2.7-3.07-5.17-4.29-6.78-2.27,14-13.9,24.42-27.44,23.82a24.83,24.83,0,0,1-7.38-1.48,4.64,4.64,0,0,0,3.71,1.57c13.23.2,7.32,19.4,16.19,12.4s6.76,14.7,13.52,2.54S224.78,101.35,220.05,93.75Z"/><path class="cls-18" d="M87.5,73.19c45.81,5.32,83,12.26,122.6,36.88l-6.42,9.1L192.28,124c-9.22-8.09-16.44-1.27-16.44-1.27l-22.49-7.59-15.64,2.95-17.31-7.43-17.2,5.22-10.26-8.11-7.07,3.9S80.09,96.69,87.5,73.19Z"/><path class="cls-29" d="M85.87,111.68l7.07-3.9,10.26,8.11,17.2-5.22,17.31,7.43,15.64-2.95,12.26,4.14a45.19,45.19,0,0,0,8.65-24.51c0-.91.06-1.81,0-2.71-27.24-10.68-54.92-15.18-86.8-18.88C80.09,96.69,85.87,111.68,85.87,111.68Z"/><path class="cls-30" d="M259.62,142.65c4.53-3.25-5.91-13.14-10.08-16.81a2.66,2.66,0,0,0-3.32-.17l-9.08,6.46a2.22,2.22,0,0,0-.11,3.53C245.38,142.47,250.9,148.89,259.62,142.65Z"/><path class="cls-31" d="M113.43,123.62l22.19.67s-1.31,14.8-6.63,14S113.43,123.62,113.43,123.62Z"/><path class="cls-32" d="M117.11,124.4l6.46,8.11,9.58.17s2.48-7.75,1.35-7.76C132.94,124.89,117.11,124.4,117.11,124.4Z"/><path class="cls-18" d="M93.92,101.34c8.71.25,23.21,2.76,23.21,2.76S115.45,87,107.6,84.21C103.26,82.53,93.59,85.4,93.92,101.34Z"/><path class="cls-18" d="M126.8,105.35c8.85.31,23.9,2.9,23.9,2.9s.83-15.89-7.18-18.93C139.34,87.71,128.74,90.43,126.8,105.35Z"/><path class="cls-32" d="M125.83,106.06c8.85.32,23.44,1.89,23.44,1.89s.67-14.9-5.75-17.37C139.34,89,130,90.59,125.83,106.06Z"/><path class="cls-32" d="M94.07,101.35c7.25.54,21.83,2.72,21.83,2.72S114,87.63,106.64,85.5C102.24,84.22,94.39,86.81,94.07,101.35Z"/><path class="cls-33" d="M104.67,95.38c.13-3-1.62-5.5-3.92-5.6S96.49,92,96.36,95s1.62,5.5,3.92,5.6S104.54,98.37,104.67,95.38Z"/><path class="cls-33" d="M140.68,99.53c-.05-3-2-5.4-4.24-5.36s-4.12,2.49-4.07,5.49,1.94,5.39,4.24,5.35S140.73,102.52,140.68,99.53Z"/><path class="cls-34" d="M136.59,101.1a1.54,1.54,0,1,0-1.51,1.78A1.66,1.66,0,0,0,136.59,101.1Z"/><path class="cls-34" d="M100,96.52a1.55,1.55,0,1,0-1.6,1.69A1.65,1.65,0,0,0,100,96.52Z"/><path class="cls-35" d="M125.17,115c.1-2.08-3.5-3.94-8-4.13s-8.25,1.33-8.35,3.41,3.5,3.94,8,4.14S125.08,117.09,125.17,115Z"/><path class="cls-7" d="M121.75,114.09c.07-1.59-2.67-3-6.11-3.15s-6.3,1-6.37,2.61,2.67,3,6.11,3.15S121.68,115.69,121.75,114.09Z"/><path class="cls-36" d="M163.11,122.56c.11-2.37-4.39-4.49-10.05-4.74s-10.32,1.47-10.43,3.84,4.4,4.48,10.06,4.73S163,124.92,163.11,122.56Z"/><path class="cls-36" d="M102.21,118.87c.1-2.36-3.46-4.44-8-4.64s-8.23,1.56-8.33,3.93,3.46,4.44,8,4.64S102.11,121.24,102.21,118.87Z"/><path class="cls-7" d="M201.73,121.69c-1-4.17-6.22-6.49-11.65-5.17s-9,5.76-8,9.93,6.22,6.49,11.65,5.18S202.74,125.87,201.73,121.69Z"/><path class="cls-36" d="M198.42,122.4c-.69-2.89-4.3-4.48-8-3.57s-6.21,4-5.52,6.88,4.3,4.48,8,3.57S199.12,125.29,198.42,122.4Z"/><path class="cls-7" d="M189.59,125.1c-.37-1.4-2.13-2.18-3.92-1.75s-2.94,1.92-2.56,3.32,2.13,2.18,3.92,1.75S190,126.5,189.59,125.1Z"/><path class="cls-22" d="M177.81,127.07c3.89-2.35,1.48,7.49,5.34,2.93s1.39-10.54,1.39-10.54l-11.2,2C170,122.86,166.9,133.68,177.81,127.07Z"/><path class="cls-28" d="M100.44,63.27c8.79-10.53,28.67-45.74,38.5-43.23s-9.14,47.05-9.14,47.05Z"/><path class="cls-31" d="M137.4,123.88a1.4,1.4,0,1,0-.84,1.63A1.29,1.29,0,0,0,137.4,123.88Z"/><path class="cls-31" d="M114.61,124.29a1.24,1.24,0,0,0-1-1.47,1.29,1.29,0,0,0-1.56.87,1.24,1.24,0,0,0,1,1.46A1.26,1.26,0,0,0,114.61,124.29Z"/><path class="cls-37" d="M121,29.67c3.11-3.66,5-7.14,4.29-7.77s-3.87,1.83-7,5.49-5,7.14-4.28,7.77S117.87,33.34,121,29.67Z"/><path class="cls-37" d="M109.29,43.61C111,41.47,112,39.39,111.53,39s-2.3,1-4,3.12-2.75,4.22-2.25,4.64S107.55,45.75,109.29,43.61Z"/><path class="cls-38" d="M256,143.36c3.35-1.82-4.12-8.84-7.1-11.45a2.2,2.2,0,0,0-2.43-.32l-6.71,3.62a1.29,1.29,0,0,0-.7,1.06,1.45,1.45,0,0,0,.57,1.21C245.61,142.38,249.55,146.85,256,143.36Z"/><path class="cls-21" d="M152.24,79.18c-2.45-1.76-3,2-3.08,2.37,0-.33.23-2.91-3.52-4.15-3.53-1.17-2,2.91-1.58,3.91-.34-.76-1.64-3.37-3.72-3.87-2.43-.58-1.57,2.59-.91,5.18l13.93,5.6C153.77,88.27,154.79,81,152.24,79.18Z"/><path class="cls-21" d="M105.19,70c-3,0-1.32,3.39-1.15,3.7-.16-.29-1.49-2.51-5.28-1.37-3.56,1.07,0,3.53,1,4.11-.71-.43-3.28-1.82-5.27-1-2.32.92.21,3,2.23,4.76l14.62-3.41C111.67,76.55,108.34,70,105.19,70Z"/><path class="cls-9" d="M199.35,235.34c-.37-1.46-1.18-2.19-4.36-1.36s-5.46,2.69-5.09,4.15,3.24,2,6.42,1.13S199.71,236.8,199.35,235.34Z"/><polygon class="cls-10" points="186.86 215.11 196.96 223.06 202.54 227.26 204.69 224.89 199 221.24 189.44 212.97 186.86 215.11"/><polygon class="cls-11" points="196.96 223.06 202.54 227.26 204.69 224.89 199 221.24 196.96 223.06"/><polygon class="cls-10" points="182.35 228.46 185.1 230.23 191.53 223.33 188.41 220.58 183.88 221.42 185.61 223.14 182.35 228.46"/><path class="cls-12" d="M194.22,233.6s.49.48,2.31.1l-2.61,2.41Z"/></g></g></svg>