<svg xmlns="http://www.w3.org/2000/svg" xmlns:xlink="http://www.w3.org/1999/xlink" viewBox="0 0 300 250"><defs><style>.cls-1{isolation:isolate;}.cls-2{fill:url(#linear-gradient);}.cls-3{fill:url(#radial-gradient);}.cls-4{fill:#aa6f48;}.cls-5{fill:#6a9342;}.cls-6{fill:#527230;}.cls-7{fill:#ffe150;}.cls-8{fill:#87b755;}.cls-9{fill:#e5c028;}.cls-10{fill:#ed5b48;}.cls-11{fill:#66493d;opacity:0.5;mix-blend-mode:multiply;}.cls-12{fill:#c99a50;}.cls-13{fill:#7c4628;}.cls-14{fill:#f7d33c;}.cls-15{fill:#d15d34;}.cls-16{fill:#fff683;}.cls-17{fill:#5e4d42;}.cls-18{fill:#4c2616;}.cls-19{fill:#ffefe9;}.cls-20{fill:#3d3029;}.cls-21{fill:#30241e;}.cls-22{fill:#7a665c;}</style><linearGradient id="linear-gradient" x1="-30.62" y1="178.19" x2="326.31" y2="178.19" gradientUnits="userSpaceOnUse"><stop offset="0" stop-color="#43c6ac"/><stop offset="1" stop-color="#1a1956"/></linearGradient><radialGradient id="radial-gradient" cx="300.46" cy="-36.88" r="444.61" gradientUnits="userSpaceOnUse"><stop offset="0" stop-color="#f4f9f8"/><stop offset="1" stop-color="#fcf990"/></radialGradient></defs><g class="cls-1"><g id="_1" data-name="1"><rect class="cls-2" x="-30.62" y="-37.81" width="356.92" height="432"/><rect class="cls-3" width="300" height="250"/><rect class="cls-4" x="144.22" y="140.02" width="12.32" height="28.54"/><path class="cls-5" d="M105.14,317.83c-19-42.38-29.41-79.13,41.07-71.34,24.2,2.67,31.13.86,44.1,9.51s68.32,72.63,68.32,72.63l-4.33.44s-55.34-60.1-83-63.56-64-10.38-69.18,8.65c-4.12,15.11,8.21,43.67,8.21,43.67Z"/><path class="cls-5" d="M112.49,250.59c27.23-14.91-.71-85.52,16.86-90.79,13-3.89,41.5,1.29,49.29,9.73s12.32,85,29.83,106.36C208.47,275.89,144.91,245.4,112.49,250.59Z"/><path class="cls-6" d="M176.32,168.54c5.47,6.56,9.18,54.45,18,85.41,2.19,7.64,6.9,9.51,4.09.51-9.68-31-13.76-78.4-19.79-84.93A22.23,22.23,0,0,0,172,165,17.82,17.82,0,0,1,176.32,168.54Z"/><path class="cls-6" d="M124.28,240.21c10.13-23.37-4.91-73,6.09-80.69l-1,.28c-15,4.5,3.2,56.68-8.16,81.1C119.25,245.06,122.53,244.23,124.28,240.21Z"/><path class="cls-5" d="M128.51,187.12c-10-6.48-63.33-8.37-83-46.92L50,135s16.83,37,76.59,28.81Z"/><path class="cls-6" d="M106.39,165.29l14.39,9.94A7.73,7.73,0,0,0,132.9,169l.47-10Z"/><path class="cls-6" d="M126.61,182.91c-12.52-5.81-60.41-9-80.23-43.71l-.87,1c18.66,36.58,67.39,41.37,80.93,47.17Z"/><path class="cls-5" d="M172.79,167c19.46,10.46,52,26.11,88.9-12.23l1.71,4.94S230.37,207.15,174,182Z"/><path class="cls-6" d="M167,162.46l4.89,18a5.91,5.91,0,0,0,9.55,1.73l7.84-7.1Z"/><path class="cls-6" d="M262.58,157.33c-5.12,6.6-35.26,40.41-82.18,24.06l1,5c51.85,18.07,82-26.64,82-26.64Z"/><path class="cls-7" d="M166.24,160.29,173.4,176a5.91,5.91,0,0,0,9.56,1.72l8.08-8.09Z"/><path class="cls-7" d="M104.65,162.32,119,172.26A7.73,7.73,0,0,0,131.17,166l.1-9Z"/><path class="cls-8" d="M46.24,140.2c-7.37.49-18-2.42-12.5-13.76s16.32,2.68,17.47,12.32Z"/><polygon class="cls-6" points="118.27 245.87 201.94 264.19 196.99 251.07 120.75 241.66 118.27 245.87"/><path class="cls-7" d="M116.36,244s87.75,18.16,87.31,16.86-3.55-22.05-3.55-22.05L119,236.17Z"/><path class="cls-9" d="M123.64,241.83c0-1.86.06-3.7.18-5.51l-4.8-.15L116.36,244l7.37,1.52C123.67,244.27,123.64,243.05,123.64,241.83Z"/><path class="cls-9" d="M200.12,238.76l-8.24-.26c0,1.1.07,2.21.07,3.33a79,79,0,0,1-1.8,16.88c8.2,1.53,13.63,2.43,13.52,2.1C203.23,259.52,200.12,238.76,200.12,238.76Z"/><polygon class="cls-7" points="45 140.7 47.84 148.12 57.2 141.53 50.73 135.12 45 140.7"/><path class="cls-7" d="M161.88,161.44c.14-1.09-4.86-2.62-11.17-3.41s-11.53-.54-11.67.55,4.87,2.63,11.17,3.42S161.75,162.54,161.88,161.44Z"/><path class="cls-10" d="M181.31,173.35a3.41,3.41,0,0,0-3.18-2.89,2.35,2.35,0,0,0-2.27,2.89,3.43,3.43,0,0,0,3.18,2.89A2.35,2.35,0,0,0,181.31,173.35Z"/><path class="cls-10" d="M127.18,168.48a2.36,2.36,0,0,0-2.51-2.48,2.88,2.88,0,0,0-2.93,2.48,2.35,2.35,0,0,0,2.51,2.47A2.87,2.87,0,0,0,127.18,168.48Z"/><path class="cls-10" d="M165.22,244.39a4.88,4.88,0,1,0-4.87,4.54A4.71,4.71,0,0,0,165.22,244.39Z"/><path class="cls-4" d="M49.49,129.9c-1.15-2.93-3.11-4.89-4.38-4.38s-1.36,3.31-.21,6.24,3.11,4.89,4.38,4.38S50.64,132.83,49.49,129.9Z"/><path class="cls-4" d="M46.05,131.37c1.13-2.94,1-5.71-.26-6.18s-3.24,1.51-4.38,4.44-.57,3.8.71,4.28S44.91,134.31,46.05,131.37Z"/><path class="cls-4" d="M37.86,126.52c2.51,1.29,4.93,1.32,5.4.06s-1.17-3.32-3.68-4.6-3.28-.78-3.75.48S35.36,125.23,37.86,126.52Z"/><path class="cls-4" d="M35.56,130.81c2.51,1.29,4.93,1.32,5.4.06s-1.17-3.31-3.68-4.6-3.28-.78-3.76.48S33.05,129.52,35.56,130.81Z"/><path class="cls-4" d="M35.24,136.54c2.58,1.09,5,.93,5.4-.36s-1.37-3.22-4-4.3-3.32-.52-3.72.77S32.66,135.45,35.24,136.54Z"/><path class="cls-8" d="M263.57,161.63c7.26-1.29,16.86-6.69,8.79-16.36s-15.17,6.54-13.95,16.17Z"/><path class="cls-4" d="M257.94,152.42c.4-3.12,1.83-5.5,3.18-5.3s2.12,2.88,1.71,6-1.83,5.5-3.18,5.31S257.53,155.54,257.94,152.42Z"/><path class="cls-4" d="M261.62,153c-1.81-2.58-2.36-5.29-1.24-6.07s3.51.69,5.32,3.27,1.47,3.54.35,4.31S263.44,155.59,261.62,153Z"/><path class="cls-4" d="M268.38,146.34c-2.12,1.85-4.45,2.46-5.22,1.36s.34-3.5,2.46-5.36,3-1.54,3.75-.44S270.5,144.48,268.38,146.34Z"/><path class="cls-4" d="M271.65,150c-2.12,1.85-4.46,2.46-5.22,1.36s.34-3.5,2.45-5.36,3-1.54,3.76-.44S273.77,148.09,271.65,150Z"/><path class="cls-4" d="M273.34,155.44c-2.24,1.67-4.62,2.1-5.31.94s.55-3.45,2.78-5.13,3.1-1.29,3.79-.14S275.57,153.76,273.34,155.44Z"/><polygon class="cls-7" points="257.89 157.56 251.26 161.81 258.11 168.71 263.52 161.42 257.89 157.56"/><polygon class="cls-7" points="143.52 210.72 140.8 189.68 168.77 189.44 169.26 211.96 143.52 210.72"/><polygon class="cls-5" points="146.66 207.99 144.68 192.69 165.02 192.51 165.38 208.89 146.66 207.99"/><polygon class="cls-7" points="147.73 194.88 156.39 205.03 162.83 194.63 147.73 194.88"/><path class="cls-11" d="M151.19,176.32a173.77,173.77,0,0,0,36.74-3.57l3.11-3.12-24.8-9.34,1,2.31-.26-.14.16.58c-1.68-.6-3.47-1.15-5.31-1.64,0-.71-2.12-1.6-5.34-2.35V146.19c-1.76-.05-3.54-.07-5.35-.07q-3.54,0-7,.11v11.34c-2.92,0-4.9.31-5.14.93a42.62,42.62,0,0,0-7.84.82l0-2.36-26.62,5.36,3.66,2.53-.4.09a94.06,94.06,0,0,1-12.8-1.13C99.75,170.91,123.08,176.32,151.19,176.32Z"/><path class="cls-12" d="M221.27,109.74,111.92,88.51l-4.7,55.25c25.1-2.15,57.12-2.73,82.65,11.59Z"/><path class="cls-13" d="M83.85,97.18c4.84,15.71,56.42,97.89,122.16,21.47,9.4-10.91,2.38-47,2.38-47Z"/><path class="cls-4" d="M196.64,128.58,133.09,125l-1.27,22.25c6.7,2.57,14.13,4.72,21.85,4.2C166.85,150.51,181.2,143.4,196.64,128.58Z"/><path class="cls-14" d="M91.52,140.79l29.61,11.64,6.71-2.36-4.08-32.36,83.68,7.13-21,25.34,3.46,5.17S243.34,116,224.2,69.43s-57.15-50.55-66.5-52.2C129.17,12.19,32.85,19.61,91.52,140.79Z"/><path class="cls-15" d="M96.41,33.74c-13.22,0-23.93,19.87-23.93,44.39s10.71,44.39,23.93,44.39,23.93-19.87,23.93-44.39S109.62,33.74,96.41,33.74Zm-1.65,85.15C83,118.89,73.47,100.5,73.47,77.8S83,36.71,94.76,36.71s21.29,18.4,21.29,41.09S106.52,118.89,94.76,118.89Z"/><path class="cls-16" d="M155.68,101.55l35.13,2c5-34.64,2.85-59.62-4.12-77.32-12.83-6.75-24.39-8.15-29-9a82.49,82.49,0,0,0-12.25-1.09C158,34.36,164.28,61.08,155.68,101.55Z"/><path class="cls-9" d="M224.2,69.43C215,47.08,201.47,34.56,188.84,27.37c34.14,27.82,29.85,80-1.1,95.79l19.7,1.68-21,25.34,3.46,5.17S243.34,116,224.2,69.43Z"/><path class="cls-15" d="M212.64,48.71c17.27,30.91,16.81,53.9,2.25,80.25C232.91,109.38,233.21,67.9,212.64,48.71Z"/><path class="cls-17" d="M222.2,94.05,107.36,84.26c-.88,13.21,3.27,22.38,12.49,28.84l94.52,8.05C220.18,109.64,221.58,102.28,222.2,94.05Z"/><path class="cls-18" d="M152,129.34l19.4,1.65S153.29,161.25,152,129.34Z"/><polygon class="cls-19" points="153.07 130.67 154.93 141.02 160.8 142.01 168.61 132 153.07 130.67"/><path class="cls-20" d="M219.27,96.21,109.89,86.89c-.7,10.8,3.36,18.36,12.21,23.75l90,7.67C217.52,109,218.77,103,219.27,96.21Z"/><polygon class="cls-21" points="207.59 95.21 163.11 91.42 136.56 111.88 181.04 115.66 207.59 95.21"/><polygon class="cls-22" points="193.99 109.25 186.14 115.2 191.25 115.36 198.95 109.52 193.99 109.25"/><polygon class="cls-22" points="206.3 103.95 214.6 97.67 209.49 97.5 201.34 103.68 206.3 103.95"/><path class="cls-13" d="M169.84,126.65c0-1.19-2.18-2.15-4.87-2.15s-4.87,1-4.87,2.15,2.18,2.14,4.87,2.14S169.84,127.83,169.84,126.65Z"/><path class="cls-4" d="M170.91,125.49c0-1.18-2.18-2.14-4.87-2.14s-4.86,1-4.86,2.14,2.18,2.15,4.86,2.15S170.91,126.68,170.91,125.49Z"/><path class="cls-16" d="M92,52.8c2.89-6.42,2.58-12.06-.67-12.59s-8.23,4.25-11.11,10.67-2.57,12.06.68,12.59S89.15,59.22,92,52.8Z"/><path class="cls-16" d="M79.06,71.17c.06-2.29-.73-3.94-1.77-3.69s-1.93,2.3-2,4.58S76,76,77.08,75.75,79,73.45,79.06,71.17Z"/><polygon class="cls-9" points="121.13 152.43 117.03 115.92 123.76 117.71 127.84 150.07 121.13 152.43"/><path class="cls-18" d="M172.26,131a.87.87,0,1,0-.85.69A.78.78,0,0,0,172.26,131Z"/><ellipse class="cls-18" cx="152.04" cy="129.58" rx="0.85" ry="0.7"/></g></g></svg>