<svg xmlns="http://www.w3.org/2000/svg" xmlns:xlink="http://www.w3.org/1999/xlink" viewBox="0 0 300 250"><defs><style>.cls-1{mask:url(#mask);filter:url(#luminosity-noclip-2);}.cls-18,.cls-2,.cls-22,.cls-26{mix-blend-mode:multiply;}.cls-2{fill:url(#linear-gradient);}.cls-3{isolation:isolate;}.cls-4{fill:url(#linear-gradient-2);}.cls-5{fill:url(#radial-gradient);}.cls-6{fill:#632b15;}.cls-7{fill:#96273d;}.cls-8{fill:#ba3e50;}.cls-9{fill:#ad688c;}.cls-10{fill:#fabe82;}.cls-11{fill:#935177;}.cls-12{fill:#844167;}.cls-13{fill:#edabd1;}.cls-14{fill:#ffd95f;}.cls-15{fill:#edc148;}.cls-16{fill:#efaf62;}.cls-17,.cls-18{fill:#d89348;}.cls-18{opacity:0.4;}.cls-19{fill:#f9c791;}.cls-20{fill:#e24b61;}.cls-21{fill:#cc4c59;}.cls-22{fill:#66493d;opacity:0.5;}.cls-23{fill:#874223;}.cls-24{fill:#efa065;}.cls-25{mask:url(#mask-2);}.cls-26{opacity:0.3;fill:url(#linear-gradient-3);}.cls-27{fill:#b23b4d;}.cls-28{fill:#ffecde;}.cls-29{fill:#4c301d;}.cls-30{fill:#ffeadc;}.cls-31{fill:#71a8b5;}.cls-32{fill:#9bd3dd;}.cls-33{filter:url(#luminosity-noclip);}</style><filter id="luminosity-noclip" x="105.87" y="-8369.81" width="123.11" height="32766" filterUnits="userSpaceOnUse" color-interpolation-filters="sRGB"><feFlood flood-color="#fff" result="bg"/><feBlend in="SourceGraphic" in2="bg"/></filter><mask id="mask" x="105.87" y="-8369.81" width="123.11" height="32766" maskUnits="userSpaceOnUse"><g class="cls-33"/></mask><linearGradient id="linear-gradient" x1="162.66" y1="100.71" x2="198.25" y2="155.91" gradientUnits="userSpaceOnUse"><stop offset="0"/><stop offset="0.99" stop-color="#b3b3b3"/></linearGradient><linearGradient id="linear-gradient-2" x1="-30.62" y1="178.19" x2="326.31" y2="178.19" gradientUnits="userSpaceOnUse"><stop offset="0" stop-color="#43c6ac"/><stop offset="1" stop-color="#1a1956"/></linearGradient><radialGradient id="radial-gradient" cx="300.46" cy="-36.88" r="444.61" gradientUnits="userSpaceOnUse"><stop offset="0" stop-color="#f4f9f8"/><stop offset="1" stop-color="#fcf990"/></radialGradient><filter id="luminosity-noclip-2" x="105.87" y="45.67" width="123.11" height="108.99" filterUnits="userSpaceOnUse" color-interpolation-filters="sRGB"><feFlood flood-color="#fff" result="bg"/><feBlend in="SourceGraphic" in2="bg"/></filter><mask id="mask-2" x="105.87" y="45.67" width="123.11" height="108.99" maskUnits="userSpaceOnUse"><g class="cls-1"><path class="cls-2" d="M204.92,149c14.48-7.69,37.42-30.44,14-65.91-18.7-28.35-31.7-42.75-68.77-35.6-17.2,3.32-60.39,41.88-38,79.79C134.25,164.69,194,154.79,204.92,149Z"/></g></mask><linearGradient id="linear-gradient-3" x1="162.66" y1="100.71" x2="198.25" y2="155.91" gradientUnits="userSpaceOnUse"><stop offset="0" stop-color="#c04b00"/><stop offset="0.99" stop-color="#b73400"/></linearGradient></defs><g class="cls-3"><g id="_1" data-name="1"><rect class="cls-4" x="-30.62" y="-37.81" width="356.92" height="432"/><rect class="cls-5" width="300" height="250"/><path class="cls-6" d="M213,38.23c-.7-5.42-4.57-9.39-8.64-8.85s-6.79,5.34-6.08,10.76S202.89,49.52,207,49,213.75,43.64,213,38.23Z"/><path class="cls-6" d="M210.09,54.06c-.92-7.13-6-12.35-11.37-11.66s-8.94,7.05-8,14.18,6,12.35,11.37,11.65S211,61.19,210.09,54.06Z"/><path class="cls-6" d="M215,70.85c-1.23-9.41-7.94-16.29-15-15.37s-11.8,9.29-10.58,18.7,7.94,16.29,15,15.37S216.22,80.26,215,70.85Z"/><path class="cls-7" d="M230.26,286.08l-53.39,4.07c1-41.1-9.93-85.84-19.46-120.8l26.25-10.26S240.66,172.51,230.26,286.08Z"/><path class="cls-8" d="M198.14,160.9c80.18,38,49,101.09,38.06,120.81Z"/><rect class="cls-9" x="196.34" y="168.13" width="11.14" height="12.08" transform="translate(-4 343.59) rotate(-80.23)"/><polygon class="cls-10" points="180.79 141.4 167.82 140.84 167.82 164.82 184.05 162.58 180.79 141.4"/><path class="cls-9" d="M107.64,244c8.15-15.83,37.1-71,55.65-78.72l-2.71,19s-26.7,19.91-49.77,61.08Z"/><path class="cls-11" d="M156.21,180.51c-9.36,8.53-28.16,31.72-44.19,60.33l-2.24-1L107.64,244l3.17,1.36c17.14-30.59,36.28-49.44,45-57.11C156.58,187.45,156.66,181.64,156.21,180.51Z"/><polygon class="cls-12" points="124.76 227.85 117.3 222.59 113.44 227.72 121.85 234.3 124.76 227.85"/><path class="cls-9" d="M201,224.33c2-21.92,2.57-56.18-4.17-61.32-9.51-7.24-32.58-2.26-39.82,6.79-5.76,7.19,4.6,24-5.84,65.17-6.69,21.38-18.28,51.43-29.6,77.61l3.16-.46c7.77-14.09,24.86-40.43,36.28-57.75,8.49-5.77,19.12-6.72,25.14.28,3.86,19.6,8.52,44.37,10.23,57.93h2.61C197.9,282,200.33,246.05,201,224.33Z"/><polygon class="cls-13" points="165.41 204.87 191.42 204.87 177.17 185.18 165.41 204.87"/><polygon class="cls-11" points="183.65 252.45 198.13 245.36 199.19 235.56 178.68 249.43 183.65 252.45"/><polygon class="cls-11" points="149.39 241.5 162.47 252.6 170.98 249.29 150.25 235.74 149.39 241.5"/><path class="cls-11" d="M157,255c-10.56,17.09-26.15,42.74-33.81,57.35l1.52-.22c7.77-14.09,24.86-40.43,36.28-57.75A26.56,26.56,0,0,1,172,250C167,249.74,161.64,251.61,157,255Z"/><path class="cls-11" d="M196.78,163c-3.74-2.84-9.58-3.78-15.72-3.34a18.37,18.37,0,0,1,9,3c6.88,4.93,7.34,39.2,6,61.16,0,21.73-1.37,57.68.57,88.27h-.38c0,.17.05.35.07.51h2.61c-1-30.63,1.39-66.53,2-88.25C203,202.41,203.52,168.15,196.78,163Z"/><path class="cls-11" d="M197.76,222.51c-3.85-.22-13.12,4.3-14.71-17.19-.75-10.16,14.48-9.73,14.48-9.73Z"/><polygon class="cls-14" points="149.27 239.63 168.27 250.79 180.94 250.79 200.55 239.03 200.85 232.09 150.48 231.79 149.27 239.63"/><path class="cls-15" d="M194.16,232.05c-2.88,5.22-8.94,9.93-16.72,12.31-12.56,3.85-24.81.19-27.37-8.18-.07-.23-.11-.47-.16-.71l-.64,4.16,19,11.16h12.67L200.55,239l.3-6.94Z"/><path class="cls-16" d="M107.13,266.23c5.88-3.83,19.6-26,19.27-29.44s-12-14.1-17.43-13.33-20.88,22.47-21.15,27.9S101.76,269.73,107.13,266.23Z"/><path class="cls-17" d="M117.53,226.94c1.52,13.33-13.63,7.23-15.89,9.61-14.44,15.24,2,30.13,8.13,26.32,5.65-3.53,17.92-23.84,17.36-27C126.79,234,122.29,229.85,117.53,226.94Z"/><path class="cls-18" d="M116.48,252.34l4.07-3.2c-.11,0-.21-.11-.31-.15l-.08-2.27-3.76,2.95-6.55-7,2.8-3.07.1.12,7-4.49-.08-2.49-6.84,4.39L108.18,232l-.31-6.74-.48-.07H106l.29,6.37-9,4.25c-.05.78-.08,1.58-.11,2.41l10-4.72,4,4.51-8.13,9-5.93-5.42c0,.82,0,1.64.06,2.47l5,4.61,1.24,9.69-3.77.13c.24.68.5,1.34.79,2l5.12-.18-1.45-11.32,4.48-5Z"/><path class="cls-19" d="M197.93,192.44c3.59-1.24,5.89-3.12,5.14-4.2s-4.27-1-7.86.27-5.89,3.12-5.14,4.2S194.34,193.67,197.93,192.44Z"/><path class="cls-19" d="M190.48,197.22c.37-2-.38-3.84-1.68-4.08s-2.65,1.19-3,3.2.38,3.84,1.68,4.08S190.11,199.22,190.48,197.22Z"/><path class="cls-19" d="M190.52,203.36c-.19-2-1.4-3.59-2.72-3.48s-2.23,1.86-2.05,3.9,1.39,3.59,2.71,3.47S190.7,205.39,190.52,203.36Z"/><path class="cls-19" d="M192.38,209.51c-.6-1.95-2.1-3.23-3.37-2.84s-1.8,2.28-1.21,4.23,2.11,3.22,3.37,2.84S193,211.46,192.38,209.51Z"/><path class="cls-16" d="M192.39,213.94c5.51,1.19,24-3.05,25.71-5.4s.28-17.19-3.35-20S192.11,189.8,189,193,187.35,212.86,192.39,213.94Z"/><path class="cls-17" d="M214.75,188.51c-.79-.62-2.33-.89-4.25-.93,1.44,5.44,1.73,12.8.59,14.4-1.45,2-15.47,5.47-22.81,5.6.82,3.3,2.2,5.95,4.11,6.36,5.51,1.19,24-3.05,25.71-5.4S218.38,191.35,214.75,188.51Z"/><path class="cls-18" d="M213.73,191l-3.68-3.77c0,.12-.08.23-.11.35l-2.23.42,3.39,3.47-6.1,7.86-3.39-2.46.1-.13-5.32-6.61-2.45.46,5.22,6.48-4.49,5.57L188.05,204v.5l.18,1.5,6.26-1.25,5.34,8.71c.77-.07,1.57-.14,2.39-.24l-5.93-9.68,3.93-4.9,9.89,7.16-4.59,7c.8-.12,1.61-.26,2.42-.42l3.91-5.93,9.4-2.72.62,3.9c.63-.35,1.26-.72,1.87-1.12l-.83-5.29-11,3.17-5.45-3.94Z"/><path class="cls-20" d="M183.66,159.09c8.44,3,38.61,2.47,29,137.83,0,0,25.94,1.37,30.77-.55C253.36,189.1,221,159.69,183.66,159.09Z"/><path class="cls-21" d="M237.68,202.64c2,12.32-.37,22.52-7.42,26.77-4.45,2.67-10.12,2.61-16.2.31.83,17.51.53,39.5-1.45,67.2,0,0,25.94,1.37,30.77-.55C247.33,254,244.65,223.74,237.68,202.64Z"/><path class="cls-19" d="M102.56,239.34c-4.47-3.18-8.94-4.59-10.46-2.45s.87,6.45,5.35,9.64,6.91,3.15,8.43,1S107,242.53,102.56,239.34Z"/><path class="cls-19" d="M88.23,248.07c-2.22,3.19-2.83,6.6-.67,8.1s5.69.13,7.91-3.05,1.83-5.16-.33-6.66S90.45,244.89,88.23,248.07Z"/><path class="cls-19" d="M101,240.74c4.41-3.28,7.11-7.1,5.55-9.21s-6.41-1.15-10.82,2.13-5.11,5.62-3.55,7.73S96.58,244,101,240.74Z"/><path class="cls-14" d="M167.37,162.41l14.78,17.19,3.31-20.21C179.94,158.44,174.82,159.7,167.37,162.41Z"/><path class="cls-16" d="M96.12,249.74c.37-.63-.41-1.87-1.74-2.78s-2.72-1.13-3.1-.51.4,1.88,1.74,2.78S95.74,250.36,96.12,249.74Z"/><rect class="cls-9" x="169.18" y="233.3" width="11.46" height="3.77"/><path class="cls-8" d="M164.41,163.6c-1-3.87-4.27-.09-7.3.67s-3.23,2.91-2.91,4.22c1,3.88,3.44,4.26,6.47,3.51S165.37,167.48,164.41,163.6Z"/><path class="cls-14" d="M160.88,167.31a1.69,1.69,0,0,0-2.14-.9c-1,.24-1.7,1-1.53,1.75s1.13,1.13,2.15.9S161.05,168,160.88,167.31Z"/><path class="cls-22" d="M177.33,174.17c13.22-1.68,24.52-5.38,30.67-9.57a50.71,50.71,0,0,0-9.58-3.56l-.28-.14,0,.07a62,62,0,0,0-14.5-1.88l-.14.06-1.47-9.58c-2.51.14-5.11.37-7.75.71-2.22.28-4.38.63-6.48,1v10.95l-.45.16.25.3c-1.09.43-2.12.91-3.12,1.41,0-.17-.05-.34-.09-.52-1-3.87-4.27-.09-7.3.67s-3.23,2.91-2.91,4.22a6.51,6.51,0,0,0,1,2.35c-1.11,1-2.24,2.14-3.39,3.35A92,92,0,0,0,177.33,174.17Z"/><path class="cls-23" d="M141.58,139.94c-8.15,11.31-30.32,25.79-35.75,8.59,0,0-9.5,14-14.93.46,0,0-16.29,21.72-33.93,14.48s-7.7-20.36-7.7-20.36-14,7.23-14.48-7.24,15.39-9.51,15.39-9.51-24.43-13.12,17.64-65.6c0,0-17.19-25.34,52.94-38.46,0,0,62.44-26.7,74.66,3.17,0,0,34.84-4.53-4.07,38S141.58,139.94,141.58,139.94Z"/><path class="cls-6" d="M133.9,105.71c-33.41,12.57-66.51,14.68-90.65,7.72.91,9.69,6.93,12.93,6.93,12.93s-15.84-5-15.39,9.51,14.48,7.24,14.48,7.24-10,13.12,7.7,20.36S90.9,149,90.9,149c5.43,13.57,14.93-.46,14.93-.46,5.43,17.2,27.6,2.72,35.75-8.59,0,0,7.29-22.76,31.29-54.36A182.92,182.92,0,0,1,133.9,105.71Z"/><path class="cls-10" d="M204.92,149c14.48-7.69,37.42-30.44,14-65.91-18.7-28.35-31.7-42.75-68.77-35.6-17.2,3.32-60.39,41.88-38,79.79C134.25,164.69,194,154.79,204.92,149Z"/><polygon class="cls-24" points="227.73 99.87 129.33 116.31 130.14 122.14 228.54 105.7 227.73 99.87"/><g class="cls-25"><path class="cls-26" d="M204.92,149c14.48-7.69,37.42-30.44,14-65.91-18.7-28.35-31.7-42.75-68.77-35.6-17.2,3.32-60.39,41.88-38,79.79C134.25,164.69,194,154.79,204.92,149Z"/></g><polygon class="cls-21" points="108.04 123.9 230.26 103.74 222 78.87 104.33 104.8 108.04 123.9"/><path class="cls-27" d="M135.09,97.86l-33.18,6.64L108,123.9l34.55-5.7C137.94,113.71,135.75,103.48,135.09,97.86Z"/><path class="cls-23" d="M178.08,67.22c17.9,1.5,30.32-13.71,16-27.1l-18.4,4.63S210.06,51.18,178.08,67.22Z"/><path class="cls-23" d="M124.28,69.51c9.09,2.42,22.72-11.22,23.18-23.23l-15,.76S142.64,62.83,124.28,69.51Z"/><path class="cls-23" d="M179.52,54.26c-7.79,10.66-29.43,4.78-17.82-13l7.59-2.37S158.38,58.49,179.52,54.26Z"/><path class="cls-10" d="M114.43,123.2c-10.41-.91-16.29,4.07-14.48,11.31s17.64,5.88,23.07.9S114.43,123.2,114.43,123.2Z"/><path class="cls-24" d="M112.16,126.63c-6.59-.58-10.32,2.58-9.17,7.16s11.18,3.73,14.62.58S112.16,126.63,112.16,126.63Z"/><path class="cls-10" d="M115,127.91c-3.79-.33-5.94,1.48-5.28,4.12s6.43,2.14,8.41.33S115,127.91,115,127.91Z"/><path class="cls-23" d="M114.43,123.2c7.37-1.31,5.88,5.73,15.84,2.41,8.31-2.77,5.73-10.86-5.43-11.16s2.37-9.74-4.53-13.57c-10.86-6,6.94-18.1-1.81-18.4S113.68,68,106.13,73.13,70.24,96.35,69.33,105.7s14.79,19.31,24.74,16S97.38,126.21,114.43,123.2Z"/><path class="cls-7" d="M156.33,113.13s-9.22-17.57,4.17-20.44,17.74,13.09,15.91,15.45S162.67,112.7,156.33,113.13Z"/><path class="cls-28" d="M157.72,113.1s-8.49-16.65,3.82-19.36,16.32,12.41,14.64,14.65S163.55,112.7,157.72,113.1Z"/><path class="cls-7" d="M213.21,103.07s2.07-18.67-10.53-16.79-11,17.51-8.59,19S207.56,104.79,213.21,103.07Z"/><path class="cls-28" d="M213.74,103.16s1.91-17.79-10-16-10.35,16.66-8.08,18.09S208.41,104.78,213.74,103.16Z"/><path class="cls-29" d="M175.36,121.45l20.21-2.54s-2.89,13.65-9.35,14.09C181,133.36,175.36,121.45,175.36,121.45Z"/><polygon class="cls-30" points="181.01 127.62 177.06 122.05 193.94 120.25 191.43 126.54 181.01 127.62"/><path class="cls-24" d="M191.32,111.48c-.14-1.45-2.38-2.41-5-2.14s-4.61,1.65-4.46,3.1,2.38,2.41,5,2.15S191.47,112.93,191.32,111.48Z"/><path class="cls-10" d="M190.81,110.66c-.13-1.2-2-2-4.13-1.78s-3.81,1.37-3.69,2.57,2,2,4.13,1.78S190.93,111.86,190.81,110.66Z"/><path class="cls-31" d="M170.44,104.71c-.33-3.08-2.69-5.33-5.27-5s-4.4,3-4.06,6.07,2.7,5.34,5.28,5.06S170.78,107.78,170.44,104.71Z"/><path class="cls-31" d="M209.18,98.32c-.28-2.93-2.49-5.12-5-4.89s-4.22,2.8-3.94,5.72,2.49,5.12,4.94,4.89S209.46,101.25,209.18,98.32Z"/><path class="cls-32" d="M207,97.39a1.81,1.81,0,1,0-1.6,2.23A2,2,0,0,0,207,97.39Z"/><path class="cls-32" d="M168.36,103.58a2.09,2.09,0,0,0-2.1-2,2.23,2.23,0,1,0,2.1,2Z"/><path class="cls-29" d="M176.16,121.51a1.17,1.17,0,1,0-1.17,1.26A1.21,1.21,0,0,0,176.16,121.51Z"/><path class="cls-29" d="M196.73,119.17a1.17,1.17,0,1,0-1.17,1.26A1.21,1.21,0,0,0,196.73,119.17Z"/><path class="cls-24" d="M162.73,121.28c-.27-1.56-3.91-2.24-8.14-1.51s-7.44,2.59-7.17,4.15,3.92,2.23,8.14,1.5S163,122.84,162.73,121.28Z"/><path class="cls-24" d="M223.36,112.08c-.27-1.56-3.91-2.23-8.14-1.51s-7.44,2.59-7.17,4.15,3.92,2.23,8.14,1.5S223.63,113.64,223.36,112.08Z"/><path class="cls-23" d="M144.73,93.14c-.22.39,9.67-9,13.25-10.61C158,82.53,152,80.35,144.73,93.14Z"/><path class="cls-23" d="M208,76.82c.43.13-12.85-.09-16.41,1.15C191.61,78,194.21,72.41,208,76.82Z"/><path class="cls-6" d="M95.58,127.42c-10-.9-24.74-14.48-16.9-29.86,0,0-14.48,10.25-13.57,21.11Z"/></g></g></svg>