<svg xmlns="http://www.w3.org/2000/svg" xmlns:xlink="http://www.w3.org/1999/xlink" viewBox="0 0 300 250"><defs><style>.cls-1{mask:url(#mask);filter:url(#luminosity-noclip-2);}.cls-10,.cls-15,.cls-2{mix-blend-mode:multiply;}.cls-2{fill:url(#linear-gradient);}.cls-3{isolation:isolate;}.cls-4{fill:url(#linear-gradient-2);}.cls-5{fill:url(#radial-gradient);}.cls-6{fill:#e2505e;}.cls-7{fill:#c93a4f;}.cls-8{fill:#fabe82;}.cls-9{fill:#ffcd5c;}.cls-10{fill:#66493d;}.cls-10,.cls-28{opacity:0.5;}.cls-11{fill:#ffd683;}.cls-12{fill:#f7c872;}.cls-13{fill:#b72e42;}.cls-14{mask:url(#mask-2);}.cls-15{opacity:0.3;fill:url(#linear-gradient-3);}.cls-16{fill:#ce4155;}.cls-17{fill:#a82a3d;}.cls-18{fill:#ffecde;}.cls-19{fill:#4c311b;}.cls-20{fill:#ffebdc;}.cls-21{fill:#a06950;}.cls-22{fill:#ff8f9f;}.cls-23{fill:#542b1b;}.cls-24{fill:#b56c55;}.cls-25{fill:#ea9c68;}.cls-26{fill:#ffecb0;}.cls-27{fill:#e8b246;}.cls-28{fill:#dd7f33;}.cls-29{filter:url(#luminosity-noclip);}</style><filter id="luminosity-noclip" x="96.94" y="-8369.81" width="129.44" height="32766" filterUnits="userSpaceOnUse" color-interpolation-filters="sRGB"><feFlood flood-color="#fff" result="bg"/><feBlend in="SourceGraphic" in2="bg"/></filter><mask id="mask" x="96.94" y="-8369.81" width="129.44" height="32766" maskUnits="userSpaceOnUse"><g class="cls-29"/></mask><linearGradient id="linear-gradient" x1="161.78" y1="111.44" x2="157.2" y2="195.28" gradientUnits="userSpaceOnUse"><stop offset="0"/><stop offset="0.99" stop-color="#b3b3b3"/></linearGradient><linearGradient id="linear-gradient-2" x1="-30.62" y1="178.19" x2="326.31" y2="178.19" gradientUnits="userSpaceOnUse"><stop offset="0" stop-color="#43c6ac"/><stop offset="1" stop-color="#1a1956"/></linearGradient><radialGradient id="radial-gradient" cx="300.46" cy="-36.88" r="444.61" gradientUnits="userSpaceOnUse"><stop offset="0" stop-color="#f4f9f8"/><stop offset="1" stop-color="#fcf990"/></radialGradient><filter id="luminosity-noclip-2" x="96.94" y="62.42" width="129.44" height="117.15" filterUnits="userSpaceOnUse" color-interpolation-filters="sRGB"><feFlood flood-color="#fff" result="bg"/><feBlend in="SourceGraphic" in2="bg"/></filter><mask id="mask-2" x="96.94" y="62.42" width="129.44" height="117.15" maskUnits="userSpaceOnUse"><g class="cls-1"><path class="cls-2" d="M149,177.71c26.3,7.06,67.43-5.52,75.11-44.93s-3.29-62.78-46.39-69-75.27,9.43-80,40.63S109,167,149,177.71Z"/></g></mask><linearGradient id="linear-gradient-3" x1="161.78" y1="111.44" x2="157.2" y2="195.28" gradientUnits="userSpaceOnUse"><stop offset="0" stop-color="#c04b00"/><stop offset="0.99" stop-color="#b73400"/></linearGradient></defs><g class="cls-3"><g id="_1" data-name="1"><rect class="cls-4" x="-30.62" y="-37.81" width="356.92" height="432"/><rect class="cls-5" width="300" height="250"/><path class="cls-6" d="M229.61,212.38c-8.55,2.72-51.64,7.17-69-19l8.44-2.65a3.24,3.24,0,0,1,3.63,1.2c4.1,5.71,18.42,20.74,56.61,18.53Z"/><path class="cls-7" d="M229.26,210.45a123.15,123.15,0,0,1-14.24,0l0,1.91c-6.8.88-34.79-1.47-53.18-17.21,18,24.16,59.36,19.87,67.73,17.2Z"/><rect class="cls-8" x="153.12" y="164.69" width="11.65" height="27.74"/><path class="cls-6" d="M180.88,249.43s2.73-36.56-6.74-55c-4.24-8.23-16.26-9.41-21.58-8.21-17.22,3.86-10.92,58.93-8.54,71.21,1.17,6,9.22,19.93-7.82,37.91l2.48,3.72s14.68-11.66,15-24.25,9.51-15.86,15.91-17.27,22.19,5.91,31.63,21.63l4.19-2.19S194.6,257.38,180.88,249.43Z"/><polygon class="cls-7" points="183.43 249.57 143.11 252.78 143.68 256.33 183.43 252.2 183.43 249.57"/><path class="cls-7" d="M141.43,237.5c.33.24,6.91-32.91,5.64-47.48C140.27,198.84,140,220.63,141.43,237.5Z"/><path class="cls-7" d="M179.36,246.07c.56.32,1.11.67,1.66,1,.31-6.2.8-23.73-2.3-38.72C178.28,206.25,179.36,246.07,179.36,246.07Z"/><path class="cls-6" d="M109.09,239.37c-1-6.65,4.79-46.4,42.93-53l2.43,9.47s-34.23,5.2-43.37,43.82Z"/><path class="cls-7" d="M112.3,227.12c-1.57,6.07-3.49,10.28-3.21,12.25l2,.25c6.76-28.54,27.2-38.82,37.42-42.25C138.34,199.84,123.11,207.51,112.3,227.12Z"/><polygon class="cls-9" points="183.31 244.53 141.85 249.8 142.99 254.15 183.77 250.72 183.31 244.53"/><path class="cls-9" d="M111.42,238.75s7.3,6.75,5.28,8.76-10.91,3.07-8.59-7.28C108.37,238.86,111.42,238.75,111.42,238.75Z"/><path class="cls-9" d="M110.88,240.91s6.31-9.18,9.66-8.38c0,0-11.35-8.72-18.44-5.9l6.33,13.84Z"/><path class="cls-9" d="M151,186.58l6.87,5.49-5.95,1.15,15.34,21.3,3.9-16.72-3.67-2.75,2.07-6.18S160.86,182.68,151,186.58Z"/><polygon class="cls-9" points="155.67 205.05 163.61 200.78 173.08 206.58 167.28 223.07 155.67 205.05"/><rect class="cls-9" x="160.86" y="244.3" width="13.29" height="9.85" transform="translate(-27.99 21.29) rotate(-6.71)"/><rect class="cls-6" x="164.95" y="246.7" width="5.58" height="4.15" transform="translate(-27.75 21.16) rotate(-6.67)"/><path class="cls-10" d="M175.77,195.58a31.23,31.23,0,0,1-3.12-3.66,3.23,3.23,0,0,0-1.26-1,15.9,15.9,0,0,0-2-1.56l.17-.48a21.37,21.37,0,0,0-4.8-2.34v-14.8c-2.74-.18-5.58-.27-8.49-.27-1.07,0-2.12,0-3.16,0v14.4a16.93,16.93,0,0,0-1.8.57,49.56,49.56,0,0,0-19.63,8.1,110.93,110.93,0,0,0,24.59,2.54A118.41,118.41,0,0,0,175.77,195.58Z"/><path class="cls-11" d="M120.24,35.89C131,21.6,47.54-28.7,46,67.31,66.08,39.58,100.59,62.06,120.24,35.89Z"/><path class="cls-12" d="M120.24,35.89c1.94-2.58-4.74-21.43-36.3-8.41C62.37,36.37,47.79,53,46.62,66.46,66.82,40.09,100.8,61.78,120.24,35.89Z"/><path class="cls-13" d="M130,37c-1.66-4-6.72-5.62-11.3-3.71s-6.94,6.69-5.28,10.66,6.72,5.62,11.3,3.71S131.64,40.92,130,37Z"/><polygon class="cls-13" points="98.35 114.3 116.29 138.74 105.68 149.32 98.1 144.9 105.6 137.72 98.35 114.3"/><polygon class="cls-6" points="90.46 108.94 91.46 146.3 105.68 149.32 90.46 108.94"/><polygon class="cls-13" points="93.23 118.87 86.38 148.41 71.45 147.26 69.85 138.63 80.2 139.64 93.23 118.87"/><polygon class="cls-6" points="92.15 109.39 64.47 134.51 71.45 147.26 92.15 109.39"/><path class="cls-11" d="M105.38,151.52c-19.57-18-40.29-78.78,12.15-109s155,29.09,101.18,96.37S105.38,151.52,105.38,151.52Z"/><path class="cls-8" d="M149,177.71c26.3,7.06,67.43-5.52,75.11-44.93s-3.29-62.78-46.39-69-75.27,9.43-80,40.63S109,167,149,177.71Z"/><g class="cls-14"><path class="cls-15" d="M149,177.71c26.3,7.06,67.43-5.52,75.11-44.93s-3.29-62.78-46.39-69-75.27,9.43-80,40.63S109,167,149,177.71Z"/></g><polygon class="cls-6" points="225.56 114.18 101.98 103.73 103.09 137.54 226.66 147.99 225.56 114.18"/><path class="cls-16" d="M215.38,128.85A49.12,49.12,0,0,1,212,146.76L226.66,148l-1.1-33.81-12.65-1.07A51.57,51.57,0,0,1,215.38,128.85Z"/><path class="cls-16" d="M115.5,123.81a49,49,0,0,1,3.63-18.62L102,103.73l1.11,33.81,14.63,1.23A51.63,51.63,0,0,1,115.5,123.81Z"/><path class="cls-17" d="M201.88,143c3.59-4,3.78-27.23-8.66-28.2-15.71-1.22-21.53,17.18-18.92,26Z"/><path class="cls-17" d="M156.48,139.16c2.86-4,2.7-25.28-13-28.49-15.25-3.1-18.18,17.41-14.19,26.33Z"/><path class="cls-11" d="M117.78,183.73c-8.38-23.07-25.34-77,16.43-119.71L122.61,53.8C100.34,74.57,70.87,101,117.78,183.73Z"/><path class="cls-11" d="M206.18,186.29c10.12-22.58,31.11-75.49-8.9-120.38l12.59-9.59C231.33,78.24,259.82,106.19,206.18,186.29Z"/><path class="cls-18" d="M129.55,136.79c-2.75-4.28.31-25.66,11.91-24.74s18.64,18.94,15,26.88Z"/><path class="cls-18" d="M200.28,142.87c3.31-3.82,3.63-25.41-7.69-26.23S171.75,132.57,174.07,141Z"/><path class="cls-19" d="M150.8,150.74,179.61,152S161.59,182.6,150.8,150.74Z"/><polygon class="cls-20" points="153.3 151.76 156.05 157.94 170.48 159.32 176.9 152.44 153.3 151.76"/><polygon class="cls-21" points="170.79 80.28 111.3 79.29 115.16 75.55 171.25 72.8 170.79 80.28"/><polygon class="cls-21" points="178 80.92 224.24 86.85 222.21 82.8 178.4 73.49 178 80.92"/><polygon class="cls-6" points="168.23 76.94 174.69 92.39 182.62 78.95 176.24 66.2 168.23 76.94"/><polygon class="cls-22" points="170.57 75.85 174.1 83.58 177.17 76.85 175.71 68.75 170.57 75.85"/><path class="cls-23" d="M192.66,134c.51-3.83-1.37-7.23-4.19-7.61s-5.52,2.42-6,6.25,1.36,7.23,4.18,7.6S192.15,137.82,192.66,134Z"/><path class="cls-23" d="M150.09,129.64c-.18-3.86-2.63-6.87-5.47-6.74s-5,3.36-4.83,7.21,2.63,6.87,5.47,6.74S150.26,133.49,150.09,129.64Z"/><path class="cls-24" d="M148.22,128c-.06-1.42-1-2.53-2-2.49s-1.86,1.22-1.79,2.64,1,2.53,2,2.49S148.28,129.39,148.22,128Z"/><path class="cls-24" d="M191.4,131.52c-.06-1.41-1-2.53-2-2.49s-1.85,1.23-1.79,2.64,1,2.54,2,2.49S191.46,132.94,191.4,131.52Z"/><path class="cls-11" d="M186.52,104.87s13.59,4.74,15.42,4.28l1.22-1.38s-14.66-6.1-16.95-8.24Z"/><path class="cls-11" d="M149.07,102s-14.08,1.51-15.72.64L132.5,101s15.42-2.61,18.11-4.17Z"/><path class="cls-25" d="M170,144.43c0-1.69-2.36-3.06-5.27-3.06s-5.26,1.37-5.26,3.06,2.35,3,5.26,3S170,146.11,170,144.43Z"/><path class="cls-8" d="M171.25,143.21c0-1.69-2.36-3.06-5.27-3.06s-5.27,1.37-5.27,3.06,2.36,3,5.27,3S171.25,144.89,171.25,143.21Z"/><ellipse class="cls-19" cx="151.09" cy="151.15" rx="1.53" ry="1.15"/><ellipse class="cls-19" cx="179.65" cy="152.67" rx="1.53" ry="1.15"/><path class="cls-26" d="M89.24,100.6c.91-19.55,7.94-54.37,46.42-59.56C135.66,41,107.26,51.72,89.24,100.6Z"/><path class="cls-26" d="M98.06,96.73c.71-15.2,6.17-42.29,36.11-46.33C134.17,50.4,112.07,58.72,98.06,96.73Z"/><path class="cls-27" d="M117.58,246.23c.26-1-.07-1.92-.75-2.09s-1.43.46-1.69,1.44.08,1.92.75,2.1S117.32,247.21,117.58,246.23Z"/><path class="cls-9" d="M115.87,248c.89-.48,1.35-1.36,1-2s-1.32-.72-2.21-.24-1.35,1.36-1,2S115,248.47,115.87,248Z"/><path class="cls-27" d="M112,239.2c1.74.55,6.66,3.24,5.09,5.17C115.16,246.67,110.76,238.82,112,239.2Z"/><path class="cls-9" d="M110.51,238.77c1.81.29,7.07,2.24,5.79,4.38C114.77,245.71,109.27,238.57,110.51,238.77Z"/><polygon class="cls-6" points="112.98 238.5 107.18 238.12 107.87 241.4 112.91 239.41 112.98 238.5"/><path class="cls-9" d="M230.21,211.45s7.27,6.14,9,3.61,2-12-7.9-7.36C230.05,208.25,230.21,211.45,230.21,211.45Z"/><path class="cls-9" d="M232.28,210.42s-8.41,8.5-7.33,11.8c0,0-9.56-9.92-7.44-17.87L231.63,208Z"/><path class="cls-27" d="M238.09,216.24c-.94.48-1.88.33-2.12-.32s.33-1.59,1.27-2.07,1.88-.33,2.11.33S239,215.77,238.09,216.24Z"/><path class="cls-9" d="M239.66,214.09c-.39,1-1.21,1.69-1.84,1.48s-.83-1.21-.45-2.24,1.21-1.69,1.84-1.48S240,213.06,239.66,214.09Z"/><path class="cls-27" d="M230.71,211.91c.69,1.69,3.77,6.22,5.51,4.18C238.3,213.64,230.22,210.74,230.71,211.91Z"/><path class="cls-9" d="M230.15,210.49c.45,1.82,2.84,6.86,4.81,5.08C237.33,213.44,229.84,209.25,230.15,210.49Z"/><polygon class="cls-6" points="230.11 213.12 229.21 207.18 232.49 207.19 231 212.84 230.11 213.12"/><path class="cls-28" d="M141.6,146.62c.12-2-3.53-3.76-8.14-4s-8.44,1.11-8.55,3.07,3.54,3.76,8.15,4S141.49,148.57,141.6,146.62Z"/><path class="cls-28" d="M201.16,151.66c.12-2-3.53-3.76-8.14-4s-8.44,1.11-8.55,3.07,3.54,3.76,8.15,4S201.05,153.61,201.16,151.66Z"/></g></g></svg>