<svg xmlns="http://www.w3.org/2000/svg" xmlns:xlink="http://www.w3.org/1999/xlink" viewBox="0 0 300 250"><defs><style>.cls-1{mask:url(#mask);filter:url(#luminosity-noclip-2);}.cls-14,.cls-2,.cls-20{mix-blend-mode:multiply;}.cls-2{fill:url(#linear-gradient);}.cls-3{isolation:isolate;}.cls-4{fill:url(#linear-gradient-2);}.cls-5{fill:url(#radial-gradient);}.cls-6{fill:#c93c31;}.cls-7{fill:#af2d27;}.cls-8{fill:#fcde63;}.cls-9{fill:#eac23f;}.cls-10{fill:#efbf48;}.cls-11{fill:#6d1715;}.cls-12{fill:#ffc673;}.cls-13{fill:#d3a62a;}.cls-14{fill:#66493d;opacity:0.5;}.cls-15{fill:#49241b;}.cls-16{fill:#ad2d27;}.cls-17{fill:#381913;}.cls-18{fill:#dd9f4e;}.cls-19{mask:url(#mask-2);}.cls-20{opacity:0.3;fill:url(#linear-gradient-3);}.cls-21{fill:#ffecde;}.cls-22{fill:#3a291e;}.cls-23{fill:#705241;}.cls-24{fill:#3f2b1a;}.cls-25{fill:#efac5e;}.cls-26{filter:url(#luminosity-noclip);}</style><filter id="luminosity-noclip" x="110.36" y="-8369.81" width="111.89" height="32766" filterUnits="userSpaceOnUse" color-interpolation-filters="sRGB"><feFlood flood-color="#fff" result="bg"/><feBlend in="SourceGraphic" in2="bg"/></filter><mask id="mask" x="110.36" y="-8369.81" width="111.89" height="32766" maskUnits="userSpaceOnUse"><g class="cls-26"/></mask><linearGradient id="linear-gradient" x1="163.06" y1="148.72" x2="158.65" y2="188.39" gradientUnits="userSpaceOnUse"><stop offset="0"/><stop offset="1" stop-color="#fff"/></linearGradient><linearGradient id="linear-gradient-2" x1="-30.62" y1="178.19" x2="326.31" y2="178.19" gradientUnits="userSpaceOnUse"><stop offset="0" stop-color="#43c6ac"/><stop offset="1" stop-color="#1a1956"/></linearGradient><radialGradient id="radial-gradient" cx="300.46" cy="-36.88" r="444.61" gradientUnits="userSpaceOnUse"><stop offset="0" stop-color="#f4f9f8"/><stop offset="1" stop-color="#fcf990"/></radialGradient><filter id="luminosity-noclip-2" x="110.36" y="58.7" width="111.89" height="118.68" filterUnits="userSpaceOnUse" color-interpolation-filters="sRGB"><feFlood flood-color="#fff" result="bg"/><feBlend in="SourceGraphic" in2="bg"/></filter><mask id="mask-2" x="110.36" y="58.7" width="111.89" height="118.68" maskUnits="userSpaceOnUse"><g class="cls-1"><path class="cls-2" d="M131.25,170.68c28.87,13,82.66,9.93,90.37-35.88,5.75-34.09-27.54-118.94-101.55-49.64C96.55,107.18,122,166.49,131.25,170.68Z"/></g></mask><linearGradient id="linear-gradient-3" x1="163.06" y1="148.72" x2="158.65" y2="188.39" gradientUnits="userSpaceOnUse"><stop offset="0" stop-color="#e55c00"/><stop offset="1" stop-color="#b73400"/></linearGradient></defs><g class="cls-3"><g id="_1" data-name="1"><rect class="cls-4" x="-30.62" y="-37.81" width="356.92" height="432"/><rect class="cls-5" width="300" height="250"/><path class="cls-6" d="M189,188.14c17.07,2.92,38.2,21.87,40.28,30.19s-17.8,31.83-17.8,31.83l-1.25-6.24s16.13-17.68,12-25.59-28.2-14-28.2-14Z"/><path class="cls-7" d="M213.34,242.38s16.13-17.68,12-25.58-28.2-14-28.2-14L192.86,189a37.54,37.54,0,0,0-3.82-.9l5,16.24s24,6,28.2,14-12,25.59-12,25.59l1.25,6.24s1.08-1.28,2.71-3.34Z"/><path class="cls-8" d="M215.86,228.49c6.95,3.21,10.94,7.35,13.7,14.87l-18,6.8s3.75,13.32-6.25,7.5S215.86,228.49,215.86,228.49Z"/><path class="cls-9" d="M210.22,258.06c-3.69-10.8,6.81-19.9,12.58-25.17a27.77,27.77,0,0,0-6.94-4.4s-20.57,23.34-10.59,29.17c2.95,1.71,4.7,1.76,5.71,1C210.73,258.46,210.33,258.38,210.22,258.06Z"/><polygon class="cls-10" points="145.97 182.91 182.33 180.79 183.35 187.16 161.08 191.41 145.97 182.91"/><path class="cls-11" d="M175.29,316.34c11.35-1.67,18-124-1.65-128.2s-64.39,73.52-73.95,122.28c0,0,21.21-5,30.36-5S152.49,319.71,175.29,316.34Z"/><rect class="cls-12" x="163.09" y="174.13" width="10.27" height="16.37" transform="translate(-29.34 32.29) rotate(-10.09)"/><path class="cls-6" d="M120.9,331.74h17.76s16.07-54.76,30.68-58.15c36.2-8.4,29.34,59.64,29.34,59.64H218.1L205,325.81S216,200.24,191.77,188.9c-7.39-3.46-32.85-2-39.66,5.93s7,49.43.89,70.68-19.61,60.8-19.61,60.8Z"/><path class="cls-7" d="M136.22,326.93s17.09-41.84,23.21-63.1c4.58-15.93-4-41.93-5.79-57.29-.58-5.15-3.62-5.82-3.41-.64.64,16,7.38,43.56,2.77,59.61-6.12,21.26-19.61,60.8-19.61,60.8l-12.49,5.43h4.28Z"/><path class="cls-13" d="M142.19,235.57c-2.66-4.25-14.35-9.27-18.56-7.11C121.57,231.18,133.78,238.26,142.19,235.57Z"/><path class="cls-6" d="M122.83,236.28s18.65-45.1,42.49-47.72c0,0-3.09,9.18-7.55,13-15.11,13-28.4,38.9-30.75,39S122.83,236.28,122.83,236.28Z"/><path class="cls-7" d="M124.62,239.23a3.2,3.2,0,0,0,2.4,1.36c2.15-.11,13.48-21.85,27-35.48C141.68,216,130.4,232.1,124.62,239.23Z"/><path class="cls-8" d="M123.63,228.46c2.81,5.24,8,7.19,18.43,7.16L123.22,249.5s7.17,5.62,3.62,11.34c-2.83,4.56-16.48,5.05-14-5A116.16,116.16,0,0,1,123.63,228.46Z"/><path class="cls-9" d="M117.08,257.22a118.1,118.1,0,0,1,9.57-25.09,11.71,11.71,0,0,1-3-3.67,116.16,116.16,0,0,0-10.8,27.34c-1.36,5.54,2.14,7.87,6,8.12C117.19,262.65,116.28,260.5,117.08,257.22Z"/><path class="cls-12" d="M160,190.12l21.37.82,1.41-4.48C172,187.1,166.87,187.43,160,190.12Z"/><polygon class="cls-8" points="155.88 191.89 145.97 182.91 176.43 190.71 155.88 191.89"/><polygon class="cls-8" points="182.33 180.79 186.11 187.4 181.39 190.94 182.33 180.79"/><polygon class="cls-8" points="171.23 227.92 179.61 205.44 191.07 225.72 171.23 227.92"/><path class="cls-14" d="M206.64,195.47A57.61,57.61,0,0,0,192.86,189h0c-.61-.18-1.21-.34-1.81-.48l-.14,0-.27-.06a24.2,24.2,0,0,0-4.64-1l.12-.09-3.78-6.61-9.06.53-1.42-8-10.11,1.8,1.2,6.76-17,1,9.86,8.93a48.35,48.35,0,0,0-11.22,9.29A137,137,0,0,0,166,202.75C183.31,202.75,198.41,199.83,206.64,195.47Z"/><path class="cls-15" d="M203.58,90.59c10.16.71,23.85-.94,29-17.24,0,0-19.37,5.2-17.48-14.64Z"/><polygon class="cls-16" points="86.99 118.11 65.39 104.86 58.27 125.15 85.03 122.11 86.99 118.11"/><polygon class="cls-16" points="84.1 127.9 61.44 139.23 74.89 156 86.47 131.68 84.1 127.9"/><path class="cls-15" d="M146.67,173c-19.11,1.21-46.19-4.51-47-15.36,0,0-15.85,2.41-19.26-9.64s4-16.87,4-16.87l-3.32-17.48s-6.43-.9-4.59,4.52-24.12-11.14,1-21.08c0,0-5.44-14.77,4.62-18.38,0,0-27.41-6-19.77-21.09S86.52,47.38,86.52,47.38,80.86,35,98.59,31.41s18.85,7.53,18.85,7.53,2-12,20.61-10.54c0,0-2.7-10.55,10.13-9.34s18.56,8.13,18.56,8.13,20.38,6,16.38-5.12c0,0,62.91-14.46,29.62,63.27Z"/><path class="cls-17" d="M160.14,123.41c-33.48,0-63.32-10.55-82.85-27,.14.45.24.72.24.72-25.1,9.94.85,26.5-1,21.08s4.59-4.52,4.59-4.52l3.32,17.48S77,136,80.42,148s19.26,9.64,19.26,9.64c.8,10.85,27.88,16.57,47,15.36l39-51.7A154.3,154.3,0,0,1,160.14,123.41Z"/><path class="cls-12" d="M131.25,170.68c28.87,13,82.66,9.93,90.37-35.88,5.75-34.09-27.54-118.94-101.55-49.64C96.55,107.18,122,166.49,131.25,170.68Z"/><polygon class="cls-18" points="222 128.61 113.92 129.79 113.92 134.04 221.76 134.27 222 128.61"/><g class="cls-19"><path class="cls-20" d="M131.25,170.68c28.87,13,82.66,9.93,90.37-35.88,5.75-34.09-27.54-118.94-101.55-49.64C96.55,107.18,122,166.49,131.25,170.68Z"/></g><polygon class="cls-6" points="80.09 118.45 220.82 104.26 224.18 131.54 83.63 132.62 80.09 118.45"/><path class="cls-16" d="M112.39,115.2l-32.3,3.25,3.54,14.17,32.91-.25A55.71,55.71,0,0,1,112.39,115.2Z"/><path class="cls-12" d="M117.45,133.64c-6.71-3.44-14.38-6.58-17.25,2.82s10.54,15,18.2,12.54S117.45,133.64,117.45,133.64Z"/><path class="cls-21" d="M136.33,128c2.07-5.58,8.1-21.89,34.55-2.46Z"/><path class="cls-21" d="M215.1,124c-3.23-4.83-12.65-18.94-30.24.4Z"/><path class="cls-22" d="M206.68,119.09a4.69,4.69,0,1,0-4.55,4.82A4.69,4.69,0,0,0,206.68,119.09Z"/><path class="cls-22" d="M156.08,121.65a5.16,5.16,0,1,0-5.05,5.27A5.17,5.17,0,0,0,156.08,121.65Z"/><path class="cls-23" d="M154.71,120.44a2,2,0,1,0-2,2A2,2,0,0,0,154.71,120.44Z"/><path class="cls-23" d="M205.78,118.16A1.82,1.82,0,1,0,204,120,1.81,1.81,0,0,0,205.78,118.16Z"/><path class="cls-18" d="M185.58,132.88c-.26-2-3.63-3.3-7.53-2.81s-6.86,2.54-6.61,4.59,3.63,3.31,7.54,2.82S185.84,134.93,185.58,132.88Z"/><path class="cls-12" d="M185.48,132c-.22-1.72-3-2.77-6.32-2.36s-5.75,2.14-5.53,3.85,3,2.78,6.31,2.36S185.69,133.7,185.48,132Z"/><path class="cls-15" d="M134.39,111.16c3.28-1.54,18.32-3.11,21.62-4.92s-.8-5.82-.8-5.82Z"/><path class="cls-15" d="M212.17,101c-3.1-.81-15.86.8-19.06-.26s-.94-5.76-.94-5.76Z"/><path class="cls-18" d="M114.93,136c-4.21-2.16-9-4.13-10.82,1.77s6.61,9.44,11.42,7.86S114.93,136,114.93,136Z"/><path class="cls-12" d="M117.29,139.82c-1.86-1-4-1.83-4.79.79s2.93,4.18,5.06,3.48S117.29,139.82,117.29,139.82Z"/><path class="cls-24" d="M163.18,143.16l26.69-.36S179.1,172.18,163.18,143.16Z"/><polygon class="cls-21" points="165.98 144.32 169.84 149.77 183.65 150.07 188.73 143.58 165.98 144.32"/><path class="cls-24" d="M165.09,143.53c0-.52-.56-1-1.3-1s-1.35.37-1.37.89.55,1,1.29,1S165.06,144.05,165.09,143.53Z"/><path class="cls-24" d="M191.73,143.33c0-.52-.56-1-1.3-1s-1.35.36-1.38.89.56,1,1.3,1S191.7,143.85,191.73,143.33Z"/><path class="cls-25" d="M151.87,140.73c0-1.91-3.06-3.47-6.85-3.47s-6.84,1.56-6.84,3.47,3.06,3.46,6.84,3.46S151.87,142.64,151.87,140.73Z"/><path class="cls-25" d="M212,140.41c0-1.91-3.06-3.46-6.84-3.46s-6.85,1.55-6.85,3.46,3.07,3.47,6.85,3.47S212,142.33,212,140.41Z"/><polygon class="cls-6" points="173.59 226.03 179.97 208.9 188.71 224.35 173.59 226.03"/><path class="cls-15" d="M144.62,77.16c7,3.66,33-9.88,23.13-21.73l-16.93,1.41S157.88,72.36,144.62,77.16Z"/></g></g></svg>