<svg xmlns="http://www.w3.org/2000/svg" xmlns:xlink="http://www.w3.org/1999/xlink" viewBox="0 0 300 250"><defs><style>.cls-1{mask:url(#mask);filter:url(#luminosity-noclip-2);}.cls-19,.cls-2,.cls-21{mix-blend-mode:multiply;}.cls-2{fill:url(#linear-gradient);}.cls-3{isolation:isolate;}.cls-4{fill:url(#linear-gradient-2);}.cls-5{fill:url(#radial-gradient);}.cls-6{fill:#60331f;}.cls-7{fill:#592318;}.cls-8{fill:#3f160f;}.cls-9{fill:#66305c;}.cls-10{fill:#54284e;}.cls-11{fill:#7c482c;}.cls-12{fill:#ffc255;}.cls-13{fill:#e5a133;}.cls-14{fill:#dd587b;}.cls-15{fill:#cc466f;}.cls-16{fill:#c14269;}.cls-17{fill:#a54c92;}.cls-18{fill:#8e3d7f;}.cls-19{fill:#66493d;opacity:0.5;}.cls-20{mask:url(#mask-2);}.cls-21{opacity:0.3;fill:url(#linear-gradient-3);}.cls-22{fill:#753268;}.cls-23{fill:#4c2616;}.cls-24{fill:#ffefe9;}.cls-25{fill:#ffecde;}.cls-26{fill:#60321c;}.cls-27{fill:#445866;}.cls-28{fill:#7c93a0;}.cls-29{filter:url(#luminosity-noclip);}</style><filter id="luminosity-noclip" x="80.06" y="-8369.81" width="138.35" height="32766" filterUnits="userSpaceOnUse" color-interpolation-filters="sRGB"><feFlood flood-color="#fff" result="bg"/><feBlend in="SourceGraphic" in2="bg"/></filter><mask id="mask" x="80.06" y="-8369.81" width="138.35" height="32766" maskUnits="userSpaceOnUse"><g class="cls-29"/></mask><linearGradient id="linear-gradient" x1="147.73" y1="87.29" x2="153.24" y2="160.78" gradientUnits="userSpaceOnUse"><stop offset="0"/><stop offset="1" stop-color="#fff"/></linearGradient><linearGradient id="linear-gradient-2" x1="-30.62" y1="178.19" x2="326.31" y2="178.19" gradientUnits="userSpaceOnUse"><stop offset="0" stop-color="#43c6ac"/><stop offset="1" stop-color="#1a1956"/></linearGradient><radialGradient id="radial-gradient" cx="300.46" cy="-36.88" r="444.61" gradientUnits="userSpaceOnUse"><stop offset="0" stop-color="#f4f9f8"/><stop offset="1" stop-color="#fcf990"/></radialGradient><filter id="luminosity-noclip-2" x="80.06" y="41.1" width="138.35" height="118.44" filterUnits="userSpaceOnUse" color-interpolation-filters="sRGB"><feFlood flood-color="#fff" result="bg"/><feBlend in="SourceGraphic" in2="bg"/></filter><mask id="mask-2" x="80.06" y="41.1" width="138.35" height="118.44" maskUnits="userSpaceOnUse"><g class="cls-1"><path class="cls-2" d="M80.49,97.62c-1,15-5.39,64.7,66.45,61.8s74.72-44,70.05-66.16-35.21-54.88-69-52S82.64,66,80.49,97.62Z"/></g></mask><linearGradient id="linear-gradient-3" x1="147.73" y1="87.29" x2="153.24" y2="160.78" gradientUnits="userSpaceOnUse"><stop offset="0" stop-color="#e55c00"/><stop offset="1" stop-color="#b73400"/></linearGradient></defs><g class="cls-3"><g id="_1" data-name="1"><rect class="cls-4" x="-30.62" y="-37.81" width="356.92" height="432"/><rect class="cls-5" width="300" height="250"/><path class="cls-6" d="M231.16,165.36c-3.79-7-3.56-12.28,0-13.66S246.43,157.1,231.16,165.36Z"/><path class="cls-7" d="M98.94,217.58C56.45,133.51,43.89-9.8,140.66,37.66c91.87-66.45,116.7,91.59,56.87,170.1C168.75,231.23,98.94,217.58,98.94,217.58Z"/><path class="cls-8" d="M141.41,60.17C116.07,60.17,50,93.7,105.1,217.58c0,0,61.43,13.65,86.76-9.82C231.28,148.37,234.11,60.17,141.41,60.17Z"/><path class="cls-9" d="M144,315.42s54.35.72,92.23-23.14c0,0-54.51-123.75-85-121.1S144,315.42,144,315.42Z"/><path class="cls-10" d="M170.06,173.63c-2.57-1.16-16.47-2.65-18.8-2.45C120.78,173.83,144,315.42,144,315.42s55.54,9.91,92.29-23.16c-.41-.66-10.49,5.16-10.91,4.48C204.2,262,175.64,203.05,170.06,173.63Z"/><rect class="cls-11" x="147.57" y="149.08" width="10.63" height="20.33"/><path class="cls-12" d="M136.48,344.18c-8-18.71-24.63-86-8.62-124.38l13.55,6.57s-20.94,34.38.61,118.31Z"/><path class="cls-13" d="M133,293.19c-3.79-46.77,8.38-66.82,8.38-66.82l-13.55-6.57c-8.81,21.14-7.73,51-3.65,76.72A19,19,0,0,1,133,293.19Z"/><path class="cls-12" d="M223.08,344.72c-16.86-17.5-65.33-80.39-67.51-116.33l16.67,6.15s-4.67,32.15,56.62,110.65Z"/><path class="cls-13" d="M185,285.2a25.41,25.41,0,0,1,3-1.53c-17.92-34.23-15.78-49.13-15.78-49.13l-16.67-6.15c1,16.66,12,39.12,25.12,60.15A25.89,25.89,0,0,1,185,285.2Z"/><path class="cls-14" d="M109,283.59c34.72-15.54,53.69-10.51,89.31-15.91l-25.51-43.75-51.19,6.86Z"/><path class="cls-15" d="M173.58,226.15c0-3.93-11.65-6.55-26-5.85s-26.18,7.28-26.18,11.21,11,5.29,25.42,4.59S173.58,230.09,173.58,226.15Z"/><path class="cls-15" d="M192.77,268.45q2.72-.34,5.56-.77l-25.51-43.75-.89.12Z"/><path class="cls-15" d="M125.1,230.33l-3.47.46L109,283.59c2.18-1,4.3-1.87,6.36-2.69Z"/><path class="cls-14" d="M79.62,159.79c-.93,17.34,17.4,43.24,59,10.4L137.29,184s-59.1,33.55-63.64-22.3Z"/><path class="cls-16" d="M84.79,176.86a27,27,0,0,1-5.17-17.07l-6,1.94c.61,7.48,2.21,13.34,4.5,17.91Z"/><path class="cls-16" d="M111.57,184.89a44.22,44.22,0,0,1-5.87,9c15.85-1,31.59-9.9,31.59-9.9l1.31-13.84C128.14,178.45,119.15,183,111.57,184.89Z"/><path class="cls-14" d="M227.29,167.13c-.54,17.36-16.92,42.81-65.89-.67l5.35,19.8s57.08,38.57,66.42-16.68Z"/><path class="cls-16" d="M228.27,185a50.81,50.81,0,0,0,4.9-15.41l-5.88-2.45a28.18,28.18,0,0,1-5,15.4Z"/><path class="cls-16" d="M187.06,184.89c-7.34-3.8-15.83-9.71-25.66-18.43l5.35,19.8s11.83,8,25.61,11.49A45.1,45.1,0,0,1,187.06,184.89Z"/><polygon class="cls-12" points="219.62 176.74 236.52 180.34 234.71 162.22 229.3 160.86 219.62 176.74"/><path class="cls-17" d="M120.07,229c.93-21.37,6.77-53.27,20.38-60.17,18.35-9.3,26.09,2.74,28.2,6,1.5,2.33,4.3,32.47,5.8,49.79C169,233.61,122.19,238.13,120.07,229Z"/><path class="cls-18" d="M124.15,230.36c.72-20.24,4.86-49.51,14.23-60.2C126.25,179.09,121,208.77,120.07,229c.42,1.8,2.6,3.06,5.85,3.87A4.14,4.14,0,0,1,124.15,230.36Z"/><path class="cls-18" d="M168.65,174.87a20.74,20.74,0,0,0-8.08-7.76,22.64,22.64,0,0,1,4.87,6.63c1.27,2.44,3.65,33.95,4.93,52.06a10.37,10.37,0,0,1-4.35,3.95c4.16-1.43,7.26-3.16,8.43-5.09C173,207.34,170.15,177.2,168.65,174.87Z"/><path class="cls-12" d="M171.21,190.4a78.86,78.86,0,0,0-5.44-15.24c-2.7-5.33-7.76-9.49-4.21-9.8C175.11,164.22,171.21,190.4,171.21,190.4Z"/><path class="cls-12" d="M126.1,190.72A105.57,105.57,0,0,1,132.55,177c2.37-4.18,9.33-7.42,6.28-8C125.22,166.6,126.1,190.72,126.1,190.72Z"/><path class="cls-12" d="M160.39,199.1a12.79,12.79,0,0,0-25.52,0Z"/><path class="cls-12" d="M135,202.37a12.8,12.8,0,0,0,25.18,0Z"/><circle class="cls-17" cx="147.4" cy="200.28" r="6.89"/><path class="cls-12" d="M143.8,200.43a3.6,3.6,0,1,0,3.6-3.6A3.6,3.6,0,0,0,143.8,200.43Z"/><path class="cls-19" d="M180.62,181.17c-1.48-.93-3-1.93-4.55-3-.37-.26-.73-.5-1.1-.77-.64-.46-1.3-.95-1.95-1.44s-1.27-.94-1.92-1.44l-.13-.1c-1.12-5.19-3.72-9.52-9.41-9-1.3.12-1.43.75-1,1.76a16.81,16.81,0,0,0-2.41-1V154.78c-2-.08-4-.14-6-.14-1.55,0-3.08,0-4.58.08v11.41a34.11,34.11,0,0,0-7.12,2.72c-.31.16-.61.35-.92.53a1,1,0,0,0-.7-.34c-6.35-1.14-9.54,3.5-11.15,8.78l-.22.14-.48.27c-1,.6-2,1.17-3,1.69l-.28.14c-.5.27-1,.49-1.47.74a116.37,116.37,0,0,0,29.89,3.55A118.75,118.75,0,0,0,180.62,181.17Z"/><path class="cls-11" d="M80.49,97.62c-1,15-5.39,64.7,66.45,61.8s74.72-44,70.05-66.16-35.21-54.88-69-52S82.64,66,80.49,97.62Z"/><path class="cls-11" d="M71.59,120.63c-1.41-4.17.08-8,3.34-8.59s7,2.32,8.44,6.49-.09,8-3.34,8.6S73,124.8,71.59,120.63Z"/><path class="cls-6" d="M73.61,120.29c-1-2.86,0-5.5,2.29-5.89s4.82,1.6,5.79,4.46-.06,5.49-2.29,5.89S74.57,123.15,73.61,120.29Z"/><path class="cls-11" d="M77.11,122.28c-.61-1.8,0-3.45,1.44-3.7s3,1,3.63,2.8,0,3.45-1.43,3.7S77.72,124.08,77.11,122.28Z"/><path class="cls-11" d="M225.9,107.79c1.29-4.24-.08-8.16-3.07-8.75s-6.45,2.37-7.75,6.61.08,8.16,3.06,8.74S224.6,112,225.9,107.79Z"/><path class="cls-6" d="M224,107.44c.89-2.91,0-5.59-2.1-6s-4.43,1.63-5.31,4.53.05,5.59,2.1,6S223.16,110.35,224,107.44Z"/><path class="cls-11" d="M220.83,109.46c.55-1.82,0-3.51-1.32-3.76s-2.78,1-3.34,2.85,0,3.51,1.32,3.76S220.27,111.29,220.83,109.46Z"/><g class="cls-20"><path class="cls-21" d="M80.49,97.62c-1,15-5.39,64.7,66.45,61.8s74.72-44,70.05-66.16-35.21-54.88-69-52S82.64,66,80.49,97.62Z"/></g><path class="cls-6" d="M141.11,116c0-.09.07-.19.11-.28h5a3.25,3.25,0,0,0,.33.61c6.33,9.39,48.07,10.33,71.82-10.74A66.78,66.78,0,0,0,217,93.26c-2.3-10.91-10.88-24.38-23-34.9C174.15,76,151.69,97.83,146.84,109.78H140.1c-5.65-10.16-27.23-26.7-47.95-41A51,51,0,0,0,80.49,97.62c-.34,5-1.06,13.91.82,23.41C106.71,130,136.81,124.46,141.11,116Z"/><path class="cls-17" d="M141.11,111.44C132.57,128.19,22.2,133.61,49.18,36.2,49.18,36.2,148.71,96.53,141.11,111.44Z"/><path class="cls-14" d="M141.11,111.44c2.55-5-7-15.13-20.75-26.37-19.88-4.71-37.61-.85-40.5,9.21-2.51,8.78,7.06,19.54,22.39,26.48C121.05,122.22,138,117.6,141.11,111.44Z"/><path class="cls-17" d="M146.58,111.77c10.53,15.6,118.94,7.89,79.79-85.55C226.37,26.22,137.2,97.89,146.58,111.77Z"/><path class="cls-14" d="M146.58,111.77c4.64,6.87,28.26,9.21,49.9,1.71,14-11.11,20.78-25.24,15.55-34.45-5.76-10.14-24.16-10.76-42.69-2.09C154.2,92.21,142.93,106.37,146.58,111.77Z"/><path class="cls-22" d="M188.37,106.22C186.59,96,181.54,87.43,173.1,87.43s-14.3,8.45-15.27,18.79c-.42,4.5,5.41,9.23,13.85,9.23S189.3,111.53,188.37,106.22Z"/><path class="cls-22" d="M128.5,106.22c-1.78-10.24-6.83-18.79-15.27-18.79S98.93,95.88,98,106.22c-.42,4.5,5.41,9.23,13.85,9.23S129.43,111.53,128.5,106.22Z"/><path class="cls-23" d="M134.22,126l22.14-1.53S150,163.83,134.22,126Z"/><polygon class="cls-24" points="136.47 127.25 140.73 135.1 151.78 134.65 155.22 125.91 136.47 127.25"/><path class="cls-25" d="M187,106.78c-1.63-9.61-6.24-17.65-13.93-17.65S160,97.07,159.12,106.78c-.39,4.23,4.93,8.67,12.63,8.67S187.82,111.77,187,106.78Z"/><path class="cls-25" d="M127.11,107.09c-1.63-9.61-6.24-17.65-13.93-17.65s-13.05,7.94-13.93,17.65c-.39,4.23,4.93,8.66,12.63,8.66S128,112.08,127.11,107.09Z"/><rect class="cls-14" x="138.6" y="105.19" width="10.79" height="5.97"/><ellipse class="cls-26" cx="144.45" cy="119.2" rx="6.55" ry="3.67"/><ellipse class="cls-27" cx="172.05" cy="107.64" rx="5.05" ry="5.51"/><ellipse class="cls-27" cx="113.56" cy="107.64" rx="5.05" ry="5.51"/><ellipse class="cls-28" cx="115.25" cy="106.41" rx="1.51" ry="1.64"/><path class="cls-28" d="M175.4,106.41a1.52,1.52,0,1,0-1.51,1.65A1.59,1.59,0,0,0,175.4,106.41Z"/><path class="cls-7" d="M114.73,71.89c-.37-11,2.19-26.67,22.72-31.88l1.75,2s-22.59,3.67-22.13,29.88Z"/><path class="cls-7" d="M106.43,68.9c.65-11,4.63-26.36,25.55-29.66l1.57,2.1s-22.83,1.58-24.78,27.72Z"/><path class="cls-7" d="M133,68c-3-8.61-4.76-21.56,10.15-30.65l1.86,1.11s-16.91,8.38-10.18,28.93Z"/><path class="cls-11" d="M149.54,118.28c0-1.77-2.55-3.2-5.7-3.2s-5.7,1.43-5.7,3.2,2.55,3.2,5.7,3.2S149.54,120.05,149.54,118.28Z"/><path class="cls-12" d="M223.65,35.85S204.56,60,226,42.66Z"/><path class="cls-12" d="M228.4,48.46s-23,20.44,1.15,7.12Z"/><path class="cls-12" d="M230.82,60.85s-19.11,13.35.24,5.46Z"/><path class="cls-12" d="M52.23,45.77s22.48,18.3-.9,7.27Z"/><path class="cls-12" d="M50.22,59.33s25.39,13.69.29,7.25Z"/><path class="cls-12" d="M50.32,72.05s20.43,7.83.84,5.38Z"/><path class="cls-11" d="M231.24,158c-.63-1.9-1.83-3.26-2.68-3s-1.05,1.95-.43,3.85,1.82,3.25,2.68,3S231.86,159.87,231.24,158Z"/><path class="cls-11" d="M231.06,157.39c1.77.13,2.35-.18,2.47-1.06s-.26-2-2-2.13-3.31.48-3.43,1.36S229.28,157.26,231.06,157.39Z"/><path class="cls-11" d="M233.16,152.34c.15-1.5-.15-2-1-2.16a1.66,1.66,0,0,0-2.14,1.6c-.15,1.5.44,2.85,1.32,3S233,153.84,233.16,152.34Z"/><path class="cls-11" d="M236.3,154.42c.69-1.34.61-1.92-.15-2.39a1.67,1.67,0,0,0-2.58.69c-.7,1.34-.65,2.81.11,3.28S235.6,155.76,236.3,154.42Z"/><path class="cls-11" d="M238.49,157.47c1.15-1,1.29-1.54.77-2.27a1.66,1.66,0,0,0-2.64-.34c-1.16,1-1.67,2.35-1.16,3.07S237.33,158.45,238.49,157.47Z"/><path class="cls-6" d="M74.52,158.27c4.78-6.48,5.26-11.75,1.84-13.57S60.14,148.15,74.52,158.27Z"/><path class="cls-11" d="M75.43,150.92c.89-1.81,2.29-3,3.13-2.67s.8,2.06-.09,3.87-2.28,3-3.12,2.67S74.54,152.72,75.43,150.92Z"/><path class="cls-11" d="M75.69,150.36c-1.81-.09-2.36-.47-2.36-1.36s.52-1.95,2.34-1.85S79,148,79,148.93,77.51,150.46,75.69,150.36Z"/><path class="cls-11" d="M74.23,145.09c0-1.51.43-2,1.34-2a1.68,1.68,0,0,1,2,1.86c-.06,1.51-.83,2.77-1.74,2.81S74.18,146.6,74.23,145.09Z"/><path class="cls-11" d="M70.77,146.76c-.52-1.42-.35-2,.48-2.36a1.71,1.71,0,0,1,2.52,1c.52,1.42.28,2.87-.55,3.25S71.3,148.18,70.77,146.76Z"/><path class="cls-11" d="M68.14,149.52c-1-1.11-1.1-1.7-.48-2.35a1.73,1.73,0,0,1,2.73,0c1,1.11,1.38,2.54.76,3.19S69.18,150.63,68.14,149.52Z"/><polygon class="cls-12" points="69.88 174.56 86.58 170.11 76.8 154.77 71.36 156 69.88 174.56"/></g></g></svg>