<svg xmlns="http://www.w3.org/2000/svg" xmlns:xlink="http://www.w3.org/1999/xlink" viewBox="0 0 300 250"><defs><style>.cls-1{mask:url(#mask);filter:url(#luminosity-noclip-2);}.cls-14,.cls-16,.cls-2{mix-blend-mode:multiply;}.cls-2{fill:url(#linear-gradient);}.cls-3{isolation:isolate;}.cls-4{fill:url(#linear-gradient-2);}.cls-5{fill:url(#radial-gradient);}.cls-6{fill:#f78b2b;}.cls-7{fill:#e56c1a;}.cls-8{fill:#77c6e5;}.cls-9{fill:#ffcb9c;}.cls-10{fill:#529fce;}.cls-11{fill:#418baf;}.cls-12{fill:#8ad8ff;}.cls-13{fill:#9fe8ff;}.cls-14{fill:#66493d;}.cls-14,.cls-17{opacity:0.5;}.cls-15{mask:url(#mask-2);}.cls-16{opacity:0.3;fill:url(#linear-gradient-3);}.cls-17{fill:#dd7f33;}.cls-18{fill:#4290b7;}.cls-19{fill:#5bb4d8;}.cls-20{fill:#efa460;}.cls-21{fill:#317793;}.cls-22{fill:#ffecde;}.cls-23{fill:#4c311b;}.cls-24{fill:#ffefe9;}.cls-25{fill:#535e27;}.cls-26{fill:#869b2f;}.cls-27{fill:#6ac2e5;}.cls-28{fill:#efdb65;}.cls-29{filter:url(#luminosity-noclip);}</style><filter id="luminosity-noclip" x="89.44" y="-8369.81" width="118.05" height="32766" filterUnits="userSpaceOnUse" color-interpolation-filters="sRGB"><feFlood flood-color="#fff" result="bg"/><feBlend in="SourceGraphic" in2="bg"/></filter><mask id="mask" x="89.44" y="-8369.81" width="118.05" height="32766" maskUnits="userSpaceOnUse"><g class="cls-29"/></mask><linearGradient id="linear-gradient" x1="148.88" y1="102.54" x2="152.25" y2="187.02" gradientUnits="userSpaceOnUse"><stop offset="0"/><stop offset="0.99" stop-color="#b3b3b3"/></linearGradient><linearGradient id="linear-gradient-2" x1="-30.62" y1="178.19" x2="326.31" y2="178.19" gradientUnits="userSpaceOnUse"><stop offset="0" stop-color="#43c6ac"/><stop offset="1" stop-color="#1a1956"/></linearGradient><radialGradient id="radial-gradient" cx="300.46" cy="-36.88" r="444.61" gradientUnits="userSpaceOnUse"><stop offset="0" stop-color="#f4f9f8"/><stop offset="1" stop-color="#fcf990"/></radialGradient><filter id="luminosity-noclip-2" x="89.44" y="44.73" width="118.05" height="112.07" filterUnits="userSpaceOnUse" color-interpolation-filters="sRGB"><feFlood flood-color="#fff" result="bg"/><feBlend in="SourceGraphic" in2="bg"/></filter><mask id="mask-2" x="89.44" y="44.73" width="118.05" height="112.07" maskUnits="userSpaceOnUse"><g class="cls-1"><path class="cls-2" d="M89.44,91.8c.1,19.71,16.25,64,58.44,65,41.67.94,60.07-45.75,59.61-65-.27-11.25-6.09-48.56-57.74-47C107.3,46,89.35,72.1,89.44,91.8Z"/></g></mask><linearGradient id="linear-gradient-3" x1="148.88" y1="102.54" x2="152.25" y2="187.02" gradientUnits="userSpaceOnUse"><stop offset="0" stop-color="#c04b00"/><stop offset="0.99" stop-color="#b73400"/></linearGradient></defs><g class="cls-3"><g id="_1" data-name="1"><rect class="cls-4" x="-30.62" y="-37.81" width="356.92" height="432"/><rect class="cls-5" width="300" height="250"/><path class="cls-6" d="M108.78,183.62c-30.9-38.24-64.1-140.1,11.55-141.36,19.38-56,171.77-29.39,77.49,137.17Z"/><path class="cls-7" d="M210,67.17c-5.3,32.67-31,57.46-61.85,57.46-25,0-46.63-16.27-56.75-39.83-1.77,33,12.81,76.62,26.79,98.82l69.38-4.19C209.19,130.34,214.14,93.42,210,67.17Z"/><polygon class="cls-8" points="145.54 169.18 135.32 159.1 167.82 156.29 160.68 167.71 145.54 169.18"/><path class="cls-9" d="M146.43,164.73V145.67l9.3.89,1.77,19.05Z"/><path class="cls-10" d="M214.61,218.83c-6.27-9.58-34.4-56-52-57.28l.69,10.62s22,9.24,48.58,49.62Z"/><path class="cls-11" d="M212.08,214.89,210,217.17c-22.33-33.89-41.36-46.56-46.91-49.53l.22,4.53s22,9.24,48.58,49.62l2.75-3C214,217.86,213.12,216.51,212.08,214.89Z"/><path class="cls-12" d="M206.09,190.2l-14.51,11.56s10.34,34.15,28,27.28,7.56-24.25-3.39-21.46Z"/><path class="cls-10" d="M99.9,227.2c5.32-10.19,29-60.1,46.77-63.2l.2,11.36S125.6,186.88,103,229.86Z"/><path class="cls-11" d="M104.27,226.08l-2.64-2.26c-.69,1.37-1.28,2.52-1.73,3.38l3.11,2.66c22.59-43,43.86-54.5,43.86-54.5l-.34-4.5C141.58,174.1,123.56,189.39,104.27,226.08Z"/><path class="cls-10" d="M138.45,230.36c-1.33-12.11-6.64-62.48,5.32-65.61s22.6-5.08,24.81,0,12.85,53.5,9.31,63.66S138.45,230.36,138.45,230.36Z"/><path class="cls-11" d="M170.35,177.78c2.78,15.44,6.22,39.22,6.14,52.65a4.85,4.85,0,0,0,1.42-2c2.84-7.61-2.57-37.48-6.15-52.8C170.72,171.23,169.33,172.15,170.35,177.78Z"/><path class="cls-10" d="M157.15,298.63c-7-15.3-27.41-56.89-19.08-91.81,0,0,36,1.57,37.83,2.75s9.17,54.92-5.06,92.2l-1.83-.39s11.72-62-9.23-62.39c-20.55-.38.55,59.25.55,59.25Z"/><rect class="cls-11" x="136.44" y="225.22" width="41.61" height="2.66"/><path class="cls-11" d="M175.9,209.57a3.18,3.18,0,0,0-1-.28c2.37,11.65,6.08,53.91-4.87,85.94-.56,3.78-1,6.15-1,6.15l1.83.39C185.07,264.49,177.73,210.74,175.9,209.57Z"/><path class="cls-11" d="M159.78,239a9.07,9.07,0,0,1,7.28,3.85c-1.93-4.33-4.87-7.13-9.24-7.21-20.55-.38.55,59.24.55,59.24l-2.79.35,1.57,3.41,3.18-.39S139.23,238.61,159.78,239Z"/><path class="cls-8" d="M141.27,165.05l13,10,10.62-13.59S154.63,158.53,141.27,165.05Z"/><polygon class="cls-13" points="142.15 191.32 154.68 202.39 168.63 185.92 153.85 195.88 142.15 191.32"/><polygon class="cls-13" points="147.65 202.38 156.04 211.5 161.94 200.7 155.48 207.1 147.65 202.38"/><path class="cls-14" d="M181.76,174.05c-6-6.21-12-10.91-17.2-12.17l.32-.4-.26-.07,3.2-5.12-11.09,1-.32-3.45c-1,0-2,0-3.09,0q-3.52,0-6.89.14v4.23l-11.11,1,6,5.92-.06,0,.37.28.35.35c-.13.1-.27.21-.4.33a44.38,44.38,0,0,0-10.27,9.21,150.8,150.8,0,0,0,22,1.53A137.54,137.54,0,0,0,181.76,174.05Z"/><path class="cls-9" d="M89.44,91.8c.1,19.71,16.25,64,58.44,65,41.67.94,60.07-45.75,59.61-65-.27-11.25-6.09-48.56-57.74-47C107.3,46,89.35,72.1,89.44,91.8Z"/><g class="cls-15"><path class="cls-16" d="M89.44,91.8c.1,19.71,16.25,64,58.44,65,41.67.94,60.07-45.75,59.61-65-.27-11.25-6.09-48.56-57.74-47C107.3,46,89.35,72.1,89.44,91.8Z"/></g><path class="cls-6" d="M124.39,48c14,5,13.73,15.13,28.86,13.45s20.45-3.08,28.86-1.12c0,0-9-4.76-24.38-1.68s-24.93-16-29.14-14.85S124.39,48,124.39,48Z"/><path class="cls-6" d="M129.58,42.5C144.06,46,144.9,56,159.75,52.68s20-5.32,28.56-4.3c0,0-9.44-3.74-24.41,1s-26.55-13.12-30.6-11.54S129.58,42.5,129.58,42.5Z"/><path class="cls-17" d="M178.66,130.42a.77.77,0,0,0-.84-.67.69.69,0,1,0,0,1.34A.77.77,0,0,0,178.66,130.42Z"/><path class="cls-17" d="M182.72,124.63a.87.87,0,0,0-1.69,0,.87.87,0,0,0,1.69,0Z"/><path class="cls-17" d="M179.15,122.23a.87.87,0,1,0-.85.67A.78.78,0,0,0,179.15,122.23Z"/><path class="cls-17" d="M142.68,119.12a.87.87,0,1,0-.84.67A.77.77,0,0,0,142.68,119.12Z"/><path class="cls-17" d="M133.35,132.59a.87.87,0,0,0-1.69,0,.87.87,0,0,0,1.69,0Z"/><path class="cls-17" d="M126.51,130.07a.78.78,0,0,0-.85-.67.69.69,0,1,0,0,1.35A.78.78,0,0,0,126.51,130.07Z"/><path class="cls-17" d="M132,128.39a.86.86,0,1,0-.84.67A.76.76,0,0,0,132,128.39Z"/><path class="cls-17" d="M130,123.2a.87.87,0,1,0-.84.68A.77.77,0,0,0,130,123.2Z"/><path class="cls-17" d="M135.24,124.44a.87.87,0,1,0-.85.67A.78.78,0,0,0,135.24,124.44Z"/><path class="cls-17" d="M120.06,125.58a.87.87,0,1,0-.85.68A.78.78,0,0,0,120.06,125.58Z"/><path class="cls-17" d="M173.19,123.91a.77.77,0,0,0-.84-.68.69.69,0,1,0,0,1.35A.77.77,0,0,0,173.19,123.91Z"/><path class="cls-17" d="M171.26,128a.87.87,0,1,0-.85.68A.78.78,0,0,0,171.26,128Z"/><path class="cls-17" d="M166.89,120.4a.77.77,0,0,0-.84-.67.69.69,0,1,0,.84.67Z"/><path class="cls-18" d="M208.75,71.17c-12.32-11.9-34.35-14.07-43.19-4.07-9.51,10.32-23.24,10.88-33.68,0-.25-.25-.51-.5-.76-.73-10-8.91-31.43-3.67-41.9,9.95s7.07,45.47,13.09,46.61c11,2.1,38.1-1,42.39-9.86,5.68-11.76,10.72-6.3,15,.54,5.21,8.43,31.83,9.22,42.55,5.58C208.08,117.2,221.17,83.16,208.75,71.17Z"/><path class="cls-18" d="M99,70.88s-17.65-11-20.53-8.53S84.58,77,84.58,77s-7.86-5.29-11-1.71,8.28,13.1,8.28,13.1-8.43-2.9-10.67,1.17,19.55,18,19.55,18Z"/><path class="cls-18" d="M194,65s16.32-16.82,20.08-15.23-2.93,16.72-2.93,16.72,7.18-7.86,11.48-5.28S217,77,217,77s8.4-5.65,11.85-2.29-16.63,24.37-16.63,24.37Z"/><path class="cls-19" d="M184.63,78c-15.93,0-28.84,11.53-28.84,25.76a23.36,23.36,0,0,0,.63,5.38,32.66,32.66,0,0,1,3.23,4.51c5.21,8.43,31.83,9.22,42.55,5.58,3.06-1,8.08-10.78,10.43-21.57C209.56,86.34,198.2,78,184.63,78Z"/><path class="cls-19" d="M114.39,80.6c16.2-2,31.19,7.82,33.48,21.87a22.65,22.65,0,0,1,.21,5.38,32.34,32.34,0,0,0-2.55,4.85c-3.95,9-30.9,13-42.4,10.77-3.28-.64-9.95-9.64-14.07-20C90.38,92,100.58,82.28,114.39,80.6Z"/><path class="cls-9" d="M97.89,125.39c-2.22-3.56-5.9-5.26-8.21-3.82s-2.41,5.5-.19,9.05,5.9,5.26,8.21,3.82S100.1,128.94,97.89,125.39Z"/><path class="cls-20" d="M97.49,126.16c-1.57-2.5-4.16-3.7-5.79-2.69s-1.69,3.88-.13,6.38,4.16,3.7,5.79,2.69S99.05,128.66,97.49,126.16Z"/><path class="cls-9" d="M97.75,126c-.82-1.3-2.16-1.93-3-1.4s-.88,2-.07,3.31,2.16,1.93,3,1.4S98.56,127.3,97.75,126Z"/><path class="cls-9" d="M209.65,128.46c2.44-2.93,2.68-6.74.54-8.5s-5.83-.83-8.26,2.09-2.68,6.73-.54,8.5S207.22,131.38,209.65,128.46Z"/><path class="cls-20" d="M208,127.46c1.68-2,1.84-4.64.37-5.86s-4-.57-5.69,1.45-1.84,4.64-.37,5.85S206.35,129.48,208,127.46Z"/><path class="cls-9" d="M204.14,125.61c.9-1.09,1-2.5.19-3.16s-2.16-.31-3.06.78-1,2.5-.2,3.16S203.23,126.7,204.14,125.61Z"/><path class="cls-18" d="M198.48,68s1.46-20.76-2.12-22.12-10.08,12.31-10.08,12.31,1-9.43-3.66-10.51S175,61.17,175,61.17s-1.4-8.82-6.06-8.87S162.23,78,162.23,78Z"/><path class="cls-18" d="M94.16,73.39s-7.17-22.31-4-24.88S103.54,59,103.54,59s-3.56-10,.73-12.62,11.32,12.44,11.32,12.44-1-10.07,3.55-11.54,13.7,26.13,13.7,26.13Z"/><path class="cls-21" d="M163,113.34c2.95,4.27,23.71,6.9,29.78,2.61,4.13-8.12,3-26.3-10.85-28.67C173.88,85.9,158.93,96.73,163,113.34Z"/><path class="cls-22" d="M163.53,113.53c2.8,4.06,22.57,6.57,28.35,2.48,3.94-7.73,2.89-25-10.33-27.3C173.87,87.41,159.63,97.71,163.53,113.53Z"/><path class="cls-21" d="M112.71,118.87c4.17,3.08,24.67-1.15,29-7.17,1.28-9-5.65-25.87-19.56-23.62C114.11,89.39,103.46,104.48,112.71,118.87Z"/><path class="cls-22" d="M112.94,119c4,2.87,23.77-1.17,28-6.82,1.26-8.46-5.35-24.2-18.75-22C114.4,91.37,104.09,105.53,112.94,119Z"/><path class="cls-23" d="M140.61,126.9l21.44-.33S151.14,155.53,140.61,126.9Z"/><polygon class="cls-24" points="142.39 128 145.34 133.67 156.68 133.46 160.04 127.57 142.39 128"/><ellipse class="cls-20" cx="151.64" cy="119.17" rx="6.09" ry="3.57"/><path class="cls-9" d="M157,118.19c0-1.47-2.54-2.67-5.67-2.67s-5.67,1.2-5.67,2.67,2.54,2.66,5.67,2.66S157,119.66,157,118.19Z"/><ellipse class="cls-17" cx="152.9" cy="112.86" rx="0.77" ry="0.84"/><ellipse class="cls-17" cx="149.05" cy="112.16" rx="0.77" ry="0.84"/><ellipse class="cls-17" cx="152.55" cy="107.68" rx="0.77" ry="0.84"/><ellipse class="cls-25" cx="174.96" cy="109.08" rx="7.14" ry="7.57"/><ellipse class="cls-25" cx="127.89" cy="109.08" rx="7.14" ry="7.57"/><path class="cls-26" d="M132.34,107.61a2.35,2.35,0,1,0-2.35,2.48A2.42,2.42,0,0,0,132.34,107.61Z"/><path class="cls-26" d="M179,107.19a2.12,2.12,0,1,0-2.11,2.24A2.19,2.19,0,0,0,179,107.19Z"/><path class="cls-19" d="M72.73,90.59a2.86,2.86,0,1,0,3.41-1.46A2.64,2.64,0,0,0,72.73,90.59Z"/><path class="cls-19" d="M74.56,76.86A2.85,2.85,0,1,0,78,75.4,2.62,2.62,0,0,0,74.56,76.86Z"/><path class="cls-19" d="M80.55,64.54a2.86,2.86,0,1,0,3.71,0A2.64,2.64,0,0,0,80.55,64.54Z"/><path class="cls-19" d="M92.08,51.46a2.33,2.33,0,1,0,2.85,1A2.16,2.16,0,0,0,92.08,51.46Z"/><path class="cls-19" d="M105.13,48.44a2.86,2.86,0,0,0,2,5.29,2.86,2.86,0,0,0-2-5.29Z"/><path class="cls-19" d="M182.92,50.57a2.86,2.86,0,1,0,1.75,3.27A2.64,2.64,0,0,0,182.92,50.57Z"/><path class="cls-19" d="M195,48.33a2.85,2.85,0,1,0,1.76,3.26A2.63,2.63,0,0,0,195,48.33Z"/><path class="cls-19" d="M210.94,52.53a2.86,2.86,0,1,0,1.75,3.27A2.64,2.64,0,0,0,210.94,52.53Z"/><path class="cls-19" d="M220.46,62.06a2.85,2.85,0,1,0,1.75,3.27A2.63,2.63,0,0,0,220.46,62.06Z"/><path class="cls-19" d="M225.22,75.51A2.85,2.85,0,1,0,227,78.78,2.63,2.63,0,0,0,225.22,75.51Z"/><path class="cls-19" d="M119.27,49.75a2.08,2.08,0,0,0-1.49,2.49A2,2,0,0,0,120,54.09a2.23,2.23,0,0,0-.72-4.34Z"/><path class="cls-19" d="M169.42,55.35a2.08,2.08,0,0,0-1.49,2.49,2,2,0,0,0,2.21,1.86,2.08,2.08,0,0,0,1.49-2.49A2.05,2.05,0,0,0,169.42,55.35Z"/><path class="cls-11" d="M178.75,83c4.2,0,12.4,1.27,15.55,7.36l2.52-1.47C191.51,82.32,187.2,81.7,178.75,83Z"/><path class="cls-11" d="M123.27,84.92c-4.2,0-12.4,1.26-15.55,7.35L105.2,90.8C110.51,84.22,114.82,83.59,123.27,84.92Z"/><path class="cls-27" d="M214.89,212.19l1.56-4.67a2.3,2.3,0,0,0-.28.06l-1-1.66-1.44,4.31-7.35-1.62.72-3.87.12,0,3.07-7.26-1.06-1.82-3,7.11L201,201.51l-2.91-4.88-.35.21-1,.8,2.74,4.62L195,210.45c.28.61.57,1.23.88,1.87l5-9.11,4.61,1.13-2.08,11.26-6.28-.75c.33.6.67,1.21,1,1.81l5.35.65,4.72,6.58-2.57,2.2c.44.38.89.73,1.35,1.06l3.48-3L205,216.47l1.15-6.21Z"/><path class="cls-10" d="M218.78,223.66c0-3-1.22-5.41-2.73-5.41s-2.73,2.42-2.73,5.41,1.22,5.41,2.73,5.41S218.78,226.65,218.78,223.66Z"/><path class="cls-10" d="M217.73,220.19c0-1.59-1.69-2.89-3.78-2.89s-3.79,1.3-3.79,2.89,1.7,2.89,3.79,2.89S217.73,221.79,217.73,220.19Z"/><path class="cls-10" d="M223.93,216.94c0-1.6-1.7-2.89-3.78-2.89s-3.79,1.29-3.79,2.89,1.7,2.89,3.79,2.89S223.93,218.53,223.93,216.94Z"/><path class="cls-10" d="M229.6,212.21c0-1.6-1.69-2.89-3.78-2.89s-3.78,1.29-3.78,2.89,1.69,2.89,3.78,2.89S229.6,213.8,229.6,212.21Z"/><path class="cls-10" d="M224.66,220c0-3-1.22-5.41-2.73-5.41S219.2,217,219.2,220s1.22,5.42,2.73,5.42S224.66,223,224.66,220Z"/><path class="cls-10" d="M230.23,215.26c0-3-1.22-5.42-2.73-5.42s-2.73,2.43-2.73,5.42,1.22,5.41,2.73,5.41S230.23,218.24,230.23,215.26Z"/><path class="cls-10" d="M217.61,210.05c3.06.66,5.53,0,5.5-1.54s-2.53-3.27-5.59-3.93-5.53,0-5.5,1.55S214.55,209.4,217.61,210.05Z"/><path class="cls-10" d="M220.19,213.25c2.38-1.82,3.56-4.26,2.65-5.46s-3.58-.71-6,1.1-3.56,4.26-2.65,5.47S217.81,215.06,220.19,213.25Z"/><path class="cls-12" d="M215,218.55c-.16-.6-1.17-.86-2.25-.58s-1.84,1-1.69,1.6,1.17.85,2.25.57S215.12,219.14,215,218.55Z"/><path class="cls-12" d="M221.06,215.32c-.16-.6-1.16-.86-2.25-.57s-1.84,1-1.68,1.59,1.16.86,2.25.58S221.22,215.92,221.06,215.32Z"/><path class="cls-12" d="M226.8,211.05c-.15-.6-1.16-.86-2.24-.57s-1.84,1-1.69,1.59,1.16.85,2.25.57S227,211.65,226.8,211.05Z"/><path class="cls-12" d="M218.75,212.38c-.16-.6-1.16-.86-2.25-.58s-1.84,1-1.68,1.6,1.16.86,2.24.58S218.9,213,218.75,212.38Z"/><path class="cls-12" d="M101.88,208.6l13.82,11.56s-9.85,34.15-26.65,27.28S81.85,223.2,92.28,226Z"/><path class="cls-27" d="M93.5,230.6,92,225.92l.27.06.91-1.66,1.37,4.31,7-1.62-.68-3.87-.12,0-2.92-7.26,1-1.82,2.86,7.11,5-1.28,2.77-4.89.34.21,1,.8-2.62,4.62,4.33,8.19c-.27.61-.55,1.23-.85,1.87l-4.8-9.1-4.4,1.12,2,11.27,6-.76c-.31.6-.63,1.21-1,1.82l-5.09.64-4.5,6.59,2.45,2.2q-.63.56-1.29,1.05l-3.31-3,5.25-7.7-1.09-6.21Z"/><path class="cls-10" d="M89.79,242.06c0-3,1.17-5.41,2.6-5.41s2.6,2.42,2.6,5.41-1.16,5.41-2.6,5.41S89.79,245.05,89.79,242.06Z"/><path class="cls-10" d="M90.79,238.59c0-1.59,1.61-2.88,3.6-2.88S98,237,98,238.59s-1.62,2.89-3.61,2.89S90.79,240.19,90.79,238.59Z"/><path class="cls-10" d="M84.89,235.34c0-1.6,1.61-2.89,3.6-2.89s3.6,1.29,3.6,2.89-1.61,2.89-3.6,2.89S84.89,236.93,84.89,235.34Z"/><path class="cls-10" d="M79.48,230.61c0-1.6,1.61-2.89,3.6-2.89s3.61,1.29,3.61,2.89-1.62,2.89-3.61,2.89S79.48,232.21,79.48,230.61Z"/><path class="cls-10" d="M84.19,238.38c0-3,1.16-5.41,2.6-5.41s2.6,2.43,2.6,5.41-1.17,5.42-2.6,5.42S84.19,241.37,84.19,238.38Z"/><path class="cls-10" d="M78.88,233.66c0-3,1.16-5.41,2.6-5.41s2.6,2.42,2.6,5.41-1.16,5.41-2.6,5.41S78.88,236.64,78.88,233.66Z"/><path class="cls-10" d="M90.9,228.46c-2.92.66-5.26,0-5.24-1.55S88.08,223.64,91,223s5.27,0,5.24,1.55S93.82,227.8,90.9,228.46Z"/><path class="cls-10" d="M88.45,231.65c-2.27-1.81-3.4-4.26-2.53-5.46s3.42-.71,5.68,1.11,3.39,4.26,2.52,5.46S90.71,233.47,88.45,231.65Z"/><path class="cls-12" d="M93.42,237c.15-.6,1.11-.86,2.14-.58s1.76,1,1.61,1.6-1.11.85-2.14.57S93.27,237.54,93.42,237Z"/><path class="cls-12" d="M87.62,233.73c.15-.61,1.1-.86,2.14-.58s1.75,1,1.6,1.6-1.1.85-2.14.57S87.47,234.32,87.62,233.73Z"/><path class="cls-12" d="M82.14,229.45c.15-.6,1.11-.86,2.15-.57s1.75,1,1.6,1.59-1.11.86-2.14.58S82,230.05,82.14,229.45Z"/><path class="cls-12" d="M89.82,230.78c.15-.6,1.11-.85,2.14-.57s1.75,1,1.6,1.59-1.1.86-2.14.58S89.67,231.38,89.82,230.78Z"/><rect class="cls-12" x="134.83" y="222.14" width="44.76" height="4.2"/><polygon class="cls-28" points="160.7 221.15 152.55 221.45 156.17 228.32 160.7 221.15"/><path class="cls-17" d="M188.69,127.29c.35-1.77-2.74-3.87-6.89-4.7s-7.81-.07-8.16,1.7,2.73,3.87,6.89,4.69S188.34,129.05,188.69,127.29Z"/><path class="cls-17" d="M128.15,127c-.24-1.78-3.83-2.79-8-2.25s-7.42,2.43-7.19,4.22,3.83,2.79,8,2.25S128.38,128.79,128.15,127Z"/></g></g></svg>