<svg xmlns="http://www.w3.org/2000/svg" xmlns:xlink="http://www.w3.org/1999/xlink" viewBox="0 0 300 250"><defs><style>.cls-1{mask:url(#mask);filter:url(#luminosity-noclip-2);}.cls-17,.cls-2,.cls-21{mix-blend-mode:multiply;}.cls-2{fill:url(#linear-gradient);}.cls-3{isolation:isolate;}.cls-4{fill:url(#linear-gradient-2);}.cls-5{fill:url(#radial-gradient);}.cls-6{fill:#60452c;}.cls-7{fill:#472e1a;}.cls-8{fill:#f4d540;}.cls-9{fill:#665922;}.cls-10{fill:#a09332;}.cls-11{fill:#d6c145;}.cls-12{fill:#c1aa38;}.cls-13{fill:#d6b52d;}.cls-14{fill:#877821;}.cls-15{fill:#ffc673;}.cls-16{fill:#dda152;}.cls-17{fill:#66493d;opacity:0.5;}.cls-18{fill:#665918;}.cls-19{fill:#897a25;}.cls-20{mask:url(#mask-2);}.cls-21{opacity:0.3;fill:url(#linear-gradient-3);}.cls-22{fill:#756a25;}.cls-23{fill:#ffecde;}.cls-24{fill:#3a291e;}.cls-25{fill:#705241;}.cls-26{fill:#ffede3;}.cls-27{fill:#fcaf63;}.cls-28{filter:url(#luminosity-noclip);}</style><filter id="luminosity-noclip" x="118.75" y="-8369.81" width="144.91" height="32766" filterUnits="userSpaceOnUse" color-interpolation-filters="sRGB"><feFlood flood-color="#fff" result="bg"/><feBlend in="SourceGraphic" in2="bg"/></filter><mask id="mask" x="118.75" y="-8369.81" width="144.91" height="32766" maskUnits="userSpaceOnUse"><g class="cls-28"/></mask><linearGradient id="linear-gradient" x1="190.18" y1="124.56" x2="223.62" y2="192.77" gradientUnits="userSpaceOnUse"><stop offset="0"/><stop offset="0.99" stop-color="#b3b3b3"/></linearGradient><linearGradient id="linear-gradient-2" x1="-30.62" y1="178.19" x2="326.31" y2="178.19" gradientUnits="userSpaceOnUse"><stop offset="0" stop-color="#43c6ac"/><stop offset="1" stop-color="#1a1956"/></linearGradient><radialGradient id="radial-gradient" cx="300.46" cy="-36.88" r="444.61" gradientUnits="userSpaceOnUse"><stop offset="0" stop-color="#f4f9f8"/><stop offset="1" stop-color="#fcf990"/></radialGradient><filter id="luminosity-noclip-2" x="118.75" y="66.97" width="144.91" height="122.86" filterUnits="userSpaceOnUse" color-interpolation-filters="sRGB"><feFlood flood-color="#fff" result="bg"/><feBlend in="SourceGraphic" in2="bg"/></filter><mask id="mask-2" x="118.75" y="66.97" width="144.91" height="122.86" maskUnits="userSpaceOnUse"><g class="cls-1"><path class="cls-2" d="M185.71,189.22c-32.09-3.21-77.8-30.68-64.65-73.41S192.28,64.31,223,67.6s57,63.55,28.49,99.71C239.78,182.11,218.58,192.51,185.71,189.22Z"/></g></mask><linearGradient id="linear-gradient-3" x1="190.18" y1="124.56" x2="223.62" y2="192.77" gradientUnits="userSpaceOnUse"><stop offset="0" stop-color="#c04b00"/><stop offset="0.99" stop-color="#b73400"/></linearGradient></defs><g class="cls-3"><g id="_1" data-name="1"><rect class="cls-4" x="-30.62" y="-37.81" width="356.92" height="432"/><rect class="cls-5" width="300" height="250"/><path class="cls-6" d="M90.67,68.17C77,79,58.13,84.54,56.91,72s-80,64.3-99.61-11.24C-45.35,50.56-5.3,60.43-.94,60s25-31.6,55.92-36.26S113.67,50,90.67,68.17Z"/><path class="cls-7" d="M92.46,36.75C84,45.7,69.94,54.12,53,59.47c-15,4.73-29.41,6.2-40.92,4.79-3.19,9.16-15.16,16-29.48,16A38.93,38.93,0,0,1-37.49,75c25.49,50.53,93.28-14.6,94.4-3,1.22,12.54,20,7,33.76-3.83C102.44,58.86,100.9,46.24,92.46,36.75Z"/><rect class="cls-8" x="88.34" y="60.67" width="11.7" height="12.37" transform="translate(-19.49 87.33) rotate(-45.57)"/><path class="cls-9" d="M166.06,197C151.77,182,140,165,99,179.78c-26.44,9.45-57.17-10-76.23-1,0,0,24.62,32.57,22.57,54.42C85.66,242.44,145.5,255,166.06,197Z"/><path class="cls-10" d="M101.72,251.25c-22.16,2.74-65.9-3.64-89.42-15.66l.24-4.58S24,242.14,93.69,240.22Z"/><path class="cls-11" d="M169.1,200.21c8.29-.94,35.73,15.15,78.5-11.91l4.33,2.52s-14.09,27-79.29,22.77C156.61,212.57,169.1,200.21,169.1,200.21Z"/><path class="cls-11" d="M126.46,251.92c-9.25,1.68-23.31,3.42-34.9-3.14a15,15,0,0,1-7.38-10.48l-2.77-15.89s13.29-10.61,24.66-15l21.73,44.3"/><path class="cls-12" d="M100.68,217.56a89.58,89.58,0,0,1,8.77-3.2l-3.38-6.91c-11.37,4.35-24.66,15-24.66,15l1,5.67A86.66,86.66,0,0,1,100.68,217.56Z"/><path class="cls-13" d="M130.93,249.25c0-1.66-.81-3-1.82-3s-1.81,1.35-1.81,3,.81,3,1.81,3S130.93,250.91,130.93,249.25Z"/><path class="cls-13" d="M112.5,206.49a3.34,3.34,0,1,0-3.32,3A3.18,3.18,0,0,0,112.5,206.49Z"/><path class="cls-10" d="M127.8,251.76c-9.2,2-37.12-22.32-21.73-44.64,21.23-11,53.58-24.07,72.75-12.68C183.68,198.29,195.51,235,127.8,251.76Z"/><path class="cls-14" d="M104.64,217.58c18.77-12.7,46.28-28,68-25.87-19.41-6-47.45,5.5-66.52,15.41A24,24,0,0,0,101.86,225,29.82,29.82,0,0,1,104.64,217.58Z"/><path class="cls-11" d="M156.15,194.29c-1.53-3.78-7-5.16-12.18-3.06s-8.19,6.87-6.66,10.66,7,5.16,12.19,3.06S157.68,198.08,156.15,194.29Z"/><path class="cls-8" d="M182.21,203.86c1.24-2.78,2-12.91-10-19.31s-25.57-7.78-36.11-9.53C138.08,176.13,179.26,210.52,182.21,203.86Z"/><polygon class="cls-15" points="178.77 200.54 165.99 188.86 166.35 175.34 180.96 176.8 178.77 200.54"/><path class="cls-11" d="M145.82,200.64c-5.57-3.55-49.13-21.37-61.07-23.95l.15-5.27s55.7,13.53,66,20S145.82,200.64,145.82,200.64Z"/><polygon class="cls-8" points="146.35 239.97 154.38 226.68 175.19 223.42 162.41 235.96 146.35 239.97"/><polygon class="cls-8" points="149.11 226.33 151.69 222.06 158.39 221.01 154.28 225.04 149.11 226.33"/><polygon class="cls-8" points="176.15 221.16 175.97 216.17 181.01 211.63 179.77 217.26 176.15 221.16"/><polygon class="cls-8" points="135.37 244.12 138.79 240.47 145.56 240.85 140.69 243.93 135.37 244.12"/><path class="cls-10" d="M14.84,236.44S.29,238.2-2.71,235.19c0,0,10.75-4.48,14.65-4.75S14.84,236.44,14.84,236.44Z"/><path class="cls-10" d="M83.66,235c-18.81,1-48.39-10.28-77.25-19.81l.3-4.58s18.53,10,88.24,9.1C98.46,224.42,93.44,234.17,83.66,235Z"/><path class="cls-10" d="M9.61,215.81s-14.55,1.76-17.56-1.25c0,0,10.76-4.48,14.66-4.75S9.61,215.81,9.61,215.81Z"/><path class="cls-8" d="M100,208.12c-2,4.26-13,36.86,21.32,46.14l8.78-2s-36.87-13-21.82-48.65Z"/><path class="cls-8" d="M23.23,200.35s15.8-14.8,53.41-17.81c0,0-33.35-12.54-53.91-3.76C22.73,178.78,12.7,186.06,23.23,200.35Z"/><path class="cls-8" d="M9.44,217.15s-4.52-4.26,1-7.77l13.54,3v10.79Z"/><path class="cls-8" d="M15.27,239.87s-4.77-4,.51-7.82l13.71,2.14L30.17,245Z"/><path class="cls-16" d="M247,193.64c.35-8.69,3.51-13.52,7.62-12.83S266,194.39,247,193.64Z"/><path class="cls-15" d="M251.19,186.74c.48-2.13.11-4.07-.83-4.33s-2.07,1.24-2.54,3.37-.11,4.07.83,4.33S250.72,188.87,251.19,186.74Z"/><path class="cls-15" d="M251.35,186.1c1.59,1.1,2.3,1.14,2.91.38s.88-2-.72-3.12-3.38-1.4-4-.64S249.75,185,251.35,186.1Z"/><path class="cls-15" d="M256.14,182.54c1-1.33,1-2,.24-2.61a1.82,1.82,0,0,0-2.9.32c-1,1.32-1.17,2.92-.43,3.55S255.16,183.87,256.14,182.54Z"/><path class="cls-15" d="M257.93,186.23c1.4-.87,1.64-1.47,1.19-2.33a1.83,1.83,0,0,0-2.81-.79c-1.4.88-2.17,2.28-1.73,3.14S256.53,187.1,257.93,186.23Z"/><path class="cls-15" d="M258.28,190.32c1.63-.27,2.08-.73,2-1.7a1.82,1.82,0,0,0-2.29-1.8c-1.63.27-2.88,1.28-2.79,2.25S256.66,190.59,258.28,190.32Z"/><path class="cls-15" d="M86.68,175.19c-7.84,2.66-13.23,1.34-14-2.77S80.81,157.09,86.68,175.19Z"/><path class="cls-15" d="M79.1,173.6c-2,.29-3.66,1.3-3.57,2.27s1.82,1.52,3.88,1.24,3.66-1.3,3.57-2.27S81.16,173.32,79.1,173.6Z"/><path class="cls-15" d="M78.47,173.68c.44-1.88.23-2.57-.66-2.87s-2.1-.14-2.53,1.75-.07,3.66.81,4S78,175.56,78.47,173.68Z"/><path class="cls-15" d="M73.65,170.39c-1.51-.47-2.09-.24-2.4.66a1.89,1.89,0,0,0,1.29,2.63c1.51.46,3,.1,3.3-.81S75.17,170.85,73.65,170.39Z"/><path class="cls-15" d="M76.32,167.44c-1.26-1-1.87-1-2.48-.32a1.88,1.88,0,0,0,.27,2.91c1.26,1,2.77,1.27,3.39.55S77.58,168.46,76.32,167.44Z"/><path class="cls-15" d="M79.84,165.71c-.81-1.44-1.37-1.71-2.2-1.3a1.83,1.83,0,0,0-.81,2.78c.81,1.44,2.13,2.27,3,1.86S80.64,167.14,79.84,165.71Z"/><polygon class="cls-8" points="232.37 190.82 243.15 205.36 250.17 192.07 246.66 187.81 232.37 190.82"/><polygon class="cls-8" points="91.84 188.2 101.24 172.73 86.28 171.24 83.66 176.1 91.84 188.2"/><path class="cls-17" d="M215.39,202.19a78.06,78.06,0,0,1-32.77.34,15,15,0,0,0-2.94-11.78L181,176.8l-14.61-1.46-.17,6.46c-9.81-3.87-21.83-5.41-30.36-6.78C137.84,176.47,166.41,230.19,215.39,202.19Z"/><path class="cls-18" d="M101,110.25s-13.52,20-13.72,20.7,4.42,3.93,4.42,3.93l11.24-21.21Z"/><path class="cls-18" d="M100.05,109s-24.5,1.81-25.08,2.18.84,5.85.84,5.85l22.4-.67Z"/><path class="cls-19" d="M96.59,112.71S83.77,119.33,83.5,120s4,11.64,4,11.64L102,115Z"/><path class="cls-19" d="M95,107.48s-13-6.19-13.71-6-6.85,10.2-6.85,10.2l22.07,1.5Z"/><path class="cls-6" d="M150.1,172.78C122.35,178,93.67,156.9,97,128.41s-22.47-37.8-1.65-58.62S143,41.85,175.85,44.59,227.34,25.41,250.9,61,266.24,150.87,150.1,172.78Z"/><path class="cls-7" d="M257.83,74.46c-7.34,32.62-44,57.43-88.15,57.43-36.73,0-68.27-17.17-82.08-41.72C89.85,100.42,99,110.72,97,128.41,93.67,156.9,122.35,178,150.1,172.78,252.4,153.48,271,109.1,257.83,74.46Z"/><path class="cls-15" d="M185.71,189.22c-32.09-3.21-77.8-30.68-64.65-73.41S192.28,64.31,223,67.6s57,63.55,28.49,99.71C239.78,182.11,218.58,192.51,185.71,189.22Z"/><g class="cls-20"><path class="cls-21" d="M185.71,189.22c-32.09-3.21-77.8-30.68-64.65-73.41S192.28,64.31,223,67.6s57,63.55,28.49,99.71C239.78,182.11,218.58,192.51,185.71,189.22Z"/></g><polygon class="cls-10" points="267.34 106.49 122.16 107.41 116.68 122.93 264.6 140.46 267.34 106.49"/><path class="cls-19" d="M140.59,122.86a47.2,47.2,0,0,1,2.67-15.59l-21.1.14-5.48,15.52,24,2.85C140.62,124.81,140.59,123.84,140.59,122.86Z"/><path class="cls-22" d="M253.56,134.41c-2.94-7.71-11.51-30.23-37.77-6Z"/><path class="cls-22" d="M200.94,127.56c-7.44-7.77-29.17-30.49-44.57-3.83Z"/><path class="cls-15" d="M127.64,126.4c-10.59-6.94-16.53-15.15-21.55-6.57-8.77,15,17.16,22.64,17.16,22.64Z"/><path class="cls-23" d="M160.68,124.07c3.49-6.13,13.66-24,40.87,3.74Z"/><path class="cls-23" d="M253.56,134.41c-2.85-6.27-11.16-24.57-35.44-5.33Z"/><path class="cls-24" d="M250.64,129.4a4.58,4.58,0,1,0-5.15,3.91A4.54,4.54,0,0,0,250.64,129.4Z"/><path class="cls-24" d="M192.6,122.57a5.08,5.08,0,1,0-5.74,4.35A5.08,5.08,0,0,0,192.6,122.57Z"/><path class="cls-25" d="M191.47,121.17a2,2,0,1,0-2.24,1.69A2,2,0,0,0,191.47,121.17Z"/><path class="cls-25" d="M249.93,128.36a1.78,1.78,0,1,0-2,1.53A1.77,1.77,0,0,0,249.93,128.36Z"/><path class="cls-24" d="M195.09,144.91l30.17,3S202.34,179.83,195.09,144.91Z"/><polygon class="cls-26" points="214.89 155.25 219.46 148.34 196.98 145.98 200.51 154.51 214.89 155.25"/><path class="cls-16" d="M219.5,136.49c0-1.8-2.76-3.26-6.15-3.26s-6.14,1.46-6.14,3.26,2.75,3.26,6.14,3.26S219.5,138.29,219.5,136.49Z"/><path class="cls-15" d="M219.66,135.23c0-1.48-2.27-2.68-5.06-2.68s-5,1.2-5,2.68,2.25,2.68,5,2.68S219.66,136.71,219.66,135.23Z"/><path class="cls-16" d="M122.5,127.68c-5.93-3.89-9.26-8.48-12.07-3.68-4.91,8.38,9.62,12.68,9.62,12.68Z"/><path class="cls-15" d="M122.86,131.23c-3.07-2-4.79-4.4-6.25-1.91-2.55,4.34,5,6.57,5,6.57Z"/><path class="cls-27" d="M185.31,138.25c0-2.59-5.09-4.69-11.37-4.69s-11.37,2.1-11.37,4.69,5.09,4.67,11.37,4.67S185.31,140.83,185.31,138.25Z"/><path class="cls-27" d="M253.47,147c.23-2.57-4.65-5.12-10.9-5.69s-11.51,1.07-11.75,3.64,4.65,5.12,10.9,5.68S253.23,149.53,253.47,147Z"/><path class="cls-6" d="M161.23,102.8c6.69-3,22.74-7.35,27.09-6.35L188,99.12Z"/><path class="cls-6" d="M255.34,104.86c-6-2.7-20.28-6.33-24-5.13l.42,2.66Z"/></g></g></svg>