<svg id="Layer_1" data-name="Layer 1" xmlns="http://www.w3.org/2000/svg" xmlns:xlink="http://www.w3.org/1999/xlink" viewBox="0 0 504 289.76"><defs><style>.cls-1{fill:none;}.cls-2{fill:url(#radial-gradient);}.cls-3{clip-path:url(#clip-path);}.cls-4,.cls-5{fill-rule:evenodd;}.cls-4{fill:url(#linear-gradient);}.cls-5{fill:url(#linear-gradient-2);}.cls-6{fill:url(#radial-gradient-2);}</style><radialGradient id="radial-gradient" cx="252" cy="145.96" r="288.58" gradientTransform="matrix(1, 0, 0, -1, 0, 290.84)" gradientUnits="userSpaceOnUse"><stop offset="0.08" stop-color="#00131a"/><stop offset="0.46" stop-color="#000e13"/><stop offset="1"/></radialGradient><clipPath id="clip-path"><rect class="cls-1" y="0.88" width="504" height="288"/></clipPath><linearGradient id="linear-gradient" x1="-82.37" y1="285.89" x2="253.53" y2="43.53" gradientTransform="matrix(1, 0, 0, -1, 0, 290.84)" gradientUnits="userSpaceOnUse"><stop offset="0.14" stop-color="#43c6ac"/><stop offset="0.15" stop-color="#389995"/><stop offset="0.17" stop-color="#2f7483"/><stop offset="0.18" stop-color="#2c667c"/><stop offset="0.23" stop-color="#214c5d"/><stop offset="0.29" stop-color="#173540"/><stop offset="0.35" stop-color="#0e2129"/><stop offset="0.43" stop-color="#081216"/><stop offset="0.51" stop-color="#03080a"/><stop offset="0.63" stop-color="#010202"/><stop offset="0.88"/></linearGradient><linearGradient id="linear-gradient-2" x1="-2998.61" y1="3986.88" x2="-2662.7" y2="3744.52" gradientTransform="matrix(-1, 0, 0, 1, -2401.46, -3705.95)" gradientUnits="userSpaceOnUse"><stop offset="0.14" stop-color="#43c6ac"/><stop offset="0.15" stop-color="#3ba39b"/><stop offset="0.17" stop-color="#327f88"/><stop offset="0.18" stop-color="#2f7181"/><stop offset="0.18" stop-color="#2e6f7f"/><stop offset="0.24" stop-color="#22515d"/><stop offset="0.29" stop-color="#173840"/><stop offset="0.36" stop-color="#0f2429"/><stop offset="0.43" stop-color="#081416"/><stop offset="0.52" stop-color="#03080a"/><stop offset="0.63" stop-color="#010202"/><stop offset="0.88"/></linearGradient><radialGradient id="radial-gradient-2" cx="307.8" cy="418.36" r="179.72" gradientTransform="matrix(0, 1.07, 1.37, 0, -310.06, -186.07)" gradientUnits="userSpaceOnUse"><stop offset="0" stop-color="#00131a"/><stop offset="0.39" stop-color="#00131a" stop-opacity="0.85"/><stop offset="0.78" stop-color="#00131a" stop-opacity="0.38"/><stop offset="1" stop-color="#00131a" stop-opacity="0"/></radialGradient></defs><g id="Layer_1-2" data-name="Layer 1"><rect class="cls-2" y="0.88" width="504" height="288"/><g class="cls-3"><path class="cls-4" d="M263.76,285.89l-11.83-7a1.56,1.56,0,0,1-1-1.46c0-8-.12-15.91-.19-23.86,0-.25,0-.5.09-.74.52.28.92.48,1.29.7l11.6,6.87v-1L252,252.8c-.25-.14-.47-.32-.94-.64l1.33-.78c3.78-2.11,7.55-4.24,11.32-6.36v-.79l-11.56,6.83-.52.31-.74.36v-.12c0-.57-.07-1-.06-1.38.08-7.52.19-15,.22-22.56a2.34,2.34,0,0,1,1.36-2.29q5.68-3.3,11.33-6.64v-.82l-9.43,5.32L252,224.6a3,3,0,0,1-1.47.46,3,3,0,0,1-1.34-.46c-6.39-3.68-12.82-7.29-19.23-10.92-.46-.25-.91-.52-1.53-.88.44-.32.71-.58,1-.76l19.9-11.21a2.79,2.79,0,0,1,1.23-.4,2.51,2.51,0,0,1,1.16.36q6,3.45,12,6.84v-.87c-3.74-2.22-7.48-4.44-11.24-6.63a2.33,2.33,0,0,1-1.36-2.27c0-7.42-.1-14.84-.16-22.26v-1.74l.4.19c4.17,2.44,8.26,4.87,12.33,7.29v-.92l-11.13-6.29c-.37-.21-.72-.46-1.23-.78.45-.31.78-.56,1.13-.77l11.23-6.31v-1l-12,7a5.4,5.4,0,0,1-.74.33c0-.53-.07-.94-.06-1.34.08-7.62.18-15.22.25-22.83a1.79,1.79,0,0,1,.9-1.8q5.82-3.39,11.61-6.82v-.7l-8.91,5c-1,.55-1.93,1.09-2.9,1.63a2.78,2.78,0,0,1-1.08.37,2.36,2.36,0,0,1-1.24-.36c-6.56-3.76-13.16-7.46-19.75-11.19-.37-.21-.72-.45-1.22-.77a11.84,11.84,0,0,1,1-.72c6.69-3.76,13.37-7.5,20-11.29a2.48,2.48,0,0,1,1-.36,2.25,2.25,0,0,1,.52.08,4,4,0,0,1,.56.25l11.94,6.78v-.86l-11.57-6.86a1.42,1.42,0,0,1-.86-1.36c0-8-.12-16-.19-24,0-.23.05-.46.09-.68l12.53,7.43v-1L252.9,95.13c-.39-.22-.78-.47-1.28-.78h-.06a9.42,9.42,0,0,1,.86-.67l11.34-6.38v-.88l-12,7.09h0l-.42.15c0-.51-.06-.88-.06-1.24.09-7.66.19-15.31.25-23a1.79,1.79,0,0,1,.94-1.79q5.68-3.33,11.37-6.69v-.89l-6.57,3.7-5.27,3a2.71,2.71,0,0,1-1,.31,2.64,2.64,0,0,1-1.28-.4c-6.55-3.77-13.14-7.46-19.72-11.18-.34-.19-.65-.41-1.09-.7a3.91,3.91,0,0,1,.66-.56l20.67-11.62a1.49,1.49,0,0,1,.36-.17,1.57,1.57,0,0,1,.86,0,.58.58,0,0,1,.26.11l12,6.84v-.87l-12.19-7.19c-.08-8.39-.16-16.78-.24-25.54l1.12.63,11.31,6.71v-.93l-11.39-6.46c-.24-.16-.47-.34-.69-.52l1.3-.75,10.78-6.08v-.9l-11.65,6.9-.47.24-.24.07c0-.57-.06-1-.05-1.4q.1-9,.2-18.09h-1c.06,6.4.12,12.8.18,19.34a.67.67,0,0,0,0,.2c-.56-.29-1-.48-1.33-.7-6.47-3.86-12.92-7.66-19.4-11.51A2.11,2.11,0,0,1,228.79.51v-5.3h-1L227.73.67a1.77,1.77,0,0,1-.94,1.78l-20.3,12c-.18.1-.39.19-.68.32,0-.47-.09-.87-.09-1.26q.1-9.12.2-18.26h-1q.06,9.21.16,18.42a6.51,6.51,0,0,1-.08,1.14c-.52-.27-.88-.45-1.22-.66-6.51-3.85-13-7.72-19.53-11.55A2,2,0,0,1,183.08.66V-4.75h-1L182,.62a1.76,1.76,0,0,1-.9,1.8c-6.78,4-13.54,8-20.31,11.94-.17.1-.36.18-.66.32a.52.52,0,0,0-.06-.3v-1q.1-9.09.2-18.19h-1c.06,6.46.12,12.94.18,19.62l-21.91-13c0-2.21,0-4.42-.07-6.64h-1c0,1.79,0,3.58-.05,5.37a2,2,0,0,1-1.1,2c-6.61,3.86-13.2,7.78-19.81,11.67a9.25,9.25,0,0,1-1,.49,1.12,1.12,0,0,0-.1-.31v-1q.11-9.12.2-18.22h-1c.06,6.48.12,13,.18,19.67l-22-13L91.73-4.8h-1V.67a1.8,1.8,0,0,1-1,1.77c-6.69,3.91-13.37,7.87-20,11.8-.25.15-.53.27-.89.45,0-.52-.1-.92-.1-1.32q.11-9.09.2-18.17H68q.06,8.91.13,17.83v1.71L68,14.66,59.1,9.49v0l-11.8-7A2.09,2.09,0,0,1,46.1.48v-5.3h-.81L45.23.64a1.77,1.77,0,0,1-1,1.78q-10.17,6-20.25,12c-.21.12-.44.21-.82.39,0-.51-.1-.92-.1-1.33l.21-18.26H22.4q.06,9.21.16,18.42a6.78,6.78,0,0,1-.09,1.22c-.6-.32-1-.51-1.36-.74L1.58,2.56A2,2,0,0,1,.41.62V-4.79H-.44L-.5.62a1.76,1.76,0,0,1-.94,1.8c-6.78,4-13.56,8-20.31,11.93-.21.12-.44.21-.85.4,0-.59-.06-1-.06-1.35q.11-9.09.2-18.19h-.84c.06,6.49.12,13,.18,19.71l-15.14-9v.92l13.66,7.72c.32.19.62.42,1.11.76l-1.38.8-13.39,7.57v.94l13.51-8,1.52-.88c0,.65.1,1.07.09,1.49-.08,7.56-.2,15.11-.24,22.67a2.23,2.23,0,0,1-1.26,2.19l-13.62,8v.58l14-7.87a2.23,2.23,0,0,1,2.54,0c6.6,3.78,13.24,7.51,19.87,11.26.33.18.64.41,1.19.77-1.14.67-2.06,1.21-3,1.73-6,3.37-12,6.72-18,10.13a2.21,2.21,0,0,1-2.53,0c-4.67-2.68-9.35-5.32-14-8v.72c5.67,3.25,12.84,7.52,14.76,8.89.07,8.36.15,16.8.23,25.25-.75-.14-8.74-4.7-15-8.43V86L-25,93.49c.41.23.8.5,1.36.85-.51.34-.84.6-1.2.8l-13.42,7.54v.74L-25,95.6c.45-.27.9-.52,1.53-.88,0,.63.1,1,.09,1.46-.08,7.61-.18,15.22-.24,22.82a1.89,1.89,0,0,1-1,1.91l-13.69,8v.75q7-3.91,14-7.86a2,2,0,0,1,2.27,0c6.65,3.81,13.32,7.56,20,11.33.32.18.63.4,1.07.7-.43.29-.72.52-1,.7-6.71,3.78-13.43,7.54-20.15,11.34a1.78,1.78,0,0,1-2,0q-7-4-14.1-8v.72c4.55,2.7,9.11,5.41,13.67,8.09a1.53,1.53,0,0,1,.9,1.49c0,7.91.14,15.82.2,23.73,0,.3,0,.61-.08.91l-14.69-8.71v.9l13.47,7.63c.28.16.52.39.9.66-.49.31-.83.56-1.2.76l-13.17,7.42v.95l9.65-5.66,5.06-2.92c0,.68.06,1.15.06,1.62-.09,7.51-.2,15-.24,22.54a2.27,2.27,0,0,1-1.26,2.2c-4.44,2.58-8.85,5.19-13.27,7.8v.57l14-7.87a1.57,1.57,0,0,1,1.75-.08q10.36,5.9,20.75,11.76a8,8,0,0,1,.64.51l-1.44.82c-6.51,3.66-13,7.3-19.5,11a2.33,2.33,0,0,1-2.67,0q-6.75-3.87-13.53-7.68v.72l13.31,7.89a1.72,1.72,0,0,1,1.12,1.66c0,7.85.13,15.71.19,23.56a6,6,0,0,1,0,.87,7.46,7.46,0,0,1-.94-.33l-13.63-8.07v.91l13,7.38c.36.21.7.47,1.22.81l-1.4.81-12.86,7.18v.76l13.65-8a6.42,6.42,0,0,1,.85-.37c0,.59.06,1,.06,1.36q-.14,11.49-.25,23a1.77,1.77,0,0,1-.93,1.78q-6.71,3.92-13.38,7.87v.6l13.72-7.73a1.69,1.69,0,0,1,1.89-.11q9.76,5.57,19.56,11.07h1.31c-4-2-19.11-10.92-21.23-12.48-.07-8.37-.15-16.81-.23-25.27,1.16.29,19.8,11.19,22.12,12.91q.12,12.35.23,24.84h.51v-.95c.08-7.51.2-15,.23-22.54a2.31,2.31,0,0,1,1.36-2.29c6.5-3.78,13-7.62,19.45-11.43.36-.22.75-.39,1.3-.67,0,.63.07,1.1.07,1.56-.09,7.52-.19,15-.24,22.55a2.22,2.22,0,0,1-1.23,2.21c-6.5,3.79-13,7.63-19.44,11.46l-.18.1H1.6q9.71-5.41,19.4-10.9a1.88,1.88,0,0,1,2.14-.08c6.46,3.69,13,7.34,19.43,11h1L22.68,278.31c-.08-8.45-.15-16.87-.23-25.33,1.15.31,20.23,11.49,22.07,12.9.07,8.14.14,16.33.22,24.8h.53q0-.31-.06-.63c.08-7.75.18-15.5.25-23.26a1.56,1.56,0,0,1,.79-1.56l12.85-7.57h0l5.68-3.35,1.87-1.1c.17-.1.36-.19.57-.29l.18-.06a10,10,0,0,1,.12,1.1c-.08,7.7-.18,15.4-.25,23.11a1.79,1.79,0,0,1-.94,1.78c-2.47,1.43-4.92,2.88-7.37,4.33v.08l-12.62,7.42h1l12.36-6.95c2.37-1.32,4.74-2.64,7.1-4l.4-.19.23-.08h.06a1.56,1.56,0,0,1,.68,0,2.13,2.13,0,0,1,.49.21q9.7,5.54,19.45,11h1.12L69.16,278.8a1.45,1.45,0,0,1-.85-1.37c0-8-.13-16-.19-24a2.9,2.9,0,0,1,.09-.59c.44.22.81.39,1.13.58L89,265.05a1.77,1.77,0,0,1,1.11,1.67c0,7.85.13,15.71.2,23.57v.39H91a3,3,0,0,1,0-.6c.08-7.75.18-15.5.25-23.26a1.59,1.59,0,0,1,.79-1.56c6.89-4,13.76-8.1,20.64-12.15A2.07,2.07,0,0,1,113,253l.17-.06c0,.49.07.86.07,1.22-.09,7.66-.19,15.31-.26,23a1.77,1.77,0,0,1-.91,1.8c-6.7,3.9-13.36,7.86-20,11.79h.89l19.31-10.88a2.43,2.43,0,0,1,1.86-.28,2.87,2.87,0,0,1,.4.18c6.45,3.69,12.93,7.33,19.39,11h1.49c-3.61-1.78-17.75-10-21.28-12.47q-.12-12.57-.23-25.14c.68.24,3,1.49,6,3.16l13.93,8.26c.8.5,1.49,1,2,1.31.08,8.23.16,16.54.23,24.88h.68a3.7,3.7,0,0,1-.07-.66c.09-7.72.19-15.43.26-23.14a2,2,0,0,1,.43-1.4l.09-.08.26-.2c.09-.06.18-.13.29-.19q8.4-4.9,16.8-9.86c1-.57,1.91-1.17,2.89-1.73.32-.19.68-.35,1.12-.57h.08c0,.56,0,.93,0,1.3q-.14,11.49-.25,23a1.77,1.77,0,0,1-.93,1.78c-6.69,3.91-13.36,7.86-20,11.79h1.06l19.47-11a2.74,2.74,0,0,1,.42-.21h.1l.22-.06a1.4,1.4,0,0,1,.5,0,1.81,1.81,0,0,1,.5.2q9.76,5.57,19.56,11.07H181c-1.65-.84-5.24-2.88-9-5.08h0l-6-3.55c-2.54-1.52-4.68-2.83-5.72-3.54a1.85,1.85,0,0,1-.47-.91q-.09-12.06-.21-24.29v-.32c1,.41,4.86,2.61,9.13,5.09l3.29,2h0c4.41,2.6,8.52,5.09,9.53,5.84q.12,12.35.23,24.84h.65v-1c.08-7.51.2-15,.22-22.54a2.33,2.33,0,0,1,1.37-2.29c6.5-3.78,13-7.62,19.44-11.43.33-.2.69-.36,1.16-.6,0,.59.07,1.05.07,1.49-.09,7.52-.19,15-.24,22.55a2.22,2.22,0,0,1-1.23,2.21c-6.5,3.79-13,7.63-19.44,11.46l-.18.1h.81q9.73-5.44,19.45-10.93a2.56,2.56,0,0,1,1-.36,1.78,1.78,0,0,1,1,.28c6.47,3.69,13,7.34,19.43,11h1.12l-20.88-12.37q-.12-12.64-.23-25.27c2.1.89,20.14,11.47,21.92,12.84.07,8.14.14,16.33.22,24.8H228a3.36,3.36,0,0,1-.06-.63c.08-7.75.18-15.5.25-23.26a1.56,1.56,0,0,1,.79-1.56q10.35-6.08,20.68-12.19a3.8,3.8,0,0,1,.47-.18h0c0,.49.07.85.07,1.21-.09,7.66-.19,15.31-.25,23a1.88,1.88,0,0,1-1,1.87c-6.68,3.9-13.34,7.84-20,11.76h1.18q9.7-5.44,19.41-10.91a2.37,2.37,0,0,1,1-.33,1.76,1.76,0,0,1,.89.25q6.19,3.54,12.42,7Zm-13.65-87.63a3,3,0,0,1-.08.67,1.78,1.78,0,0,1-.79,1q-10.37,6.07-20.73,12.19a1.35,1.35,0,0,1-.34.11c0-.42-.07-.75-.07-1.06.09-7.75.19-15.5.25-23.26a1.72,1.72,0,0,1,.92-1.65q10.17-6,20.3-11.95c.18-.11.39-.2.67-.34a6.61,6.61,0,0,1,.12,1.08c-.08,7.7-.18,15.45-.25,23.21Zm-87.11,3c-1.44-.89-2.55-1.6-3.11-2-.08-8.32-.15-16.71-.23-25.45l21.91,13q.12,12.6.24,25.23c-1-.37-5.32-2.8-9.92-5.48h0ZM.3,80.84C.22,72.34.14,64,.07,55.62a.94.94,0,0,1,.22-.12H.42c.26.12.53.24.78.38L22.13,68.27c.08,8.47.15,16.89.23,25.64Zm22,15.58c-.08,7.51-.19,15-.24,22.53a2.2,2.2,0,0,1-1.25,2.19c-6.49,3.76-12.95,7.6-19.42,11.41l-1.4.81c0-.64-.09-1-.09-1.47.06-7.61.18-15.22.24-22.82a1.91,1.91,0,0,1,1-1.9c6.66-3.88,13.28-7.82,19.92-11.75.33-.19.68-.34,1.18-.59C22.3,95.42,22.35,95.92,22.34,96.42ZM.69,82.14C7.51,86,14.35,89.89,21.18,93.75c.21.12.39.27.71.5a9.29,9.29,0,0,1-.95.7L.8,106.29a1.78,1.78,0,0,1-2,.1c-6.8-3.9-13.68-7.74-20.51-11.61-.21-.12-.39-.27-.83-.58l1.31-.76q10-5.58,19.91-11.18A1.82,1.82,0,0,1,.69,82.14Zm0,79.13c6.65,3.81,13.33,7.56,20,11.34.33.18.63.41,1.22.79l-1.49.86c-6.51,3.65-13,7.29-19.53,11a2.23,2.23,0,0,1-2.54,0c-6.56-3.77-13.16-7.46-19.74-11.19-.37-.21-.73-.46-1.23-.77a12.2,12.2,0,0,1,1-.73c6.67-3.76,13.36-7.5,20-11.28a2,2,0,0,1,2.32,0ZM0,187.92a1.79,1.79,0,0,1,.94-1.78c6.74-3.94,13.45-7.92,20.17-11.88.25-.15.52-.27.94-.48,0,.51.11.92.11,1.34-.09,7.65-.19,15.31-.25,23a1.79,1.79,0,0,1-.93,1.79q-10.19,5.94-20.31,12c-.21.12-.44.21-.86.41,0-.59-.07-1-.06-1.34C-.19,203.23-.09,195.58,0,187.92Zm22.14-15.14c-.46-.23-.81-.37-1.12-.55q-10-5.89-19.94-11.81a1.76,1.76,0,0,1-1-1.73c0-7.76-.13-15.52-.2-23.29,0-.32,0-.65.08-1.12.42.19.72.31,1,.47l20,11.87a1.76,1.76,0,0,1,1,1.72c0,7.76.13,15.52.2,23.29a5.82,5.82,0,0,1,0,1.15Zm-.6-26.89C14.76,142,8,138.19,1.16,134.34c-.25-.14-.48-.32-.84-.56a7.93,7.93,0,0,1,1-.72c6.68-3.76,13.37-7.5,20-11.29a2.12,2.12,0,0,1,2.41,0C30.34,125.55,37,129.28,43.6,133c.34.19.65.42,1.23.8-.65.37-1.06.62-1.48.85q-9.83,5.52-19.66,11a1.87,1.87,0,0,1-2.17.22ZM66.7,67.62a1.77,1.77,0,0,1,1,1.7c0,7.76.12,15.52.19,23.27a6.55,6.55,0,0,1-.08,1.15c-.47-.25-.79-.4-1.09-.58L59.1,88.62h0c-4-2.35-7.94-4.71-11.93-7a2.21,2.21,0,0,1-1.28-2.2c0-7.51-.11-15-.18-22.54a15.48,15.48,0,0,1,.06-1.58c.48.22.83.36,1.14.54L59,63h0Q62.83,65.34,66.7,67.62Zm1.17,28.5-.24,23a1.79,1.79,0,0,1-.92,1.79L59,125.42v.07l-12.25,7.23c-.29.18-.59.31-1,.52a5.67,5.67,0,0,1-.18-1c.08-7.81.19-15.62.24-23.43A1.91,1.91,0,0,1,47,107c6-3.46,11.88-7,17.82-10.44.86-.51,1.75-1,2.8-1.62l.18-.08A10.81,10.81,0,0,1,67.87,96.12ZM46.37,82.2C50.56,84.59,54.76,87,59,89.33h0l7.62,4.31c.28.16.54.36,1,.69h0l-1.37.8L59,99.26v.07l-12.46,7a1.94,1.94,0,0,1-2.14,0c-6.73-3.85-13.5-7.65-20.25-11.46-.24-.14-.47-.32-.85-.57.37-.27.64-.52.94-.7L44.52,82.2A1.68,1.68,0,0,1,46.37,82.2ZM45,79.6a1.9,1.9,0,0,1-1.07,1.82q-10.05,5.88-20,11.8c-.26.15-.52.26-.89.44a5.65,5.65,0,0,1-.17-1c.08-7.8.18-15.6.26-23.4a1.58,1.58,0,0,1,.81-1.56c6.9-4,13.79-8.12,20.68-12.17a3.1,3.1,0,0,1,.6-.23c0,.54.07.92.06,1.29Q45.08,68.14,45,79.6ZM24.2,95.51q9.82,5.86,19.66,11.64a1.76,1.76,0,0,1,1,1.71c0,7.76.12,15.53.19,23.29V133l-.17.11h-.13c-.26-.12-.53-.23-.79-.38L23,120.33c-.08-8.45-.16-16.84-.23-25.53C23.45,95.13,23.84,95.3,24.2,95.51Zm20.88,40.38c-.08,7.52-.19,15-.23,22.55a2.23,2.23,0,0,1-1.24,2.2c-6.5,3.79-13,7.63-19.43,11.46l-1.43.82c0-.73-.08-1.2-.08-1.67.09-7.51.19-15,.24-22.54a2.24,2.24,0,0,1,1.23-2.22c6.55-3.8,13-7.67,19.57-11.5.37-.22.76-.39,1.3-.67C45,135,45.09,135.42,45.08,135.89Zm-22.42,38a4,4,0,0,1,.83.26q10.22,6,20.41,12.08a1.45,1.45,0,0,1,.84,1.37c0,8,.13,16,.19,24a4.63,4.63,0,0,1-.1.65c-.53-.26-.91-.44-1.28-.66C37,207.72,30.46,203.82,23.9,200a1.85,1.85,0,0,1-1.1-1.82c0-7.71-.12-15.41-.18-23.12,0-.32,0-.66,0-1.12Zm21.26,11.29Q34.08,179.56,24.19,174c-.36-.21-.7-.47-1.24-.83l1.39-.8c6.6-3.7,13.2-7.38,19.77-11.12a2,2,0,0,1,2.27,0q6.28,3.62,12.62,7.17h0l7.51,4.25c.24.14.47.32.93.63l-.09.06-1.27.72-7.08,4v.07c-4.18,2.35-8.35,4.69-12.51,7.06a2.21,2.21,0,0,1-2.57,0Zm1.74,2.67a1.72,1.72,0,0,1,.92-1.65c4.19-2.44,8.35-4.91,12.52-7.37h0l7.19-4.24.67-.39.7-.35c0,.59.07,1,.06,1.39-.08,7.61-.18,15.22-.24,22.82a1.92,1.92,0,0,1-1,1.88L59,204.36v.06l-13,7.64a2.13,2.13,0,0,1-.49.15c0-.45-.07-.77-.06-1.1,0-7.69.15-15.49.21-23.25Zm14.1-19.74-14-8.29q-.12-12.63-.23-25.29c.66.12,7.47,4,13.41,7.5v.13l7.67,4.55c.37.23.67.43.88.59l.24,25.16c-.81-.3-4.13-2.13-8-4.34ZM67.54,146l-.18-.07c-2.75-1.57-5.5-3.12-8.26-4.68h0l-11.9-6.74c-.38-.21-.73-.45-1.23-.77a10.13,10.13,0,0,1,1-.72l12.13-6.78h0c2.62-1.47,5.23-2.93,7.84-4.42a2.79,2.79,0,0,1,1.19-.39,2.42,2.42,0,0,1,1.19.38c6.57,3.76,13.17,7.46,19.75,11.19.37.21.72.45,1.21.78a10.13,10.13,0,0,1-1,.72L69.11,145.88a3.36,3.36,0,0,1-.43.2,2,2,0,0,1-1.14,0ZM112.39,93.1,91.66,80.83c-.07-8.41-.15-16.74-.22-25.41.33.14.6.24.83.35L113,68a1.31,1.31,0,0,1,.37.56c.08,8.33.15,16.6.23,25.18-.42-.21-.81-.44-1.21-.66Zm1.18,3.23c-.09,7.56-.19,15.13-.25,22.69a2,2,0,0,1-1.07,2c-6.62,3.88-13.25,7.8-19.81,11.7-.29.17-.61.31-1,.51a8.84,8.84,0,0,1-.13-1.14c.08-7.72.18-15.43.25-23.14a2.83,2.83,0,0,1,.16-1l.12-.21.09-.12a2.09,2.09,0,0,1,.2-.22,1.93,1.93,0,0,1,.36-.28c6.74-3.93,13.46-7.92,20.19-11.87l.52-.27.31-.13V95c0,.58.06,1,.06,1.36Zm-21.28-14c6.52,3.75,13.07,7.42,19.61,11.12.38.22.74.46,1.24.77a7.2,7.2,0,0,1-.81.65L91.91,106.42l-.3.14a2.14,2.14,0,0,1-1.32-.14L69.41,94.62c-.11-.07-.22-.18-.46-.38.2-.16.37-.31.54-.43s.25-.18.37-.25c6.3-3.54,12.61-7.07,18.89-10.64l1-.58a3.69,3.69,0,0,1,.64-.29h.09a2.63,2.63,0,0,1,.39-.06,2.45,2.45,0,0,1,1.42.35Zm-1.72-2.54a1.58,1.58,0,0,1-.81,1.55Q79.39,87.42,69.07,93.52a2.2,2.2,0,0,1-.45.17c0-.51-.06-.89-.06-1.25.09-7.66.19-15.31.25-23a1.8,1.8,0,0,1,1-1.78C76.55,63.73,83.26,59.75,90,55.78c.22-.12.46-.23.75-.37a5.08,5.08,0,0,1,.15,1c-.14,7.83-.24,15.63-.31,23.44Zm-22,15,21.87,13c.07,8.43.15,16.85.23,25.43a5.08,5.08,0,0,1-.85-.31l-20.29-12a1.42,1.42,0,0,1-.86-1.36c0-8-.12-16-.18-24a5.2,5.2,0,0,1,.1-.78Zm22,40.73c-.09,7.71-.19,15.41-.25,23.12a1.76,1.76,0,0,1-1,1.76c-6.74,3.94-13.45,7.92-20.18,11.87-.22.13-.46.23-.83.4v-1.6c.08-7.46.19-14.92.23-22.38a2.24,2.24,0,0,1,1.29-2.27q6.89-4,13.73-8.08l6-3.53.43-.24.54-.26a11.69,11.69,0,0,1,.09,1.19ZM68.35,173.86c.53.26.89.42,1.22.62,6.55,3.87,13.1,7.77,19.66,11.63a1.77,1.77,0,0,1,1,1.7c0,7.77.13,15.53.19,23.29a10.54,10.54,0,0,1-.09,1.13L69.2,199.68a2,2,0,0,1-.64-1c-.07-8.16-.15-16.28-.22-24.59A1.77,1.77,0,0,1,68.35,173.86Zm22.06,11.72a2.05,2.05,0,0,1-.41-.16Q79.89,179.66,69.75,174c-.26-.16-.52-.35-1-.64.41-.28.72-.52,1-.71l.36-.21,19.64-11a2.63,2.63,0,0,1,1.06-.37,2.12,2.12,0,0,1,1.07.32c6.64,3.8,13.32,7.55,20,11.32.33.18.63.41,1.08.7-.42.29-.71.52-1,.7L91.87,185.41a2.76,2.76,0,0,1-.74.28A1.75,1.75,0,0,1,90.41,185.58Zm.93,2.49a2.14,2.14,0,0,1,.77-1.85c.09-.06.17-.13.27-.19l.12-.07c6.66-3.88,13.29-7.82,19.94-11.74l.39-.19.38-.17a5,5,0,0,1,.15.94c-.08,7.81-.18,15.62-.25,23.43a1.69,1.69,0,0,1-.91,1.65l-20.32,12a6.89,6.89,0,0,1-.73.34c0-.6-.06-1-.06-1.43.09-7.59.19-15.16.25-22.72Zm22-15.32c-.57-.31-1-.52-1.35-.75-6.42-3.81-12.83-7.63-19.28-11.39a2.22,2.22,0,0,1-1.29-2.19c0-7.52-.11-15-.18-22.55,0-.45,0-.91.05-1.52a9.11,9.11,0,0,1,1,.47l19.9,11.78a1.78,1.78,0,0,1,1,1.71c0,7.76.12,15.52.19,23.27a6.14,6.14,0,0,1,0,1.17ZM113.11,146l-.22-.09c-6.82-3.89-13.66-7.74-20.49-11.61-.19-.11-.37-.25-.74-.52a7.06,7.06,0,0,1,.78-.57l.37-.22,20-11.23a2.4,2.4,0,0,1,.93-.32,2,2,0,0,1,1,.3c6.69,3.82,13.41,7.59,20.11,11.39.29.16.57.36,1,.63-.26.22-.54.43-.82.63-6.8,3.83-13.62,7.64-20.4,11.49l-.37.17a2,2,0,0,1-1.15-.05ZM151.4,89.26,140.76,83c-1.42-.88-2.57-1.6-3.23-2.06a1.37,1.37,0,0,1-.23-.43c-.08-8.21-.16-16.5-.23-24.8v-.13c.8.33,3.71,1.93,7.18,3.92l12.32,7.3c1.09.68,2,1.23,2.45,1.59q.1,12.53.23,25.21C158.44,93.24,155.19,91.42,151.4,89.26Zm7.79,6.92c-.08,7.61-.19,15.24-.19,22.82a1.89,1.89,0,0,1-1,1.91c-6.75,3.93-13.46,7.91-20.19,11.87-.21.12-.45.22-.81.38v-1.47c.08-7.51.19-15,.23-22.53a2.22,2.22,0,0,1,1.25-2.19c6.46-3.76,12.87-7.57,19.29-11.37l.67-.39.73-.35c0,.56,0,.94,0,1.32ZM137.92,82.42c6.53,3.73,13.08,7.41,19.62,11.11.41.23.8.5,1.36.85-.5.34-.84.6-1.2.8q-10,5.59-19.92,11.2a3,3,0,0,1-.81.31,2.06,2.06,0,0,1-.7,0,2.13,2.13,0,0,1-.49-.21c-6.73-3.84-13.5-7.64-20.25-11.47-.26-.15-.5-.35-.91-.64.29-.23.59-.45.9-.65l.24-.13c6.59-3.72,13.2-7.41,19.78-11.15a2.67,2.67,0,0,1,.62-.28h.13a2.35,2.35,0,0,1,.37,0A2.5,2.5,0,0,1,137.92,82.42Zm-1.71-2.77a1.9,1.9,0,0,1-1,1.87q-10,5.83-19.94,11.74c-.26.15-.54.28-.9.46a8.42,8.42,0,0,1-.14-1.11c.08-7.71.19-15.42.25-23.13A2,2,0,0,1,115,68h0a4,4,0,0,1,.39-.29l.13-.09q10-5.87,20-11.8c.18-.1.39-.19.67-.31l.17-.07c0,.54.07.91.06,1.27,0,7.57-.14,15.24-.2,22.9ZM119,97.59l16.21,9.61q.6.39.93.63.12,12.57.23,25.16c-.82-.31-4.08-2.11-7.86-4.29l-10.88-6.44c-1.47-.91-2.61-1.64-3.17-2-.08-8.23-.16-16.53-.23-25.15A49.58,49.58,0,0,1,119,97.59Zm17.36,38c-.09,7.7-.19,15.41-.25,23.11a1.69,1.69,0,0,1-.92,1.65l-20.43,12c-.18.09-.36.18-.54.25a9.47,9.47,0,0,1-.13-1.07q.14-11.62.26-23.26a1.57,1.57,0,0,1,.79-1.57q10.35-6.06,20.68-12.17h0l.44-.17c0,.5.05.87.05,1.23ZM114,174c.9.38,4.45,2.37,8.45,4.69l8.57,5.06c2,1.22,3.66,2.23,4.52,2.81a1.85,1.85,0,0,1,.41.72c.08,8.18.16,16.43.23,25l-.49-.25-20.91-12.4a1.84,1.84,0,0,1-.57-1c-.08-8.16-.15-16.27-.23-24.41A.68.68,0,0,0,114,174Zm21.67,11.42c-6.83-3.9-13.67-7.75-20.51-11.62-.21-.12-.4-.27-.75-.5a7,7,0,0,1,.92-.71l20.17-11.37.33-.16A1.81,1.81,0,0,1,137,161a2.43,2.43,0,0,1,.37.16q10.17,5.79,20.38,11.54c.28.16.52.39.9.66-.49.31-.83.56-1.2.76q-10,5.61-19.91,11.21a2.78,2.78,0,0,1-1,.35A1.68,1.68,0,0,1,135.67,185.42Zm1.35,2.33a2,2,0,0,1,0-.35,2.07,2.07,0,0,1,.84-1.17l.25-.16c5.31-3.1,10.61-6.23,15.92-9.34,1.54-.9,3.11-1.79,4.89-2.82v.14c0,.55.05,1,.05,1.38-.09,7.51-.2,15-.24,22.54a2.27,2.27,0,0,1-1.26,2.2c-6.5,3.78-13,7.62-19.44,11.45l-1.06.61h-.08a4.36,4.36,0,0,1-.19-.94c.16-7.87.3-15.71.3-23.56Zm22-15-1.06-.6-20.81-12.33c-.08-8.44-.16-16.81-.23-25.38l.22.08a5.3,5.3,0,0,1,.77.34c6.68,4,13.35,7.92,20,11.85a1.53,1.53,0,0,1,.9,1.49c.05,7.91.14,15.82.21,23.73a6,6,0,0,1,0,.8Zm-.45-26.83c-6.74-3.85-13.5-7.65-20.24-11.46-.27-.15-.53-.35-1-.64.39-.26.69-.49,1-.68l.41-.24c6.15-3.46,12.32-6.9,18.47-10.38l1.19-.67a2.56,2.56,0,0,1,1-.36,2.34,2.34,0,0,1,1.06.32c6.65,3.81,13.32,7.56,20,11.33.32.18.63.4,1.07.7-.43.29-.72.52-1,.7-6.71,3.78-13.43,7.54-20.15,11.34a2.21,2.21,0,0,1-1,.31,1.91,1.91,0,0,1-.9-.29ZM183,80.84c-.08-8.5-.16-16.89-.24-25.22a.94.94,0,0,1,.22-.12h0l.74.37,20.93,12.41c.08,8.44.15,16.83.23,25.55Zm21.88,15.58c-.08,7.51-.19,15-.23,22.53a2.23,2.23,0,0,1-1.26,2.19c-6.49,3.79-12.95,7.63-19.42,11.44l-1.26.73c0-.59-.09-1-.08-1.39.08-7.61.18-15.22.24-22.82a1.91,1.91,0,0,1,1-1.9c6.66-3.88,13.28-7.82,19.92-11.73.29-.17.61-.32,1-.52A10.92,10.92,0,0,1,204.88,96.42ZM183.23,82.14c6.82,3.9,13.66,7.75,20.49,11.61.21.12.39.27.72.5a10,10,0,0,1-1,.7L183.3,106.29a2.35,2.35,0,0,1-1,.35,1.66,1.66,0,0,1-.92-.25c-6.82-3.9-13.66-7.74-20.5-11.61-.19-.11-.37-.26-.74-.52a6.44,6.44,0,0,1,.8-.57l.23-.14,3.5-2,16.61-9.32a2.7,2.7,0,0,1,.94-.36A1.71,1.71,0,0,1,183.23,82.14Zm-1.34-2.49a1.88,1.88,0,0,1-1,1.88c-6.66,3.89-13.29,7.83-19.93,11.75-.26.15-.54.28-.88.45a2.61,2.61,0,0,1-.18-.78c.08-7.91.18-15.82.24-23.73a1.9,1.9,0,0,1,.09-.58h0a2,2,0,0,1,1.06-1.08l15.92-9.34c1.55-.91,3.12-1.8,4.88-2.81,0,.53.08.89.07,1.25C182.06,64.32,182,72,181.89,79.65ZM160.66,95.23l20.28,12a1.44,1.44,0,0,1,.86,1.37c0,8,.13,16,.19,24a4.11,4.11,0,0,1-.08.6c-.45-.22-.81-.39-1.14-.58L161.12,121a1.87,1.87,0,0,1-1.12-1.81c0-7.71-.12-15.42-.19-23.13V94.94A4.26,4.26,0,0,1,160.66,95.23Zm21.28,40.28q-.13,11.56-.25,23.13a1.79,1.79,0,0,1-.95,1.78c-6.71,3.92-13.38,7.87-20.07,11.82a8.24,8.24,0,0,1-1,.47v-1.48c.09-7.52.2-15,.24-22.55a2.33,2.33,0,0,1,1.31-2.3l1.76-1c6-3.5,12-7,18-10.56a9.3,9.3,0,0,1,.9-.43C181.88,134.82,181.94,135.17,181.94,135.51Zm-.89,49.77c-6.56-3.77-13.16-7.46-19.74-11.19-.38-.21-.73-.46-1.23-.77a12.2,12.2,0,0,1,1-.73c6.68-3.76,13.37-7.5,20-11.28a2.35,2.35,0,0,1,1.06-.36,2.12,2.12,0,0,1,1.07.32c6.65,3.81,13.33,7.56,20,11.34.33.18.64.41,1.22.79l-1.49.86c-6.51,3.65-13,7.29-19.53,11a2.8,2.8,0,0,1-1.19.4A2.32,2.32,0,0,1,181.05,185.28Zm1.62,2.64a1.76,1.76,0,0,1,.94-1.78c6.73-3.94,13.45-7.92,20.17-11.88.22-.13.47-.25.8-.41,0,.48.1.87.1,1.27-.09,7.65-.19,15.31-.25,23a1.79,1.79,0,0,1-.93,1.79q-10.19,5.94-20.31,12c-.18.1-.39.19-.72.34,0-.54-.06-.91-.05-1.27C182.5,203.23,182.6,195.58,182.67,187.92Zm22-15.21c-.39-.18-.71-.32-1-.48-6.63-3.93-13.27-7.88-19.92-11.79a1.78,1.78,0,0,1-1-1.73c0-7.76-.12-15.52-.19-23.29a6.15,6.15,0,0,1,.07-1.06c.34.16.62.27.86.41l20,11.87a1.76,1.76,0,0,1,1,1.72c0,7.76.13,15.52.2,23.29A4.81,4.81,0,0,1,204.67,172.71Zm-.46-26.82c-6.78-3.87-13.59-7.7-20.38-11.55-.25-.14-.48-.32-.84-.56a7.93,7.93,0,0,1,1-.72c6.67-3.76,13.37-7.5,20-11.29a2.38,2.38,0,0,1,1.13-.35,2.66,2.66,0,0,1,1.13.38c6.61,3.78,13.25,7.51,19.87,11.25.34.19.65.42,1.23.8-.65.37-1.06.62-1.48.85q-9.83,5.52-19.66,11a2.46,2.46,0,0,1-1.17.41,1.87,1.87,0,0,1-.83-.22ZM227.53,79.6a1.9,1.9,0,0,1-1.06,1.82l-20.05,11.8c-.22.13-.46.24-.76.38a5,5,0,0,1-.15-.94c.08-7.8.18-15.6.25-23.4a1.58,1.58,0,0,1,.81-1.56c6.91-4,13.79-8.12,20.69-12.17a3,3,0,0,1,.45-.18c0,.51.07.88.07,1.24C227.69,64.29,227.59,72,227.53,79.6Zm.52,2.35a1.65,1.65,0,0,1,.86.25q10.23,5.82,20.5,11.6c.2.12.38.28.77.55-.48.31-.79.54-1.12.72l-20,11.27a2.58,2.58,0,0,1-1,.34,2.2,2.2,0,0,1-1-.3c-6.73-3.85-13.49-7.65-20.24-11.46-.24-.14-.47-.32-.85-.57.37-.27.63-.52.94-.7l20.28-11.4A2,2,0,0,1,228.05,82ZM206.74,95.51c6.55,3.88,13.1,7.78,19.66,11.64a1.76,1.76,0,0,1,1,1.71c0,7.76.12,15.53.19,23.29V133l-.17.11h0a5.17,5.17,0,0,1-.75-.36l-20.94-12.4c-.08-8.43-.16-16.79-.23-25.45C206,95.15,206.41,95.31,206.74,95.51Zm20.88,40.38c-.08,7.52-.19,15-.23,22.55a2.23,2.23,0,0,1-1.24,2.2c-6.5,3.79-13,7.63-19.43,11.46l-1.28.74c0-.68-.08-1.14-.08-1.59.09-7.51.19-15,.24-22.54a2.24,2.24,0,0,1,1.23-2.22c6.54-3.8,13-7.67,19.57-11.5.33-.2.69-.36,1.16-.59,0,.59.07,1,.06,1.49Zm-22.27,38.05a2.26,2.26,0,0,1,.68.22q10.22,6,20.41,12.08a1.45,1.45,0,0,1,.84,1.37c.05,8,.13,16,.19,24a5.58,5.58,0,0,1-.09.59c-.45-.23-.81-.4-1.14-.6-6.55-3.87-13.09-7.77-19.65-11.63a1.85,1.85,0,0,1-1.1-1.82c0-7.71-.12-15.41-.19-23.12C205.3,174.71,205.33,174.42,205.35,173.94Zm21.26,11.25q-9.84-5.62-19.73-11.18c-.37-.21-.71-.47-1.24-.83l1.36-.76c6.59-3.7,13.2-7.38,19.77-11.12a2.33,2.33,0,0,1,1.06-.34,2.21,2.21,0,0,1,1.06.34c6.61,3.78,13.24,7.51,19.86,11.25.37.21.7.47,1.17.78-.49.32-.83.57-1.2.77-6.59,3.71-13.19,7.4-19.76,11.14a2.42,2.42,0,0,1-1.19.38A2.68,2.68,0,0,1,226.61,185.19Zm15-43.06h0l5,3c1.68,1,2.95,1.83,3.51,2.24.07,8.22.14,16.51.22,25.12a46.77,46.77,0,0,1-4.6-2.41l-17.31-10.26q-.12-12.6-.23-25.25c1.25.49,7.8,4.2,13.44,7.56Zm8.63-23a1.92,1.92,0,0,1-1,1.88c-6.66,3.88-13.29,7.82-19.94,11.73a9.17,9.17,0,0,1-.88.46,4.85,4.85,0,0,1-.16-1c.08-7.81.19-15.62.24-23.43a1.92,1.92,0,0,1,1.17-1.81c6-3.46,11.88-7,17.81-10.44.92-.54,1.85-1.07,3-1.72v1.59c0,7.59-.15,15.15-.21,22.72ZM229.46,55.87l19.9,11.79a1.65,1.65,0,0,1,1,1.56c0,7.86.12,15.71.19,23.57a4.63,4.63,0,0,1-.09,1c-.57-.32-1-.53-1.35-.76-6.42-3.8-12.83-7.63-19.28-11.4a2.22,2.22,0,0,1-1.26-2.21c0-7.51-.11-15-.17-22.54V55.36C228.86,55.58,229.18,55.71,229.46,55.87Zm21.26-38.78c-.08,7.71-.18,15.42-.25,23.13a2.86,2.86,0,0,1-.12.82,2,2,0,0,1-.66.84l-.12.09-.11.07c-6.68,3.91-13.33,7.86-20,11.79-.25.15-.53.26-.94.45,0-.53-.07-.86-.06-1.18.08-7.71.19-15.42.24-23.14a1.92,1.92,0,0,1,1.08-1.86c6.66-3.88,13.3-7.81,19.94-11.73.25-.14.53-.27.89-.44A8.93,8.93,0,0,1,250.72,17.09Zm-43.79-2.45L227.1,3.28a2.46,2.46,0,0,1,1.06-.35,2.13,2.13,0,0,1,1.07.33q10,5.7,20,11.33a12,12,0,0,1,1,.68,5.91,5.91,0,0,1-.52.48l-1.33.76-5.74,3.24c-4.38,2.46-8.77,4.91-13.13,7.4a3,3,0,0,1-1.34.46,2.92,2.92,0,0,1-1.31-.41c-6.42-3.71-12.9-7.33-19.35-11l-1.5-.87A8.83,8.83,0,0,1,206.93,14.64Zm-1.22,1.22c.5.26.89.44,1.26.66,6.47,3.83,12.92,7.69,19.42,11.48a2.21,2.21,0,0,1,1.27,2.18c0,7.52.11,15,.18,22.56a14.3,14.3,0,0,1-.06,1.52c-.5-.26-.9-.45-1.26-.66-6.47-3.83-12.93-7.69-19.42-11.48a2.19,2.19,0,0,1-1.26-2.18c0-7.52-.12-15-.18-22.56,0-.45,0-.9.05-1.52Zm-.43,26.65a2.6,2.6,0,0,1,1.27.4c6.51,3.74,13.07,7.42,19.61,11.12.38.21.74.45,1.22.75a4.47,4.47,0,0,1-.63.6L206.07,67a1.8,1.8,0,0,1-.75.25,1.46,1.46,0,0,1-.73-.23L183.7,55.19a5.3,5.3,0,0,1-.52-.42c.48-.31.83-.56,1.2-.77,6.55-3.69,13.11-7.35,19.64-11.08A2.8,2.8,0,0,1,205.28,42.51ZM205,17.15c-.08,7.66-.18,15.33-.25,23a1.76,1.76,0,0,1-.92,1.79q-10.11,5.91-20.19,11.89c-.22.12-.46.23-.86.42V52.64c.09-7.47.2-14.93.23-22.4a2.35,2.35,0,0,1,1.31-2.33c6.59-3.82,13.14-7.71,19.7-11.58.3-.16.61-.31.92-.44A9.89,9.89,0,0,1,205,17.15Zm-43.9-2.34.44-.25,2.92-1.63,7.4-4.16h0l9.71-5.45a2.32,2.32,0,0,1,.94-.34,1.62,1.62,0,0,1,.93.26c6.77,3.87,13.58,7.69,20.37,11.53.24.14.46.32.83.57-.4.29-.69.52-1,.7L183.51,27.36a2.37,2.37,0,0,1-.93.34,1.79,1.79,0,0,1-.93-.26q-10.17-5.81-20.37-11.54c-.23-.13-.45-.3-.85-.58.29-.22.49-.38.7-.51Zm-1,1.31a39.43,39.43,0,0,1,3.72,1.9l18.11,10.75c.07,8.44.15,16.83.23,25.56l-5.1-3c-5.21-3.09-10.41-6.2-15.64-9.25a2.08,2.08,0,0,1-1.21-2c0-7.52-.12-15-.18-22.56a11.11,11.11,0,0,1,.05-1.35Zm.19,26.47a3.16,3.16,0,0,1,.5.22c6.6,3.78,13.24,7.51,19.87,11.26.33.18.64.41,1.19.77-1.14.67-2.06,1.21-3,1.73-6,3.37-12,6.72-18,10.13a2.64,2.64,0,0,1-1.36.41,2.56,2.56,0,0,1-1-.36c-6.56-3.76-13.16-7.46-19.75-11.18-.37-.22-.73-.46-1.23-.78a9.52,9.52,0,0,1,1-.73c6.62-3.73,13.26-7.44,19.87-11.19l.11-.06.24-.11a2.4,2.4,0,0,1,1.54-.11Zm-1-26.62c0,.54.09.92.08,1.3-.08,7.56-.2,15.11-.24,22.67a2.23,2.23,0,0,1-1.26,2.19c-6.45,3.75-12.87,7.57-19.3,11.36l-1.21.7-.19.05c0-.62-.06-1.07-.06-1.5.09-7.51.2-15,.24-22.53A2.23,2.23,0,0,1,138.62,28c6.45-3.76,12.86-7.57,19.29-11.36.24-.15.49-.29.76-.44l.61-.3s0,0,0,.05Zm-43.51-1.42,8-4.53,3.88-2.18L136,3.22a1.7,1.7,0,0,1,1.47-.15,1.71,1.71,0,0,1,.39.17Q147.91,9,158,14.63c.32.19.62.42,1.11.76l-1.38.8q-9.86,5.47-19.71,11a2.54,2.54,0,0,1-1.23.38,2.79,2.79,0,0,1-1.16-.38C129.1,23.42,122.5,19.75,115.93,16c-.37-.2-.71-.46-1.18-.78.44-.29.73-.52,1.06-.7ZM114.39,16l.33.08c.25.12.47.22.67.34q9.94,5.9,19.9,11.78a1.75,1.75,0,0,1,1,1.73c0,7.71.13,15.42.2,23.13,0,.35-.05.71-.09,1.19-.4-.19-.71-.32-1-.49q-10-5.89-19.91-11.78a1.75,1.75,0,0,1-1-1.73c0-7.71-.12-15.41-.19-23.12,0-.33.08-.67.12-1.13ZM114,42.47a2,2,0,0,1,1,.3q10,5.73,20.11,11.39c.29.16.56.36,1,.63a7.14,7.14,0,0,1-.82.63Q125,61.17,114.84,66.9a1.93,1.93,0,0,1-.87.3,1.77,1.77,0,0,1-.87-.26q-10.23-5.84-20.49-11.6c-.21-.12-.39-.28-.84-.59L93.09,54c6.63-3.73,13.27-7.44,19.9-11.19a4.9,4.9,0,0,1,.52-.24h.13A2.42,2.42,0,0,1,114,42.47Zm-.27-25.34c-.08,7.65-.19,15.31-.24,23A1.93,1.93,0,0,1,112.43,42q-10.05,5.86-20.06,11.8c-.21.12-.45.23-.75.38a5,5,0,0,1-.15-.94c.08-7.8.18-15.61.25-23.41a1.58,1.58,0,0,1,.81-1.55q10.35-6.08,20.68-12.18l.46-.18c0,.5,0,.84,0,1.21Zm-43.46-2.6C76.84,10.82,83.45,7.13,90,3.42a3.65,3.65,0,0,1,.53-.25l.35-.09h0a2.1,2.1,0,0,1,.9.06,4.41,4.41,0,0,1,.59.26c6.56,3.77,13.16,7.47,19.75,11.19.37.21.72.46,1.22.78-.41.3-.69.55-1,.73q-10,5.63-20.13,11.32a2.11,2.11,0,0,1-1,.32,1.8,1.8,0,0,1-.9-.28Q80.16,21.63,70,15.89c-.24-.14-.46-.33-.92-.66Zm9.38,7.72c3.65,2.15,7.29,4.33,11,6.52.08,8.44.15,16.82.23,25.55L69,41.32c-.08-8.39-.16-16.79-.24-25.48,3.79,2.11,7.32,4.31,10.9,6.41ZM68.26,42.42a2.07,2.07,0,0,1,1,.29C76,46.54,82.7,50.31,89.4,54.11c.27.15.54.34.92.58l.05.05a5.52,5.52,0,0,1-.82.62C82.75,59.2,76,63,69.15,66.86a3,3,0,0,1-.41.19,2.11,2.11,0,0,1-1,0l-.28-.13-8.31-4.7h0l-11.89-6.7c-.33-.19-.65-.41-1.09-.7a4,4,0,0,1,.67-.56Q57.05,48.5,67.3,42.75A2.34,2.34,0,0,1,68.26,42.42ZM68,15.89c0,.6.07,1,.06,1.5-.06,7.52-.17,15-.22,22.54a2.24,2.24,0,0,1-1.23,2.22c-2.56,1.49-5.1,3-7.65,4.5v.07L47,53.83c-.28.16-.59.29-1.08.52,0-.58-.08-.91-.07-1.25,0-7.68.19-15.42.19-23.14a1.9,1.9,0,0,1,1.07-1.86l12-7h0l7.76-4.56A12.28,12.28,0,0,1,68,15.89ZM24.24,14.64Q34.34,9,44.41,3.28a2,2,0,0,1,2.28,0l12.27,7h0l7.46,4.22c.38.21.74.45,1.22.75a4.64,4.64,0,0,1-.66.59l-8,4.52v.06c-4,2.24-8,4.47-12,6.74a2.45,2.45,0,0,1-2.79,0c-6.43-3.71-12.9-7.33-19.36-11l-1.5-.87A8.35,8.35,0,0,1,24.24,14.64ZM23,15.79c.57.3,1,.49,1.4.73,6.5,3.83,13,7.69,19.45,11.48a2.21,2.21,0,0,1,1.27,2.18c0,7.52.11,15,.17,22.56a15.76,15.76,0,0,1-.06,1.59c-.57-.3-1-.5-1.4-.73-6.47-3.83-12.92-7.69-19.42-11.48a2.19,2.19,0,0,1-1.26-2.18c0-7.52-.15-15-.15-22.52Zm1,27.12C30.51,46.65,37.07,50.33,43.61,54c.38.21.74.45,1.22.75a4.47,4.47,0,0,1-.63.6Q33.88,61.2,23.53,67a1.47,1.47,0,0,1-1.63,0L1,55.19a5.3,5.3,0,0,1-.52-.42c.49-.31.83-.56,1.2-.77,6.55-3.69,13.12-7.35,19.65-11.08A2.33,2.33,0,0,1,24,42.91ZM22.49,17.15c-.08,7.66-.18,15.33-.25,23a1.76,1.76,0,0,1-.92,1.79Q11.21,47.83,1.13,53.82c-.25.14-.51.25-1,.49V52.63c.09-7.47.2-14.93.24-22.4a2.33,2.33,0,0,1,1.3-2.33c6.59-3.82,13.14-7.71,19.7-11.58.29-.17.6-.29,1.06-.51C22.43,16.34,22.49,16.75,22.49,17.15Zm-43.6-2.59,20-11.25a1.78,1.78,0,0,1,2-.08C7.7,7.1,14.51,10.92,21.3,14.76c.24.14.46.32.83.57a10,10,0,0,1-1,.7L1,27.36a1.78,1.78,0,0,1-2,.06q-10.17-5.8-20.37-11.54c-.25-.14-.47-.32-.92-.63ZM-5.63,51.31c-5.21-3.09-10.41-6.2-15.63-9.25A2.08,2.08,0,0,1-22.48,40c0-7.52-.12-15-.18-22.56a16.64,16.64,0,0,1,.07-1.71l22,13c0,8.49.13,16.92.21,25.68ZM-22.56,69.22a1.77,1.77,0,0,1,1.15-1.66l15.92-9.34c1.59-.93,3.2-1.85,5-2.89,0,.57.09,1,.08,1.33-.08,7.66-.18,15.32-.25,23a1.88,1.88,0,0,1-1,1.88C-8.33,85.42-15,89.36-21.6,93.28c-.29.17-.6.31-1,.51a4,4,0,0,1-.2-.84C-22.73,85-22.62,77.13-22.56,69.22Zm20.65,63.41L-21.57,121a1.89,1.89,0,0,1-1.11-1.82c0-7.71-.12-15.42-.19-23.13a10.41,10.41,0,0,1,.05-1.17,6.2,6.2,0,0,1,.94.34l20.28,12a1.44,1.44,0,0,1,.86,1.37c.05,8,.13,16,.19,24a5.16,5.16,0,0,1-.1.67C-1.16,133-1.55,132.85-1.91,132.63Zm-20.87,16.05a2.33,2.33,0,0,1,1.33-2.26c6.59-3.83,13.14-7.72,19.7-11.58.28-.17.6-.28,1-.49,0,.49.11.85.11,1.21q-.13,11.56-.25,23.13a1.8,1.8,0,0,1-.91,1.73c-6.71,3.92-13.38,7.87-20.07,11.82-.28.16-.59.29-1.1.54,0-.69-.05-1.12,0-1.55C-22.93,163.71-22.82,156.19-22.78,148.68Zm0,50.52c-.07-8.35-.15-16.77-.23-25.54l22,13.09q.12,12.62.24,25.28c-1.07-.19-19.11-10.7-22-12.83Zm-.36,51.15c.08-7.61.19-15.22.25-22.82a1.89,1.89,0,0,1,1-1.89c6.65-3.89,13.28-7.82,19.92-11.73.32-.19.67-.34,1.14-.57,0,.56.09,1,.09,1.4-.1,7.56-.21,15.12-.26,22.68a2.21,2.21,0,0,1-1.27,2.18c-6.45,3.76-12.87,7.57-19.29,11.36l-1.52.88c0-.65-.08-1.07-.08-1.49ZM20.59,253,.41,264.32a1.68,1.68,0,0,1-1.89.1q-10.3-5.87-20.64-11.69c-.2-.12-.37-.28-.72-.54l1-.68Q-11.9,245.95-2,240.42a2.44,2.44,0,0,1,2.8,0c6.47,3.72,13,7.37,19.49,11.05.41.23.8.5,1.36.84-.47.25-.76.49-1.08.67ZM-.06,238.82q-.11-12.65-.23-25.32c1.28.32,18.41,10.31,22.06,12.83.08,8.34.16,16.77.24,25.56Zm21.41-13.91Q11.18,219.11,1,213.42c-.25-.13-.47-.32-.84-.57.45-.3.78-.56,1.13-.76l20-11.26a1.78,1.78,0,0,1,2-.08c6.78,3.87,13.58,7.69,20.37,11.54.24.13.46.31.93.63l-1.22.71q-10,5.61-20,11.26a1.79,1.79,0,0,1-2,0Zm1.12,25.62c.08-7.7.18-15.42.25-23.13a1.82,1.82,0,0,1,.92-1.8L44,213.6c.21-.12.44-.18.86-.36,0,.58.06,1,.06,1.35q-.14,11.49-.25,23a1.77,1.77,0,0,1-.93,1.83q-10.12,5.91-20.2,11.89c-.24.14-.5.25-.9.44a9.89,9.89,0,0,1-.13-1.22Zm43.4,2.67L59,257.07v.08q-6.34,3.54-12.66,7.12a2.12,2.12,0,0,1-2.41,0c-6.6-3.79-13.24-7.52-19.87-11.26-.34-.19-.65-.41-1.1-.7a5.38,5.38,0,0,1,.78-.65q10.2-5.76,20.42-11.5a1.57,1.57,0,0,1,1.75-.09L59,247.52h0l7.07,4c.36.21.69.47,1.24.84Zm1.65-1.54c-.18-.06-.35-.11-.49-.17L59.1,246.8v0l-12.69-7.52a1.42,1.42,0,0,1-.86-1.36q-.07-12-.19-24a3.09,3.09,0,0,1,0-.43c.65.1,7.52,4,13.55,7.55v.16l7.41,4.39a1.78,1.78,0,0,1,1,1.72c0,7.76.13,15.52.19,23.29a3.27,3.27,0,0,1,0,1Zm.36-26.61h-.1a1.82,1.82,0,0,1-.45-.1,2.76,2.76,0,0,1-.68-.3c-2.51-1.45-5-2.87-7.55-4.3h0l-11.85-6.71c-.46-.25-.91-.52-1.52-.88a10.53,10.53,0,0,1,1-.76l12.35-6.94h0l7.69-4.34.18-.09.2-.09a2,2,0,0,1,1.33-.08,2.18,2.18,0,0,1,.47.21c6.7,3.83,13.42,7.6,20.14,11.4a11.51,11.51,0,0,1,1,.71c-1.22.7-2.22,1.3-3.24,1.87-5.87,3.3-11.76,6.57-17.61,9.91a2.77,2.77,0,0,1-1.36.49Zm.32,25.72c.08-7.86.19-15.71.25-23.57a1.82,1.82,0,0,1,0-.33,2.13,2.13,0,0,1,.9-1.22l.19-.12c5.31-3.1,10.61-6.23,15.92-9.34,1.55-.91,3.12-1.8,4.87-2.81a9.83,9.83,0,0,1,.09,1.08c-.08,7.76-.19,15.52-.24,23.28a1.79,1.79,0,0,1-1,1.74L69.12,251.31c-.22.13-.46.24-.77.39a4.87,4.87,0,0,1-.15-.93Zm43.59,2.15q-10.08,5.67-20.15,11.35a2.37,2.37,0,0,1-1,.33,1.62,1.62,0,0,1-.88-.26c-6.77-3.87-13.58-7.69-20.36-11.53-.25-.14-.47-.33-.94-.65l1.59-.91q9.11-5.1,18.19-10.23l1.35-.76a4,4,0,0,1,.56-.25h.07a2.2,2.2,0,0,1,.37-.06,2.24,2.24,0,0,1,1.23.34c6.55,3.76,13.15,7.46,19.73,11.18.37.21.72.45,1.23.77-.32.24-.65.47-1,.68Zm.41-1.74L92.3,239.41a1.79,1.79,0,0,1-1-1.72c0-7.7-.12-15.41-.19-23.12a6.5,6.5,0,0,1,.09-1.22l.58.3,20.69,12.26a1.92,1.92,0,0,1,.55.82c.07,8.27.15,16.5.23,25-.51-.25-.79-.39-1-.55Zm1.46-26a2.2,2.2,0,0,1-1.06-.33c-6.65-3.8-13.33-7.55-20-11.33-.32-.18-.63-.4-1.06-.69l.29-.26a6.2,6.2,0,0,1,.67-.47c5.55-3.13,11.1-6.24,16.65-9.38l3.44-1.94a4,4,0,0,1,.47-.21h.06a1.56,1.56,0,0,1,.43-.08,2.08,2.08,0,0,1,1.11.32c6.65,3.81,13.34,7.56,20,11.33.32.18.62.4,1.14.75l.06.06-1.35.77c-6.59,3.7-13.2,7.39-19.78,11.13a2.87,2.87,0,0,1-1.07.31Zm.18,25q.14-11.34.25-22.67a2.37,2.37,0,0,1,.29-1.3l.06-.09a1.45,1.45,0,0,1,.21-.22,2.19,2.19,0,0,1,.39-.29h0c6.7-3.9,13.37-7.86,20-11.8l.17-.09.72-.35a10.54,10.54,0,0,1,.11,1.13c-.08,7.7-.19,15.41-.25,23.11a1.78,1.78,0,0,1-1,1.77q-10.11,5.91-20.18,11.87c-.22.13-.47.23-.83.4a11.42,11.42,0,0,0,.06-1.46Zm44.46,2.32c-.45.26-.8.47-1.15.66-6.55,3.68-13.11,7.34-19.64,11.06a2.38,2.38,0,0,1-1.3.35,2.78,2.78,0,0,1-1.08-.37c-6.56-3.76-13.15-7.46-19.73-11.18-.37-.2-.7-.47-1.16-.78.49-.31.84-.56,1.21-.77L132,242.19l3.38-1.9.19-.09a1.66,1.66,0,0,1,.33-.15h.18a1.61,1.61,0,0,1,.31,0,2.26,2.26,0,0,1,1.1.34c6.61,3.78,13.24,7.51,19.86,11.25.36.21.69.46,1.2.8Zm.55-.89a4.4,4.4,0,0,1-.79-.29l-20.28-12a1.44,1.44,0,0,1-.86-1.37c0-8-.13-16-.19-24a4.11,4.11,0,0,1,.08-.6c.45.22.81.39,1.13.58l19.65,11.64a3,3,0,0,1,.75.57l.08.1a1.55,1.55,0,0,1,.29,1c0,7.85.13,15.71.19,23.56a7.52,7.52,0,0,1-.05.82Zm.32-26.57a2.77,2.77,0,0,1-1.21-.41c-6.52-3.74-13.07-7.41-19.6-11.11-.37-.21-.72-.46-1.23-.79.37-.26.61-.46.88-.62q10.22-5.73,20.41-11.47a2.21,2.21,0,0,1,.35-.16,1.51,1.51,0,0,1,.94,0,1.79,1.79,0,0,1,.32.13q10.36,5.89,20.75,11.76a8,8,0,0,1,.64.51l-1.44.82c-6.51,3.66-13,7.3-19.5,11a2.62,2.62,0,0,1-1.31.35Zm.44,26.67c0-.58-.09-1-.08-1.37.08-7.61.19-15.22.24-22.82a1.92,1.92,0,0,1,1-1.89c6.65-3.89,13.28-7.82,19.92-11.73.28-.17.6-.31,1-.5,0,.52.08.93.08,1.33-.09,7.56-.2,15.12-.24,22.68a2.21,2.21,0,0,1-1.27,2.18c-6.45,3.76-12.87,7.57-19.29,11.36l-1.22.71Zm43.5,1.26Q193,258.65,183,264.32a2.34,2.34,0,0,1-.89.33,1.49,1.49,0,0,1-.85-.23q-10.31-5.87-20.64-11.69c-.19-.11-.35-.26-.66-.49a9.1,9.1,0,0,1,.78-.61l.19-.12c6.6-3.71,13.21-7.39,19.78-11.14a2.83,2.83,0,0,1,1.32-.43,2.74,2.74,0,0,1,1.33.42c6.47,3.72,13,7.37,19.49,11,.41.23.8.5,1.36.84-.49.31-.78.55-1.1.73Zm-20.48-14.15c-.08-8.42-.15-16.82-.23-25.27,2.08.82,18.37,10.33,21.91,12.78.08,8.31.16,16.72.24,25.47ZM205,225.17a1.79,1.79,0,0,1-.93-.26q-10.15-5.81-20.37-11.54c-.24-.13-.46-.32-.83-.57.44-.3.77-.56,1.13-.76l20-11.26a2.32,2.32,0,0,1,.94-.34,1.75,1.75,0,0,1,.92.26c6.78,3.87,13.58,7.69,20.37,11.54.24.13.47.31.93.63l-1.22.71q-10,5.61-20,11.26A2.64,2.64,0,0,1,205,225.17Zm.2,25.36c.08-7.7.18-15.42.25-23.13a1.79,1.79,0,0,1,.92-1.8l20.32-12c.23-.11.47-.21.71-.3,0,.54.06.92.06,1.29q-.14,11.49-.25,23a1.77,1.77,0,0,1-.93,1.78q-10.12,5.91-20.2,11.89c-.2.12-.45.23-.76.38a8.48,8.48,0,0,1-.16-1.11Zm43.34,2.69-19.66,11a2.66,2.66,0,0,1-1.13.38,2.38,2.38,0,0,1-1.13-.35c-6.6-3.79-13.24-7.52-19.87-11.26-.34-.19-.66-.41-1.11-.7a6.11,6.11,0,0,1,.78-.65l20.42-11.5a2.24,2.24,0,0,1,.83-.3,1.46,1.46,0,0,1,.79.21q10.42,5.94,20.88,11.85a3.79,3.79,0,0,1,.58.48Zm1.7-1.56a4.77,4.77,0,0,1-.82-.31l-20.29-12a1.45,1.45,0,0,1-.85-1.36q-.08-12-.2-24a1,1,0,0,1,0-.39c1.2.44,7.79,4.18,13.55,7.6v.07l5.32,3.15c1.06.66,2,1.24,2.6,1.67a1.66,1.66,0,0,1,.37.66c.07,8.16.15,16.29.22,24.57a1,1,0,0,1,0,.34Z"/><path class="cls-5" d="M251,0l11.83,7a1.59,1.59,0,0,1,1,1.47c0,8,.12,15.9.19,23.86,0,.25,0,.5-.09.74-.52-.28-.92-.48-1.29-.71L251,25.49v.93l11.71,6.63c.25.14.47.31.94.64l-1.33.77L251,40.84v.79l11.56-6.83.52-.3.74-.36v.11c0,.58.07,1,.07,1.39-.09,7.52-.2,15-.23,22.55a2.34,2.34,0,0,1-1.36,2.29q-5.69,3.3-11.33,6.65v.81q4.72-2.64,9.44-5.32l2.35-1.32a2.71,2.71,0,0,1,1.46-.46,3,3,0,0,1,1.34.46C272,65,278.38,68.58,284.79,72.21l1.53.88a12.52,12.52,0,0,1-1,.76c-6.64,3.74-13.29,7.45-19.91,11.22a2.66,2.66,0,0,1-1.23.39A2.39,2.39,0,0,1,263,85.1q-6-3.43-12-6.83v.86c3.74,2.22,7.48,4.44,11.24,6.63A2.29,2.29,0,0,1,263.62,88c0,7.43.1,14.85.17,22.27V112l-.4-.19c-4.17-2.44-8.26-4.87-12.33-7.29v1l11.13,6.29c.37.21.72.46,1.23.78-.45.31-.78.57-1.13.77L251,119.65v1l12-7a7,7,0,0,1,.74-.34c0,.53.07.94.06,1.35-.08,7.61-.18,15.22-.25,22.82a1.76,1.76,0,0,1-.9,1.8q-5.82,3.41-11.61,6.83v.7l8.91-5,2.9-1.63a2.76,2.76,0,0,1,1.08-.36,2.35,2.35,0,0,1,1.24.35c6.56,3.77,13.16,7.47,19.75,11.19.37.21.72.46,1.22.77a10.13,10.13,0,0,1-1,.72c-6.68,3.77-13.37,7.51-20,11.3a2.49,2.49,0,0,1-1.14.27,1.82,1.82,0,0,1-.52-.08,2.78,2.78,0,0,1-.56-.24c-4-2.28-8-4.53-11.94-6.79v.87L262.55,165a1.44,1.44,0,0,1,.86,1.37c0,8,.12,16,.19,24,0,.22-.05.45-.09.67L251,183.68v.94l10.86,6.15c.4.22.78.47,1.28.77h.06a6.86,6.86,0,0,1-.86.67L251,198.64v.8l12-7.08h0l.42-.15c0,.5.06.87.06,1.23-.09,7.66-.19,15.31-.25,23a1.79,1.79,0,0,1-.94,1.78q-5.69,3.33-11.37,6.69v.9l6.57-3.71,5.23-2.95a2.06,2.06,0,0,1,2.28.09c6.55,3.77,13.14,7.46,19.72,11.19.34.18.65.41,1.1.69a5.18,5.18,0,0,1-.67.57l-20.67,11.62-.36.17a1.79,1.79,0,0,1-.86,0l-.26-.11q-6-3.44-12.09-6.85v.86l12.2,7.23c.07,8.39.15,16.78.23,25.53-.38-.2-.75-.42-1.12-.63L251,262.74v.93l11.39,6.45c.17.1.31.23.69.52-.56.33-.93.55-1.3.75l-10.78,6v.89l11.65-6.85.47-.23.24-.08c0,.57.06,1,.05,1.4q-.11,9-.2,18.09h1c-.06-6.39-.12-12.8-.17-19.33v-.21c.56.29,1,.48,1.33.7,6.47,3.83,12.93,7.68,19.42,11.48a2.14,2.14,0,0,1,1.21,2.14v5.29h1c0-1.82,0-3.64.06-5.46a1.77,1.77,0,0,1,.94-1.83q10.17-5.94,20.3-12c.22-.12.45-.23.68-.33a11.81,11.81,0,0,1,0,1.33q-.11,9.13-.2,18.26h1q-.06-9.21-.15-18.41a7.61,7.61,0,0,1,.07-1.15c.52.27.88.46,1.22.66q9.76,5.79,19.53,11.55a2,2,0,0,1,1.17,1.94v5.41h1l.06-5.41a1.8,1.8,0,0,1,.94-1.78q10.17-5.94,20.31-11.95c.17-.1.37-.18.66-.31a.48.48,0,0,0,.06.29v1q-.1,9.11-.2,18.19h1c-.06-6.45-.12-12.94-.18-19.62l21.92,13,.06,6.63h1v-5.37a2,2,0,0,1,1.1-2q9.93-5.81,19.81-11.68c.27-.16.57-.29,1-.49l.1.32v1q-.11,9.11-.2,18.21h1c-.06-6.47-.12-13-.18-19.67l22,13q0,3.33.07,6.64h1v-5.47a1.76,1.76,0,0,1,1-1.76l20-11.81c.25-.15.53-.27.89-.44,0,.52.1.92.1,1.32q-.11,9.08-.2,18.16h1q-.06-8.91-.13-17.82v-1.72l.16.08,8.78,5.18h0l11.8,7a2.14,2.14,0,0,1,1.21,2.07v5.29h.81c0-1.82.05-3.64.06-5.46a1.79,1.79,0,0,1,.94-1.78q10.17-5.94,20.3-12c.21-.13.44-.21.82-.39,0,.5.1.91.1,1.32q-.11,9.14-.2,18.26h.83q-.06-9.21-.15-18.41a7.54,7.54,0,0,1,.08-1.22c.6.32,1,.51,1.36.73q9.76,5.79,19.53,11.55a2,2,0,0,1,1.17,1.94v5.41h.81l.06-5.41a1.8,1.8,0,0,1,.94-1.78q10.17-5.94,20.31-11.95c.21-.12.44-.2.85-.4,0,.6.06,1,.06,1.35q-.1,9.11-.2,18.19H538c-.06-6.48-.12-13-.18-19.71l15.14,9v-.92q-6.82-3.87-13.66-7.73c-.32-.18-.62-.42-1.11-.76l1.38-.8L553,262.21v-.95l-13.51,8-1.52.87c0-.64-.09-1.06-.09-1.48.08-7.56.2-15.12.24-22.68a2.24,2.24,0,0,1,1.26-2.19c4.55-2.64,9.09-5.32,13.62-8v-.58q-7,3.92-14,7.87a2.25,2.25,0,0,1-2.53,0c-6.61-3.79-13.25-7.52-19.88-11.26-.33-.19-.64-.42-1.19-.78,1.15-.66,2.06-1.2,3-1.72,6-3.38,12-6.73,18-10.13a2.2,2.2,0,0,1,2.53-.05l14,8v-.71c-5.67-3.25-12.84-7.52-14.76-8.88q-.11-12.56-.23-25.26c.75.15,8.74,4.7,15,8.43v-.81l-13.23-7.48c-.41-.23-.8-.49-1.36-.84.51-.34.84-.6,1.2-.8l13.4-7.57v-.79l-13.29,7.84-1.52.89a14.67,14.67,0,0,1-.1-1.47c.08-7.61.18-15.21.25-22.82a1.89,1.89,0,0,1,1-1.91c4.57-2.66,9.12-5.35,13.68-8v-.76l-14,7.87a2,2,0,0,1-2.27,0c-6.65-3.8-13.32-7.55-20-11.32-.33-.19-.64-.41-1.08-.7.43-.29.72-.53,1-.71q10.07-5.66,20.15-11.33a1.78,1.78,0,0,1,2,0q7,4,14.1,8v-.72l-13.67-8.09a1.53,1.53,0,0,1-.9-1.49c-.05-7.91-.14-15.82-.2-23.73,0-.3,0-.61.08-.91l14.77,8.7v-.9l-13.47-7.63a9.67,9.67,0,0,1-.89-.65c.48-.32.82-.57,1.19-.77L553,104.42v-.9l-9.65,5.66c-1.59.94-3.21,1.85-5.06,2.92a14.29,14.29,0,0,1,0-1.61c.08-7.51.19-15,.23-22.55a2.24,2.24,0,0,1,1.26-2.19c4.44-2.58,8.86-5.2,13.27-7.81v-.52l-14,7.86a1.54,1.54,0,0,1-1.75.08q-10.39-5.94-20.78-11.8a6.12,6.12,0,0,1-.64-.5l1.45-.83c6.5-3.66,13-7.29,19.5-11a2.32,2.32,0,0,1,2.66,0q6.75,3.87,13.53,7.69v-.73l-13.31-7.88a1.76,1.76,0,0,1-1.12-1.66c0-7.85-.12-15.71-.19-23.57a5.84,5.84,0,0,1,.05-.86,5.21,5.21,0,0,1,.94.32L553,42.63v-.9l-13-7.39c-.36-.2-.7-.46-1.22-.81l1.4-.81L553,25.49v-.76l-13.65,8c-.28.13-.56.25-.85.36,0-.59-.06-1-.06-1.35q.13-11.5.25-23A1.8,1.8,0,0,1,539.62,7Q546.33,3,553-.91v-.67L539.28,6.15a1.68,1.68,0,0,1-1.89.1c-6.51-3.71-13-7.38-19.55-11.07h-1.32c4,2,19.11,10.92,21.23,12.49q.11,12.56.23,25.26c-1.16-.29-19.8-11.18-22.12-12.9-.08-8.23-.15-16.53-.23-24.85h-.5v1c-.08,7.51-.2,15-.23,22.55A2.31,2.31,0,0,1,513.54,21c-6.5,3.78-13,7.61-19.44,11.43-.37.21-.76.38-1.3.66,0-.63-.08-1.09-.08-1.56.09-7.52.19-15,.24-22.55a2.24,2.24,0,0,1,1.23-2.21c6.5-3.78,13-7.63,19.44-11.45l.18-.11h-.66L493.69,6.17a1.9,1.9,0,0,1-2.14.08c-6.46-3.7-13-7.35-19.43-11h-1L492,7.63q.12,12.66.23,25.32c-1.15-.3-20.23-11.48-22.07-12.9-.07-8.13-.14-16.32-.22-24.8h-.53q0,.31.06.63c-.08,7.75-.18,15.51-.25,23.26a1.57,1.57,0,0,1-.79,1.57q-6.35,3.7-12.77,7.53h0L450,31.59c-.63.36-1.25.73-1.87,1.1l-.57.28-.18.07a10,10,0,0,1-.12-1.1c.08-7.7.19-15.41.25-23.11A1.79,1.79,0,0,1,448.46,7c2.46-1.43,4.91-2.88,7.37-4.32V2.64l12.61-7.43h-1l-12.36,7-7.1,4a2.93,2.93,0,0,1-.4.19l-.23.08h-.06a1.56,1.56,0,0,1-.68,0,1.74,1.74,0,0,1-.49-.2c-6.47-3.7-13-7.35-19.45-11H425.5q10,5.94,20.07,11.88a1.42,1.42,0,0,1,.85,1.37c.05,8,.13,16,.19,24a3.11,3.11,0,0,1-.09.6c-.44-.23-.81-.39-1.13-.59q-9.83-5.8-19.65-11.63a1.76,1.76,0,0,1-1.11-1.67c0-7.85-.13-15.71-.19-23.56a2.67,2.67,0,0,1,0-.4h-.69a3,3,0,0,1,.05.6c-.08,7.75-.18,15.51-.25,23.26a1.62,1.62,0,0,1-.79,1.57q-10.33,6-20.64,12.15l-.34.14-.17.07c0-.5-.07-.87-.07-1.23.09-7.65.19-15.31.26-23a1.79,1.79,0,0,1,.91-1.79q10-5.86,20-11.8h-.88L402.51,6.13a2.34,2.34,0,0,1-1.86.28,2.87,2.87,0,0,1-.4-.18c-6.45-3.68-12.92-7.32-19.39-11h-1.49C383-3,397.12,5.23,400.65,7.7q.12,12.57.23,25.14c-.68-.24-3-1.49-5.95-3.16l-13.88-8.26c-.8-.51-1.49-1-2-1.32-.08-8.22-.16-16.54-.23-24.88h-.68a5.08,5.08,0,0,1,.07.67C378.12,3.6,378,11.31,378,19a2,2,0,0,1-.43,1.4l-.09.09-.26.2-.28.19q-8.42,4.91-16.81,9.85c-1,.57-1.91,1.17-2.88,1.74-.33.19-.69.35-1.13.56H356c0-.55-.05-.93-.05-1.29q.13-11.51.25-23A1.8,1.8,0,0,1,357.12,7c6.69-3.9,13.36-7.86,20-11.79h-1.05l-19.48,11a2,2,0,0,1-.42.2h-.1l-.22,0a1.06,1.06,0,0,1-.5,0,1.69,1.69,0,0,1-.5-.2c-6.51-3.71-13-7.38-19.55-11.07h-1.46c1.65.85,5.23,2.88,9,5.08h0l6,3.56c2.54,1.52,4.68,2.83,5.73,3.53a2,2,0,0,1,.46.91q.11,12.07.22,24.29v.32c-1-.41-4.86-2.6-9.13-5.08l-3.29-1.95h0c-4.41-2.59-8.52-5.08-9.53-5.83-.08-8.23-.15-16.53-.23-24.85h-.65v1c-.08,7.51-.2,15-.22,22.55A2.33,2.33,0,0,1,330.83,21c-6.5,3.78-13,7.61-19.44,11.43-.33.19-.69.35-1.16.59,0-.59-.07-1-.07-1.49.09-7.52.19-15,.24-22.55a2.24,2.24,0,0,1,1.23-2.21c6.5-3.78,13-7.63,19.44-11.45l.18-.11h-.81Q320.71.65,311,6.13a2.56,2.56,0,0,1-1,.36,2,2,0,0,1-1-.28q-9.69-5.55-19.43-11h-1.12L309.32,7.59c.08,8.43.15,16.83.23,25.27-2-.89-20.07-11.44-21.85-12.85-.07-8.13-.14-16.32-.22-24.8h-.68a3.36,3.36,0,0,1,.06.63q-.12,11.63-.25,23.26a1.57,1.57,0,0,1-.79,1.57c-6.9,4-13.79,8.12-20.68,12.18a2.72,2.72,0,0,1-.47.19h0c0-.48-.07-.85-.07-1.2.09-7.66.19-15.32.25-23a1.9,1.9,0,0,1,1-1.88c6.68-3.9,13.34-7.84,20-11.76H284.7L265.29,6.12a2.21,2.21,0,0,1-1,.34,1.88,1.88,0,0,1-.89-.26q-6.19-3.54-12.42-7Zm13.65,87.63a2.52,2.52,0,0,1,.09-.67,1.68,1.68,0,0,1,.78-.94q10.37-6.08,20.73-12.2a1.4,1.4,0,0,1,.35-.1c0,.42.06.74.06,1q-.14,11.64-.25,23.26a1.69,1.69,0,0,1-.92,1.65l-20.3,12c-.18.1-.39.2-.67.33a6.61,6.61,0,0,1-.12-1.08C264.48,103.14,264.58,95.42,264.65,87.63Zm87.11-3c1.44.89,2.55,1.61,3.11,2,.08,8.33.15,16.72.23,25.45l-21.91-13q-.12-12.6-.23-25.24c1,.37,5.31,2.81,9.91,5.48h0ZM514.46,205c.08,8.5.16,16.89.23,25.22l-.21.12a.33.33,0,0,1-.14,0c-.26-.13-.53-.24-.78-.39l-20.93-12.34c-.08-8.47-.15-16.88-.23-25.64Zm-22-15.56c.08-7.51.19-15,.24-22.53a2.2,2.2,0,0,1,1.25-2.19c6.49-3.78,12.95-7.62,19.42-11.43l1.4-.82c0,.64.1,1.06.09,1.48-.08,7.6-.18,15.21-.24,22.82a1.89,1.89,0,0,1-1,1.89c-6.66,3.89-13.28,7.82-19.92,11.74-.32.19-.67.33-1.17.59a12.18,12.18,0,0,1-.11-1.5Zm21.65,14.25c-6.82-3.9-13.66-7.74-20.49-11.61-.21-.12-.39-.27-.71-.5a9.2,9.2,0,0,1,.95-.69L514,179.55a1.82,1.82,0,0,1,2-.1c6.82,3.9,13.66,7.75,20.5,11.61.2.12.38.28.82.59l-1.32.77q-10,5.58-19.91,11.17a1.78,1.78,0,0,1-2,.16Zm0-79.13q-10-5.7-20-11.33c-.33-.19-.63-.42-1.21-.8l1.48-.85c6.51-3.66,13-7.29,19.53-11a2.23,2.23,0,0,1,2.54,0c6.55,3.83,13.11,7.49,19.69,11.21.37.21.73.46,1.23.78-.41.29-.68.54-1,.72-6.67,3.76-13.36,7.5-20,11.29a2,2,0,0,1-2.31,0Zm.72-26.65a1.81,1.81,0,0,1-.94,1.79c-6.74,3.93-13.45,7.92-20.17,11.88-.25.15-.52.26-.94.47,0-.51-.11-.92-.11-1.33.09-7.66.19-15.31.26-23a1.76,1.76,0,0,1,.92-1.79c6.79-4,13.55-8,20.31-11.94.21-.12.44-.21.86-.41,0,.58.07,1,.06,1.34-.08,7.73-.23,15.39-.3,23Zm-22.19,15.2c.46.22.81.36,1.13.55l19.91,11.79a1.74,1.74,0,0,1,1,1.72c0,7.76.13,15.53.2,23.29a6.13,6.13,0,0,1-.08,1.13c-.42-.2-.72-.32-1-.48l-20-11.86a1.76,1.76,0,0,1-1-1.73c0-7.76-.13-15.52-.2-23.28A5.65,5.65,0,0,1,492.64,113.12Zm.6,26.88c6.78,3.88,13.59,7.71,20.38,11.55.25.14.48.32.84.57a10.13,10.13,0,0,1-1,.72c-6.67,3.76-13.37,7.49-20,11.29a2.12,2.12,0,0,1-2.41,0c-6.61-3.77-13.25-7.5-19.87-11.25-.33-.19-.64-.42-1.23-.79.65-.38,1.06-.62,1.48-.85l19.66-11.06a1.91,1.91,0,0,1,2.15-.18Zm-45.18,78.28a1.81,1.81,0,0,1-1.05-1.71c0-7.75-.12-15.51-.18-23.27a10.9,10.9,0,0,1,.07-1.14c.47.24.79.4,1.09.57l7.67,4.55v-.05q6,3.54,11.93,7a2.23,2.23,0,0,1,1.29,2.17c0,7.51.1,15,.17,22.54a15.67,15.67,0,0,1-.06,1.59c-.48-.23-.83-.36-1.14-.55l-12-7.13h0q-3.92-2.28-7.79-4.57Zm-1.17-28.51q.12-11.49.25-23a1.79,1.79,0,0,1,.91-1.8l7.76-4.55h0l12.2-7.2c.29-.17.59-.31,1-.52a6.74,6.74,0,0,1,.17,1c-.08,7.81-.19,15.61-.24,23.42a1.92,1.92,0,0,1-1.17,1.81q-8.92,5.2-17.82,10.45l-2.8,1.61-.18.09c0-.52-.09-.92-.08-1.31Zm21.5,13.92-12.58-7.12v0l-7.62-4.31a11.3,11.3,0,0,1-1-.68h0l1.37-.79,7.28-4.09v-.07l12.45-7a1.86,1.86,0,0,1,2.14,0c6.74,3.84,13.5,7.64,20.25,11.46.24.14.47.31.85.56a9.17,9.17,0,0,1-.94.7l-20.28,11.41a1.7,1.7,0,0,1-1.92,0Zm1.38,2.6a1.9,1.9,0,0,1,1.06-1.86q10.05-5.87,20.06-11.8c.25-.14.51-.26.89-.44a6.72,6.72,0,0,1,.16,1c-.08,7.8-.18,15.6-.26,23.41a1.58,1.58,0,0,1-.8,1.56c-6.91,4-13.79,8.11-20.69,12.17-.12.07-.27.1-.59.23,0-.54-.08-.92-.07-1.3.08-7.65.18-15.31.24-23Zm20.79-15.87c-6.55-3.87-13.1-7.77-19.66-11.64a1.75,1.75,0,0,1-1-1.7c0-7.77-.12-15.53-.19-23.29V153l.17-.11H470c.27.12.54.24.79.38l20.93,12.41c.08,8.46.16,16.85.23,25.53C491.31,190.77,490.92,190.6,490.56,190.42Zm-20.88-40.37c.08-7.52.19-15,.24-22.55a2.22,2.22,0,0,1,1.23-2.21c6.5-3.79,13-7.63,19.43-11.46L492,113c0,.73.08,1.19.08,1.66-.09,7.52-.19,15-.24,22.55a2.24,2.24,0,0,1-1.23,2.22c-6.54,3.8-13.05,7.66-19.57,11.5-.37.21-.75.38-1.3.66,0-.67-.08-1.14-.07-1.6Zm22.42-38a3.45,3.45,0,0,1-.83-.25l-20.4-12.08a1.43,1.43,0,0,1-.85-1.38c0-8-.13-16-.19-24a5,5,0,0,1,.1-.66c.53.27.91.44,1.28.66,6.55,3.87,13.09,7.77,19.65,11.63a1.86,1.86,0,0,1,1.1,1.82c0,7.71.12,15.42.19,23.13,0,.28,0,.61,0,1.07ZM470.84,100.7l19.73,11.19c.36.2.7.46,1.24.82l-1.39.8c-6.59,3.7-13.2,7.38-19.77,11.12a2,2,0,0,1-2.27,0q-6.27-3.59-12.57-7.13h0l-7.52-4.25c-.24-.13-.46-.31-.92-.63l.08-.06,1.27-.72,7.09-4v-.07q6.26-3.51,12.5-7.06A2.25,2.25,0,0,1,470.84,100.7ZM469.1,98a1.69,1.69,0,0,1-.92,1.65q-6.27,3.67-12.52,7.37h0l-7.19,4.25-.67.39-.7.35c0-.6-.07-1-.06-1.39.08-7.61.18-15.22.24-22.83a1.9,1.9,0,0,1,1-1.87l7.5-4.41v-.12l13-7.64a2.75,2.75,0,0,1,.49-.14c0,.44.07.77.07,1.09C469.26,82.53,469.16,90.28,469.1,98ZM455,117.78l14,8.28q.12,12.63.23,25.3c-.66-.13-7.47-4-13.4-7.51v-.12l-7.68-4.55-.88-.59q-.13-12.57-.27-25.17C447.84,113.74,451.16,115.57,455,117.78Zm-7.78,22.06.18.08,8.26,4.67h0l11.9,6.73c.38.21.73.46,1.23.77a10.13,10.13,0,0,1-1,.72l-12.13,6.83h0l-7.84,4.42a2.54,2.54,0,0,1-1.19.39,2.42,2.42,0,0,1-1.19-.38q-9.85-5.62-19.75-11.18c-.37-.21-.72-.46-1.21-.78a12.2,12.2,0,0,1,1-.73q10.08-5.67,20.17-11.33l.43-.21A2,2,0,0,1,447.22,139.84Zm-44.85,53,20.73,12.28c.07,8.39.15,16.73.22,25.41-.33-.14-.6-.24-.83-.35l-20.71-12.27a1.25,1.25,0,0,1-.37-.56c-.08-8.32-.15-16.59-.23-25.18Zm-1.17-3.24c.08-7.56.18-15.12.24-22.69a2,2,0,0,1,1.07-2c6.62-3.86,13.21-7.78,19.81-11.67.29-.17.61-.32,1-.52a8.8,8.8,0,0,1,.13,1.15c-.08,7.71-.18,15.42-.25,23.13a2.83,2.83,0,0,1-.16,1l-.12.2a.38.38,0,0,1-.09.13,2,2,0,0,1-.19.22,3.27,3.27,0,0,1-.37.28c-6.74,3.93-13.46,7.91-20.19,11.87l-.51.26-.32.14V191c0-.63-.06-1-.05-1.42Zm21.27,14c-6.52-3.74-13.07-7.42-19.61-11.12-.38-.21-.74-.45-1.24-.76a6.48,6.48,0,0,1,.81-.66l20.42-11.49.3-.14a2.13,2.13,0,0,1,1.32.06l20.88,11.84a3.24,3.24,0,0,1,.46.37l-.53.44-.38.24c-6.3,3.55-12.61,7.07-18.89,10.65l-1,.58a3.69,3.69,0,0,1-.64.29h-.09a2.05,2.05,0,0,1-1.81-.35Zm1.72,2.55a1.59,1.59,0,0,1,.82-1.55q10.35-6.07,20.68-12.18a4.13,4.13,0,0,1,.45-.17c0,.52.06.89.06,1.26-.09,7.65-.19,15.31-.25,23a1.79,1.79,0,0,1-.95,1.78c-6.74,3.94-13.45,7.92-20.17,11.88-.22.13-.46.24-.75.38a7.52,7.52,0,0,1-.15-1c.07-7.89.19-15.7.26-23.5Zm22-15-21.86-13c-.08-8.42-.16-16.85-.24-25.43a5.08,5.08,0,0,1,.85.31l20.29,12a1.44,1.44,0,0,1,.86,1.37c0,8,.12,16,.19,24a6,6,0,0,1-.11.72Zm-22-40.73c.08-7.7.18-15.4.24-23.11a1.8,1.8,0,0,1,1-1.77q10.11-5.91,20.18-11.87c.22-.13.46-.23.83-.4v1.61c-.08,7.46-.19,14.92-.23,22.38a2.23,2.23,0,0,1-1.24,2.2q-6.89,4-13.73,8.08l-6,3.53-.43.25-.54.25a7.35,7.35,0,0,1-.12-1.15Zm22.27-38.36c-.53-.26-.9-.42-1.22-.61L425.57,99.81a1.75,1.75,0,0,1-1-1.7c0-7.76-.13-15.52-.19-23.28a5.85,5.85,0,0,1,.09-1.14l21.18,12.55a2,2,0,0,1,.64,1.05c.07,8.16.15,16.27.22,24.59Zm-22.11-11.75a2.28,2.28,0,0,1,.45.2c6.74,3.84,13.5,7.64,20.25,11.46.26.15.52.34.95.63-.41.29-.72.52-1.05.72l-.36.2c-6.59,3.68-13.11,7.34-19.59,11a2.48,2.48,0,0,1-1.06.36,2.22,2.22,0,0,1-1.07-.31c-6.64-3.81-13.32-7.55-20-11.32-.32-.19-.63-.41-1.08-.7.32-.25.66-.49,1-.71l20.15-11.33a2.72,2.72,0,0,1,.73-.29A2.21,2.21,0,0,1,424.35,100.31Zm-.93-2.48a2.14,2.14,0,0,1-.77,1.84l-.27.19-.11.08c-6.67,3.87-13.3,7.82-19.95,11.73l-.39.2-.38.17a5.62,5.62,0,0,1-.15-1c.08-7.81.18-15.61.25-23.42a1.69,1.69,0,0,1,.91-1.65l20.32-12c.18-.1.38-.19.73-.35,0,.61.06,1,.06,1.43C423.58,82.7,423.48,90.26,423.42,97.83Zm-22,15.31c.56.31,1,.53,1.34.76,6.42,3.8,12.83,7.63,19.28,11.39a2.2,2.2,0,0,1,1.3,2.13c0,7.51.11,15,.18,22.54v1.53c-.4-.18-.72-.31-1-.47l-19.9-11.78a1.78,1.78,0,0,1-1-1.71c0-7.76-.12-15.52-.19-23.28a2.88,2.88,0,0,1,0-1.11Zm.22,26.78.22.1q10.23,5.82,20.49,11.6c.19.11.37.26.75.53-.32.23-.55.42-.79.57l-.37.21-20,11.23a2.34,2.34,0,0,1-.93.32,1.88,1.88,0,0,1-1-.29c-6.69-3.83-13.41-7.6-20.11-11.39-.29-.17-.56-.36-1-.63a7.14,7.14,0,0,1,.82-.63L400.13,140a1.46,1.46,0,0,1,.36-.16,2.08,2.08,0,0,1,1.16,0Zm-38.29,56.72L374,202.93c1.42.88,2.57,1.61,3.23,2.07a1,1,0,0,1,.23.43c.08,8.21.16,16.49.23,24.79v.13c-.8-.32-3.71-1.93-7.18-3.91l-12.32-7.31c-1.09-.68-1.95-1.23-2.45-1.58-.07-8.35-.15-16.77-.23-25.21.81.32,4.07,2.08,7.85,4.3Zm-7.79-6.93c.08-7.61.18-15.21.25-22.82a1.89,1.89,0,0,1,1-1.91c6.75-3.93,13.46-7.9,20.19-11.86a6,6,0,0,1,.81-.39v1.48c-.08,7.5-.19,15-.23,22.52a2.23,2.23,0,0,1-1.25,2.2c-6.45,3.76-12.87,7.57-19.29,11.36l-.67.39-.73.36c0-.55-.08-.94-.07-1.33Zm21.27,13.8c-6.53-3.73-13.08-7.41-19.62-11.11-.41-.23-.8-.49-1.36-.84.51-.34.84-.6,1.2-.8q10-5.59,19.92-11.2a2.66,2.66,0,0,1,.81-.31,2.06,2.06,0,0,1,.7,0,2.33,2.33,0,0,1,.49.21c6.74,3.85,13.5,7.65,20.25,11.47a10,10,0,0,1,.91.65c-.29.23-.59.44-.9.64l-.23.2c-6.59,3.71-13.2,7.4-19.78,11.15a3.42,3.42,0,0,1-.62.27h-.13a2.38,2.38,0,0,1-.37.06,2.56,2.56,0,0,1-1.26-.39Zm1.71,2.78a1.92,1.92,0,0,1,1-1.88q10-5.83,19.94-11.74l.91-.46a10.37,10.37,0,0,1,.13,1.12c-.08,7.71-.18,15.42-.25,23.13a2,2,0,0,1-.51,1.48h0a2.19,2.19,0,0,1-.39.29l-.13.09q-10,5.87-20,11.8c-.18.1-.39.19-.67.32l-.17.07c0-.54-.07-.91-.06-1.28.05-7.62.15-15.28.21-22.94Zm17.26-18-16.2-9.6c-.41-.26-.72-.47-.94-.63q-.11-12.59-.23-25.17c.82.32,4.08,2.12,7.86,4.29l10.88,6.45c1.47.91,2.61,1.64,3.18,2.05.07,8.22.15,16.52.22,25.15a52.64,52.64,0,0,1-4.76-2.53Zm-17.36-38c.09-7.7.19-15.4.25-23.11a1.69,1.69,0,0,1,.92-1.65l20.43-12c.14-.08.31-.15.54-.26a9.47,9.47,0,0,1,.13,1.07q-.13,11.63-.26,23.26a1.57,1.57,0,0,1-.79,1.57c-6.9,4-13.78,8.12-20.67,12.18h0l-.44.17a11.71,11.71,0,0,1-.1-1.27Zm22.32-38.35c-.9-.38-4.45-2.37-8.45-4.69q-4.28-2.55-8.57-5.06c-2-1.22-3.66-2.24-4.52-2.81a1.89,1.89,0,0,1-.41-.73c-.08-8.18-.16-16.43-.23-25l.49.25L400,86.23a1.91,1.91,0,0,1,.57,1c.08,8.16.15,16.27.23,24.41a1.86,1.86,0,0,0,0,.26Zm-21.68-11.4q10.25,5.83,20.51,11.61c.21.13.4.27.75.51a9,9,0,0,1-.92.71q-10.08,5.68-20.16,11.35l-.33.16a1.84,1.84,0,0,1-1.18.09,2.39,2.39,0,0,1-.37-.15c-6.78-3.87-13.59-7.7-20.38-11.55a9.67,9.67,0,0,1-.89-.65c.48-.32.82-.57,1.19-.77q10-5.61,19.91-11.2a2.5,2.5,0,0,1,1-.36,1.69,1.69,0,0,1,.88.21Zm-1.35-2.33a2,2,0,0,1-.05.34,2.07,2.07,0,0,1-.84,1.17l-.25.16-15.92,9.34c-1.54.91-3.11,1.8-4.89,2.82v-.13c0-.55,0-1,0-1.38.09-7.51.2-15,.24-22.55a2.24,2.24,0,0,1,1.26-2.19c6.5-3.79,13-7.63,19.44-11.46l1.06-.61h.08a4.9,4.9,0,0,1,.19,1c-.1,7.7-.21,15.59-.26,23.45Zm-22,15c.36.19.71.4,1.06.6l20.77,12.31c.08,8.44.16,16.8.23,25.37l-.22-.07a5.3,5.3,0,0,1-.77-.34l-20-11.86a1.53,1.53,0,0,1-.9-1.49c0-7.91-.14-15.82-.2-23.73a5.69,5.69,0,0,1,.08-.83Zm.45,26.83c6.74,3.84,13.5,7.64,20.24,11.46.27.15.53.34.95.63-.39.27-.69.5-1,.69l-.4.23-18.48,10.39-1.19.67a2.78,2.78,0,0,1-1,.35,2.09,2.09,0,0,1-1.06-.32c-6.65-3.8-13.32-7.55-20-11.32-.32-.19-.63-.41-1.07-.7.43-.29.72-.53,1-.71l20.15-11.33a2.07,2.07,0,0,1,1-.32,1.82,1.82,0,0,1,.91.24ZM331.73,205.1c.07,8.5.15,16.89.23,25.22l-.22.12h0c-.26-.12-.51-.23-.75-.37l-20.9-12.45c-.08-8.44-.15-16.83-.23-25.55Zm-21.9-15.56c.08-7.51.19-15,.24-22.53a2.2,2.2,0,0,1,1.25-2.19c6.49-3.78,12.95-7.62,19.42-11.43l1.26-.73c0,.58.09,1,.08,1.39-.08,7.6-.18,15.21-.24,22.82a1.89,1.89,0,0,1-1,1.89q-10,5.84-19.92,11.74c-.29.17-.61.31-1,.52,0-.6,0-1.07,0-1.52Zm21.65,14.25c-6.82-3.9-13.66-7.74-20.49-11.61-.21-.12-.39-.27-.71-.5a9.2,9.2,0,0,1,1-.69l20.14-11.35a2.48,2.48,0,0,1,.95-.35,1.78,1.78,0,0,1,.93.25c6.81,3.9,13.66,7.75,20.49,11.61.19.11.37.26.74.53-.32.23-.55.42-.8.57l-.23.13-3.5,2-16.6,9.32a2.67,2.67,0,0,1-1,.36,1.73,1.73,0,0,1-.87-.31Zm1.34,2.5a1.89,1.89,0,0,1,1-1.89c6.66-3.89,13.29-7.83,19.93-11.75.26-.15.54-.28.88-.44a2.61,2.61,0,0,1,.18.78c-.07,7.91-.18,15.81-.24,23.72a2,2,0,0,1-.09.59h0a2.09,2.09,0,0,1-1.06,1.07l-15.92,9.34c-1.55.91-3.12,1.8-4.88,2.81,0-.52-.08-.89-.07-1.24q.22-11.55.32-23Zm21.23-15.59-20.28-12a1.44,1.44,0,0,1-.86-1.37c0-8-.13-16-.19-24a3.11,3.11,0,0,1,.09-.6c.44.23.8.39,1.13.58,6.55,3.88,13.09,7.78,19.65,11.63a1.85,1.85,0,0,1,1.11,1.82c0,7.71.12,15.42.19,23.12V191a3.25,3.25,0,0,1-.79-.34Zm-21.23-40.28c.09-7.71.19-15.42.25-23.13a1.79,1.79,0,0,1,.95-1.78c6.71-3.91,13.38-7.87,20.07-11.81a9.76,9.76,0,0,1,1-.48v1.49c-.09,7.51-.2,15-.23,22.55a2.35,2.35,0,0,1-1.32,2.29l-1.76,1c-6,3.5-12,7-18,10.57a7.36,7.36,0,0,1-.9.42C332.88,151.08,332.82,150.73,332.82,150.42Zm.89-49.77c6.56,3.77,13.16,7.47,19.74,11.19.38.21.73.46,1.23.78a11.84,11.84,0,0,1-1,.72c-6.68,3.76-13.37,7.5-20,11.29a2.48,2.48,0,0,1-1.06.36,2.13,2.13,0,0,1-1.07-.33q-10-5.7-20-11.33c-.33-.19-.63-.42-1.21-.8l1.48-.85c6.51-3.66,13-7.29,19.53-11a2.69,2.69,0,0,1,1.2-.41,2.48,2.48,0,0,1,1.16.34ZM332.1,98a1.81,1.81,0,0,1-.94,1.79c-6.74,3.93-13.46,7.92-20.18,11.88-.21.13-.47.24-.8.4,0-.47-.1-.87-.1-1.26.09-7.66.19-15.31.26-23a1.76,1.76,0,0,1,.92-1.79c6.79-4,13.55-8,20.31-11.94.18-.11.39-.19.72-.35a9,9,0,0,1,0,1.28c0,7.64-.13,15.3-.19,23Zm-22,15.21c.39.19.71.32,1,.49q9.9,5.87,19.9,11.71a1.78,1.78,0,0,1,1,1.72c0,7.76.12,15.53.19,23.29a6,6,0,0,1-.07,1.06c-.29-.12-.58-.26-.86-.41l-20-11.86a1.76,1.76,0,0,1-1-1.73c0-7.76-.13-15.52-.2-23.28a4.11,4.11,0,0,1,0-1Zm.47,26.82c6.77,3.88,13.58,7.71,20.37,11.55.25.14.48.32.84.57a10.13,10.13,0,0,1-1,.72c-6.67,3.76-13.37,7.49-20,11.29a2.37,2.37,0,0,1-1.13.34,2.42,2.42,0,0,1-1.13-.38c-6.61-3.77-13.25-7.5-19.87-11.25-.34-.19-.64-.42-1.23-.79.65-.38,1.06-.62,1.48-.85l19.66-11.06a2.48,2.48,0,0,1,1.18-.4,1.79,1.79,0,0,1,.82.22Zm-23.33,66.29a1.9,1.9,0,0,1,1.06-1.86q10.05-5.86,20.06-11.8c.21-.12.45-.23.75-.38a5,5,0,0,1,.15.94c-.08,7.8-.18,15.6-.25,23.41a1.61,1.61,0,0,1-.81,1.56c-6.91,4-13.79,8.11-20.69,12.17a2.45,2.45,0,0,1-.45.17c0-.51-.07-.88-.06-1.24.07-7.69.17-15.35.23-23Zm-.52-2.34a1.76,1.76,0,0,1-.86-.26q-10.23-5.82-20.49-11.6c-.21-.12-.39-.27-.78-.54.48-.31.79-.54,1.12-.73l20-11.26a2.38,2.38,0,0,1,1-.34,2,2,0,0,1,1,.3C294.44,183.4,301.2,187.2,308,191c.25.14.48.31.85.56a9.17,9.17,0,0,1-.94.7l-20.28,11.41a2.43,2.43,0,0,1-.87.26ZM308,190.42c-6.55-3.87-13.1-7.77-19.66-11.64a1.75,1.75,0,0,1-1-1.7c0-7.77-.12-15.53-.19-23.29V153l.17-.11h0c.26.12.51.22.75.36L309,165.56c.08,8.43.16,16.8.24,25.46C308.72,190.75,308.35,190.58,308,190.42Zm-20.88-40.37c.08-7.52.19-15,.23-22.55a2.25,2.25,0,0,1,1.24-2.21c6.5-3.79,13-7.63,19.43-11.46l1.29-.73c0,.68.07,1.13.07,1.58-.08,7.52-.19,15-.24,22.55a2.22,2.22,0,0,1-1.23,2.22c-6.54,3.8-13.05,7.66-19.57,11.5-.33.19-.69.35-1.16.59,0-.64-.05-1.12,0-1.53Zm22.27-38a2.7,2.7,0,0,1-.68-.22q-10.2-6-20.41-12.08a1.45,1.45,0,0,1-.84-1.38c0-8-.13-16-.19-24a5.58,5.58,0,0,1,.09-.59c.45.22.81.39,1.14.59,6.55,3.87,13.09,7.77,19.65,11.63a1.85,1.85,0,0,1,1.1,1.82c0,7.71.12,15.42.19,23.13a9.78,9.78,0,0,1,0,1ZM288.15,100.7c6.56,3.76,13.15,7.46,19.73,11.19.37.2.71.46,1.24.82l-1.39.8c-6.59,3.7-13.19,7.38-19.77,11.12a1.82,1.82,0,0,1-2.12,0Q275.93,119,266,113.42c-.37-.21-.7-.46-1.17-.78.49-.31.83-.56,1.2-.77,6.57-3.75,13.17-7.45,19.74-11.18a2.56,2.56,0,0,1,1.23-.37A2.49,2.49,0,0,1,288.15,100.7Zm-15,43.07h0l-5-3c-1.67-1-2.95-1.84-3.5-2.25-.08-8.22-.15-16.51-.23-25.11a46.69,46.69,0,0,1,4.6,2.4l17.31,10.26q.12,12.62.23,25.25c-1.24-.48-7.77-4.2-13.44-7.55Zm-8.63,23a1.9,1.9,0,0,1,1-1.87q10-5.84,19.94-11.74c.25-.15.53-.28.88-.45a4.85,4.85,0,0,1,.16,1c-.08,7.81-.18,15.61-.24,23.42a1.92,1.92,0,0,1-1.17,1.81q-8.91,5.2-17.81,10.45l-3,1.72a.81.81,0,0,0,0-.22v-1.37c.05-7.61.16-15.17.21-22.74ZM285.34,230q-10-5.88-19.9-11.78a1.66,1.66,0,0,1-1-1.57c0-7.85-.12-15.7-.19-23.56a4.63,4.63,0,0,1,.09-1c.57.31,1,.53,1.35.76,6.43,3.8,12.84,7.62,19.28,11.39a2.21,2.21,0,0,1,1.29,2.17c0,7.51.11,15,.17,22.54,0,.46,0,.92-.05,1.52a8.41,8.41,0,0,1-1.07-.46ZM264,268.81c.08-7.71.18-15.42.25-23.14a2.45,2.45,0,0,1,.13-.81A2.06,2.06,0,0,1,265,244l.12-.1a.41.41,0,0,0,.11-.07c6.69-3.9,13.34-7.85,20-11.78.25-.15.53-.27.94-.46,0,.53.07.86.07,1.19-.09,7.71-.2,15.42-.25,23.13a1.92,1.92,0,0,1-1.08,1.86c-6.66,3.89-13.3,7.82-19.94,11.73-.25.15-.53.27-.89.44A8.78,8.78,0,0,1,264,268.81Zm43.79,2.45c-6.72,3.78-13.45,7.54-20.17,11.35a2.35,2.35,0,0,1-1.06.36,2.24,2.24,0,0,1-1.07-.33c-6.65-3.81-13.33-7.56-20-11.33a11.74,11.74,0,0,1-1-.69,4.6,4.6,0,0,1,.52-.47l1.33-.77,5.74-3.24q6.59-3.67,13.13-7.4a3.05,3.05,0,0,1,1.34-.45,2.63,2.63,0,0,1,1.31.41c6.43,3.71,12.9,7.33,19.35,11l1.5.88a9.8,9.8,0,0,1-.88.68ZM309,270c-.5-.25-.89-.44-1.26-.66-6.47-3.83-12.92-7.68-19.42-11.48a2.21,2.21,0,0,1-1.27-2.18c0-7.51-.11-15-.17-22.55,0-.45,0-.91.05-1.52.5.25.9.44,1.26.66,6.47,3.83,12.93,7.68,19.42,11.48a2.19,2.19,0,0,1,1.26,2.18c0,7.51.12,15,.18,22.56a11,11,0,0,1,0,1.51Zm.43-26.64a2.71,2.71,0,0,1-1.27-.4c-6.51-3.75-13.07-7.42-19.61-11.12-.38-.22-.74-.46-1.22-.75a4,4,0,0,1,.63-.61q10.33-5.82,20.68-11.63a2,2,0,0,1,.75-.24,1.6,1.6,0,0,1,.74.22Q320.58,224.8,331,230.7a5.17,5.17,0,0,1,.51.42c-.48.32-.83.57-1.2.77-6.55,3.69-13.11,7.36-19.64,11.08a2.82,2.82,0,0,1-1.22.45Zm.25,25.35c.08-7.66.18-15.32.25-23a1.76,1.76,0,0,1,.92-1.79c6.75-3.94,13.47-7.93,20.19-11.89.22-.13.47-.24.86-.43v1.61c-.09,7.47-.19,14.94-.23,22.41a2.33,2.33,0,0,1-1.31,2.32c-6.59,3.82-13.13,7.71-19.7,11.58-.25.15-.54.27-.92.45,0-.47,0-.87,0-1.26Zm43.9,2.34-.44.25L350.24,273l-7.41,4.16h0c-3.24,1.82-6.48,3.63-9.71,5.46a2.32,2.32,0,0,1-.94.34,1.79,1.79,0,0,1-.93-.26c-6.77-3.87-13.58-7.7-20.37-11.54-.24-.14-.46-.32-.83-.57a9.86,9.86,0,0,1,1-.69l20.15-11.34a2.48,2.48,0,0,1,.94-.34,1.8,1.8,0,0,1,.93.27c6.77,3.87,13.57,7.69,20.36,11.53.23.13.45.3.85.58a8.11,8.11,0,0,1-.65.51Zm1.05-1.31a39.43,39.43,0,0,1-3.72-1.9l-18.09-10.75c-.07-8.43-.15-16.83-.23-25.56l5.1,3c5.21,3.09,10.41,6.19,15.64,9.24a2.1,2.1,0,0,1,1.22,2.06c0,7.52.11,15,.18,22.55,0,.42,0,.81-.06,1.36Zm-.19-26.47a3,3,0,0,1-.49-.21c-6.61-3.79-13.25-7.52-19.88-11.26-.33-.19-.64-.42-1.19-.78,1.15-.66,2.06-1.2,3-1.72,6-3.38,12-6.73,18-10.13a2,2,0,0,1,2.38,0c6.56,3.76,13.17,7.46,19.75,11.18.37.21.73.46,1.23.77a8.81,8.81,0,0,1-1,.73c-6.62,3.73-13.26,7.44-19.87,11.2h-.11l-.24.11a2.27,2.27,0,0,1-1.54.16Zm.95,26.63c0-.54-.08-.93-.08-1.3.08-7.56.2-15.12.24-22.68a2.24,2.24,0,0,1,1.26-2.19c6.45-3.75,12.87-7.56,19.3-11.35.36-.22.74-.43,1.21-.7l.19-.06c0,.63.06,1.07.06,1.51-.09,7.51-.2,15-.24,22.53a2.21,2.21,0,0,1-1.27,2.18c-6.45,3.76-12.86,7.57-19.29,11.37l-.75.44-.62.29,0,0Zm43.6,1.41c-2.68,1.51-5.36,3-8.05,4.53L387,278.06l-8.22,4.62-.31.14a1.77,1.77,0,0,1-1.16,0l-.39-.18q-10.05-5.73-20.12-11.39c-.32-.18-.62-.42-1.11-.76l1.38-.8c6.55-3.68,13.11-7.34,19.63-11.06a2.46,2.46,0,0,1,1.24-.37,2.6,2.6,0,0,1,1.15.37c6.56,3.76,13.15,7.46,19.73,11.19.36.2.7.46,1.17.77A9.93,9.93,0,0,1,399,271.34Zm1.39-1.41-.33-.08a6,6,0,0,1-.67-.34l-19.9-11.77a1.75,1.75,0,0,1-1-1.73c0-7.71-.13-15.42-.19-23.13a11.69,11.69,0,0,1,.08-1.19c.4.18.72.32,1,.48q9.94,5.9,19.9,11.78a1.75,1.75,0,0,1,1,1.73c0,7.71.12,15.42.19,23.13-.05.33-.09.68-.13,1.12Zm.44-26.51a2,2,0,0,1-1-.3c-6.69-3.82-13.41-7.59-20.11-11.39-.29-.16-.56-.36-1-.63.26-.22.54-.43.82-.63L400,219a2,2,0,0,1,.87-.29,1.76,1.76,0,0,1,.87.25c6.82,3.89,13.66,7.74,20.49,11.61.21.11.39.27.84.58l-1.32.76-19.9,11.19a4,4,0,0,1-.51.24.33.33,0,0,0-.14,0,1.18,1.18,0,0,1-.37.09Zm.27,25.35c.08-7.66.19-15.31.24-23a1.93,1.93,0,0,1,1.06-1.87c6.7-3.9,13.37-7.85,20.06-11.79.21-.13.46-.24.75-.38a5,5,0,0,1,.15.94c-.08,7.8-.18,15.6-.25,23.41a1.59,1.59,0,0,1-.81,1.55q-10.35,6.06-20.68,12.18l-.46.17a4.14,4.14,0,0,1-.11-1.21Zm43.46,2.59c-6.59,3.71-13.2,7.4-19.77,11.15-.19.1-.36.17-.53.24a2,2,0,0,1-.35.1h0a2,2,0,0,1-.9-.06,3.11,3.11,0,0,1-.59-.26c-6.56-3.76-13.16-7.46-19.75-11.19-.37-.21-.72-.46-1.22-.78.41-.29.69-.55,1-.72l20.18-11.34a2,2,0,0,1,1-.31,1.94,1.94,0,0,1,.91.28q10.17,5.79,20.38,11.54c.32.2.63.42.93.65-.67.33-1,.52-1.34.7Zm-9.37-7.72c-3.66-2.15-7.3-4.32-11-6.51-.07-8.44-.15-16.83-.23-25.56l21.91,13c.08,8.39.16,16.79.24,25.49-3.87-2.11-7.4-4.32-11-6.42Zm11.36-20.16a2,2,0,0,1-1-.3q-10-5.73-20.11-11.39c-.27-.16-.54-.34-.91-.58l-.06-.06a8.39,8.39,0,0,1,.82-.62L445.69,219a2.17,2.17,0,0,1,.41-.19,2.08,2.08,0,0,1,1,0l.28.12c2.76,1.58,5.54,3.14,8.31,4.71h0c3.94,2.24,7.89,4.46,11.84,6.7.33.18.65.41,1.09.69a4.58,4.58,0,0,1-.67.57q-10.22,5.76-20.46,11.51a2.4,2.4,0,0,1-1,.33ZM446.8,270c0-.59-.08-1.05-.07-1.49.08-7.52.19-15,.24-22.55a2.22,2.22,0,0,1,1.23-2.21c2.56-1.49,5.11-3,7.66-4.5v-.08l12-7.1c.28-.17.59-.29,1.08-.52,0,.57.08.91.07,1.25-.08,7.71-.19,15.42-.24,23.13a1.92,1.92,0,0,1-1.08,1.86l-12,7h0l-7.79,4.63c-.33.18-.68.34-1.15.58Zm43.77,1.26c-6.72,3.78-13.46,7.54-20.17,11.35a2,2,0,0,1-2.28,0c-4.08-2.34-8.17-4.65-12.26-7h0l-7.52-4.19c-.37-.21-.74-.46-1.22-.75a4.7,4.7,0,0,1,.66-.6l8-4.52v-.08q6-3.35,11.94-6.74a2.47,2.47,0,0,1,2.8,0c6.42,3.71,12.89,7.33,19.35,11l1.5.88a10.61,10.61,0,0,1-.85.65Zm1.21-1.15c-.57-.3-1-.5-1.4-.74-6.47-3.83-12.92-7.68-19.42-11.48a2.21,2.21,0,0,1-1.27-2.18c0-7.51-.11-15-.17-22.55a15.46,15.46,0,0,1,.06-1.6c.57.3,1,.5,1.4.74,6.47,3.83,12.92,7.68,19.42,11.48a2.19,2.19,0,0,1,1.26,2.18c0,7.51.11,15,.18,22.56,0,.46-.08.9-.11,1.59Zm-1-27.12c-6.51-3.75-13.07-7.42-19.61-11.12-.38-.22-.74-.46-1.22-.75a4,4,0,0,1,.63-.61q10.34-5.82,20.68-11.63a1.47,1.47,0,0,1,1.63,0q10.44,5.94,20.89,11.84a5.3,5.3,0,0,1,.52.42c-.49.32-.83.57-1.2.77-6.55,3.69-13.12,7.36-19.65,11.08a2.35,2.35,0,0,1-2.7,0Zm1.52,25.75c.08-7.66.18-15.32.25-23a1.76,1.76,0,0,1,.92-1.79c6.75-3.94,13.47-7.93,20.19-11.89.25-.15.51-.25,1-.5v1.68c-.09,7.47-.2,14.94-.23,22.41a2.33,2.33,0,0,1-1.31,2.32c-6.59,3.82-13.14,7.71-19.7,11.58-.29.17-.6.29-1.06.51,0-.5-.09-.91-.09-1.32Zm43.61,2.59-20,11.26a1.8,1.8,0,0,1-2,.08c-6.77-3.87-13.58-7.7-20.37-11.54-.24-.14-.46-.32-.83-.57.41-.28.69-.52,1-.69l20.15-11.34a1.78,1.78,0,0,1,2-.07c6.78,3.87,13.58,7.69,20.37,11.53.25.14.47.32.93.64Zm-15.49-36.74c5.21,3.09,10.41,6.19,15.64,9.24a2.1,2.1,0,0,1,1.21,2.06c0,7.52.12,15,.18,22.55a16.64,16.64,0,0,1-.07,1.71l-22-13c-.07-8.46-.15-16.88-.23-25.64Zm16.94-17.92a1.77,1.77,0,0,1-1.15,1.66l-15.93,9.34c-1.59.94-3.2,1.85-5,2.89,0-.57-.09-.95-.08-1.32.08-7.66.18-15.33.25-23a1.89,1.89,0,0,1,1-1.89c6.66-3.89,13.29-7.83,19.93-11.75.29-.17.6-.3,1-.51a4.2,4.2,0,0,1,.2.85c-.09,7.92-.2,15.82-.25,23.73Zm-20.65-63.41c6.54,3.88,13.08,7.78,19.65,11.63a1.89,1.89,0,0,1,1.11,1.82c0,7.71.12,15.42.19,23.12V191a5.13,5.13,0,0,1-1-.34l-20.28-12a1.44,1.44,0,0,1-.86-1.37c0-8-.13-16-.19-24a5,5,0,0,1,.1-.66c.49.25.89.42,1.25.63Zm20.86-16a2.35,2.35,0,0,1-1.33,2.31c-6.59,3.82-13.14,7.71-19.7,11.58-.28.16-.6.28-1,.48,0-.48-.11-.85-.11-1.21.09-7.71.19-15.42.25-23.13a1.79,1.79,0,0,1,1-1.78c6.71-3.91,13.38-7.87,20.07-11.81.28-.17.59-.3,1.1-.55v1.56c-.11,7.47-.22,15-.26,22.51Zm0-50.53c.08,8.36.15,16.77.23,25.54L515.73,99.15q-.12-12.63-.23-25.28c1.09.19,19.13,10.7,22.06,12.82Zm.36-51.14c-.08,7.6-.19,15.21-.25,22.82a1.88,1.88,0,0,1-1,1.88q-10,5.84-19.92,11.74c-.32.19-.67.33-1.14.56,0-.56-.09-1-.08-1.4.08-7.56.19-15.11.23-22.67A2.21,2.21,0,0,1,517,46.29q9.68-5.64,19.29-11.36l1.52-.87c.06.65.11,1.07.11,1.49Zm-43.74-2.67c6.72-3.79,13.45-7.5,20.17-11.35a1.68,1.68,0,0,1,1.88-.09q10.31,5.86,20.64,11.69a7.4,7.4,0,0,1,.72.53l-1,.68c-6.6,3.71-13.21,7.4-19.78,11.15a2.44,2.44,0,0,1-2.8,0c-6.47-3.72-13-7.37-19.49-11-.41-.24-.8-.5-1.36-.85A7,7,0,0,1,494.19,32.92Zm20.63,14.16c.08,8.43.15,16.85.23,25.31-1.27-.31-18.41-10.3-22.06-12.82-.08-8.35-.16-16.78-.24-25.56ZM493.41,61q10.17,5.79,20.37,11.53c.25.14.47.32.84.58-.44.3-.77.55-1.13.76l-20,11.26a1.8,1.8,0,0,1-2,.08c-6.78-3.88-13.58-7.7-20.37-11.54-.24-.14-.46-.32-.93-.64l1.23-.7,20-11.26A1.78,1.78,0,0,1,493.41,61Zm-1.12-25.63c-.08,7.71-.18,15.42-.25,23.13a1.82,1.82,0,0,1-.92,1.8l-20.32,12a9.28,9.28,0,0,1-.86.37c0-.59-.06-1-.06-1.35q.14-11.51.25-23a1.8,1.8,0,0,1,.93-1.79q10.13-5.91,20.2-11.89c.24-.14.5-.25.9-.44A9.3,9.3,0,0,1,492.29,35.36ZM448.9,32.7l6.91-3.88v-.07q6.33-3.55,12.65-7.13a2.12,2.12,0,0,1,2.41,0c6.6,3.79,13.24,7.51,19.87,11.25.34.19.66.42,1.11.7a8,8,0,0,1-.78.66L470.65,45.72a1.57,1.57,0,0,1-1.76.09l-13.08-7.39h0l-7.08-4c-.36-.2-.69-.46-1.24-.83A12.53,12.53,0,0,1,448.9,32.7Zm-1.65,1.54.48.16,7.93,4.69h0q6.34,3.77,12.7,7.52a1.45,1.45,0,0,1,.85,1.37q.07,12,.19,24a3.09,3.09,0,0,1,0,.43c-.65-.09-7.51-4-13.54-7.55v-.15c-2.48-1.47-4.95-2.94-7.42-4.39a1.79,1.79,0,0,1-1-1.72c0-7.77-.13-15.53-.19-23.29A3.46,3.46,0,0,1,447.25,34.24Zm-.37,26.6h.1l.45.09a3.55,3.55,0,0,1,.69.31c2.5,1.44,5,2.87,7.54,4.29h0l11.85,6.71,1.52.88a10.53,10.53,0,0,1-1,.76l-12.35,7h0L448,85.13l-.18.09-.2.09a2,2,0,0,1-1.32.09,5,5,0,0,1-.48-.21c-6.69-3.83-13.42-7.61-20.13-11.4a9.44,9.44,0,0,1-1-.72c1.22-.7,2.22-1.29,3.24-1.86,5.87-3.3,11.76-6.58,17.61-9.91A2.9,2.9,0,0,1,446.88,60.84Zm-.32-25.72c-.08,7.86-.19,15.72-.24,23.58a.74.74,0,0,1-.05.33,2.17,2.17,0,0,1-.91,1.21l-.19.12L429.25,69.7c-1.55.91-3.12,1.8-4.87,2.81,0-.46-.09-.77-.09-1.08.08-7.76.19-15.52.25-23.28a1.78,1.78,0,0,1,1-1.74q10.06-5.88,20.07-11.83a7.85,7.85,0,0,1,.77-.38A4.83,4.83,0,0,1,446.56,35.12ZM403,33l20.15-11.34a2.21,2.21,0,0,1,1-.34,1.84,1.84,0,0,1,.88.26c6.77,3.87,13.58,7.7,20.37,11.54.24.14.46.32.93.64l-1.59.92q-9.11,5.1-18.19,10.22l-1.35.76a4,4,0,0,1-.56.25h-.06a1.59,1.59,0,0,1-.38.07,2.42,2.42,0,0,1-1.23-.34c-6.59-3.74-13.19-7.44-19.77-11.19-.37-.21-.72-.46-1.23-.78C402.38,33.42,402.66,33.15,403,33Zm-.41,1.74,19.9,11.78a1.76,1.76,0,0,1,1,1.71c0,7.71.12,15.42.19,23.12a7.24,7.24,0,0,1-.08,1.22l-.59-.29L402.31,60a2,2,0,0,1-.55-.83c-.07-8.26-.15-16.49-.23-25,.47.26.77.4,1,.55Zm-1.46,26a2.09,2.09,0,0,1,1.06.32c6.66,3.81,13.33,7.56,20,11.33.32.19.63.41,1.06.69l-.29.27a6.11,6.11,0,0,1-.67.46l-16.64,9.38L402.2,85.1a4,4,0,0,1-.47.22h-.06a3.25,3.25,0,0,1-.43.08,2.09,2.09,0,0,1-1.11-.33c-6.65-3.81-13.33-7.56-20-11.33-.32-.18-.62-.4-1.14-.75l-.06,0,1.35-.78L400.06,61a2.4,2.4,0,0,1,1-.3Zm-.18-25c-.08,7.56-.18,15.12-.25,22.68a2.31,2.31,0,0,1-.29,1.29l-.06.09a1.51,1.51,0,0,1-.21.23,2.12,2.12,0,0,1-.38.29h0c-6.7,3.91-13.37,7.87-20,11.81l-.17.08-.72.35a10.36,10.36,0,0,1-.11-1.12c.08-7.71.19-15.41.25-23.12a1.82,1.82,0,0,1,1-1.77c6.74-3.93,13.46-7.91,20.19-11.87.21-.13.46-.23.82-.4a7.32,7.32,0,0,0-.1,1.45Zm-44.49-2.29,1.15-.67c6.55-3.71,13.11-7.33,19.64-11.09a2.38,2.38,0,0,1,1.3-.35,2.79,2.79,0,0,1,1.08.38q9.84,5.6,19.73,11.17c.37.21.71.47,1.16.78-.49.32-.84.56-1.21.77l-16.53,9.3-3.38,1.9a.66.66,0,0,1-.19.09c-.11,0-.22.11-.33.15h-.49a2.36,2.36,0,0,1-1.1-.34c-6.6-3.78-13.24-7.51-19.86-11.26-.36-.2-.69-.46-1.2-.79Zm-.55.89a3.72,3.72,0,0,1,.79.28l20.28,12a1.45,1.45,0,0,1,.87,1.37c0,8,.12,16,.18,24a4.25,4.25,0,0,1-.08.61c-.45-.23-.81-.39-1.13-.58L357.17,60.33a3,3,0,0,1-.75-.57.39.39,0,0,0-.08-.1,1.55,1.55,0,0,1-.29-1c0-7.85-.13-15.71-.19-23.57a7.34,7.34,0,0,1,.05-.81Zm-.32,26.56a3.05,3.05,0,0,1,1.21.41c6.52,3.74,13.07,7.42,19.6,11.12.37.21.73.46,1.23.78-.37.26-.61.47-.88.62L356.34,85.24a2.21,2.21,0,0,1-.34.18,1.67,1.67,0,0,1-.94,0,1.83,1.83,0,0,1-.32-.14L334,73.56a6.12,6.12,0,0,1-.64-.5l1.44-.83c6.51-3.66,13-7.29,19.51-11a2.63,2.63,0,0,1,1.28-.39Zm-.44-26.67c0,.58.09,1,.08,1.38-.08,7.6-.18,15.21-.24,22.82a1.9,1.9,0,0,1-1,1.88Q344,66.12,334.07,72a9.25,9.25,0,0,1-1,.49c0-.52-.08-.92-.07-1.33.08-7.56.19-15.11.23-22.67a2.23,2.23,0,0,1,1.27-2.19q9.67-5.64,19.29-11.36l1.22-.7Zm-43.5-1.28c6.72-3.79,13.45-7.5,20.17-11.35a2.75,2.75,0,0,1,.88-.33,1.61,1.61,0,0,1,.85.24q10.31,5.86,20.64,11.69a5,5,0,0,1,.66.48,9.22,9.22,0,0,1-.78.62l-.19.11c-6.6,3.71-13.21,7.4-19.78,11.15a3.07,3.07,0,0,1-1.32.43,2.86,2.86,0,0,1-1.33-.43c-6.47-3.72-13-7.37-19.49-11-.41-.24-.8-.5-1.36-.85A6.13,6.13,0,0,1,311.65,32.92Zm20.48,14.16q.12,12.62.23,25.26C330.28,71.53,314,62,310.45,59.57c-.08-8.32-.16-16.72-.24-25.48ZM309.8,60.72a1.8,1.8,0,0,1,.93.27q10.15,5.79,20.37,11.53c.24.14.46.32.83.58-.44.3-.77.55-1.13.76l-20,11.26a2.66,2.66,0,0,1-.94.34,1.78,1.78,0,0,1-.92-.26c-6.78-3.88-13.58-7.7-20.37-11.54-.24-.14-.46-.32-.93-.64l1.22-.7,20-11.26A2.32,2.32,0,0,1,309.8,60.72Zm-.19-25.36c-.09,7.71-.19,15.42-.26,23.13a1.78,1.78,0,0,1-.92,1.8l-20.32,12a4.93,4.93,0,0,1-.71.31c0-.55-.06-.92-.06-1.29q.14-11.51.25-23a1.8,1.8,0,0,1,.93-1.79q10.13-5.91,20.2-11.89c.21-.12.45-.23.76-.37C309.54,34.62,309.58,35,309.61,35.36Zm-43.35-2.69,19.66-11a2.52,2.52,0,0,1,1.13-.37,2.27,2.27,0,0,1,1.13.35c6.6,3.79,13.25,7.51,19.87,11.25.34.19.66.42,1.11.7a6.18,6.18,0,0,1-.78.66Q298.18,40,288,45.7a2,2,0,0,1-.83.31,1.42,1.42,0,0,1-.78-.22L265.46,34a3.79,3.79,0,0,1-.58-.48Zm-1.7,1.57a4,4,0,0,1,.82.3l20.29,12a1.44,1.44,0,0,1,.85,1.37q.08,12,.2,24a2.6,2.6,0,0,1-.05.39c-1.2-.44-7.79-4.17-13.55-7.59v-.07l-5.4-3.2c-1.06-.66-2-1.23-2.6-1.67a1.43,1.43,0,0,1-.36-.66c-.08-8.16-.16-16.28-.23-24.56A2.84,2.84,0,0,0,264.56,34.24Z"/></g><ellipse class="cls-6" cx="263.1" cy="142.19" rx="249.51" ry="189.08" transform="translate(2.92 289.64) rotate(-57.93)"/></g></svg>