<svg xmlns="http://www.w3.org/2000/svg" xmlns:xlink="http://www.w3.org/1999/xlink" viewBox="0 0 287.66 206.86"><defs><style>.cls-1{fill:#efb637;}.cls-2{fill:#d19f2f;}.cls-3{fill:#f2ba49;}.cls-4{fill:#f4b94e;}.cls-5{fill:#dda637;}.cls-6{fill:#f7c359;}.cls-7{fill:#2d917e;}.cls-8{fill:#0b6856;}.cls-9{fill:#0f0f4c;}.cls-10{fill:url(#linear-gradient);}.cls-11{fill:#101026;}.cls-12{font-size:28px;fill:#fff;font-family:Roboto-Medium, Roboto;font-weight:500;letter-spacing:0.03em;}</style><linearGradient id="linear-gradient" x1="42.85" y1="173.28" x2="244.26" y2="173.28" gradientUnits="userSpaceOnUse"><stop offset="0" stop-color="#43c5ac"/><stop offset="1" stop-color="#191755"/></linearGradient></defs><g id="Objects"><rect class="cls-1" x="137.29" y="118.31" width="13.08" height="45.82"/><path class="cls-2" d="M118.21,101.49H88.13a24.94,24.94,0,1,1,0-49.88h17.93v12.9H88.13a12,12,0,1,0,0,24.08h30.08Z"/><path class="cls-2" d="M169.45,101.49h30.08a24.94,24.94,0,0,0,0-49.88H181.59v12.9h17.94a12,12,0,0,1,0,24.08H169.45Z"/><path class="cls-2" d="M131.22,100v13.61a8.92,8.92,0,0,0,8.92,8.92h7.38a8.92,8.92,0,0,0,8.92-8.92V100Z"/><path class="cls-1" d="M95.23,46.7V65.29a48.6,48.6,0,0,0,48.6,48.6h0a48.6,48.6,0,0,0,48.6-48.6V46.7Z"/><rect class="cls-2" x="87.05" y="33.88" width="113.55" height="12.81"/><path class="cls-3" d="M158.19,164.12H129.47a13.14,13.14,0,0,0-13.14,13.14h55A13.14,13.14,0,0,0,158.19,164.12Z"/><rect class="cls-1" x="106.49" y="177.26" width="74.67" height="27.54"/><rect class="cls-2" x="130.09" y="184.78" width="27.47" height="12.51"/><polygon class="cls-2" points="143.83 54.23 150.09 66.92 164.09 68.95 153.96 78.83 156.35 92.78 143.83 86.19 131.3 92.78 133.7 78.83 123.56 68.95 137.57 66.92 143.83 54.23"/><polygon class="cls-4" points="188.84 112.47 183.73 112.47 183.73 107.37 180.9 107.37 180.9 112.47 175.8 112.47 175.8 115.3 180.9 115.3 180.9 120.41 183.73 120.41 183.73 115.3 188.84 115.3 188.84 112.47"/><polygon class="cls-5" points="117.2 125.13 110.46 125.13 110.46 118.39 106.72 118.39 106.72 125.13 99.98 125.13 99.98 128.87 106.72 128.87 106.72 135.61 110.46 135.61 110.46 128.87 117.2 128.87 117.2 125.13"/><circle class="cls-6" cx="96.33" cy="139.22" r="3.6"/><circle class="cls-6" cx="72.51" cy="43.68" r="4.8"/><circle class="cls-5" cx="127.77" cy="4.21" r="4.21"/><circle class="cls-6" cx="165.54" cy="22.68" r="4.85"/><circle class="cls-5" cx="179.89" cy="18.58" r="4.1"/><polygon class="cls-7" points="0 165.25 20.94 186.19 0 207.13 0 207.6 66.66 207.6 66.66 165.25 0 165.25"/><polygon class="cls-8" points="42.85 195.63 66.66 207.6 66.66 195.63 42.85 195.63"/><polygon class="cls-9" points="287.65 164.97 266.71 185.92 287.65 206.86 287.65 207.32 220.99 207.32 220.99 164.97 287.65 164.97"/><rect class="cls-10" x="42.85" y="150.92" width="201.41" height="44.7"/><polygon class="cls-11" points="244.26 195.63 220.99 207.32 220.99 195.63 244.26 195.63"/><text class="cls-12" transform="translate(81.49 183.73)">RANKING</text></g></svg>