<svg xmlns="http://www.w3.org/2000/svg" xmlns:xlink="http://www.w3.org/1999/xlink" viewBox="0 0 504 226.92"><defs><style>.cls-1{fill:url(#radial-gradient);}.cls-2{isolation:isolate;}.cls-3{clip-path:url(#clip-path);}.cls-10,.cls-12,.cls-14,.cls-16,.cls-18,.cls-4,.cls-8{mix-blend-mode:screen;}.cls-5,.cls-6{fill-rule:evenodd;}.cls-5{fill:url(#linear-gradient);}.cls-6{fill:url(#linear-gradient-2);}.cls-7{fill:url(#radial-gradient-3);}.cls-8{fill:url(#radial-gradient-4);}.cls-11,.cls-13,.cls-15,.cls-17,.cls-19,.cls-20,.cls-9{mix-blend-mode:color-dodge;}.cls-9{fill:url(#radial-gradient-5);}.cls-10{fill:url(#radial-gradient-6);}.cls-11{fill:url(#radial-gradient-7);}.cls-12{fill:url(#radial-gradient-8);}.cls-13{fill:url(#radial-gradient-9);}.cls-14{fill:url(#radial-gradient-10);}.cls-15{fill:url(#radial-gradient-11);}.cls-16{fill:url(#radial-gradient-12);}.cls-17{fill:url(#radial-gradient-13);}.cls-18{fill:url(#radial-gradient-14);}.cls-19{fill:url(#radial-gradient-15);}.cls-21{fill:url(#radial-gradient-16);}.cls-22{fill:url(#radial-gradient-17);}</style><radialGradient id="radial-gradient" cx="252" cy="113.46" r="288.58" gradientUnits="userSpaceOnUse"><stop offset="0.08" stop-color="#00131a"/><stop offset="0.46" stop-color="#000e13"/><stop offset="1"/><stop offset="1"/></radialGradient><clipPath id="clip-path"><rect class="cls-1" y="-30.54" width="504" height="288"/></clipPath><linearGradient id="linear-gradient" x1="-82.37" y1="-26.47" x2="253.53" y2="215.89" gradientUnits="userSpaceOnUse"><stop offset="0.14" stop-color="#43c6ac"/><stop offset="0.15" stop-color="#389995"/><stop offset="0.17" stop-color="#2f7483"/><stop offset="0.18" stop-color="#2c667c"/><stop offset="0.23" stop-color="#214c5d"/><stop offset="0.29" stop-color="#173540"/><stop offset="0.35" stop-color="#0e2129"/><stop offset="0.43" stop-color="#081216"/><stop offset="0.51" stop-color="#03080a"/><stop offset="0.63" stop-color="#010202"/><stop offset="0.88"/></linearGradient><linearGradient id="linear-gradient-2" x1="-2138.59" y1="-3187.48" x2="-1802.68" y2="-2945.12" gradientTransform="translate(-1541.46 -2937.95) rotate(180)" gradientUnits="userSpaceOnUse"><stop offset="0.14" stop-color="#43c6ac"/><stop offset="0.15" stop-color="#3ba39b"/><stop offset="0.17" stop-color="#327f88"/><stop offset="0.18" stop-color="#2f7181"/><stop offset="0.18" stop-color="#2e6f7f"/><stop offset="0.24" stop-color="#22515d"/><stop offset="0.29" stop-color="#173840"/><stop offset="0.36" stop-color="#0f2429"/><stop offset="0.43" stop-color="#081416"/><stop offset="0.52" stop-color="#03080a"/><stop offset="0.63" stop-color="#010202"/><stop offset="0.88"/></linearGradient><radialGradient id="radial-gradient-3" cx="263.09" cy="110.76" r="146.02" gradientTransform="matrix(0, 1.07, -1.37, 0, 414.75, -169.86)" gradientUnits="userSpaceOnUse"><stop offset="0" stop-color="#00131a"/><stop offset="0.39" stop-color="#00131a" stop-opacity="0.85"/><stop offset="0.78" stop-color="#00131a" stop-opacity="0.38"/><stop offset="1" stop-color="#00131a" stop-opacity="0"/></radialGradient><radialGradient id="radial-gradient-4" cx="-1015.28" cy="1016.14" r="62.55" gradientTransform="matrix(0.94, -1.43, 0.71, 0.46, 489.94, -1799.82)" gradientUnits="userSpaceOnUse"><stop offset="0.12" stop-color="#fff"/><stop offset="0.13" stop-color="#f7fbfb"/><stop offset="0.14" stop-color="#e2f0f0"/><stop offset="0.17" stop-color="#bfdedd"/><stop offset="0.19" stop-color="#8ec5c3"/><stop offset="0.22" stop-color="#50a6a3"/><stop offset="0.23" stop-color="#389a96"/><stop offset="0.26" stop-color="#2e7f7c"/><stop offset="0.3" stop-color="#225d5b"/><stop offset="0.35" stop-color="#17403f"/><stop offset="0.41" stop-color="#0f2928"/><stop offset="0.48" stop-color="#081616"/><stop offset="0.55" stop-color="#030a09"/><stop offset="0.66" stop-color="#010202"/><stop offset="0.88"/></radialGradient><radialGradient id="radial-gradient-5" cx="-1026.37" cy="1015.24" r="62.55" xlink:href="#radial-gradient-4"/><radialGradient id="radial-gradient-6" cx="-1034.52" cy="998.87" r="62.55" xlink:href="#radial-gradient-4"/><radialGradient id="radial-gradient-7" cx="-1034.95" cy="997.42" r="62.55" xlink:href="#radial-gradient-4"/><radialGradient id="radial-gradient-8" cx="-1016.57" cy="996.91" r="40.87" xlink:href="#radial-gradient-4"/><radialGradient id="radial-gradient-9" cx="-1024.54" cy="995.07" r="40.87" xlink:href="#radial-gradient-4"/><radialGradient id="radial-gradient-10" cx="-209.11" cy="-3260.68" r="62.55" gradientTransform="matrix(-0.94, 1.43, -0.71, -0.46, -2252.93, -1130.53)" gradientUnits="userSpaceOnUse"><stop offset="0.12" stop-color="#fff"/><stop offset="0.13" stop-color="#f7fbfb"/><stop offset="0.14" stop-color="#e2eeef"/><stop offset="0.16" stop-color="#bfdadb"/><stop offset="0.19" stop-color="#8ebec0"/><stop offset="0.22" stop-color="#509b9e"/><stop offset="0.23" stop-color="#358c8f"/><stop offset="0.24" stop-color="#2f7d7f"/><stop offset="0.29" stop-color="#235c5d"/><stop offset="0.35" stop-color="#183f40"/><stop offset="0.4" stop-color="#0f2829"/><stop offset="0.47" stop-color="#081616"/><stop offset="0.55" stop-color="#04090a"/><stop offset="0.65" stop-color="#010202"/><stop offset="0.88"/></radialGradient><radialGradient id="radial-gradient-11" cx="-220.21" cy="-3261.58" r="62.55" xlink:href="#radial-gradient-10"/><radialGradient id="radial-gradient-12" cx="-228.35" cy="-3277.95" r="62.55" xlink:href="#radial-gradient-10"/><radialGradient id="radial-gradient-13" cx="-228.79" cy="-3279.4" r="62.55" xlink:href="#radial-gradient-10"/><radialGradient id="radial-gradient-14" cx="-210.4" cy="-3279.91" r="40.87" xlink:href="#radial-gradient-10"/><radialGradient id="radial-gradient-15" cx="-218.38" cy="-3281.75" r="40.87" xlink:href="#radial-gradient-10"/><radialGradient id="radial-gradient-16" cx="248.15" cy="111.49" r="94.87" gradientUnits="userSpaceOnUse"><stop offset="0.12" stop-color="#fff"/><stop offset="0.13" stop-color="#f7fdfc"/><stop offset="0.14" stop-color="#e2f6f2"/><stop offset="0.17" stop-color="#bfebe2"/><stop offset="0.19" stop-color="#8edccd"/><stop offset="0.22" stop-color="#50c8b1"/><stop offset="0.22" stop-color="#42c4ab"/><stop offset="0.23" stop-color="#3eb1a2"/><stop offset="0.26" stop-color="#32808a"/><stop offset="0.27" stop-color="#2c657c"/><stop offset="0.31" stop-color="#214c5d"/><stop offset="0.36" stop-color="#173440"/><stop offset="0.42" stop-color="#0e2129"/><stop offset="0.48" stop-color="#081216"/><stop offset="0.56" stop-color="#03080a"/><stop offset="0.66" stop-color="#010202"/><stop offset="0.88"/></radialGradient><radialGradient id="radial-gradient-17" cx="248.15" cy="111.49" r="94.87" xlink:href="#radial-gradient-16"/></defs><g class="cls-2"><g id="Layer_1" data-name="Layer 1"><rect class="cls-1" y="-30.54" width="504" height="288"/><g class="cls-3"><g class="cls-4"><path class="cls-5" d="M263.76,254.47l-11.83-7a1.57,1.57,0,0,1-1-1.46c0-8-.12-15.91-.19-23.86a7,7,0,0,1,.09-.74c.52.28.92.48,1.29.7l11.6,6.87V228l-11.71-6.62c-.25-.14-.47-.32-.94-.64l1.33-.78c3.78-2.11,7.55-4.24,11.32-6.36v-.79l-11.56,6.83-.52.31-.74.36,0-.12c0-.57-.07-1-.06-1.38.08-7.52.19-15,.22-22.56a2.34,2.34,0,0,1,1.36-2.29q5.69-3.3,11.33-6.64v-.82q-4.72,2.66-9.43,5.32L252,193.18a3,3,0,0,1-1.47.46,3.07,3.07,0,0,1-1.34-.46c-6.39-3.68-12.82-7.29-19.23-10.92-.46-.25-.91-.52-1.53-.88.44-.32.71-.58,1-.76q9.94-5.6,19.9-11.21a2.81,2.81,0,0,1,1.23-.4,2.54,2.54,0,0,1,1.16.36q6,3.45,12,6.84v-.87c-3.74-2.22-7.48-4.44-11.24-6.63a2.32,2.32,0,0,1-1.36-2.27c0-7.42-.1-14.84-.16-22.26,0-.5,0-1,0-1.74l.4.19c4.17,2.44,8.26,4.87,12.33,7.29V149l-11.13-6.29c-.37-.21-.72-.46-1.23-.78.45-.31.78-.56,1.13-.77l11.23-6.31v-1l-12,7a5.34,5.34,0,0,1-.74.33c0-.53-.07-.94-.06-1.34.08-7.62.18-15.22.25-22.83a1.78,1.78,0,0,1,.9-1.8q5.82-3.39,11.61-6.82v-.7l-8.91,5c-1,.55-1.93,1.09-2.9,1.63a2.73,2.73,0,0,1-1.08.37,2.35,2.35,0,0,1-1.24-.36c-6.56-3.76-13.16-7.46-19.75-11.19-.37-.21-.72-.45-1.22-.77.4-.29.68-.54,1-.72,6.69-3.76,13.37-7.5,20-11.29a2.53,2.53,0,0,1,1.05-.36,2.34,2.34,0,0,1,.52.08,3.34,3.34,0,0,1,.56.25q6,3.41,11.94,6.78v-.86l-11.57-6.86a1.43,1.43,0,0,1-.86-1.36c0-8-.12-16-.19-24a5.67,5.67,0,0,1,.09-.68l12.53,7.43v-1L252.9,63.71c-.39-.22-.78-.47-1.28-.78l-.06,0a9,9,0,0,1,.86-.67l11.34-6.38V55l-12,7.09,0,0-.42.15c0-.51-.06-.88-.06-1.24.09-7.66.19-15.31.25-23a1.79,1.79,0,0,1,.94-1.79q5.69-3.33,11.37-6.69v-.89l-6.57,3.7L252,35.37a2.73,2.73,0,0,1-1,.31,2.56,2.56,0,0,1-1.28-.4c-6.55-3.77-13.14-7.46-19.72-11.18-.34-.19-.65-.41-1.09-.7a4.28,4.28,0,0,1,.66-.56l20.67-11.62a1.47,1.47,0,0,1,.36-.17,1.67,1.67,0,0,1,.86,0c.09,0,.17.06.26.11L263.76,18v-.87L251.57,9.94c-.08-8.39-.16-16.78-.24-25.54l1.12.63,11.31,6.71v-.93l-11.39-6.46a8.51,8.51,0,0,1-.69-.52l1.3-.75L263.76-23v-.9L252.11-17l-.47.24-.24.07c0-.57-.06-1-.05-1.4q.1-9,.2-18.09h-1c.06,6.4.12,12.8.18,19.34a1.34,1.34,0,0,0,0,.2c-.56-.29-1-.48-1.33-.7C242.93-21.2,236.48-25,230-28.85a2.11,2.11,0,0,1-1.21-2.06c0-1.77,0-3.53,0-5.3h-1l-.06,5.46a1.77,1.77,0,0,1-.94,1.78q-10.17,6-20.3,12c-.18.1-.39.19-.68.32,0-.47-.09-.87-.09-1.26q.1-9.12.2-18.26h-1q.06,9.21.16,18.42c0,.31,0,.63-.08,1.14-.52-.27-.88-.45-1.22-.66-6.51-3.85-13-7.72-19.53-11.55a2,2,0,0,1-1.17-1.94c0-1.8,0-3.6,0-5.41h-1L182-30.8A1.77,1.77,0,0,1,181.1-29c-6.78,4-13.54,8-20.31,11.94-.17.1-.36.18-.66.32,0-.11,0-.2-.06-.3,0-.39,0-.68,0-1q.1-9.09.2-18.19h-1c.06,6.46.12,12.94.18,19.62l-21.91-13c0-2.21,0-4.42-.07-6.64h-1c0,1.79,0,3.58-.05,5.37a2,2,0,0,1-1.1,2c-6.61,3.86-13.2,7.78-19.81,11.67a8.88,8.88,0,0,1-1,.49c0-.11-.07-.21-.1-.31,0-.41,0-.71,0-1q.1-9.12.2-18.22h-1c.06,6.48.12,13,.18,19.67l-22-13-.06-6.64h-1c0,1.82,0,3.65,0,5.47a1.8,1.8,0,0,1-1,1.77c-6.69,3.91-13.37,7.87-20,11.8-.25.15-.53.27-.89.45,0-.52-.1-.92-.1-1.32q.11-9.09.2-18.17H68q.06,8.91.13,17.83c0,.49,0,1,0,1.71l-.16-.08L59.1-21.93v.05q-5.9-3.5-11.8-7a2.09,2.09,0,0,1-1.2-2.06c0-1.77,0-3.53,0-5.3h-.81l-.06,5.46A1.77,1.77,0,0,1,44.25-29Q34.08-23,24-17c-.21.12-.44.21-.82.39,0-.51-.1-.92-.1-1.33l.21-18.26H22.4q.06,9.21.16,18.42c0,.33,0,.65-.09,1.22-.6-.32-1-.51-1.36-.74C14.6-21.16,8.1-25,1.58-28.86A2,2,0,0,1,.41-30.8c0-1.8,0-3.6,0-5.41H-.44L-.5-30.8A1.77,1.77,0,0,1-1.44-29C-8.22-25-15-21-21.75-17.07c-.21.12-.44.21-.85.4,0-.59-.06-1-.06-1.35q.11-9.09.2-18.19h-.84c.06,6.49.12,13,.18,19.71l-15.14-9v.92l13.66,7.72c.32.19.62.42,1.11.76l-1.38.8L-38.26-7.73v.94q6.76-4,13.51-8l1.52-.88c0,.65.1,1.07.09,1.49-.08,7.56-.2,15.11-.24,22.67a2.22,2.22,0,0,1-1.26,2.19q-6.83,4-13.62,8v.58c4.65-2.62,9.31-5.23,14-7.87a2.23,2.23,0,0,1,2.54,0c6.6,3.78,13.24,7.51,19.87,11.26.33.18.64.41,1.19.77-1.14.67-2.06,1.21-3,1.73-6,3.37-12,6.72-18,10.13a2.21,2.21,0,0,1-2.53,0c-4.67-2.68-9.35-5.32-14-8V28c5.67,3.25,12.84,7.52,14.76,8.89.07,8.36.15,16.8.23,25.25-.75-.14-8.74-4.7-15-8.43v.82L-25,62.07c.41.23.8.5,1.36.85-.51.34-.84.6-1.2.8l-13.42,7.54V72L-25,64.18c.45-.27.9-.52,1.53-.88,0,.63.1,1,.09,1.46-.08,7.61-.18,15.22-.24,22.82a1.9,1.9,0,0,1-1,1.91q-6.85,4-13.69,8v.75q7-3.91,14-7.86a2,2,0,0,1,2.27,0c6.65,3.81,13.32,7.56,20,11.33.32.18.63.4,1.07.7-.43.29-.72.52-1,.7-6.71,3.78-13.43,7.54-20.15,11.34a1.78,1.78,0,0,1-2,0q-7-4-14.1-8v.72c4.55,2.7,9.11,5.41,13.67,8.09a1.53,1.53,0,0,1,.9,1.49c.05,7.91.14,15.82.2,23.73a8.54,8.54,0,0,1-.08.91l-14.69-8.71v.9l13.47,7.63c.28.16.52.39.9.66-.49.31-.83.56-1.2.76l-13.17,7.42V151l9.65-5.66,5.06-2.92c0,.68.06,1.15.06,1.62-.09,7.51-.2,15-.24,22.54a2.26,2.26,0,0,1-1.26,2.2c-4.44,2.58-8.85,5.19-13.27,7.8v.57l14-7.87a1.57,1.57,0,0,1,1.75-.08q10.37,5.9,20.75,11.76a7,7,0,0,1,.64.51l-1.44.82c-6.51,3.66-13,7.3-19.5,11a2.33,2.33,0,0,1-2.67,0q-6.75-3.87-13.53-7.68v.72l13.31,7.89a1.73,1.73,0,0,1,1.12,1.66c0,7.85.13,15.71.19,23.56,0,.24,0,.48-.05.87a6.34,6.34,0,0,1-.94-.33l-13.63-8.07v.91l13,7.38c.36.21.7.47,1.22.81l-1.4.81L-38.26,229v.76l13.65-8a6.62,6.62,0,0,1,.85-.37c0,.59.06,1,.06,1.36q-.14,11.49-.25,23a1.78,1.78,0,0,1-.93,1.78q-6.71,3.92-13.38,7.87V256l13.72-7.73a1.69,1.69,0,0,1,1.89-.11q9.76,5.56,19.56,11.07h1.31c-4-2-19.11-10.92-21.23-12.48-.07-8.37-.15-16.81-.23-25.27,1.16.29,19.8,11.19,22.12,12.91q.12,12.35.23,24.84h.51c0-.35,0-.65,0-.95.08-7.51.2-15,.23-22.54a2.3,2.3,0,0,1,1.36-2.29c6.5-3.78,13-7.62,19.45-11.43.36-.22.75-.39,1.3-.67,0,.63.07,1.1.07,1.56-.09,7.52-.19,15-.24,22.55a2.23,2.23,0,0,1-1.23,2.21c-6.5,3.79-13,7.63-19.44,11.46l-.18.1h.66Q11.3,253.82,21,248.33a1.88,1.88,0,0,1,2.14-.08c6.46,3.69,13,7.34,19.43,11h1L22.68,246.89c-.08-8.45-.15-16.87-.23-25.33,1.15.31,20.23,11.49,22.07,12.9.07,8.14.14,16.33.22,24.8h.53a4.62,4.62,0,0,1-.06-.63c.08-7.75.18-15.5.25-23.26a1.57,1.57,0,0,1,.79-1.56l12.85-7.57h0l5.68-3.35,1.87-1.1c.17-.1.36-.19.57-.29l.18-.06a9.44,9.44,0,0,1,.12,1.1c-.08,7.7-.18,15.4-.25,23.11a1.79,1.79,0,0,1-.94,1.78c-2.47,1.43-4.92,2.88-7.37,4.33v.08l-12.62,7.42h1l12.36-6.95c2.37-1.32,4.74-2.64,7.1-4l.4-.19.23-.08h.06a1.56,1.56,0,0,1,.68,0,1.86,1.86,0,0,1,.49.21q9.7,5.53,19.45,11h1.12q-10-5.92-20.07-11.87a1.45,1.45,0,0,1-.85-1.37c0-8-.13-16-.19-24a3.64,3.64,0,0,1,.09-.59c.44.22.81.39,1.13.58q9.82,5.82,19.65,11.63a1.77,1.77,0,0,1,1.11,1.67c0,7.85.13,15.71.2,23.57,0,.12,0,.25,0,.39H91a3,3,0,0,1,0-.6c.08-7.75.18-15.5.25-23.26a1.58,1.58,0,0,1,.79-1.56c6.89-4,13.76-8.1,20.64-12.15a2.27,2.27,0,0,1,.34-.15l.17-.06c0,.49.07.86.07,1.22-.09,7.66-.19,15.31-.26,23a1.77,1.77,0,0,1-.91,1.8c-6.7,3.9-13.36,7.86-20.05,11.79h.89q9.66-5.43,19.31-10.88a2.41,2.41,0,0,1,1.86-.28,2.76,2.76,0,0,1,.4.18c6.45,3.69,12.93,7.33,19.39,11h1.49c-3.61-1.78-17.75-10-21.28-12.47q-.12-12.57-.23-25.14c.68.24,3,1.49,6,3.16l13.93,8.26c.8.5,1.49,1,2,1.31.08,8.23.16,16.54.23,24.88h.68a3.9,3.9,0,0,1-.07-.66c.09-7.72.19-15.43.26-23.14a2,2,0,0,1,.43-1.4l.09-.08a1.79,1.79,0,0,1,.26-.2c.09-.06.18-.13.29-.19q8.4-4.91,16.8-9.86c1-.57,1.91-1.17,2.89-1.73.32-.19.68-.35,1.12-.57l.08,0c0,.56.05.93.05,1.3q-.14,11.49-.25,23a1.78,1.78,0,0,1-.93,1.78c-6.69,3.91-13.36,7.86-20,11.79h1.06l19.47-11a2.74,2.74,0,0,1,.42-.21l.1,0,.22-.06a1.4,1.4,0,0,1,.5,0,1.87,1.87,0,0,1,.5.2q9.77,5.56,19.56,11.07h1.46c-1.65-.84-5.24-2.88-9-5.08h0l-6-3.55c-2.54-1.52-4.68-2.83-5.72-3.54a1.85,1.85,0,0,1-.47-.91q-.09-12.06-.21-24.29c0-.1,0-.2,0-.32,1,.41,4.86,2.61,9.13,5.09l3.29,2v0c4.41,2.6,8.52,5.09,9.53,5.84q.12,12.35.23,24.84h.65c0-.35,0-.65,0-.95.08-7.51.2-15,.22-22.54a2.32,2.32,0,0,1,1.37-2.29c6.5-3.78,13-7.62,19.44-11.43.33-.2.69-.36,1.16-.6,0,.59.07,1.05.07,1.49-.09,7.52-.19,15-.24,22.55a2.23,2.23,0,0,1-1.23,2.21c-6.5,3.79-13,7.63-19.44,11.46l-.18.1h.81q9.74-5.44,19.45-10.93a2.57,2.57,0,0,1,1-.36,1.81,1.81,0,0,1,1,.28c6.47,3.69,13,7.34,19.43,11h1.12l-20.88-12.37q-.12-12.64-.23-25.27c2.1.89,20.14,11.47,21.92,12.84.07,8.14.14,16.33.22,24.8H228a3.44,3.44,0,0,1-.06-.63c.08-7.75.18-15.5.25-23.26a1.57,1.57,0,0,1,.79-1.56q10.35-6.08,20.68-12.19a3.66,3.66,0,0,1,.47-.18h0c0,.49.07.85.07,1.21-.09,7.66-.19,15.31-.25,23a1.88,1.88,0,0,1-1,1.87c-6.68,3.9-13.34,7.84-20,11.76h1.18q9.7-5.44,19.41-10.91a2.37,2.37,0,0,1,1-.33,1.8,1.8,0,0,1,.89.25q6.19,3.54,12.42,7Zm-13.65-87.63a2.73,2.73,0,0,1-.08.67,1.82,1.82,0,0,1-.79,1q-10.37,6.07-20.73,12.19a1.3,1.3,0,0,1-.34.11c0-.42-.07-.75-.07-1.06.09-7.75.19-15.5.25-23.26a1.71,1.71,0,0,1,.92-1.65c6.78-4,13.54-8,20.3-11.95.18-.11.39-.2.67-.34a7.73,7.73,0,0,1,.12,1.08C250.28,151.33,250.18,159.08,250.11,166.84ZM163,169.79c-1.44-.89-2.55-1.6-3.11-2-.08-8.32-.15-16.71-.23-25.45l21.91,13q.12,12.6.24,25.23c-1-.37-5.32-2.8-9.92-5.48v0ZM.3,49.42C.22,40.92.14,32.53.07,24.2a.82.82,0,0,1,.22-.12s.1,0,.13,0c.26.12.53.24.78.38L22.13,36.85c.08,8.47.15,16.89.23,25.64ZM22.34,65c-.08,7.51-.19,15-.24,22.53a2.2,2.2,0,0,1-1.25,2.19C14.36,93.48,7.9,97.32,1.43,101.13l-1.4.81c0-.64-.09-1-.09-1.47C0,92.86.12,85.25.18,77.65a1.91,1.91,0,0,1,1-1.9C7.84,71.87,14.46,67.93,21.1,64c.33-.19.68-.34,1.18-.59C22.3,64,22.35,64.5,22.34,65ZM.69,50.72c6.82,3.9,13.66,7.75,20.49,11.61.21.12.39.27.71.5a9.1,9.1,0,0,1-.95.7Q10.88,69.2.8,74.87a1.79,1.79,0,0,1-2,.1C-8,71.07-14.88,67.23-21.71,63.36c-.21-.12-.39-.27-.83-.58l1.31-.76q10-5.58,19.91-11.18A1.81,1.81,0,0,1,.69,50.72Zm0,79.13c6.65,3.81,13.33,7.56,20,11.34.33.18.63.41,1.22.79l-1.49.86c-6.51,3.65-13,7.29-19.53,11a2.24,2.24,0,0,1-2.54,0c-6.56-3.77-13.16-7.46-19.74-11.19-.37-.21-.73-.46-1.23-.77a11.57,11.57,0,0,1,1-.73c6.67-3.76,13.36-7.5,20-11.28A2,2,0,0,1,.7,129.85ZM0,156.5a1.78,1.78,0,0,1,.94-1.78c6.74-3.94,13.45-7.92,20.17-11.88.25-.15.52-.27.94-.48,0,.51.11.92.11,1.34-.09,7.65-.19,15.31-.25,23a1.79,1.79,0,0,1-.93,1.79q-10.19,5.94-20.31,12c-.21.12-.44.21-.86.41,0-.59-.07-1-.06-1.34C-.19,171.81-.09,164.16,0,156.5Zm22.14-15.14c-.46-.23-.81-.37-1.12-.55C14.36,136.88,7.73,132.93,1.08,129a1.77,1.77,0,0,1-1-1.73c0-7.76-.13-15.52-.2-23.29,0-.32.05-.65.08-1.12.42.19.72.31,1,.47q10,5.94,20,11.87a1.76,1.76,0,0,1,1,1.72c0,7.76.13,15.52.2,23.29C22.2,140.56,22.16,140.88,22.12,141.36Zm-.6-26.89c-6.78-3.87-13.58-7.7-20.38-11.55-.25-.14-.48-.32-.84-.56a8.25,8.25,0,0,1,1-.72c6.68-3.76,13.37-7.5,20-11.29a2.12,2.12,0,0,1,2.41,0c6.61,3.78,13.25,7.51,19.87,11.25.34.19.65.42,1.23.8-.65.37-1.06.62-1.48.85q-9.82,5.52-19.66,11A1.88,1.88,0,0,1,21.52,114.47ZM66.7,36.2a1.78,1.78,0,0,1,1,1.7c0,7.76.12,15.52.19,23.27,0,.32,0,.64-.08,1.15-.47-.25-.79-.4-1.09-.58L59.1,57.2v0c-4-2.35-7.94-4.71-11.93-7A2.2,2.2,0,0,1,45.89,48c0-7.51-.11-15-.18-22.54,0-.47,0-.94.06-1.58.48.22.83.36,1.14.54L59,31.58v0Q62.82,33.92,66.7,36.2Zm1.17,28.5q-.12,11.49-.24,23a1.8,1.8,0,0,1-.92,1.79C64.12,91,61.54,92.52,59,94v.07L46.75,101.3c-.29.18-.59.31-1,.52a6.38,6.38,0,0,1-.18-1c.08-7.81.19-15.62.24-23.43A1.92,1.92,0,0,1,47,75.57c6-3.46,11.88-7,17.82-10.44.86-.51,1.75-1,2.8-1.62l.18-.08A10.53,10.53,0,0,1,67.87,64.7ZM46.37,50.78c4.19,2.39,8.39,4.75,12.59,7.13v0l7.62,4.31c.28.16.54.36,1,.69h0l-1.37.8L59,67.84v.07q-6.24,3.5-12.46,7a1.92,1.92,0,0,1-2.14,0c-6.73-3.85-13.5-7.65-20.25-11.46-.24-.14-.47-.32-.85-.57.37-.27.64-.52.94-.7q10.14-5.7,20.28-11.4A1.67,1.67,0,0,1,46.37,50.78ZM45,48.18A1.9,1.9,0,0,1,43.93,50q-10.05,5.88-20,11.8c-.26.15-.52.26-.89.44a5.66,5.66,0,0,1-.17-1c.08-7.8.18-15.6.26-23.4a1.57,1.57,0,0,1,.81-1.56c6.9-4,13.79-8.12,20.68-12.17a3.43,3.43,0,0,1,.6-.23c0,.54.07.92.06,1.29C45.15,32.87,45.05,40.53,45,48.18ZM24.2,64.09C30.75,68,37.3,71.87,43.86,75.73a1.76,1.76,0,0,1,1,1.71c0,7.76.12,15.53.19,23.29,0,.29,0,.58,0,.83a1.11,1.11,0,0,1-.17.11s-.1,0-.13,0c-.26-.12-.53-.23-.79-.38L23,88.91c-.08-8.45-.16-16.84-.23-25.53C23.45,63.71,23.84,63.88,24.2,64.09Zm20.88,40.38c-.08,7.52-.19,15-.23,22.55a2.23,2.23,0,0,1-1.24,2.2c-6.5,3.79-13,7.63-19.43,11.46l-1.43.82c0-.73-.08-1.2-.08-1.67.09-7.51.19-15,.24-22.54a2.23,2.23,0,0,1,1.23-2.22c6.55-3.8,13-7.67,19.57-11.5.37-.22.76-.39,1.3-.67C45,103.54,45.09,104,45.08,104.47Zm-22.42,38a4.08,4.08,0,0,1,.83.26q10.22,6,20.41,12.08a1.44,1.44,0,0,1,.84,1.37c0,8,.13,16,.19,24a5.5,5.5,0,0,1-.1.65c-.53-.26-.91-.44-1.28-.66-6.55-3.87-13.09-7.77-19.65-11.63a1.85,1.85,0,0,1-1.1-1.82c0-7.71-.12-15.41-.18-23.12C22.61,143.28,22.64,142.94,22.66,142.48Zm21.26,11.29q-9.84-5.62-19.73-11.18c-.36-.21-.7-.47-1.24-.83l1.39-.8c6.6-3.7,13.2-7.38,19.77-11.12a2,2,0,0,1,2.27,0Q52.67,133.44,59,137v0l7.51,4.25c.24.14.47.32.93.63l-.09.06-1.27.72-7.08,4v.07c-4.18,2.35-8.35,4.69-12.51,7.06A2.21,2.21,0,0,1,43.92,153.77Zm1.74,2.67a1.71,1.71,0,0,1,.92-1.65c4.19-2.44,8.35-4.91,12.52-7.37h0l7.19-4.24.67-.39c.18-.1.39-.2.7-.35,0,.59.07,1,.06,1.39-.08,7.61-.18,15.22-.24,22.82a1.91,1.91,0,0,1-1,1.88L59,172.94V173l-13,7.64a2.67,2.67,0,0,1-.49.15c0-.45-.07-.77-.06-1.1C45.5,172,45.6,164.2,45.66,156.44Zm14.1-19.74-14-8.29q-.12-12.63-.23-25.29c.66.12,7.47,4,13.41,7.5v.13l7.67,4.55c.37.23.67.43.88.59q.12,12.57.24,25.16C66.92,140.74,63.6,138.91,59.76,136.7Zm7.78-22.07-.18-.07c-2.75-1.57-5.5-3.12-8.26-4.68v0l-11.9-6.74c-.38-.21-.73-.45-1.23-.77a11.84,11.84,0,0,1,1-.72L59.1,94.86h0c2.62-1.47,5.23-2.93,7.84-4.42a2.73,2.73,0,0,1,1.19-.39,2.46,2.46,0,0,1,1.19.38c6.57,3.76,13.17,7.46,19.75,11.19.37.21.72.45,1.21.78a11.2,11.2,0,0,1-1,.72q-10.08,5.67-20.17,11.34a3.26,3.26,0,0,1-.43.2A2,2,0,0,1,67.54,114.63Zm44.85-52.94L91.66,49.41C91.59,41,91.51,32.67,91.44,24c.33.14.6.24.83.35L113,36.61a1.37,1.37,0,0,1,.37.56c.08,8.33.15,16.6.23,25.18C113.18,62.14,112.79,61.91,112.39,61.69Zm1.18,3.23c-.09,7.56-.19,15.13-.25,22.69a2,2,0,0,1-1.07,2C105.63,93.48,99,97.4,92.44,101.3c-.29.17-.61.31-1,.51a9.26,9.26,0,0,1-.13-1.14c.08-7.72.18-15.43.25-23.14a2.8,2.8,0,0,1,.16-1l.12-.21.09-.12a1.37,1.37,0,0,1,.2-.22,1.8,1.8,0,0,1,.36-.28c6.74-3.93,13.46-7.92,20.19-11.87l.52-.27.31-.13,0,.13C113.55,64.14,113.57,64.53,113.57,64.92Zm-21.28-14c6.52,3.75,13.07,7.42,19.61,11.12.38.22.74.46,1.24.77a7.41,7.41,0,0,1-.81.65Q102.13,69.22,91.91,75l-.3.14A2.14,2.14,0,0,1,90.29,75Q79.87,69.1,69.41,63.2c-.11-.07-.22-.18-.46-.38.2-.16.37-.31.54-.43s.25-.18.37-.25c6.3-3.54,12.61-7.07,18.89-10.64l1-.58a3.89,3.89,0,0,1,.64-.29l.09,0a1.76,1.76,0,0,1,.39-.06A2.51,2.51,0,0,1,92.29,50.92Zm-1.72-2.54a1.58,1.58,0,0,1-.81,1.55Q79.39,56,69.07,62.1a2.26,2.26,0,0,1-.45.17c0-.51-.06-.89-.06-1.25.09-7.66.19-15.31.25-23a1.8,1.8,0,0,1,1-1.78c6.74-3.93,13.45-7.91,20.17-11.88.22-.12.46-.23.75-.37a6,6,0,0,1,.15.95C90.74,32.77,90.64,40.57,90.57,48.38Zm-22,15,21.87,13c.07,8.43.15,16.85.23,25.43a4.81,4.81,0,0,1-.85-.31l-20.29-12a1.43,1.43,0,0,1-.86-1.36c0-8-.12-16-.18-24A5,5,0,0,1,68.59,63.35Zm22,40.73c-.09,7.71-.19,15.41-.25,23.12a1.77,1.77,0,0,1-1,1.76c-6.74,3.94-13.45,7.92-20.18,11.87-.22.13-.46.23-.83.4,0-.67,0-1.14,0-1.6.08-7.46.19-14.92.23-22.38A2.23,2.23,0,0,1,69.83,115q6.89-4,13.73-8.08l6-3.53.43-.24.54-.26A10,10,0,0,1,90.62,104.08ZM68.35,142.44c.53.26.89.42,1.22.62,6.55,3.87,13.1,7.77,19.66,11.63a1.78,1.78,0,0,1,1,1.7c0,7.77.13,15.53.19,23.29a9.74,9.74,0,0,1-.09,1.13L69.2,168.26a2,2,0,0,1-.64-1c-.07-8.16-.15-16.28-.22-24.59A1.21,1.21,0,0,1,68.35,142.44Zm22.06,11.72A1.89,1.89,0,0,1,90,154q-10.11-5.76-20.25-11.46c-.26-.16-.52-.35-.95-.64.41-.28.72-.52,1-.71l.36-.21q9.83-5.5,19.64-11a2.7,2.7,0,0,1,1.06-.37,2.1,2.1,0,0,1,1.07.32c6.64,3.8,13.32,7.55,20,11.32.33.18.63.41,1.08.7-.42.29-.71.52-1,.7q-10.06,5.67-20.14,11.34a2.63,2.63,0,0,1-.74.28A1.74,1.74,0,0,1,90.41,154.16Zm.93,2.49a2.15,2.15,0,0,1,.77-1.85c.09-.06.17-.13.27-.19l.12-.07c6.66-3.88,13.29-7.82,19.94-11.74a3.54,3.54,0,0,1,.39-.19l.38-.17a5.19,5.19,0,0,1,.15.94c-.08,7.81-.18,15.62-.25,23.43a1.68,1.68,0,0,1-.91,1.65q-10.17,6-20.32,12a8,8,0,0,1-.73.34c0-.6-.06-1-.06-1.43C91.18,171.78,91.28,164.21,91.34,156.65Zm22-15.32c-.57-.31-1-.52-1.35-.75-6.42-3.81-12.83-7.63-19.28-11.39A2.22,2.22,0,0,1,91.42,127c0-7.52-.11-15-.18-22.55,0-.45,0-.91.05-1.52a9.64,9.64,0,0,1,1,.47q9.94,5.89,19.9,11.78a1.78,1.78,0,0,1,1,1.71c0,7.76.12,15.52.19,23.27C113.42,140.49,113.38,140.81,113.34,141.33Zm-.23-26.78-.22-.09c-6.82-3.89-13.66-7.74-20.49-11.61-.19-.11-.37-.25-.74-.52a7.83,7.83,0,0,1,.78-.57l.37-.22q10-5.61,20-11.23a2.46,2.46,0,0,1,.93-.32,2,2,0,0,1,1,.3c6.69,3.82,13.41,7.59,20.11,11.39.29.16.57.36,1,.63a9.66,9.66,0,0,1-.82.63c-6.8,3.83-13.62,7.64-20.4,11.49a4,4,0,0,1-.37.17A2,2,0,0,1,113.11,114.55ZM151.4,57.84l-10.64-6.3c-1.42-.88-2.57-1.6-3.23-2.06a1.37,1.37,0,0,1-.23-.43c-.08-8.21-.16-16.5-.23-24.8a.83.83,0,0,1,0-.13c.8.33,3.71,1.93,7.18,3.92l12.32,7.3c1.09.68,1.95,1.23,2.45,1.59q.11,12.52.23,25.21C158.44,61.82,155.19,60,151.4,57.84Zm7.79,6.92C159.11,72.37,159,80,159,87.58a1.9,1.9,0,0,1-1,1.91c-6.75,3.93-13.46,7.91-20.19,11.87-.21.12-.45.22-.81.38,0-.63,0-1,0-1.47.08-7.51.19-15,.23-22.53a2.22,2.22,0,0,1,1.25-2.19c6.46-3.76,12.87-7.57,19.29-11.37l.67-.39.73-.35C159.15,64,159.2,64.38,159.19,64.76ZM137.92,51c6.53,3.73,13.08,7.41,19.62,11.11.41.23.8.5,1.36.85-.5.34-.84.6-1.2.8q-10,5.59-19.92,11.2a2.92,2.92,0,0,1-.81.31,1.85,1.85,0,0,1-.7,0,2.18,2.18,0,0,1-.49-.21c-6.73-3.84-13.5-7.64-20.25-11.47-.26-.15-.5-.35-.91-.64a10.82,10.82,0,0,1,.9-.65l.24-.13c6.59-3.72,13.2-7.41,19.78-11.15a2.78,2.78,0,0,1,.62-.28l.13,0a2.35,2.35,0,0,1,.37-.05A2.47,2.47,0,0,1,137.92,51Zm-1.71-2.77a1.91,1.91,0,0,1-1,1.87q-10,5.84-19.94,11.74c-.26.15-.54.28-.9.46a8.41,8.41,0,0,1-.14-1.11c.08-7.71.19-15.42.25-23.13a2,2,0,0,1,.51-1.48l0,0a4.4,4.4,0,0,1,.39-.29l.13-.09q10-5.86,20-11.8c.18-.1.39-.19.67-.31l.17-.07c0,.54.07.91.06,1.27C136.37,32.86,136.27,40.53,136.21,48.19ZM119,66.17l16.21,9.61q.6.39.93.63.12,12.57.23,25.16c-.82-.31-4.08-2.11-7.86-4.29l-10.88-6.44c-1.47-.91-2.61-1.64-3.17-2-.08-8.23-.16-16.53-.23-25.15C114.6,63.77,116.46,64.77,119,66.17Zm17.36,38.05c-.09,7.7-.19,15.41-.25,23.11a1.7,1.7,0,0,1-.92,1.65c-6.82,4-13.62,8-20.43,12a5.93,5.93,0,0,1-.54.25,8.88,8.88,0,0,1-.13-1.07q.13-11.62.26-23.26a1.56,1.56,0,0,1,.79-1.57q10.35-6.06,20.68-12.17l0,0a4.68,4.68,0,0,1,.44-.17C136.27,103.49,136.31,103.86,136.31,104.22ZM114,142.58c.9.38,4.45,2.37,8.45,4.69l8.57,5.06c2,1.22,3.66,2.23,4.52,2.81a1.85,1.85,0,0,1,.41.72c.08,8.18.16,16.43.23,25l-.49-.25-20.91-12.4a1.84,1.84,0,0,1-.57-1c-.08-8.16-.15-16.27-.23-24.41C114,142.75,114,142.67,114,142.58ZM135.67,154c-6.83-3.9-13.67-7.75-20.51-11.62-.21-.12-.4-.27-.75-.5a7.17,7.17,0,0,1,.92-.71L135.5,129.8a2.49,2.49,0,0,1,.33-.16,1.82,1.82,0,0,1,1.17-.1,2.3,2.3,0,0,1,.37.16q10.17,5.79,20.38,11.54c.28.16.52.39.9.66-.49.31-.83.56-1.2.76q-10,5.61-19.91,11.21a2.61,2.61,0,0,1-1,.35A1.71,1.71,0,0,1,135.67,154Zm1.35,2.33a2.94,2.94,0,0,1,0-.35,2.07,2.07,0,0,1,.84-1.17l.25-.16c5.31-3.1,10.61-6.23,15.92-9.34,1.54-.9,3.11-1.79,4.89-2.82l0,.14c0,.55.05,1,.05,1.38-.09,7.51-.2,15-.24,22.54a2.26,2.26,0,0,1-1.26,2.2c-6.5,3.78-13,7.62-19.44,11.45l-1.06.61-.08,0a4.34,4.34,0,0,1-.19-.94C136.86,172,137,164.16,137,156.31Zm22-15-1.06-.6L137.15,128.4c-.08-8.44-.16-16.81-.23-25.38l.22.08a5.07,5.07,0,0,1,.77.34c6.68,4,13.35,7.92,20,11.85a1.53,1.53,0,0,1,.9,1.49c.05,7.91.14,15.82.21,23.73C159.06,140.69,159,140.87,159,141.31Zm-.45-26.83c-6.74-3.85-13.5-7.65-20.24-11.46-.27-.15-.53-.35-.95-.64.39-.26.69-.49,1-.68l.41-.24c6.15-3.46,12.32-6.9,18.47-10.38l1.19-.67a2.59,2.59,0,0,1,1-.36,2.25,2.25,0,0,1,1.06.32c6.65,3.81,13.32,7.56,20,11.33.32.18.63.4,1.07.7-.43.29-.72.52-1,.7-6.71,3.78-13.43,7.54-20.15,11.34a2.15,2.15,0,0,1-1,.31A1.93,1.93,0,0,1,158.53,114.48ZM183,49.42c-.08-8.5-.16-16.89-.24-25.22a1.34,1.34,0,0,1,.22-.12h0l.74.37,20.93,12.41c.08,8.44.15,16.83.23,25.55ZM204.88,65c-.08,7.51-.19,15-.23,22.53a2.22,2.22,0,0,1-1.26,2.19c-6.49,3.79-12.95,7.63-19.42,11.44l-1.26.73c0-.59-.09-1-.08-1.39.08-7.61.18-15.22.24-22.82a1.91,1.91,0,0,1,1-1.9c6.66-3.88,13.28-7.82,19.92-11.73.29-.17.61-.32,1-.52C204.85,64.07,204.89,64.52,204.88,65ZM183.23,50.72c6.82,3.9,13.66,7.75,20.49,11.61.21.12.39.27.72.5a10.31,10.31,0,0,1-1,.7q-10.06,5.67-20.14,11.34a2.41,2.41,0,0,1-1,.35,1.62,1.62,0,0,1-.92-.25c-6.82-3.9-13.66-7.74-20.5-11.61-.19-.11-.37-.26-.74-.52a7.83,7.83,0,0,1,.8-.57l.23-.14,3.5-2q8.31-4.65,16.61-9.32a2.56,2.56,0,0,1,.94-.36A1.71,1.71,0,0,1,183.23,50.72Zm-1.34-2.49a1.88,1.88,0,0,1-1,1.88c-6.66,3.89-13.29,7.83-19.93,11.75-.26.15-.54.28-.88.45a2.88,2.88,0,0,1-.18-.78c.08-7.91.18-15.82.24-23.73a2,2,0,0,1,.09-.58h0a2.07,2.07,0,0,1,1.06-1.08l15.92-9.34c1.55-.91,3.12-1.8,4.88-2.81,0,.53.08.89.07,1.25C182.06,32.9,182,40.56,181.89,48.23ZM160.66,63.81l20.28,12a1.44,1.44,0,0,1,.86,1.37c0,8,.13,16,.19,24a5,5,0,0,1-.08.6c-.45-.22-.81-.39-1.14-.58q-9.83-5.82-19.65-11.62A1.87,1.87,0,0,1,160,87.77c0-7.71-.12-15.42-.19-23.13,0-.33,0-.66,0-1.12A4.09,4.09,0,0,1,160.66,63.81Zm21.28,40.28q-.13,11.56-.25,23.13a1.8,1.8,0,0,1-.95,1.78c-6.71,3.92-13.38,7.87-20.07,11.82-.25.15-.53.27-1,.47,0-.65,0-1.07,0-1.48.09-7.52.2-15,.24-22.55a2.32,2.32,0,0,1,1.31-2.3l1.76-1c6-3.5,12-7,18-10.56a8.66,8.66,0,0,1,.9-.43C181.88,103.4,181.94,103.75,181.94,104.09Zm-.89,49.77c-6.56-3.77-13.16-7.46-19.74-11.19-.38-.21-.73-.46-1.23-.77a11.6,11.6,0,0,1,1-.73c6.68-3.76,13.37-7.5,20-11.28a2.39,2.39,0,0,1,1.06-.36,2.14,2.14,0,0,1,1.07.32c6.65,3.81,13.33,7.56,20,11.34.33.18.64.41,1.22.79l-1.49.86c-6.51,3.65-13,7.29-19.53,11a2.75,2.75,0,0,1-1.19.4A2.38,2.38,0,0,1,181.05,153.86Zm1.62,2.64a1.76,1.76,0,0,1,.94-1.78c6.73-3.94,13.45-7.92,20.17-11.88.22-.13.47-.25.8-.41,0,.48.1.87.1,1.27-.09,7.65-.19,15.31-.25,23a1.79,1.79,0,0,1-.93,1.79q-10.19,5.94-20.31,12c-.18.1-.39.19-.72.34,0-.54-.06-.91-.05-1.27C182.5,171.81,182.6,164.16,182.67,156.5Zm22-15.21c-.39-.18-.71-.32-1-.48-6.63-3.93-13.27-7.88-19.92-11.79a1.78,1.78,0,0,1-1-1.73c0-7.76-.12-15.52-.19-23.29,0-.3,0-.62.07-1.06.34.16.62.27.86.41q10,5.94,20,11.87a1.76,1.76,0,0,1,1,1.72c0,7.76.13,15.52.2,23.29C204.74,140.54,204.7,140.85,204.67,141.29Zm-.46-26.82c-6.78-3.87-13.59-7.7-20.38-11.55-.25-.14-.48-.32-.84-.56a8.25,8.25,0,0,1,1-.72c6.67-3.76,13.37-7.5,20-11.29a2.3,2.3,0,0,1,1.13-.35,2.61,2.61,0,0,1,1.13.38c6.61,3.78,13.25,7.51,19.87,11.25.34.19.65.42,1.23.8-.65.37-1.06.62-1.48.85q-9.83,5.52-19.66,11a2.47,2.47,0,0,1-1.17.41A1.88,1.88,0,0,1,204.21,114.47Zm23.32-66.29A1.9,1.9,0,0,1,226.47,50q-10,5.88-20.05,11.8c-.22.13-.46.24-.76.38a4.93,4.93,0,0,1-.15-.94c.08-7.8.18-15.6.25-23.4a1.6,1.6,0,0,1,.81-1.56c6.91-4,13.79-8.12,20.69-12.17a2.54,2.54,0,0,1,.45-.18c0,.51.07.88.07,1.24C227.69,32.87,227.59,40.53,227.53,48.18Zm.52,2.35a1.68,1.68,0,0,1,.86.25q10.23,5.82,20.5,11.6c.2.12.38.28.77.55-.48.31-.79.54-1.12.72q-10,5.63-20,11.27a2.53,2.53,0,0,1-1,.34,2.22,2.22,0,0,1-1-.3c-6.73-3.85-13.49-7.65-20.24-11.46-.24-.14-.47-.32-.85-.57.37-.27.63-.52.94-.7q10.14-5.7,20.28-11.4A2.05,2.05,0,0,1,228.05,50.53ZM206.74,64.09c6.55,3.88,13.1,7.78,19.66,11.64a1.76,1.76,0,0,1,1,1.71c0,7.76.12,15.53.19,23.29,0,.29,0,.58,0,.83a.77.77,0,0,1-.17.11h0a6.47,6.47,0,0,1-.75-.36L205.73,88.91c-.08-8.43-.16-16.79-.23-25.45C206,63.73,206.41,63.89,206.74,64.09Zm20.88,40.38c-.08,7.52-.19,15-.23,22.55a2.23,2.23,0,0,1-1.24,2.2c-6.5,3.79-13,7.63-19.43,11.46l-1.28.74c0-.68-.08-1.14-.08-1.59.09-7.51.19-15,.24-22.54a2.23,2.23,0,0,1,1.23-2.22c6.54-3.8,13-7.67,19.57-11.5.33-.2.69-.36,1.16-.59C227.59,103.57,227.63,104,227.62,104.47Zm-22.27,38.05a2.36,2.36,0,0,1,.68.22q10.22,6,20.41,12.08a1.44,1.44,0,0,1,.84,1.37c.05,8,.13,16,.19,24a5.37,5.37,0,0,1-.09.59c-.45-.23-.81-.4-1.14-.6-6.55-3.87-13.09-7.77-19.65-11.63a1.85,1.85,0,0,1-1.1-1.82c0-7.71-.12-15.41-.19-23.12C205.3,143.29,205.33,143,205.35,142.52Zm21.26,11.25q-9.84-5.62-19.73-11.18c-.37-.21-.71-.47-1.24-.83L207,141c6.59-3.7,13.2-7.38,19.77-11.12a2.34,2.34,0,0,1,1.06-.34,2.26,2.26,0,0,1,1.06.34c6.61,3.78,13.24,7.51,19.86,11.25.37.21.7.47,1.17.78-.49.32-.83.57-1.2.77-6.59,3.71-13.19,7.4-19.76,11.14a2.46,2.46,0,0,1-1.19.38A2.6,2.6,0,0,1,226.61,153.77Zm15-43.06v0l5,3c1.68,1,2.95,1.83,3.51,2.24.07,8.22.14,16.51.22,25.12a45.59,45.59,0,0,1-4.6-2.41l-17.31-10.26q-.12-12.6-.23-25.25C229.45,103.64,236,107.35,241.64,110.71Zm8.63-23a1.91,1.91,0,0,1-1,1.88c-6.66,3.88-13.29,7.82-19.94,11.73a8.74,8.74,0,0,1-.88.46,4.59,4.59,0,0,1-.16-1c.08-7.81.19-15.62.24-23.43a1.92,1.92,0,0,1,1.17-1.81c6-3.46,11.88-7,17.81-10.44.92-.54,1.85-1.07,3-1.72,0,.08,0,.14,0,.22,0,.55,0,1,0,1.37C250.43,72.56,250.33,80.12,250.27,87.69ZM229.46,24.45l19.9,11.79a1.65,1.65,0,0,1,1,1.56c0,7.86.12,15.71.19,23.57,0,.26,0,.53-.09,1-.57-.32-1-.53-1.35-.76-6.42-3.8-12.83-7.63-19.28-11.4A2.22,2.22,0,0,1,228.57,48c0-7.51-.11-15-.17-22.54,0-.45,0-.91,0-1.52C228.86,24.16,229.18,24.29,229.46,24.45Zm21.26-38.78c-.08,7.71-.18,15.42-.25,23.13a3,3,0,0,1-.12.82,2,2,0,0,1-.66.84l-.12.09-.11.07c-6.68,3.91-13.33,7.86-20,11.79-.25.15-.53.26-.94.45,0-.53-.07-.86-.06-1.18.08-7.71.19-15.42.24-23.14a1.92,1.92,0,0,1,1.08-1.86c6.66-3.88,13.3-7.81,19.94-11.73.25-.14.53-.27.89-.44A9.13,9.13,0,0,1,250.72-14.33Zm-43.79-2.45Q217-22.45,227.1-28.14a2.5,2.5,0,0,1,1.06-.35,2.16,2.16,0,0,1,1.07.33q10,5.7,20,11.33c.3.17.58.38,1,.68a5.35,5.35,0,0,1-.52.48l-1.33.76-5.74,3.24c-4.38,2.46-8.77,4.91-13.13,7.4a3.07,3.07,0,0,1-1.34.46,2.79,2.79,0,0,1-1.31-.41c-6.42-3.71-12.9-7.33-19.35-11l-1.5-.87A7.55,7.55,0,0,1,206.93-16.78Zm-1.22,1.22c.5.26.89.44,1.26.66,6.47,3.83,12.92,7.69,19.42,11.48a2.21,2.21,0,0,1,1.27,2.18c0,7.52.11,15,.18,22.56,0,.45,0,.91-.06,1.52-.5-.26-.9-.45-1.26-.66-6.47-3.83-12.93-7.69-19.42-11.48a2.2,2.2,0,0,1-1.26-2.18c0-7.52-.12-15-.18-22.56C205.65-14.49,205.69-14.94,205.71-15.56Zm-.43,26.65a2.63,2.63,0,0,1,1.27.4c6.51,3.74,13.07,7.42,19.61,11.12.38.21.74.45,1.22.75a3.79,3.79,0,0,1-.63.6L206.07,35.59a1.84,1.84,0,0,1-.75.25,1.52,1.52,0,0,1-.73-.23L183.7,23.77a4.39,4.39,0,0,1-.52-.42c.48-.31.83-.56,1.2-.77,6.55-3.69,13.11-7.35,19.64-11.08A2.82,2.82,0,0,1,205.28,11.09ZM205-14.27c-.08,7.66-.18,15.33-.25,23a1.76,1.76,0,0,1-.92,1.79q-10.11,5.91-20.19,11.89c-.22.12-.46.23-.86.42,0-.68,0-1.15,0-1.61.09-7.47.2-14.93.23-22.4a2.36,2.36,0,0,1,1.31-2.33c6.59-3.82,13.14-7.71,19.7-11.58a9,9,0,0,1,.92-.44C205-15,205-14.66,205-14.27Zm-43.9-2.34.44-.25,2.92-1.63,7.4-4.16h0l9.71-5.45a2.34,2.34,0,0,1,.94-.34,1.67,1.67,0,0,1,.93.26c6.77,3.87,13.58,7.69,20.37,11.53.24.14.46.32.83.57-.4.29-.69.52-1,.7L183.51-4.06a2.35,2.35,0,0,1-.93.34,1.85,1.85,0,0,1-.93-.26q-10.17-5.8-20.37-11.54c-.23-.13-.45-.3-.85-.58C160.72-16.32,160.92-16.48,161.13-16.61Zm-1,1.31a38.51,38.51,0,0,1,3.72,1.9L181.93-2.65c.07,8.44.15,16.83.23,25.56l-5.1-3c-5.21-3.09-10.41-6.2-15.64-9.25a2.08,2.08,0,0,1-1.21-2.05c0-7.52-.12-15-.18-22.56C160-14.35,160.05-14.75,160.08-15.3Zm.19,26.47a3.48,3.48,0,0,1,.5.22c6.6,3.78,13.24,7.51,19.87,11.26.33.18.64.41,1.19.77-1.14.67-2.06,1.21-3,1.73-6,3.37-12,6.72-18,10.13a2.59,2.59,0,0,1-1.36.41,2.56,2.56,0,0,1-1-.36c-6.56-3.76-13.16-7.46-19.75-11.18-.37-.22-.73-.46-1.23-.78.39-.29.67-.55,1-.73,6.62-3.73,13.26-7.44,19.87-11.19l.11-.06.24-.11A2.4,2.4,0,0,1,160.27,11.17Zm-1-26.62c0,.54.09.92.08,1.3-.08,7.56-.2,15.11-.24,22.67a2.22,2.22,0,0,1-1.26,2.19c-6.45,3.75-12.87,7.57-19.3,11.36l-1.21.7-.19.05c0-.62-.06-1.07-.06-1.5.09-7.51.2-15,.24-22.53a2.23,2.23,0,0,1,1.27-2.19c6.45-3.76,12.86-7.57,19.29-11.36.24-.15.49-.29.76-.44l.61-.3S159.32-15.47,159.32-15.45Zm-43.51-1.42,8-4.53,3.88-2.18L136-28.2a2.89,2.89,0,0,1,.31-.15,1.78,1.78,0,0,1,1.16,0,1.85,1.85,0,0,1,.39.17q10.05,5.73,20.12,11.39c.32.19.62.42,1.11.76l-1.38.8Q147.85-9.75,138-4.21a2.53,2.53,0,0,1-1.23.38,2.72,2.72,0,0,1-1.16-.38C129.1-8,122.5-11.67,115.93-15.39c-.37-.2-.71-.46-1.18-.78C115.19-16.46,115.48-16.69,115.81-16.87Zm-1.39,1.41.33.08c.25.12.47.22.67.34q9.94,5.9,19.9,11.78a1.75,1.75,0,0,1,1,1.73c0,7.71.13,15.42.2,23.13,0,.35-.05.71-.09,1.19-.4-.19-.71-.32-1-.49q-10-5.89-19.91-11.78a1.75,1.75,0,0,1-1-1.73c0-7.71-.12-15.41-.19-23.12C114.34-14.66,114.38-15,114.42-15.46ZM114,11.05a1.94,1.94,0,0,1,1,.3q10,5.73,20.11,11.39c.29.16.56.36,1,.63a7.94,7.94,0,0,1-.82.63Q125,29.74,114.84,35.48a2,2,0,0,1-.87.3,1.83,1.83,0,0,1-.87-.26q-10.23-5.84-20.49-11.6c-.21-.12-.39-.28-.84-.59l1.32-.75c6.63-3.73,13.27-7.44,19.9-11.19a3.41,3.41,0,0,1,.52-.24.61.61,0,0,1,.13,0A2.29,2.29,0,0,1,114,11.05Zm-.27-25.34c-.08,7.65-.19,15.31-.24,23a1.92,1.92,0,0,1-1.06,1.87q-10.05,5.87-20.06,11.8c-.21.12-.45.23-.75.38a4.34,4.34,0,0,1-.15-.94c.08-7.8.18-15.61.25-23.41a1.58,1.58,0,0,1,.81-1.55q10.35-6.08,20.68-12.18l.46-.18C113.68-15,113.72-14.66,113.71-14.29Zm-43.46-2.6C76.84-20.6,83.45-24.29,90-28a4.14,4.14,0,0,1,.53-.25l.35-.09h0a2.1,2.1,0,0,1,.9.06,3.68,3.68,0,0,1,.59.26c6.56,3.77,13.16,7.47,19.75,11.19.37.21.72.46,1.22.78-.41.3-.69.55-1,.73Q102.3-9.69,92.21-4a2.21,2.21,0,0,1-1,.32,1.84,1.84,0,0,1-.9-.28Q80.16-9.79,70-15.53c-.24-.14-.46-.33-.92-.66Zm9.38,7.72c3.65,2.15,7.29,4.33,11,6.52.08,8.44.15,16.82.23,25.55l-21.91-13c-.08-8.39-.16-16.79-.24-25.48C72.52-13.47,76.05-11.27,79.63-9.17ZM68.26,11a2,2,0,0,1,1,.29C76,15.12,82.7,18.89,89.4,22.69c.27.15.54.34.92.58l.05.05a5.88,5.88,0,0,1-.82.62c-6.8,3.84-13.6,7.65-20.4,11.5a3,3,0,0,1-.41.19,2.09,2.09,0,0,1-1,0,2.28,2.28,0,0,1-.28-.13l-8.31-4.7v0L47.26,24.1c-.33-.19-.65-.41-1.09-.7a4.3,4.3,0,0,1,.67-.56Q57.05,17.08,67.3,11.33A2.44,2.44,0,0,1,68.26,11ZM68-15.53c0,.6.07,1,.06,1.5C68-6.51,67.89,1,67.84,8.51a2.24,2.24,0,0,1-1.23,2.22c-2.56,1.49-5.1,3-7.65,4.5v.07l-12,7.11c-.28.16-.59.29-1.08.52,0-.58-.08-.91-.07-1.25C45.85,14,46,6.26,46-1.46a1.9,1.9,0,0,1,1.07-1.86q6-3.51,12-7h0l7.76-4.56C67.19-15.12,67.54-15.29,68-15.53ZM24.24-16.78q10.1-5.67,20.17-11.36a2,2,0,0,1,2.28,0q6.12,3.5,12.27,7v0l7.46,4.22c.38.21.74.45,1.22.75a4.62,4.62,0,0,1-.66.59l-8,4.52V-11c-4,2.24-8,4.47-12,6.74a2.44,2.44,0,0,1-2.79,0c-6.43-3.71-12.9-7.33-19.36-11l-1.5-.87A8.5,8.5,0,0,1,24.24-16.78ZM23-15.63c.57.3,1,.49,1.4.73C30.9-11.07,37.35-7.21,43.85-3.42a2.21,2.21,0,0,1,1.27,2.18c0,7.52.11,15,.17,22.56,0,.47,0,.94-.06,1.59-.57-.3-1-.5-1.4-.73-6.47-3.83-12.92-7.69-19.42-11.48a2.2,2.2,0,0,1-1.26-2.18C23.13,1,23-6.52,23-14,23-14.51,23-15,23-15.63Zm1,27.12c6.51,3.74,13.07,7.42,19.61,11.12.38.21.74.45,1.22.75a3.79,3.79,0,0,1-.63.6Q33.88,29.78,23.53,35.59a1.47,1.47,0,0,1-1.63,0L1,23.77a4.39,4.39,0,0,1-.52-.42c.49-.31.83-.56,1.2-.77,6.55-3.69,13.12-7.35,19.65-11.08A2.33,2.33,0,0,1,24,11.49ZM22.49-14.27c-.08,7.66-.18,15.33-.25,23a1.76,1.76,0,0,1-.92,1.79Q11.21,16.42,1.13,22.4c-.25.14-.51.25-1,.49,0-.73,0-1.2,0-1.68.09-7.47.2-14.93.24-22.4a2.33,2.33,0,0,1,1.3-2.33c6.59-3.82,13.14-7.71,19.7-11.58.29-.17.6-.29,1.06-.51C22.43-15.08,22.49-14.67,22.49-14.27Zm-43.6-2.59q10-5.62,20-11.25a1.78,1.78,0,0,1,2-.08C7.7-24.32,14.51-20.5,21.3-16.66c.24.14.46.32.83.57a11.17,11.17,0,0,1-1,.7L1-4.06A1.79,1.79,0,0,1-1-4q-10.17-5.8-20.37-11.54c-.25-.14-.47-.32-.92-.63ZM-5.63,19.89c-5.21-3.09-10.41-6.2-15.63-9.25a2.08,2.08,0,0,1-1.22-2.05c0-7.52-.12-15-.18-22.56,0-.47,0-.94.07-1.71l22,13C-.54,5.81-.46,14.24-.38,23ZM-22.56,37.8a1.77,1.77,0,0,1,1.15-1.66L-5.49,26.8c1.59-.93,3.2-1.85,5-2.89,0,.57.09.95.08,1.33-.08,7.66-.18,15.32-.25,23a1.88,1.88,0,0,1-1,1.88C-8.33,54-15,57.94-21.6,61.86c-.29.17-.6.31-1,.51a4,4,0,0,1-.2-.84C-22.73,53.62-22.62,45.71-22.56,37.8Zm20.65,63.41q-9.83-5.82-19.66-11.62a1.89,1.89,0,0,1-1.11-1.82c0-7.71-.12-15.42-.19-23.13,0-.34,0-.68.05-1.17a7.08,7.08,0,0,1,.94.34l20.28,12a1.44,1.44,0,0,1,.86,1.37c.05,8,.13,16,.19,24a6.27,6.27,0,0,1-.1.67C-1.16,101.59-1.55,101.43-1.91,101.21Zm-20.87,16.05A2.33,2.33,0,0,1-21.45,115c6.59-3.83,13.14-7.72,19.7-11.58.28-.17.6-.28,1-.49,0,.49.11.85.11,1.21q-.13,11.56-.25,23.13A1.8,1.8,0,0,1-1.8,129c-6.71,3.92-13.38,7.87-20.07,11.82-.28.16-.59.29-1.1.54,0-.69-.05-1.12,0-1.55C-22.93,132.29-22.82,124.77-22.78,117.26Zm0,50.52c-.07-8.35-.15-16.77-.23-25.54L-1,155.33q.12,12.61.24,25.28C-1.83,180.42-19.87,169.91-22.8,167.78Zm-.36,51.15c.08-7.61.19-15.22.25-22.82a1.9,1.9,0,0,1,1-1.89c6.65-3.89,13.28-7.82,19.92-11.73.32-.19.67-.34,1.14-.57,0,.56.09,1,.09,1.4C-.84,190.88-.95,198.44-1,206a2.22,2.22,0,0,1-1.27,2.18c-6.45,3.76-12.87,7.57-19.29,11.36l-1.52.88C-23.11,219.77-23.16,219.35-23.16,218.93Zm43.73,2.63Q10.49,227.23.41,232.9a1.67,1.67,0,0,1-1.89.1q-10.3-5.87-20.64-11.69c-.2-.12-.37-.28-.72-.54.47-.31.74-.51,1-.68C-15.21,216.38-8.6,212.7-2,209a2.45,2.45,0,0,1,2.8,0c6.47,3.72,13,7.37,19.49,11.05.41.23.8.5,1.36.84C21.18,221.14,20.89,221.38,20.57,221.56ZM-.06,207.4q-.11-12.65-.23-25.32c1.28.32,18.41,10.31,22.06,12.83.08,8.34.16,16.77.24,25.56Zm21.41-13.91Q11.18,187.69,1,182c-.25-.13-.47-.32-.84-.57.45-.3.78-.56,1.13-.76q10-5.64,20-11.26a1.78,1.78,0,0,1,2-.08c6.78,3.87,13.58,7.69,20.37,11.54.24.13.46.31.93.63l-1.22.71q-10,5.61-20,11.26A1.79,1.79,0,0,1,21.35,193.49Zm1.12,25.62c.08-7.7.18-15.42.25-23.13a1.81,1.81,0,0,1,.92-1.8c6.79-4,13.55-8,20.32-12,.21-.12.44-.18.86-.36,0,.58.06,1,.06,1.35q-.14,11.49-.25,23A1.78,1.78,0,0,1,43.7,208q-10.12,5.91-20.2,11.89c-.24.14-.5.25-.9.44A10.12,10.12,0,0,1,22.47,219.11Zm43.4,2.67L59,225.65v.08q-6.35,3.54-12.66,7.12a2.12,2.12,0,0,1-2.41,0c-6.6-3.79-13.24-7.52-19.87-11.26-.34-.19-.65-.41-1.1-.7a5.25,5.25,0,0,1,.78-.65q10.2-5.76,20.42-11.5a1.57,1.57,0,0,1,1.75-.09L59,216.1v0l7.07,4c.36.21.69.47,1.24.84Zm1.65-1.54c-.18-.06-.35-.11-.49-.17l-7.93-4.69v.05l-12.69-7.52a1.43,1.43,0,0,1-.86-1.36q-.07-12-.19-24a3.15,3.15,0,0,1,0-.43c.65.1,7.52,4,13.55,7.55v.16l7.41,4.39a1.77,1.77,0,0,1,1,1.72c0,7.76.13,15.52.19,23.29C67.58,219.48,67.55,219.78,67.52,220.24Zm.36-26.61h-.1a1.82,1.82,0,0,1-.45-.1,3,3,0,0,1-.68-.3c-2.51-1.45-5-2.87-7.55-4.3v0l-11.85-6.71c-.46-.25-.91-.52-1.52-.88a11.48,11.48,0,0,1,1-.76l12.35-6.94h0l7.69-4.34.18-.09.2-.09a2,2,0,0,1,1.33-.08,2.13,2.13,0,0,1,.47.21c6.7,3.83,13.42,7.6,20.14,11.4.28.16.54.37,1,.71-1.22.7-2.22,1.3-3.24,1.87-5.87,3.3-11.76,6.57-17.61,9.91A2.86,2.86,0,0,1,67.88,193.63Zm.32,25.72c.08-7.86.19-15.71.25-23.57a1.63,1.63,0,0,1,0-.33,2.11,2.11,0,0,1,.9-1.22l.19-.12c5.31-3.1,10.61-6.23,15.92-9.34,1.55-.91,3.12-1.8,4.87-2.81a8.19,8.19,0,0,1,.09,1.08c-.08,7.76-.19,15.52-.24,23.28a1.8,1.8,0,0,1-1,1.74q-10,5.9-20.06,11.83c-.22.13-.46.24-.77.39A4.45,4.45,0,0,1,68.2,219.35Zm43.59,2.15q-10.08,5.67-20.15,11.35a2.37,2.37,0,0,1-1,.33,1.69,1.69,0,0,1-.88-.26c-6.77-3.87-13.58-7.69-20.36-11.53-.25-.14-.47-.33-.94-.65l1.59-.91q9.1-5.1,18.19-10.23l1.35-.76a4.42,4.42,0,0,1,.56-.25l.07,0a1.59,1.59,0,0,1,.37-.06,2.17,2.17,0,0,1,1.23.34c6.55,3.76,13.15,7.46,19.73,11.18.37.21.72.45,1.23.77A12,12,0,0,1,111.79,221.5Zm.41-1.74q-9.95-5.89-19.9-11.77a1.79,1.79,0,0,1-1-1.72c0-7.7-.12-15.41-.19-23.12,0-.34,0-.69.09-1.22l.58.3,20.69,12.26a2,2,0,0,1,.55.82c.07,8.27.15,16.5.23,25C112.74,220.06,112.46,219.92,112.2,219.76Zm1.46-26a2.16,2.16,0,0,1-1.06-.33c-6.65-3.8-13.33-7.55-20-11.33-.32-.18-.63-.4-1.06-.69l.29-.26a5.93,5.93,0,0,1,.67-.47c5.55-3.13,11.1-6.24,16.65-9.38l3.44-1.94a2.73,2.73,0,0,1,.47-.21l.06,0a1.71,1.71,0,0,1,.43-.08,2.08,2.08,0,0,1,1.11.32c6.65,3.81,13.34,7.56,20,11.33.32.18.62.4,1.14.75l.06.06-1.35.77c-6.59,3.7-13.2,7.39-19.78,11.13A2.76,2.76,0,0,1,113.66,193.74Zm.18,25q.14-11.34.25-22.67a2.32,2.32,0,0,1,.29-1.3l.06-.09a1.45,1.45,0,0,1,.21-.22,2.08,2.08,0,0,1,.39-.29v0c6.7-3.9,13.37-7.86,20-11.8l.17-.09.72-.35a10.44,10.44,0,0,1,.11,1.13c-.08,7.7-.19,15.41-.25,23.11a1.77,1.77,0,0,1-1,1.77q-10.11,5.91-20.18,11.87c-.22.13-.47.23-.83.4C113.86,219.61,113.83,219.19,113.84,218.77Zm44.46,2.32c-.45.26-.8.47-1.15.66-6.55,3.68-13.11,7.34-19.64,11.06a2.32,2.32,0,0,1-1.3.35,2.84,2.84,0,0,1-1.08-.37c-6.56-3.76-13.15-7.46-19.73-11.18-.37-.2-.7-.47-1.16-.78.49-.31.84-.56,1.21-.77L132,210.77l3.38-1.9.19-.09a1.61,1.61,0,0,1,.33-.15l.18,0a1.76,1.76,0,0,1,.31,0,2.29,2.29,0,0,1,1.1.34c6.61,3.78,13.24,7.51,19.86,11.25.36.21.69.46,1.2.8Zm.55-.89a4.23,4.23,0,0,1-.79-.29l-20.28-12a1.45,1.45,0,0,1-.86-1.37c0-8-.13-16-.19-24a5,5,0,0,1,.08-.6c.45.22.81.39,1.13.58q9.83,5.82,19.65,11.64a3,3,0,0,1,.75.57l.08.1a1.58,1.58,0,0,1,.29,1c0,7.85.13,15.71.19,23.56A7.08,7.08,0,0,1,158.85,220.2Zm.32-26.57a2.76,2.76,0,0,1-1.21-.41c-6.52-3.74-13.07-7.41-19.6-11.11-.37-.21-.72-.46-1.23-.79.37-.26.61-.46.88-.62q10.22-5.73,20.41-11.47a2.14,2.14,0,0,1,.35-.16,1.45,1.45,0,0,1,.94,0,2.15,2.15,0,0,1,.32.13q10.36,5.9,20.75,11.76a7,7,0,0,1,.64.51l-1.44.82c-6.51,3.66-13,7.3-19.5,11A2.64,2.64,0,0,1,159.17,193.63Zm.44,26.67c0-.58-.09-1-.08-1.37.08-7.61.19-15.22.24-22.82a1.92,1.92,0,0,1,1-1.89c6.65-3.89,13.28-7.82,19.92-11.73.28-.17.6-.31,1-.5,0,.52.08.93.08,1.33-.09,7.56-.2,15.12-.24,22.68a2.22,2.22,0,0,1-1.27,2.18c-6.45,3.76-12.87,7.57-19.29,11.36l-1.22.71Zm43.5,1.26Q193,227.23,183,232.9a2.32,2.32,0,0,1-.89.33,1.52,1.52,0,0,1-.85-.23q-10.31-5.87-20.64-11.69c-.19-.11-.35-.26-.66-.49a8.9,8.9,0,0,1,.78-.61l.19-.12c6.6-3.71,13.21-7.39,19.78-11.14a2.84,2.84,0,0,1,1.32-.43,2.74,2.74,0,0,1,1.33.42c6.47,3.72,13,7.37,19.49,11.05.41.23.8.5,1.36.84C203.72,221.14,203.43,221.38,203.11,221.56ZM182.63,207.4c-.08-8.42-.15-16.82-.23-25.27,2.08.82,18.37,10.33,21.91,12.78.08,8.31.16,16.72.24,25.47ZM205,193.75a1.85,1.85,0,0,1-.93-.26q-10.16-5.81-20.37-11.54c-.24-.13-.46-.32-.83-.57.44-.3.77-.56,1.13-.76q10-5.64,20-11.26a2.34,2.34,0,0,1,.94-.34,1.73,1.73,0,0,1,.92.26c6.78,3.87,13.58,7.69,20.37,11.54.24.13.47.31.93.63l-1.22.71q-10,5.61-20,11.26A2.47,2.47,0,0,1,205,193.75Zm.2,25.36c.08-7.7.18-15.42.25-23.13a1.79,1.79,0,0,1,.92-1.8c6.79-4,13.55-8,20.32-12a6.31,6.31,0,0,1,.71-.3c0,.54.06.92.06,1.29q-.13,11.49-.25,23a1.78,1.78,0,0,1-.93,1.78q-10.12,5.91-20.2,11.89c-.2.12-.45.23-.76.38A8.69,8.69,0,0,1,205.16,219.11Zm43.34,2.69c-6.56,3.68-13.12,7.34-19.66,11a2.61,2.61,0,0,1-1.13.38,2.36,2.36,0,0,1-1.13-.35c-6.6-3.79-13.24-7.52-19.87-11.26-.34-.19-.66-.41-1.11-.7a6.51,6.51,0,0,1,.78-.65q10.22-5.76,20.42-11.5a2.26,2.26,0,0,1,.83-.3,1.47,1.47,0,0,1,.79.21q10.43,5.94,20.88,11.85a4.62,4.62,0,0,1,.58.48Zm1.7-1.56a5.06,5.06,0,0,1-.82-.31q-10.14-6-20.29-12a1.43,1.43,0,0,1-.85-1.36q-.08-12-.2-24c0-.13,0-.26.05-.39,1.2.44,7.79,4.18,13.55,7.6v.07L247,193c1.06.66,2,1.24,2.6,1.67a1.59,1.59,0,0,1,.37.66c.07,8.16.15,16.29.22,24.57C250.22,220,250.21,220.11,250.2,220.24Z"/></g><g class="cls-4"><path class="cls-6" d="M251-31.42q5.91,3.51,11.83,7a1.58,1.58,0,0,1,1,1.47c0,8,.12,15.9.19,23.86a7.28,7.28,0,0,1-.09.74c-.52-.28-.92-.48-1.29-.71L251-5.93V-5l11.71,6.63c.25.14.47.31.94.64l-1.33.77L251,9.42v.79l11.56-6.83.52-.3.74-.36,0,.11c0,.58.07,1,.07,1.39-.09,7.52-.2,15-.23,22.55a2.34,2.34,0,0,1-1.36,2.29q-5.68,3.3-11.33,6.65v.81q4.73-2.64,9.44-5.32l2.35-1.32a2.76,2.76,0,0,1,1.46-.46,3.07,3.07,0,0,1,1.34.46c6.39,3.68,12.82,7.28,19.23,10.91l1.53.88a12.5,12.5,0,0,1-1,.76c-6.64,3.74-13.29,7.45-19.91,11.22a2.66,2.66,0,0,1-1.23.39,2.43,2.43,0,0,1-1.16-.36q-6-3.43-12-6.83v.86c3.74,2.22,7.48,4.44,11.24,6.63a2.3,2.3,0,0,1,1.36,2.27c0,7.43.1,14.85.17,22.27,0,.49,0,1,0,1.73l-.4-.19c-4.17-2.44-8.26-4.87-12.33-7.29v1l11.13,6.29c.37.21.72.46,1.23.78-.45.31-.78.57-1.13.77L251,88.23v1l12-7a7.72,7.72,0,0,1,.74-.34c0,.53.07.94.06,1.35-.08,7.61-.18,15.22-.25,22.82a1.77,1.77,0,0,1-.9,1.8q-5.82,3.4-11.61,6.83v.7l8.91-5,2.9-1.63a2.75,2.75,0,0,1,1.08-.36,2.31,2.31,0,0,1,1.24.35c6.56,3.77,13.16,7.47,19.75,11.19.37.21.72.46,1.22.77a9.5,9.5,0,0,1-1,.72c-6.68,3.77-13.37,7.51-20,11.3A2.54,2.54,0,0,1,264,133a1.88,1.88,0,0,1-.52-.08,2.62,2.62,0,0,1-.56-.24c-4-2.28-8-4.53-11.94-6.79v.87l11.57,6.85a1.45,1.45,0,0,1,.86,1.37c0,8,.12,16,.19,24a5.6,5.6,0,0,1-.09.67L251,152.26v.94l10.86,6.15c.4.22.78.47,1.28.77l.06,0a6.61,6.61,0,0,1-.86.67L251,167.22v.8l12-7.08,0,0,.42-.15c0,.5.06.87.06,1.23-.09,7.66-.19,15.31-.25,23a1.78,1.78,0,0,1-.94,1.78q-5.69,3.33-11.37,6.69v.9l6.57-3.71,5.23-2.95a2.58,2.58,0,0,1,1-.3,2.54,2.54,0,0,1,1.28.39c6.55,3.77,13.14,7.46,19.72,11.19.34.18.65.41,1.1.69a5.86,5.86,0,0,1-.67.57q-10.33,5.81-20.67,11.62a2.92,2.92,0,0,1-.36.17,1.68,1.68,0,0,1-.86,0,1.83,1.83,0,0,1-.26-.11q-6-3.44-12.09-6.85v.86l12.2,7.23c.07,8.39.15,16.78.23,25.53-.38-.2-.75-.42-1.12-.63L251,231.32v.93l11.39,6.45c.17.1.31.23.69.52-.56.33-.93.55-1.3.75L251,246v.89l11.65-6.85.47-.23.24-.08c0,.57.06,1,.05,1.4q-.11,9-.2,18.09h1c-.06-6.39-.12-12.8-.17-19.33v-.21c.56.29,1,.48,1.33.7,6.47,3.83,12.93,7.68,19.42,11.48A2.14,2.14,0,0,1,286,254c0,1.76,0,3.53,0,5.29h1c0-1.82,0-3.64.06-5.46A1.78,1.78,0,0,1,288,252q10.17-5.94,20.3-12a6.27,6.27,0,0,1,.68-.33A12,12,0,0,1,309,241q-.1,9.13-.2,18.26h1q-.06-9.21-.15-18.41c0-.31,0-.63.07-1.15.52.27.88.46,1.22.66q9.77,5.79,19.53,11.55a2,2,0,0,1,1.17,1.94c0,1.81,0,3.61,0,5.41h1l.06-5.41a1.8,1.8,0,0,1,.94-1.78q10.17-5.94,20.31-11.95c.17-.1.37-.18.66-.31,0,.11,0,.2.06.29,0,.39,0,.68,0,1q-.11,9.1-.2,18.19h1c-.06-6.45-.12-12.94-.18-19.62l21.92,13,.06,6.63h1c0-1.79,0-3.58,0-5.37a2,2,0,0,1,1.1-2q9.93-5.81,19.81-11.68c.27-.16.57-.29,1-.49l.1.32c0,.4,0,.7,0,1q-.11,9.1-.2,18.21h1c-.06-6.47-.12-13-.18-19.67l22,13q0,3.33.07,6.64h1c0-1.82,0-3.64,0-5.47a1.77,1.77,0,0,1,1-1.76q10-5.88,20.05-11.81c.25-.15.53-.27.89-.44.05.52.1.92.1,1.32q-.1,9.08-.2,18.16h1q-.06-8.91-.13-17.82c0-.5,0-1,0-1.72l.16.08,8.78,5.18v0q5.89,3.51,11.8,7a2.13,2.13,0,0,1,1.21,2.07c0,1.76,0,3.53,0,5.29h.81c0-1.82.05-3.64.06-5.46a1.78,1.78,0,0,1,.94-1.78q10.17-5.94,20.3-12c.21-.13.44-.21.82-.39,0,.5.1.91.1,1.32q-.11,9.13-.2,18.26h.83q-.06-9.21-.15-18.41c0-.33,0-.66.08-1.22.6.32,1,.51,1.36.73q9.77,5.79,19.53,11.55a2,2,0,0,1,1.17,1.94c0,1.81,0,3.61,0,5.41h.81l.06-5.41a1.8,1.8,0,0,1,.94-1.78q10.17-5.94,20.31-11.95c.21-.12.44-.2.85-.4,0,.6.06,1,.06,1.35q-.1,9.1-.2,18.19h.84c-.06-6.48-.12-13-.18-19.71l15.14,9v-.92q-6.82-3.87-13.66-7.73c-.32-.18-.62-.42-1.11-.76l1.38-.8L553,230.79v-.95l-13.51,8-1.52.87c0-.64-.09-1.06-.09-1.48.08-7.56.2-15.12.24-22.68a2.23,2.23,0,0,1,1.26-2.19c4.55-2.64,9.09-5.32,13.62-8v-.58q-7,3.92-13.95,7.87a2.23,2.23,0,0,1-2.53,0c-6.61-3.79-13.25-7.52-19.88-11.26-.33-.19-.64-.42-1.19-.78,1.15-.66,2.06-1.2,3-1.72,6-3.38,12-6.73,18-10.13a2.21,2.21,0,0,1,2.53-.05q7,4,14,8V195c-5.67-3.25-12.84-7.52-14.76-8.88q-.1-12.56-.23-25.26c.75.15,8.74,4.7,15,8.43v-.81L539.76,161c-.41-.23-.8-.49-1.36-.84.51-.34.84-.6,1.2-.8L553,151.79V151l-13.29,7.84-1.52.89c-.05-.63-.11-1-.1-1.47.08-7.61.18-15.21.25-22.82a1.89,1.89,0,0,1,1-1.91c4.57-2.66,9.12-5.35,13.68-8v-.76c-4.66,2.62-9.32,5.23-14,7.87a2,2,0,0,1-2.27,0c-6.65-3.8-13.32-7.55-20-11.32-.33-.19-.64-.41-1.08-.7.43-.29.72-.53,1-.71q10.07-5.65,20.15-11.33a1.78,1.78,0,0,1,2,0q7,4,14.1,8v-.72l-13.67-8.09a1.53,1.53,0,0,1-.9-1.49c-.05-7.91-.14-15.82-.2-23.73a8.54,8.54,0,0,1,.08-.91L553,90.34v-.9l-13.47-7.63a9.16,9.16,0,0,1-.89-.65c.48-.32.82-.57,1.19-.77L553,73V72.1l-9.65,5.66c-1.59.94-3.21,1.85-5.06,2.92,0-.67-.06-1.14,0-1.61.08-7.51.19-15,.23-22.55a2.23,2.23,0,0,1,1.26-2.19c4.44-2.58,8.86-5.2,13.27-7.81V46l-14,7.86a1.55,1.55,0,0,1-1.75.08Q526.91,48,516.52,42.14a6.31,6.31,0,0,1-.64-.5l1.45-.83c6.5-3.66,13-7.29,19.5-11a2.32,2.32,0,0,1,2.66,0q6.75,3.87,13.53,7.69v-.73l-13.31-7.88a1.75,1.75,0,0,1-1.12-1.66c0-7.85-.12-15.71-.19-23.57,0-.24,0-.48.05-.86a5.41,5.41,0,0,1,.94.32L553,11.21v-.9L540,2.92c-.36-.2-.7-.46-1.22-.81l1.4-.81L553-5.93v-.76l-13.65,8a9,9,0,0,1-.85.36c0-.59-.06-1-.06-1.35q.13-11.5.25-23a1.8,1.8,0,0,1,.93-1.79q6.71-3.91,13.38-7.86V-33q-6.85,3.86-13.72,7.73a1.69,1.69,0,0,1-1.89.1c-6.51-3.71-13-7.38-19.55-11.07h-1.32c4,2,19.11,10.92,21.23,12.49q.11,12.56.23,25.26c-1.16-.29-19.8-11.18-22.12-12.9-.08-8.23-.15-16.53-.23-24.85h-.5c0,.36,0,.66,0,1-.08,7.51-.2,15-.23,22.55a2.31,2.31,0,0,1-1.36,2.29c-6.5,3.78-13,7.61-19.44,11.43-.37.21-.76.38-1.3.66,0-.63-.08-1.09-.08-1.56.09-7.52.19-15,.24-22.55a2.24,2.24,0,0,1,1.23-2.21c6.5-3.78,13-7.63,19.44-11.45l.18-.11h-.66q-9.74,5.46-19.46,10.94a1.9,1.9,0,0,1-2.14.08c-6.46-3.7-13-7.35-19.43-11h-1l20.88,12.38q.12,12.66.23,25.32c-1.15-.3-20.23-11.48-22.07-12.9-.07-8.13-.14-16.32-.22-24.8h-.53a4.77,4.77,0,0,1,.06.63c-.08,7.75-.18,15.51-.25,23.26a1.57,1.57,0,0,1-.79,1.57Q462.08-7,455.66-3.18h0L450,.17c-.63.36-1.25.73-1.87,1.1l-.57.28-.18.07a9.67,9.67,0,0,1-.12-1.1c.08-7.7.19-15.41.25-23.11a1.79,1.79,0,0,1,.95-1.79c2.46-1.43,4.91-2.88,7.37-4.32v-.08l12.61-7.43h-1l-12.36,7-7.1,4a2.87,2.87,0,0,1-.4.19l-.23.08-.06,0a1.56,1.56,0,0,1-.68,0,2,2,0,0,1-.49-.2c-6.47-3.7-13-7.35-19.45-11H425.5q10,5.94,20.07,11.88a1.43,1.43,0,0,1,.85,1.37c.05,8,.13,16,.19,24a3.71,3.71,0,0,1-.09.6c-.44-.23-.81-.39-1.13-.59q-9.83-5.8-19.65-11.63a1.75,1.75,0,0,1-1.11-1.67c0-7.85-.13-15.71-.19-23.56a2.74,2.74,0,0,1,0-.4h-.69a3.17,3.17,0,0,1,.05.6c-.08,7.75-.18,15.51-.25,23.26a1.6,1.6,0,0,1-.79,1.57q-10.33,6-20.64,12.15l-.34.14-.17.07c0-.5-.07-.87-.07-1.23.09-7.65.19-15.31.26-23a1.78,1.78,0,0,1,.91-1.79q10-5.86,20-11.8h-.88q-9.67,5.45-19.32,10.88a2.36,2.36,0,0,1-1.86.28,2.76,2.76,0,0,1-.4-.18c-6.45-3.68-12.92-7.32-19.39-11h-1.49c3.61,1.78,17.75,10,21.28,12.47q.12,12.57.23,25.14c-.68-.24-3-1.49-5.95-3.16L381.05-10c-.8-.51-1.49-1-2-1.32-.08-8.22-.16-16.54-.23-24.88h-.68a4.13,4.13,0,0,1,.07.67c-.09,7.71-.19,15.42-.26,23.13a2,2,0,0,1-.43,1.4l-.09.09a2,2,0,0,1-.26.2l-.28.19q-8.42,4.9-16.81,9.85c-1,.57-1.91,1.17-2.88,1.74-.33.19-.69.35-1.13.56l-.08,0c0-.55-.05-.93-.05-1.29q.13-11.5.25-23a1.8,1.8,0,0,1,.93-1.79c6.69-3.9,13.36-7.86,20-11.79h-1.05q-9.73,5.49-19.48,11a2.67,2.67,0,0,1-.42.2l-.1,0a1,1,0,0,1-.22.05,1.2,1.2,0,0,1-.5,0,1.59,1.59,0,0,1-.5-.2c-6.51-3.71-13-7.38-19.55-11.07h-1.46c1.65.85,5.23,2.88,9,5.08h0l6,3.56c2.54,1.52,4.68,2.83,5.73,3.53a2,2,0,0,1,.46.91q.11,12.08.22,24.29c0,.11,0,.2,0,.32-1-.41-4.86-2.6-9.13-5.08l-3.29-1.95v0c-4.41-2.59-8.52-5.08-9.53-5.83-.08-8.23-.15-16.53-.23-24.85h-.65c0,.36,0,.66,0,1-.08,7.51-.2,15-.22,22.55a2.33,2.33,0,0,1-1.37,2.29c-6.5,3.78-13,7.61-19.44,11.43-.33.19-.69.35-1.16.59,0-.59-.07-1-.07-1.49.09-7.52.19-15,.24-22.55a2.24,2.24,0,0,1,1.23-2.21c6.5-3.78,13-7.63,19.44-11.45l.18-.11h-.81q-9.74,5.46-19.45,10.94a2.57,2.57,0,0,1-1,.36,1.9,1.9,0,0,1-1-.28c-6.46-3.7-12.95-7.35-19.43-11h-1.12l20.88,12.38c.08,8.43.15,16.83.23,25.27C307.52.55,289.48-10,287.7-11.41c-.07-8.13-.14-16.32-.22-24.8h-.68a2.79,2.79,0,0,1,.06.63q-.12,11.63-.25,23.26a1.57,1.57,0,0,1-.79,1.57c-6.9,4-13.79,8.12-20.68,12.18a3.33,3.33,0,0,1-.47.19v0c0-.48-.07-.85-.07-1.2.09-7.66.19-15.32.25-23a1.9,1.9,0,0,1,1-1.88c6.68-3.9,13.34-7.84,20-11.76H284.7L265.29-25.3a2.26,2.26,0,0,1-1,.34,1.82,1.82,0,0,1-.89-.26q-6.19-3.54-12.42-7.05Zm13.65,87.63a2.41,2.41,0,0,1,.09-.67,1.7,1.7,0,0,1,.78-.94q10.37-6.08,20.73-12.2a1.41,1.41,0,0,1,.35-.1c0,.42.06.74.06,1.05q-.14,11.64-.25,23.26a1.69,1.69,0,0,1-.92,1.65q-10.17,6-20.3,12c-.18.1-.39.2-.67.33a7.42,7.42,0,0,1-.12-1.08C264.48,71.72,264.58,64,264.65,56.21Zm87.11-3c1.44.89,2.55,1.61,3.11,2,.08,8.33.15,16.72.23,25.45l-21.91-13q-.12-12.6-.23-25.24c1,.37,5.31,2.81,9.91,5.48v0Zm162.7,120.38c.08,8.5.16,16.89.23,25.22l-.21.12a.39.39,0,0,1-.14,0c-.26-.13-.53-.24-.78-.39L492.63,186.2c-.08-8.47-.15-16.88-.23-25.64Zm-22-15.56c.08-7.51.19-15,.24-22.53a2.2,2.2,0,0,1,1.25-2.19c6.49-3.78,12.95-7.62,19.42-11.43l1.4-.82c0,.64.1,1.06.09,1.48-.08,7.6-.18,15.21-.24,22.82a1.9,1.9,0,0,1-1,1.89c-6.66,3.89-13.28,7.82-19.92,11.74-.32.19-.67.33-1.17.59C492.46,159,492.42,158.55,492.42,158.08Zm21.65,14.25c-6.82-3.9-13.66-7.74-20.49-11.61-.21-.12-.39-.27-.71-.5a10,10,0,0,1,.95-.69q10.08-5.68,20.14-11.35a1.81,1.81,0,0,1,2-.1c6.82,3.9,13.66,7.75,20.5,11.61.2.12.38.28.82.59L536,161q-10,5.58-19.91,11.17A1.78,1.78,0,0,1,514.07,172.33Zm0-79.13q-10-5.7-20-11.33c-.33-.19-.63-.42-1.21-.8l1.48-.85c6.51-3.66,13-7.29,19.53-11a2.24,2.24,0,0,1,2.54,0C523,73,529.56,76.66,536.14,80.38c.37.21.73.46,1.23.78-.41.29-.68.54-1,.72-6.67,3.76-13.36,7.5-20,11.29A2,2,0,0,1,514.06,93.2Zm.72-26.65a1.8,1.8,0,0,1-.94,1.79c-6.74,3.93-13.45,7.92-20.17,11.88-.25.15-.52.26-.94.47,0-.51-.11-.92-.11-1.33.09-7.66.19-15.31.26-23a1.76,1.76,0,0,1,.92-1.79c6.79-4,13.55-8,20.31-11.94.21-.12.44-.21.86-.41,0,.58.07,1,.06,1.34C515,51.24,514.85,58.9,514.78,66.55ZM492.64,81.7c.46.22.81.36,1.13.55q9.94,5.9,19.91,11.79a1.75,1.75,0,0,1,1,1.72c0,7.76.13,15.53.2,23.29,0,.33,0,.65-.08,1.13-.42-.2-.72-.32-1-.48q-10-5.94-20-11.86a1.77,1.77,0,0,1-1-1.73c0-7.76-.13-15.52-.2-23.28C492.56,82.5,492.6,82.17,492.64,81.7Zm.6,26.88c6.78,3.88,13.59,7.71,20.38,11.55.25.14.48.32.84.57a9.57,9.57,0,0,1-1,.72c-6.67,3.76-13.37,7.49-20,11.29a2.12,2.12,0,0,1-2.41,0c-6.61-3.77-13.25-7.5-19.87-11.25-.33-.19-.64-.42-1.23-.79.65-.38,1.06-.62,1.48-.85q9.82-5.53,19.66-11.06A1.9,1.9,0,0,1,493.24,108.58Zm-45.18,78.28a1.81,1.81,0,0,1-1.05-1.71c0-7.75-.12-15.51-.18-23.27a11.35,11.35,0,0,1,.07-1.14c.47.24.79.4,1.09.57l7.67,4.55v-.05q6,3.54,11.93,7a2.23,2.23,0,0,1,1.29,2.17c0,7.51.1,15,.17,22.54,0,.47,0,.95-.06,1.59-.48-.23-.83-.36-1.14-.55q-6-3.56-12-7.13v0Q451.94,189.15,448.06,186.86Zm-1.17-28.51q.12-11.49.25-23a1.79,1.79,0,0,1,.91-1.8l7.76-4.55V129l12.2-7.2c.29-.17.59-.31,1-.52a6.55,6.55,0,0,1,.17,1c-.08,7.81-.19,15.61-.24,23.42a1.92,1.92,0,0,1-1.17,1.81q-8.93,5.21-17.82,10.45l-2.8,1.61-.18.09C447,159.14,446.88,158.74,446.89,158.35Zm21.5,13.92-12.58-7.12v-.05l-7.62-4.31c-.29-.16-.55-.36-1-.68h0l1.37-.79,7.28-4.09v-.07l12.45-7a1.88,1.88,0,0,1,2.14,0c6.74,3.84,13.5,7.64,20.25,11.46.24.14.47.31.85.56a8.7,8.7,0,0,1-.94.7q-10.14,5.7-20.28,11.41A1.69,1.69,0,0,1,468.39,172.27Zm1.38,2.6a1.9,1.9,0,0,1,1.06-1.86q10.05-5.87,20.06-11.8c.25-.14.51-.26.89-.44a7.08,7.08,0,0,1,.16,1c-.08,7.8-.18,15.6-.26,23.41a1.58,1.58,0,0,1-.8,1.56c-6.91,4-13.79,8.11-20.69,12.17-.12.07-.27.1-.59.23,0-.54-.08-.92-.07-1.3C469.61,190.19,469.71,182.53,469.77,174.87ZM490.56,159c-6.55-3.87-13.1-7.77-19.66-11.64a1.75,1.75,0,0,1-1-1.7c0-7.77-.12-15.53-.19-23.29,0-.29,0-.58,0-.84l.17-.11s.1,0,.13,0c.27.12.54.24.79.38l20.93,12.41c.08,8.46.16,16.85.23,25.53C491.31,159.35,490.92,159.18,490.56,159Zm-20.88-40.37c.08-7.52.19-15,.24-22.55a2.22,2.22,0,0,1,1.23-2.21c6.5-3.79,13-7.63,19.43-11.46l1.43-.81c0,.73.08,1.19.08,1.66-.09,7.52-.19,15-.24,22.55a2.24,2.24,0,0,1-1.23,2.22c-6.54,3.8-13.05,7.66-19.57,11.5-.37.21-.75.38-1.3.66C469.72,119.52,469.67,119.05,469.68,118.59Zm22.42-38a3.72,3.72,0,0,1-.83-.25l-20.4-12.08a1.44,1.44,0,0,1-.85-1.38c0-8-.13-16-.19-24a5.27,5.27,0,0,1,.1-.66c.53.27.91.44,1.28.66,6.55,3.87,13.09,7.77,19.65,11.63a1.86,1.86,0,0,1,1.1,1.82c0,7.71.12,15.42.19,23.13C492.15,79.78,492.12,80.11,492.1,80.57ZM470.84,69.28C477.4,73,484,76.74,490.57,80.47c.36.2.7.46,1.24.82l-1.39.8c-6.59,3.7-13.2,7.38-19.77,11.12a2,2,0,0,1-2.27,0q-6.27-3.58-12.57-7.13v0l-7.52-4.25c-.24-.13-.46-.31-.92-.63l.08-.06,1.27-.72,7.09-4v-.07q6.26-3.51,12.5-7.06A2.25,2.25,0,0,1,470.84,69.28Zm-1.74-2.67a1.69,1.69,0,0,1-.92,1.65q-6.27,3.67-12.52,7.37h0l-7.19,4.25-.67.39-.7.35c0-.6-.07-1-.06-1.39.08-7.61.18-15.22.24-22.83a1.91,1.91,0,0,1,1-1.87l7.5-4.41V50l13-7.64a3.1,3.1,0,0,1,.49-.14c0,.44.07.77.07,1.09C469.26,51.11,469.16,58.86,469.1,66.61ZM455,86.36l14,8.28q.12,12.63.23,25.3c-.66-.13-7.47-4-13.4-7.51v-.12l-7.68-4.55-.88-.59Q447.13,94.6,447,82C447.84,82.32,451.16,84.15,455,86.36Zm-7.78,22.06a1.42,1.42,0,0,1,.18.08l8.26,4.67v0l11.9,6.73c.38.21.73.46,1.23.77a8.56,8.56,0,0,1-1,.72l-12.13,6.83h0l-7.84,4.42a2.6,2.6,0,0,1-1.19.39,2.5,2.5,0,0,1-1.19-.38q-9.85-5.62-19.75-11.18c-.37-.21-.72-.46-1.21-.78a11.55,11.55,0,0,1,1-.73q10.08-5.67,20.17-11.33l.43-.21A2,2,0,0,1,447.22,108.42Zm-44.85,53,20.73,12.28c.07,8.39.15,16.73.22,25.41-.33-.14-.6-.24-.83-.35l-20.71-12.27a1.31,1.31,0,0,1-.37-.56c-.08-8.32-.15-16.59-.23-25.18Zm-1.17-3.24c.08-7.56.18-15.12.24-22.69a2,2,0,0,1,1.07-2c6.62-3.86,13.21-7.78,19.81-11.67.29-.17.61-.32,1-.52a9.4,9.4,0,0,1,.13,1.15c-.08,7.71-.18,15.42-.25,23.13a2.86,2.86,0,0,1-.16,1l-.12.2a.6.6,0,0,1-.09.13,1.86,1.86,0,0,1-.19.22,3,3,0,0,1-.37.28c-6.74,3.93-13.46,7.91-20.19,11.87l-.51.26-.32.14,0-.13C401.22,158.92,401.19,158.52,401.2,158.13Zm21.27,14c-6.52-3.74-13.07-7.42-19.61-11.12-.38-.21-.74-.45-1.24-.76a6.56,6.56,0,0,1,.81-.66q10.21-5.75,20.42-11.49a2,2,0,0,1,.3-.14,2.07,2.07,0,0,1,1.32.06l20.88,11.84a3.25,3.25,0,0,1,.46.37l-.53.44-.38.24c-6.3,3.55-12.61,7.07-18.89,10.65l-1,.58a3.55,3.55,0,0,1-.64.29l-.09,0a2.66,2.66,0,0,1-.39.07A2.61,2.61,0,0,1,422.47,172.13Zm1.72,2.55a1.58,1.58,0,0,1,.82-1.55q10.35-6.07,20.68-12.18a3.15,3.15,0,0,1,.45-.17c0,.52.06.89.06,1.26-.09,7.65-.19,15.31-.25,23a1.78,1.78,0,0,1-.95,1.78c-6.74,3.94-13.45,7.92-20.17,11.88-.22.13-.46.24-.75.38a6.17,6.17,0,0,1-.15-.95C424,190.29,424.12,182.48,424.19,174.68Zm22-15-21.86-13c-.08-8.42-.16-16.85-.24-25.43a4.81,4.81,0,0,1,.85.31q10.14,6,20.29,12a1.45,1.45,0,0,1,.86,1.37c0,8,.12,16,.19,24A5.6,5.6,0,0,1,446.17,159.7Zm-22-40.73c.08-7.7.18-15.4.24-23.11a1.8,1.8,0,0,1,1-1.77q10.11-5.91,20.18-11.87c.22-.13.46-.23.83-.4,0,.68,0,1.14,0,1.61-.08,7.46-.19,14.92-.23,22.38a2.23,2.23,0,0,1-1.24,2.2q-6.89,4-13.73,8.08l-6,3.53-.43.25-.54.25A7.71,7.71,0,0,1,424.15,119Zm22.27-38.36c-.53-.26-.9-.42-1.22-.61q-9.84-5.82-19.67-11.64a1.76,1.76,0,0,1-1-1.7c0-7.76-.13-15.52-.19-23.28,0-.31,0-.62.09-1.14l21.18,12.55a2,2,0,0,1,.64,1.05c.07,8.16.15,16.27.22,24.59ZM424.35,68.89a2.49,2.49,0,0,1,.45.2c6.74,3.84,13.5,7.64,20.25,11.46.26.15.52.34.95.63-.41.29-.72.52-1.05.72l-.36.2C438,85.78,431.48,89.44,425,93.15a2.52,2.52,0,0,1-1.06.36,2.18,2.18,0,0,1-1.07-.31c-6.64-3.81-13.32-7.55-20-11.32-.32-.19-.63-.41-1.08-.7a12.31,12.31,0,0,1,1-.71q10.08-5.67,20.15-11.33a2.52,2.52,0,0,1,.73-.29A2.23,2.23,0,0,1,424.35,68.89Zm-.93-2.48a2.13,2.13,0,0,1-.77,1.84,2.61,2.61,0,0,1-.27.19l-.11.08c-6.67,3.87-13.3,7.82-19.95,11.73l-.39.2-.38.17a5.29,5.29,0,0,1-.15-1c.08-7.81.18-15.61.25-23.42a1.68,1.68,0,0,1,.91-1.65q10.17-6,20.32-12c.18-.1.38-.19.73-.35,0,.61.06,1,.06,1.43C423.58,51.28,423.48,58.84,423.42,66.41Zm-22,15.31c.56.31,1,.53,1.34.76,6.42,3.8,12.83,7.63,19.28,11.39A2.21,2.21,0,0,1,423.34,96c0,7.51.11,15,.18,22.54,0,.46,0,.91,0,1.53-.4-.18-.72-.31-1-.47q-9.95-5.9-19.9-11.78a1.78,1.78,0,0,1-1-1.71c0-7.76-.12-15.52-.19-23.28C401.34,82.56,401.38,82.24,401.43,81.72Zm.22,26.78.22.1q10.23,5.82,20.49,11.6c.19.11.37.26.75.53-.32.23-.55.42-.79.57l-.37.21-20,11.23a2.3,2.3,0,0,1-.93.32,1.9,1.9,0,0,1-1-.29c-6.69-3.83-13.41-7.6-20.11-11.39-.29-.17-.56-.36-1-.63a7.94,7.94,0,0,1,.82-.63q10.21-5.75,20.41-11.5a1.89,1.89,0,0,1,.36-.16A2.09,2.09,0,0,1,401.65,108.5Zm-38.29,56.72L374,171.51c1.42.88,2.57,1.61,3.23,2.07a1.05,1.05,0,0,1,.23.43c.08,8.21.16,16.49.23,24.79a.69.69,0,0,1,0,.13c-.8-.32-3.71-1.93-7.18-3.91l-12.32-7.31c-1.09-.68-1.95-1.23-2.45-1.58-.07-8.35-.15-16.77-.23-25.21C356.32,161.24,359.58,163,363.36,165.22Zm-7.79-6.93c.08-7.61.18-15.21.25-22.82a1.9,1.9,0,0,1,1-1.91c6.75-3.93,13.46-7.9,20.19-11.86a7.89,7.89,0,0,1,.81-.39c0,.64,0,1.06,0,1.48-.08,7.5-.19,15-.23,22.52a2.23,2.23,0,0,1-1.25,2.2c-6.45,3.76-12.87,7.57-19.29,11.36l-.67.39-.73.36C355.61,159.07,355.56,158.68,355.57,158.29Zm21.27,13.8c-6.53-3.73-13.08-7.41-19.62-11.11-.41-.23-.8-.49-1.36-.84.51-.34.84-.6,1.2-.8q10-5.59,19.92-11.2a2.73,2.73,0,0,1,.81-.31,2.07,2.07,0,0,1,.7,0,2.77,2.77,0,0,1,.49.21c6.74,3.85,13.5,7.65,20.25,11.47a10.07,10.07,0,0,1,.91.65,10.5,10.5,0,0,1-.9.64L399,161c-6.59,3.71-13.2,7.4-19.78,11.15a3.24,3.24,0,0,1-.62.27.61.61,0,0,1-.13,0,2.38,2.38,0,0,1-.37.06A2.51,2.51,0,0,1,376.84,172.09Zm1.71,2.78a1.92,1.92,0,0,1,1-1.88q10-5.84,19.94-11.74l.91-.46a10.75,10.75,0,0,1,.13,1.12c-.08,7.71-.18,15.42-.25,23.13a2,2,0,0,1-.51,1.48l0,0a2.32,2.32,0,0,1-.39.29l-.13.09q-10,5.87-20,11.8c-.18.1-.39.19-.67.32l-.17.07c0-.54-.07-.91-.06-1.28C378.39,190.19,378.49,182.53,378.55,174.87Zm17.26-18-16.2-9.6c-.41-.26-.72-.47-.94-.63q-.1-12.59-.23-25.17c.82.32,4.08,2.12,7.86,4.29l10.88,6.45c1.47.91,2.61,1.64,3.18,2.05.07,8.22.15,16.52.22,25.15C400.16,159.29,398.3,158.29,395.81,156.88Zm-17.36-38c.09-7.7.19-15.4.25-23.11a1.7,1.7,0,0,1,.92-1.65q10.23-6,20.43-12c.14-.08.31-.15.54-.26a9.38,9.38,0,0,1,.13,1.07q-.14,11.63-.26,23.26a1.56,1.56,0,0,1-.79,1.57c-6.9,4-13.78,8.12-20.67,12.18h0a4.68,4.68,0,0,1-.44.17C378.49,119.56,378.45,119.19,378.45,118.83Zm22.32-38.35c-.9-.38-4.45-2.37-8.45-4.69q-4.27-2.55-8.57-5.06c-2-1.22-3.66-2.24-4.52-2.81a1.89,1.89,0,0,1-.41-.73c-.08-8.18-.16-16.43-.23-25l.49.25L400,54.81a1.88,1.88,0,0,1,.57,1c.08,8.16.15,16.27.23,24.41C400.78,80.3,400.78,80.38,400.77,80.48Zm-21.68-11.4q10.25,5.83,20.51,11.61c.21.13.4.27.75.51a9.6,9.6,0,0,1-.92.71q-10.08,5.69-20.16,11.35l-.33.16a1.84,1.84,0,0,1-1.18.09,2.21,2.21,0,0,1-.37-.15c-6.78-3.87-13.59-7.7-20.38-11.55a9.16,9.16,0,0,1-.89-.65c.48-.32.82-.57,1.19-.77q10-5.61,19.91-11.2a2.48,2.48,0,0,1,1-.36A1.64,1.64,0,0,1,379.09,69.08Zm-1.35-2.33a1.74,1.74,0,0,1-.05.34,2.07,2.07,0,0,1-.84,1.17l-.25.16-15.92,9.34c-1.54.91-3.11,1.8-4.89,2.82l0-.13c0-.55-.05-1-.05-1.38.09-7.51.2-15,.24-22.55a2.23,2.23,0,0,1,1.26-2.19c6.5-3.79,13-7.63,19.44-11.46l1.06-.61.08,0a4.53,4.53,0,0,1,.19,1C377.9,51,377.79,58.89,377.74,66.75Zm-22,15c.36.19.71.4,1.06.6l20.77,12.31c.08,8.44.16,16.8.23,25.37l-.22-.07a5.07,5.07,0,0,1-.77-.34q-10-5.93-20-11.86a1.53,1.53,0,0,1-.9-1.49c-.05-7.91-.14-15.82-.2-23.73A5.35,5.35,0,0,1,355.78,81.75Zm.45,26.83c6.74,3.84,13.5,7.64,20.24,11.46.27.15.53.34.95.63-.39.27-.69.5-1,.69l-.4.23q-9.24,5.19-18.48,10.39l-1.19.67a2.67,2.67,0,0,1-1,.35,2.14,2.14,0,0,1-1.06-.32c-6.65-3.8-13.32-7.55-20-11.32-.32-.19-.63-.41-1.07-.7.43-.29.72-.53,1-.71q10.06-5.65,20.15-11.33a2.09,2.09,0,0,1,1-.32A1.84,1.84,0,0,1,356.23,108.58Zm-24.45,65.06c.07,8.5.15,16.89.23,25.22l-.22.12h0c-.26-.12-.51-.23-.75-.37L310.09,186.2c-.08-8.44-.15-16.83-.23-25.55Zm-21.9-15.56c.08-7.51.19-15,.24-22.53a2.2,2.2,0,0,1,1.25-2.19c6.49-3.78,12.95-7.62,19.42-11.43l1.26-.73c0,.58.09,1,.08,1.39-.08,7.6-.18,15.21-.24,22.82a1.9,1.9,0,0,1-1,1.89q-10,5.83-19.92,11.74c-.29.17-.61.31-1,.52C309.91,159,309.88,158.53,309.88,158.08Zm21.65,14.25c-6.82-3.9-13.66-7.74-20.49-11.61-.21-.12-.39-.27-.71-.5a10,10,0,0,1,.95-.69q10.07-5.68,20.14-11.35a2.64,2.64,0,0,1,.95-.35,1.76,1.76,0,0,1,.93.25c6.81,3.9,13.66,7.75,20.49,11.61.19.11.37.26.74.53-.32.23-.55.42-.8.57l-.23.13-3.5,2q-8.31,4.67-16.6,9.32a2.6,2.6,0,0,1-.95.36A1.71,1.71,0,0,1,331.53,172.33Zm1.34,2.5a1.9,1.9,0,0,1,1-1.89c6.66-3.89,13.29-7.83,19.93-11.75.26-.15.54-.28.88-.44a2.8,2.8,0,0,1,.18.78c-.07,7.91-.18,15.81-.24,23.72a1.74,1.74,0,0,1-.09.59h0a2.08,2.08,0,0,1-1.06,1.07l-15.92,9.34c-1.55.91-3.12,1.8-4.88,2.81,0-.52-.08-.89-.07-1.24C332.7,190.16,332.8,182.49,332.87,174.83Zm21.23-15.59q-10.16-6-20.28-12a1.45,1.45,0,0,1-.86-1.37c0-8-.13-16-.19-24a3.87,3.87,0,0,1,.09-.6c.44.23.8.39,1.13.58,6.55,3.88,13.09,7.78,19.65,11.63a1.86,1.86,0,0,1,1.11,1.82c0,7.71.12,15.42.19,23.12,0,.33,0,.66,0,1.12A3.53,3.53,0,0,1,354.1,159.24ZM332.82,119c.09-7.71.19-15.42.25-23.13a1.8,1.8,0,0,1,.95-1.78c6.71-3.91,13.38-7.87,20.07-11.81.25-.15.53-.27,1-.48,0,.65,0,1.07,0,1.49-.09,7.51-.2,15-.23,22.55a2.34,2.34,0,0,1-1.32,2.29l-1.76,1c-6,3.5-12,7-18,10.57a8.85,8.85,0,0,1-.9.42C332.88,119.66,332.82,119.31,332.82,119Zm.89-49.77c6.56,3.77,13.16,7.47,19.74,11.19.38.21.73.46,1.23.78-.4.29-.68.54-1,.72-6.68,3.76-13.37,7.5-20,11.29a2.52,2.52,0,0,1-1.06.36,2.16,2.16,0,0,1-1.07-.33q-10-5.7-20-11.33c-.33-.19-.63-.42-1.21-.8l1.48-.85c6.51-3.66,13-7.29,19.53-11a2.77,2.77,0,0,1,1.2-.41A2.48,2.48,0,0,1,333.71,69.19Zm-1.61-2.64a1.8,1.8,0,0,1-.94,1.79c-6.74,3.93-13.46,7.92-20.18,11.88-.21.13-.47.24-.8.4,0-.47-.1-.87-.1-1.26.09-7.66.19-15.31.26-23a1.76,1.76,0,0,1,.92-1.79c6.79-4,13.55-8,20.31-11.94.18-.11.39-.19.72-.35,0,.55.06.92,0,1.28C332.26,51.24,332.16,58.9,332.1,66.55Zm-22,15.21c.39.19.71.32,1,.49Q321,88.15,331,94a1.77,1.77,0,0,1,1,1.72c0,7.76.12,15.53.19,23.29,0,.31,0,.63-.07,1.06a8.85,8.85,0,0,1-.86-.41q-10-5.94-20-11.86a1.77,1.77,0,0,1-1-1.73c0-7.76-.13-15.52-.2-23.28C310,82.52,310.06,82.2,310.09,81.76Zm.47,26.82c6.77,3.88,13.58,7.71,20.37,11.55.25.14.48.32.84.57a9.57,9.57,0,0,1-1,.72c-6.67,3.76-13.37,7.49-20,11.29a2.39,2.39,0,0,1-1.13.34,2.48,2.48,0,0,1-1.13-.38c-6.61-3.77-13.25-7.5-19.87-11.25-.34-.19-.64-.42-1.23-.79.65-.38,1.06-.62,1.48-.85q9.83-5.53,19.66-11.06a2.56,2.56,0,0,1,1.18-.4A1.81,1.81,0,0,1,310.56,108.58Zm-23.33,66.29a1.9,1.9,0,0,1,1.06-1.86q10.05-5.87,20.06-11.8c.21-.12.45-.23.75-.38a4.34,4.34,0,0,1,.15.94c-.08,7.8-.18,15.6-.25,23.41a1.61,1.61,0,0,1-.81,1.56c-6.91,4-13.79,8.11-20.69,12.17a2.72,2.72,0,0,1-.45.17c0-.51-.07-.88-.06-1.24C287.07,190.19,287.17,182.53,287.23,174.87Zm-.52-2.34a1.8,1.8,0,0,1-.86-.26q-10.23-5.82-20.49-11.6c-.21-.12-.39-.27-.78-.54.48-.31.79-.54,1.12-.73q10-5.62,20-11.26a2.38,2.38,0,0,1,1-.34,2,2,0,0,1,1,.3c6.73,3.84,13.49,7.64,20.24,11.46.25.14.48.31.85.56a8.7,8.7,0,0,1-.94.7q-10.14,5.7-20.28,11.41A2.3,2.3,0,0,1,286.71,172.53ZM308,159c-6.55-3.87-13.1-7.77-19.66-11.64a1.75,1.75,0,0,1-1-1.7c0-7.77-.12-15.53-.19-23.29,0-.29,0-.58,0-.84l.17-.11h0c.26.12.51.22.75.36L309,134.14c.08,8.43.16,16.8.24,25.46C308.72,159.33,308.35,159.16,308,159Zm-20.88-40.37c.08-7.52.19-15,.23-22.55a2.24,2.24,0,0,1,1.24-2.21c6.5-3.79,13-7.63,19.43-11.46l1.29-.73c0,.68.07,1.13.07,1.58-.08,7.52-.19,15-.24,22.55a2.22,2.22,0,0,1-1.23,2.22c-6.54,3.8-13.05,7.66-19.57,11.5-.33.19-.69.35-1.16.59C287.17,119.48,287.13,119,287.14,118.59Zm22.27-38a2.86,2.86,0,0,1-.68-.22q-10.2-6-20.41-12.08a1.45,1.45,0,0,1-.84-1.38c-.05-8-.13-16-.19-24a4.75,4.75,0,0,1,.09-.59c.45.22.81.39,1.14.59,6.55,3.87,13.09,7.77,19.65,11.63a1.85,1.85,0,0,1,1.1,1.82c0,7.71.12,15.42.19,23.13C309.46,79.77,309.43,80.1,309.41,80.54ZM288.15,69.28c6.56,3.76,13.15,7.46,19.73,11.19.37.2.71.46,1.24.82l-1.39.8c-6.59,3.7-13.19,7.38-19.77,11.12a2.23,2.23,0,0,1-1.06.34,2.29,2.29,0,0,1-1.06-.34C279.23,89.43,272.6,85.71,266,82c-.37-.21-.7-.46-1.17-.78.49-.31.83-.56,1.2-.77C272.6,76.7,279.2,73,285.77,69.27A2.55,2.55,0,0,1,287,68.9,2.46,2.46,0,0,1,288.15,69.28Zm-15,43.07v0l-5-3c-1.67-1-2.95-1.84-3.5-2.25-.08-8.22-.15-16.51-.23-25.11a46.82,46.82,0,0,1,4.6,2.4l17.31,10.26q.12,12.61.23,25.25C285.32,119.42,278.79,115.7,273.12,112.35Zm-8.63,23a1.9,1.9,0,0,1,1-1.87q10-5.84,19.94-11.74c.25-.15.53-.28.88-.45a4.59,4.59,0,0,1,.16,1c-.08,7.81-.18,15.61-.24,23.42a1.92,1.92,0,0,1-1.17,1.81q-8.91,5.21-17.81,10.45l-3,1.72a1.5,1.5,0,0,0,0-.22c0-.56,0-1,0-1.37C264.33,150.49,264.44,142.93,264.49,135.36Zm20.82,63.24q-10-5.88-19.9-11.78a1.66,1.66,0,0,1-1-1.57c0-7.85-.12-15.7-.19-23.56,0-.26,0-.53.09-1,.57.31,1,.53,1.35.76,6.43,3.8,12.84,7.62,19.28,11.39a2.21,2.21,0,0,1,1.29,2.17c0,7.51.11,15,.17,22.54,0,.46,0,.92-.05,1.52A8.63,8.63,0,0,1,285.31,198.6ZM264,237.39c.08-7.71.18-15.42.25-23.14a2.5,2.5,0,0,1,.13-.81,2,2,0,0,1,.65-.84l.12-.1a.41.41,0,0,0,.11-.07c6.69-3.9,13.34-7.85,20-11.78.25-.15.53-.27.94-.46,0,.53.07.86.07,1.19-.09,7.71-.2,15.42-.25,23.13a1.92,1.92,0,0,1-1.08,1.86c-6.66,3.89-13.3,7.82-19.94,11.73-.25.15-.53.27-.89.44A9,9,0,0,1,264,237.39Zm43.79,2.45c-6.72,3.78-13.45,7.54-20.17,11.35a2.39,2.39,0,0,1-1.06.36,2.27,2.27,0,0,1-1.07-.33c-6.65-3.81-13.33-7.56-20-11.33-.29-.17-.58-.38-1-.69a5.13,5.13,0,0,1,.52-.47l1.33-.77,5.74-3.24q6.59-3.67,13.13-7.4a3.08,3.08,0,0,1,1.34-.45,2.58,2.58,0,0,1,1.31.41c6.43,3.71,12.9,7.33,19.35,11l1.5.88A8.81,8.81,0,0,1,307.83,239.84Zm1.22-1.23c-.5-.25-.89-.44-1.26-.66-6.47-3.83-12.92-7.68-19.42-11.48a2.21,2.21,0,0,1-1.27-2.18c0-7.51-.11-15-.17-22.55,0-.45,0-.91.05-1.52.5.25.9.44,1.26.66,6.47,3.83,12.93,7.68,19.42,11.48a2.2,2.2,0,0,1,1.26,2.18c0,7.51.12,15,.18,22.56C309.11,237.54,309.07,238,309.05,238.61Zm.43-26.64a2.74,2.74,0,0,1-1.27-.4c-6.51-3.75-13.07-7.42-19.61-11.12-.38-.22-.74-.46-1.22-.75a3.9,3.9,0,0,1,.63-.61q10.33-5.82,20.68-11.63a2,2,0,0,1,.75-.24,1.57,1.57,0,0,1,.74.22q10.44,5.94,20.89,11.84a5.82,5.82,0,0,1,.51.42c-.48.32-.83.57-1.2.77-6.55,3.69-13.11,7.36-19.64,11.08A2.84,2.84,0,0,1,309.48,212Zm.25,25.35c.08-7.66.18-15.32.25-23a1.76,1.76,0,0,1,.92-1.79c6.75-3.94,13.47-7.93,20.19-11.89.22-.13.47-.24.86-.43,0,.69,0,1.15,0,1.61-.09,7.47-.19,14.94-.23,22.41a2.33,2.33,0,0,1-1.31,2.32c-6.59,3.82-13.13,7.71-19.7,11.58-.25.15-.54.27-.92.45C309.79,238.11,309.73,237.71,309.73,237.32Zm43.9,2.34-.44.25-2.91,1.64-7.41,4.16h0c-3.24,1.82-6.48,3.63-9.71,5.46a2.34,2.34,0,0,1-.94.34,1.85,1.85,0,0,1-.93-.26c-6.77-3.87-13.58-7.7-20.37-11.54-.24-.14-.46-.32-.83-.57a10.85,10.85,0,0,1,1-.69q10.06-5.67,20.15-11.34a2.5,2.5,0,0,1,.94-.34,1.8,1.8,0,0,1,.93.27c6.77,3.87,13.57,7.69,20.36,11.53.23.13.45.3.85.58A7.34,7.34,0,0,1,353.63,239.66Zm1.05-1.31a38.51,38.51,0,0,1-3.72-1.9L332.83,225.7c-.07-8.43-.15-16.83-.23-25.56l5.1,3c5.21,3.09,10.41,6.19,15.64,9.24a2.1,2.1,0,0,1,1.22,2.06c0,7.52.11,15,.18,22.55C354.74,237.41,354.71,237.8,354.68,238.35Zm-.19-26.47a2.89,2.89,0,0,1-.49-.21c-6.61-3.79-13.25-7.52-19.88-11.26-.33-.19-.64-.42-1.19-.78,1.15-.66,2.06-1.2,3-1.72,6-3.38,12-6.73,18-10.13a2,2,0,0,1,2.38-.05c6.56,3.76,13.17,7.46,19.75,11.18.37.21.73.46,1.23.77a9.1,9.1,0,0,1-1,.73c-6.62,3.73-13.26,7.44-19.87,11.2l-.11,0a1.28,1.28,0,0,1-.24.11A2.28,2.28,0,0,1,354.49,211.88Zm.95,26.63c0-.54-.08-.93-.08-1.3.08-7.56.2-15.12.24-22.68a2.23,2.23,0,0,1,1.26-2.19c6.45-3.75,12.87-7.56,19.3-11.35.36-.22.74-.43,1.21-.7l.19-.06c0,.63.06,1.07.06,1.51-.09,7.51-.2,15-.24,22.53a2.21,2.21,0,0,1-1.27,2.18c-6.45,3.76-12.86,7.57-19.29,11.37l-.75.44-.62.29S355.44,238.52,355.44,238.51ZM399,239.92c-2.68,1.51-5.36,3-8.05,4.53L387,246.64l-8.22,4.62a2.73,2.73,0,0,1-.31.14,1.78,1.78,0,0,1-1.16,0,3.26,3.26,0,0,1-.39-.18q-10.05-5.73-20.12-11.39c-.32-.18-.62-.42-1.11-.76l1.38-.8c6.55-3.68,13.11-7.34,19.63-11.06a2.51,2.51,0,0,1,1.24-.37,2.57,2.57,0,0,1,1.15.37c6.56,3.76,13.15,7.46,19.73,11.19.36.2.7.46,1.17.77C399.57,239.51,399.28,239.75,399,239.92Zm1.39-1.41-.33-.08a6,6,0,0,1-.67-.34q-9.94-5.88-19.9-11.77a1.76,1.76,0,0,1-1-1.73c0-7.71-.13-15.42-.19-23.13a11.45,11.45,0,0,1,.08-1.19c.4.18.72.32,1,.48q9.94,5.9,19.9,11.78a1.76,1.76,0,0,1,1,1.73c0,7.71.12,15.42.19,23.13C400.42,237.72,400.38,238.07,400.34,238.51Zm.44-26.51a2,2,0,0,1-1-.3c-6.69-3.82-13.41-7.59-20.11-11.39-.29-.16-.56-.36-1-.63a9.66,9.66,0,0,1,.82-.63q10.2-5.73,20.41-11.48a2,2,0,0,1,.87-.29,1.78,1.78,0,0,1,.87.25c6.82,3.89,13.66,7.74,20.49,11.61.21.11.39.27.84.58l-1.32.76q-9.94,5.58-19.9,11.19a3.82,3.82,0,0,1-.51.24.58.58,0,0,0-.14,0A1.35,1.35,0,0,1,400.78,212Zm.27,25.35c.08-7.66.19-15.31.24-23a1.93,1.93,0,0,1,1.06-1.87c6.7-3.9,13.37-7.85,20.06-11.79.21-.13.46-.24.75-.38a4.34,4.34,0,0,1,.15.94c-.08,7.8-.18,15.6-.25,23.41a1.59,1.59,0,0,1-.81,1.55q-10.35,6.06-20.68,12.18l-.46.17C401.08,238.08,401,237.71,401.05,237.35Zm43.46,2.59c-6.59,3.71-13.2,7.4-19.77,11.15-.19.1-.36.17-.53.24a2.3,2.3,0,0,1-.35.1h0a2,2,0,0,1-.9-.06,3,3,0,0,1-.59-.26c-6.56-3.76-13.16-7.46-19.75-11.19-.37-.21-.72-.46-1.22-.78.41-.29.69-.55,1-.72q10.1-5.67,20.18-11.34a2,2,0,0,1,1-.31,1.91,1.91,0,0,1,.91.28q10.17,5.79,20.38,11.54a10.9,10.9,0,0,1,.93.65C445.18,239.57,444.85,239.76,444.51,239.94Zm-9.37-7.72c-3.66-2.15-7.3-4.32-11-6.51-.07-8.44-.15-16.83-.23-25.56l21.91,13c.08,8.39.16,16.79.24,25.49C442.24,236.53,438.71,234.32,435.14,232.22Zm11.36-20.16a2,2,0,0,1-1-.3q-10-5.73-20.11-11.39c-.27-.16-.54-.34-.91-.58l-.06-.06a8,8,0,0,1,.82-.62l20.4-11.49a2.12,2.12,0,0,1,.41-.19,2.08,2.08,0,0,1,1.05,0l.28.12c2.76,1.58,5.54,3.14,8.31,4.71v0c3.94,2.24,7.89,4.46,11.84,6.7.33.18.65.41,1.09.69a4.53,4.53,0,0,1-.67.57q-10.21,5.76-20.46,11.51A2.44,2.44,0,0,1,446.5,212.06Zm.25,26.52c0-.59-.08-1.05-.07-1.49.08-7.52.19-15,.24-22.55a2.22,2.22,0,0,1,1.23-2.21c2.56-1.49,5.11-3,7.66-4.5v-.08l12-7.1c.28-.17.59-.29,1.08-.52,0,.57.08.91.07,1.25-.08,7.71-.19,15.42-.24,23.13a1.92,1.92,0,0,1-1.08,1.86q-6,3.51-12,7h0L447.9,238C447.57,238.18,447.22,238.34,446.75,238.58Zm43.77,1.26c-6.72,3.78-13.46,7.54-20.17,11.35a2,2,0,0,1-2.28,0c-4.08-2.34-8.17-4.65-12.26-7v0L448.34,240c-.37-.21-.74-.46-1.22-.75a4.77,4.77,0,0,1,.66-.6l8-4.52v-.08q6-3.34,11.94-6.74a2.47,2.47,0,0,1,2.8,0c6.42,3.71,12.89,7.33,19.35,11l1.5.88A10.13,10.13,0,0,1,490.52,239.84Zm1.21-1.15c-.57-.3-1-.5-1.4-.74-6.47-3.83-12.92-7.68-19.42-11.48a2.21,2.21,0,0,1-1.27-2.18c0-7.51-.11-15-.17-22.55,0-.47,0-1,.06-1.6.57.3,1,.5,1.4.74,6.47,3.83,12.92,7.68,19.42,11.48a2.2,2.2,0,0,1,1.26,2.18c0,7.51.11,15,.18,22.56C491.79,237.56,491.76,238,491.73,238.69Zm-1-27.12c-6.51-3.75-13.07-7.42-19.61-11.12-.38-.22-.74-.46-1.22-.75a3.9,3.9,0,0,1,.63-.61q10.33-5.82,20.68-11.63a1.48,1.48,0,0,1,1.63,0q10.44,5.94,20.89,11.84a4.39,4.39,0,0,1,.52.42c-.49.32-.83.57-1.2.77-6.55,3.69-13.12,7.36-19.65,11.08A2.33,2.33,0,0,1,490.75,211.57Zm1.52,25.75c.08-7.66.18-15.32.25-23a1.76,1.76,0,0,1,.92-1.79c6.75-3.94,13.47-7.93,20.19-11.89.25-.15.51-.25,1-.5,0,.73,0,1.21,0,1.68-.09,7.47-.2,14.94-.23,22.41a2.33,2.33,0,0,1-1.31,2.32c-6.59,3.82-13.14,7.71-19.7,11.58-.29.17-.6.29-1.06.51C492.33,238.14,492.27,237.73,492.27,237.32Zm43.61,2.59q-10,5.63-20,11.26a1.81,1.81,0,0,1-2,.08c-6.77-3.87-13.58-7.7-20.37-11.54-.24-.14-.46-.32-.83-.57.41-.28.69-.52,1-.69q10.07-5.67,20.15-11.34a1.78,1.78,0,0,1,2-.07c6.78,3.87,13.58,7.69,20.37,11.53.25.14.47.32.93.64Zm-15.49-36.74c5.21,3.09,10.41,6.19,15.64,9.24a2.09,2.09,0,0,1,1.21,2.06c0,7.52.12,15,.18,22.55,0,.47,0,.94-.07,1.71l-22-13c-.07-8.46-.15-16.88-.23-25.64Zm16.94-17.92a1.78,1.78,0,0,1-1.15,1.66l-15.93,9.34c-1.59.94-3.2,1.85-5,2.89,0-.57-.09-.95-.08-1.32.08-7.66.18-15.33.25-23a1.9,1.9,0,0,1,1-1.89c6.66-3.89,13.29-7.83,19.93-11.75.29-.17.6-.3,1-.51a4.1,4.1,0,0,1,.2.85C537.49,169.44,537.38,177.34,537.33,185.25Zm-20.65-63.41c6.54,3.88,13.08,7.78,19.65,11.63a1.88,1.88,0,0,1,1.11,1.82c0,7.71.12,15.42.19,23.12,0,.34,0,.68,0,1.17a4.93,4.93,0,0,1-1-.34q-10.15-6-20.28-12a1.45,1.45,0,0,1-.86-1.37c0-8-.13-16-.19-24a5.87,5.87,0,0,1,.1-.66C515.92,121.46,516.32,121.63,516.68,121.84Zm20.86-16a2.33,2.33,0,0,1-1.33,2.31c-6.59,3.82-13.14,7.71-19.7,11.58-.28.16-.6.28-1,.48-.05-.48-.11-.85-.11-1.21.09-7.71.19-15.42.25-23.13a1.8,1.8,0,0,1,.95-1.78c6.71-3.91,13.38-7.87,20.07-11.81.28-.17.59-.3,1.1-.55,0,.69,0,1.13,0,1.56C537.69,90.76,537.58,98.28,537.54,105.8Zm0-50.53c.08,8.36.15,16.77.23,25.54L515.73,67.73q-.12-12.63-.23-25.28C516.59,42.64,534.63,53.15,537.56,55.27Zm.36-51.14c-.08,7.6-.19,15.21-.25,22.82a1.87,1.87,0,0,1-1,1.88q-10,5.84-19.92,11.74c-.32.19-.67.33-1.14.56,0-.56-.09-1-.08-1.4.08-7.56.19-15.11.23-22.67A2.23,2.23,0,0,1,517,14.87q9.68-5.64,19.29-11.36l1.52-.87C537.87,3.29,537.92,3.71,537.92,4.13ZM494.19,1.5C500.91-2.29,507.64-6,514.36-9.85a1.67,1.67,0,0,1,1.88-.09q10.31,5.86,20.64,11.69a8.11,8.11,0,0,1,.72.53c-.47.31-.74.51-1,.68-6.6,3.71-13.21,7.4-19.78,11.15a2.45,2.45,0,0,1-2.8,0c-6.47-3.72-13-7.37-19.49-11-.41-.24-.8-.5-1.36-.85C493.59,1.91,493.87,1.68,494.19,1.5Zm20.63,14.16c.08,8.43.15,16.85.23,25.31-1.27-.31-18.41-10.3-22.06-12.82-.08-8.35-.16-16.78-.24-25.56ZM493.41,29.57q10.17,5.79,20.37,11.53c.25.14.47.32.84.58-.44.3-.77.55-1.13.76q-10,5.63-20,11.26a1.79,1.79,0,0,1-2,.08c-6.78-3.88-13.58-7.7-20.37-11.54-.24-.14-.46-.32-.93-.64l1.23-.7q10-5.62,20-11.26A1.78,1.78,0,0,1,493.41,29.57ZM492.29,3.94c-.08,7.71-.18,15.42-.25,23.13a1.81,1.81,0,0,1-.92,1.8c-6.79,4-13.55,8-20.32,12a8.88,8.88,0,0,1-.86.37c0-.59-.06-1-.06-1.35q.14-11.51.25-23a1.8,1.8,0,0,1,.93-1.79q10.13-5.91,20.2-11.89c.24-.14.5-.25.9-.44A10.34,10.34,0,0,1,492.29,3.94ZM448.9,1.28l6.91-3.88v-.07q6.33-3.55,12.65-7.13a2.11,2.11,0,0,1,2.41,0c6.6,3.79,13.24,7.51,19.87,11.25.34.19.66.42,1.11.7a7.87,7.87,0,0,1-.78.66q-10.21,5.75-20.42,11.49a1.57,1.57,0,0,1-1.76.09L455.81,7v0l-7.08-4c-.36-.2-.69-.46-1.24-.83C448.08,1.74,448.49,1.51,448.9,1.28Zm-1.65,1.54.48.16,7.93,4.69v0q6.34,3.77,12.7,7.52a1.46,1.46,0,0,1,.85,1.37q.07,12,.19,24a3,3,0,0,1,0,.43c-.65-.09-7.51-4-13.54-7.55v-.15c-2.48-1.47-4.95-2.94-7.42-4.39a1.79,1.79,0,0,1-1-1.72c0-7.77-.13-15.53-.19-23.29C447.18,3.57,447.21,3.28,447.25,2.82Zm-.37,26.6h.1a2.39,2.39,0,0,1,.45.09,3.7,3.7,0,0,1,.69.31c2.5,1.44,5,2.87,7.54,4.29v0l11.85,6.71,1.52.88a9.79,9.79,0,0,1-1,.76l-12.35,7h0L448,53.71l-.18.09-.2.09a2,2,0,0,1-1.32.09,3.9,3.9,0,0,1-.48-.21c-6.69-3.83-13.42-7.61-20.13-11.4-.29-.17-.55-.37-1-.72,1.22-.7,2.22-1.29,3.24-1.86,5.87-3.3,11.76-6.58,17.61-9.91A2.89,2.89,0,0,1,446.88,29.42ZM446.56,3.7c-.08,7.86-.19,15.72-.24,23.58,0,.12,0,.22-.05.33a2.15,2.15,0,0,1-.91,1.21l-.19.12-15.92,9.34c-1.55.91-3.12,1.8-4.87,2.81,0-.46-.09-.77-.09-1.08.08-7.76.19-15.52.25-23.28a1.78,1.78,0,0,1,1-1.74Q435.6,9.11,445.61,3.16a7.93,7.93,0,0,1,.77-.38A4.25,4.25,0,0,1,446.56,3.7ZM403,1.55q10.08-5.67,20.15-11.34a2.25,2.25,0,0,1,1-.34,1.9,1.9,0,0,1,.88.26c6.77,3.87,13.58,7.7,20.37,11.54.24.14.46.32.93.64l-1.59.92q-9.1,5.1-18.19,10.22l-1.35.76a3.34,3.34,0,0,1-.56.25l-.06,0a1.8,1.8,0,0,1-.38.07,2.35,2.35,0,0,1-1.23-.34C416.38,10.45,409.78,6.75,403.2,3c-.37-.21-.72-.46-1.23-.78C402.38,2,402.66,1.73,403,1.55Zm-.41,1.74q9.94,5.89,19.9,11.78a1.75,1.75,0,0,1,1,1.71c0,7.71.12,15.42.19,23.12,0,.35,0,.69-.08,1.22l-.59-.29L402.31,28.57a2,2,0,0,1-.55-.83c-.07-8.26-.15-16.49-.23-25C402,3,402.3,3.14,402.56,3.29Zm-1.46,26a2.14,2.14,0,0,1,1.06.32c6.66,3.81,13.33,7.56,20,11.33.32.19.63.41,1.06.69l-.29.27a5.77,5.77,0,0,1-.67.46l-16.64,9.38-3.45,1.94a3.92,3.92,0,0,1-.47.22l-.06,0a3.58,3.58,0,0,1-.43.08,2.1,2.1,0,0,1-1.11-.33c-6.65-3.81-13.33-7.56-20-11.33-.32-.18-.62-.4-1.14-.75l-.06-.05,1.35-.78q9.88-5.55,19.78-11.12A2.47,2.47,0,0,1,401.1,29.32Zm-.18-25c-.08,7.56-.18,15.12-.25,22.68a2.31,2.31,0,0,1-.29,1.29l-.06.09a1.51,1.51,0,0,1-.21.23,2.37,2.37,0,0,1-.38.29h0c-6.7,3.91-13.37,7.87-20,11.81l-.17.08-.72.35a10.27,10.27,0,0,1-.11-1.12c.08-7.71.19-15.41.25-23.12a1.81,1.81,0,0,1,1-1.77c6.74-3.93,13.46-7.91,20.19-11.87.21-.13.46-.23.82-.4C400.9,3.45,400.93,3.87,400.92,4.28ZM356.46,2l1.15-.67C364.16-2.38,370.72-6,377.25-9.76a2.34,2.34,0,0,1,1.3-.35,2.65,2.65,0,0,1,1.08.38C386.19-6,392.78-2.28,399.36,1.44c.37.21.71.47,1.16.78-.49.32-.84.56-1.21.77q-8.26,4.65-16.53,9.3l-3.38,1.9a1.11,1.11,0,0,1-.19.09c-.11.05-.22.11-.33.15l-.18,0a1.67,1.67,0,0,1-.31,0,2.4,2.4,0,0,1-1.1-.34c-6.6-3.78-13.24-7.51-19.86-11.26-.36-.2-.69-.46-1.2-.79Zm-.55.89a3.64,3.64,0,0,1,.79.28l20.28,12a1.45,1.45,0,0,1,.87,1.37c0,8,.12,16,.18,24a5.28,5.28,0,0,1-.08.61c-.45-.23-.81-.39-1.13-.58Q367,34.73,357.17,28.91a3.21,3.21,0,0,1-.75-.57.39.39,0,0,0-.08-.1,1.6,1.6,0,0,1-.29-1c0-7.85-.13-15.71-.19-23.57A6.82,6.82,0,0,1,355.91,2.86Zm-.32,26.56a2.9,2.9,0,0,1,1.21.41c6.52,3.74,13.07,7.42,19.6,11.12.37.21.73.46,1.23.78-.37.26-.61.47-.88.62L356.34,53.82A3.7,3.7,0,0,1,356,54a1.59,1.59,0,0,1-.94,0,1.73,1.73,0,0,1-.32-.14Q344.37,48,334,42.14a6.31,6.31,0,0,1-.64-.5l1.44-.83c6.51-3.66,13-7.29,19.51-11A2.58,2.58,0,0,1,355.59,29.42Zm-.44-26.67c0,.58.09,1,.08,1.38-.08,7.6-.18,15.21-.24,22.82a1.9,1.9,0,0,1-1,1.88q-10,5.84-19.92,11.74a9.39,9.39,0,0,1-1,.49c0-.52-.08-.92-.07-1.33.08-7.56.19-15.11.23-22.67a2.23,2.23,0,0,1,1.27-2.19q9.67-5.64,19.29-11.36l1.22-.7ZM311.65,1.5C318.37-2.29,325.1-6,331.82-9.85a2.58,2.58,0,0,1,.88-.33,1.62,1.62,0,0,1,.85.24q10.31,5.86,20.64,11.69a5.37,5.37,0,0,1,.66.48,7.51,7.51,0,0,1-.78.62l-.19.11c-6.6,3.71-13.21,7.4-19.78,11.15a3,3,0,0,1-1.32.43,2.87,2.87,0,0,1-1.33-.43c-6.47-3.72-13-7.37-19.49-11-.41-.24-.8-.5-1.36-.85C311,1.91,311.33,1.68,311.65,1.5Zm20.48,14.16q.12,12.61.23,25.26c-2.08-.81-18.37-10.32-21.91-12.77-.08-8.32-.16-16.72-.24-25.48ZM309.8,29.3a1.78,1.78,0,0,1,.93.27q10.15,5.79,20.37,11.53c.24.14.46.32.83.58-.44.3-.77.55-1.13.76q-10,5.63-20,11.26a2.68,2.68,0,0,1-.94.34,1.82,1.82,0,0,1-.92-.26c-6.78-3.88-13.58-7.7-20.37-11.54-.24-.14-.46-.32-.93-.64l1.22-.7q10-5.62,20-11.26A2.34,2.34,0,0,1,309.8,29.3Zm-.19-25.36c-.09,7.71-.19,15.42-.26,23.13a1.78,1.78,0,0,1-.92,1.8c-6.79,4-13.55,8-20.32,12a4.71,4.71,0,0,1-.71.31c0-.55-.06-.92-.06-1.29q.14-11.51.25-23a1.8,1.8,0,0,1,.93-1.79q10.13-5.91,20.2-11.89c.21-.12.45-.23.76-.37A11.23,11.23,0,0,1,309.61,3.94ZM266.26,1.25c6.56-3.68,13.12-7.34,19.66-11a2.58,2.58,0,0,1,1.13-.37,2.26,2.26,0,0,1,1.13.35c6.6,3.79,13.25,7.51,19.87,11.25.34.19.66.42,1.11.7a6.87,6.87,0,0,1-.78.66Q298.18,8.54,288,14.28a2.12,2.12,0,0,1-.83.31,1.43,1.43,0,0,1-.78-.22L265.46,2.53a4.62,4.62,0,0,1-.58-.48Zm-1.7,1.57a4.05,4.05,0,0,1,.82.3q10.14,6,20.29,12a1.44,1.44,0,0,1,.85,1.37q.08,12,.2,24a2.6,2.6,0,0,1-.05.39c-1.2-.44-7.79-4.17-13.55-7.59v-.07l-5.4-3.2c-1.06-.66-2-1.23-2.6-1.67a1.47,1.47,0,0,1-.36-.66c-.08-8.16-.16-16.28-.23-24.56C264.54,3.06,264.55,3,264.56,2.82Z"/></g></g><ellipse class="cls-7" cx="263.09" cy="110.76" rx="202.68" ry="153.59" transform="translate(29.55 274.9) rotate(-57.93)"/><path class="cls-8" d="M300.34,34.5c-25.67-3.61-63.64,22.41-91.55,64.92s-36.69,87.7-23.18,109.82Z"/><path class="cls-9" d="M289.25,50c-25.66-3.6-63.63,22.42-91.55,64.93S161,202.61,174.53,224.73Z"/><path class="cls-10" d="M270,54.07c-25.67-3.61-63.64,22.41-91.55,64.92s-36.69,87.7-23.18,109.81Z"/><path class="cls-11" d="M268.56,54c-25.67-3.61-63.64,22.41-91.55,64.92s-36.69,87.7-23.18,109.82Z"/><path class="cls-12" d="M269.13,60c-16.77-2.35-41.58,14.65-59.82,42.43s-24,57.3-15.14,71.75Z"/><path class="cls-13" d="M260.32,70.57C243.55,68.21,218.74,85.22,200.5,113s-24,57.31-15.14,71.76Z"/><path class="cls-14" d="M204.64,178.79c25.66,3.61,63.63-22.41,91.55-64.92s36.69-87.7,23.17-109.82Z"/><path class="cls-15" d="M215.72,163.3c25.67,3.6,63.64-22.42,91.55-64.93S344,10.68,330.45-11.44Z"/><path class="cls-16" d="M235,159.22c25.67,3.61,63.64-22.41,91.55-64.92S363.21,6.61,349.7-15.51Z"/><path class="cls-17" d="M236.41,159.27c25.67,3.61,63.64-22.41,91.55-64.92s36.7-87.7,23.18-109.81Z"/><path class="cls-18" d="M235.84,153.3c16.77,2.35,41.58-14.65,59.82-42.43s24-57.3,15.15-71.75Z"/><path class="cls-19" d="M244.65,142.72c16.77,2.36,41.58-14.64,59.82-42.42s24-57.3,15.15-71.76Z"/><g class="cls-20"><polygon class="cls-21" points="251.53 91.82 241.16 108.31 237.54 91.82 230.18 91.82 235.94 117.19 243.01 117.19 258.92 91.82 251.53 91.82"/><path class="cls-22" d="M264.92,117.27a30.3,30.3,0,0,0-4.07-1.27,19.38,19.38,0,0,1-3.27-1.09,1.58,1.58,0,0,1-1.05-1.45,2,2,0,0,1,1.22-1.78,6.92,6.92,0,0,1,3.35-.68,13.83,13.83,0,0,1,3.68.49,11.79,11.79,0,0,1,3.28,1.43l2.61-5.33a13.72,13.72,0,0,0-4.06-1.61,21.55,21.55,0,0,0-5.08-.56,17,17,0,0,0-6.45,1.12,9.52,9.52,0,0,0-4.24,3.17,7.88,7.88,0,0,0-1.48,4.77,5.41,5.41,0,0,0,1.17,3.62,7.43,7.43,0,0,0,2.81,2.05,36.42,36.42,0,0,0,4.1,1.32,19,19,0,0,1,3.21,1.09,1.57,1.57,0,0,1,1,1.41,1.83,1.83,0,0,1-1.14,1.65,7,7,0,0,1-3.21.6,15.23,15.23,0,0,1-4.35-.64,15.57,15.57,0,0,1-4.09-1.86l-2.83,5.36a15.4,15.4,0,0,0,4.6,2,23.27,23.27,0,0,0,6,.76,17,17,0,0,0,6.43-1.13,9.51,9.51,0,0,0,4.28-3.17,7.78,7.78,0,0,0,1.5-4.73,5.13,5.13,0,0,0-1.16-3.51A7.1,7.1,0,0,0,264.92,117.27Z"/></g></g></g></svg>